<?xml version="1.0" encoding="utf-8"?>
<!-- Generator: Adobe Illustrator 23.0.4, SVG Export Plug-In . SVG Version: 6.00 Build 0)  -->
<svg version="1.1" id="Layer_1" xmlns="http://www.w3.org/2000/svg" xmlns:xlink="http://www.w3.org/1999/xlink" x="0px" y="0px"
	 viewBox="0 0 3918.2 2475.3" style="enable-background:new 0 0 3918.2 2475.3;" xml:space="preserve">
<style type="text/css">
	.st0{display:none;fill:#EFF1F4;}
	.st1{display:none;fill:none;stroke:#FFFFFF;stroke-width:7.97;stroke-linecap:round;stroke-miterlimit:10;}
	.st2{display:none;fill:#59BA9B;}
	.st3{display:none;fill:#DFE2E9;}
	.st4{display:none;opacity:0.5;}
	.st5{display:inline;}
	.st6{clip-path:url(#SVGID_2_);}
	.st7{fill:none;stroke:#FFFFFF;stroke-width:4;stroke-miterlimit:10;}
	.st8{display:none;fill:url(#SVGID_3_);}
	.st9{fill:#FEBAA4;}
	.st10{fill:#FE9877;}
	.st11{fill:url(#SVGID_4_);}
	.st12{fill:#FFD4D4;}
	.st13{fill:url(#SVGID_5_);}
	.st14{fill:url(#SVGID_6_);}
	.st15{fill:none;stroke:#FE9472;stroke-miterlimit:10;}
	.st16{fill:none;stroke:#FE906C;stroke-miterlimit:10;}
	.st17{fill:none;stroke:#FE8B66;stroke-miterlimit:10;}
	.st18{fill:none;stroke:#FE8761;stroke-miterlimit:10;}
	.st19{fill:none;stroke:#FE835B;stroke-miterlimit:10;}
	.st20{fill:none;stroke:#FE7F55;stroke-miterlimit:10;}
	.st21{fill:none;stroke:#FE7A50;stroke-miterlimit:10;}
	.st22{fill:none;stroke:#FE9D7D;stroke-miterlimit:10;}
	.st23{fill:none;stroke:#FEA183;stroke-miterlimit:10;}
	.st24{fill:none;stroke:#FEA588;stroke-miterlimit:10;}
	.st25{fill:none;stroke:#FEAA8E;stroke-miterlimit:10;}
	.st26{fill:none;stroke:#FEAE94;stroke-miterlimit:10;}
	.st27{fill:none;stroke:#FEB299;stroke-miterlimit:10;}
	.st28{fill:none;stroke:#FEB69F;stroke-miterlimit:10;}
	.st29{fill:none;stroke:#FFD4D4;stroke-width:1.48;stroke-linecap:round;stroke-linejoin:round;}
	.st30{fill:none;stroke:#FE5455;stroke-width:1.46;stroke-linecap:round;stroke-linejoin:round;}
	.st31{fill:url(#SVGID_7_);}
	.st32{fill:url(#SVGID_8_);}
	.st33{fill:url(#SVGID_9_);}
	.st34{fill:#FE9270;}
	.st35{fill:#FE8D69;}
	.st36{fill:#FE8761;}
	.st37{fill:#FE8159;}
	.st38{fill:#FE7C52;}
	.st39{fill:#FE764A;}
	.st40{fill:url(#SVGID_10_);}
	.st41{fill:url(#SVGID_11_);}
	.st42{fill:url(#SVGID_12_);}
	.st43{fill:none;stroke:#F6CCCC;stroke-width:1.48;stroke-linecap:round;stroke-linejoin:round;}
	.st44{fill:url(#SVGID_13_);}
	.st45{fill:#F6CCCC;}
	.st46{fill:#FEB59D;}
	.st47{fill:#FEAF95;}
	.st48{fill:#FEAA8E;}
	.st49{fill:#FEA486;}
	.st50{fill:#FE9E7F;}
	.st51{fill:url(#SVGID_14_);}
	.st52{fill:url(#SVGID_15_);}
	.st53{fill:url(#SVGID_16_);}
	.st54{fill:url(#SVGID_17_);}
	.st55{fill:#FEB49C;}
	.st56{fill:#FEAD92;}
	.st57{fill:#FEA689;}
	.st58{fill:#FE9F81;}
	.st59{fill:url(#SVGID_18_);}
	.st60{fill:url(#SVGID_19_);}
	.st61{fill:url(#SVGID_20_);}
	.st62{fill:url(#SVGID_21_);}
	.st63{fill:#FEA9AA;}
	.st64{fill:#FE5455;}
	.st65{fill:url(#SVGID_22_);}
	.st66{fill:url(#SVGID_23_);}
	.st67{fill:none;stroke:#FFDDD2;stroke-width:1.48;stroke-linecap:round;stroke-linejoin:round;}
	.st68{fill:none;stroke:#FE764A;stroke-width:1.46;stroke-linecap:round;stroke-linejoin:round;}
	.st69{fill:url(#SVGID_24_);}
	.st70{fill:url(#SVGID_25_);}
	.st71{fill:#FFDDD2;}
	.st72{fill:url(#SVGID_26_);}
	.st73{fill:url(#SVGID_27_);}
	.st74{fill:url(#SVGID_28_);}
	.st75{fill:url(#SVGID_29_);}
	.st76{fill:url(#SVGID_30_);}
	.st77{display:none;opacity:0.15;fill:url(#SVGID_31_);enable-background:new    ;}
</style>
<title>DDS_ampx_secuencia_svg_02 [Recovered]</title>
<g id="elements">
	<path class="st0" d="M1959.4,1816L1959.4,1816l-103.9-60l0,0L1128,1336l-470.4,271.6l427.8,247l574,331.4
		c45.8,26.4,94.9,46.7,145.9,60.3c6.3,1.7,12.6,3.2,19,4.7s12.7,2.8,19.1,4.1s12.8,2.4,19.2,3.4c9.6,1.6,19.3,2.9,28.9,4
		c12.9,1.5,25.8,2.5,38.7,3.1c19.3,0.9,38.6,0.9,57.9,0c3.3-0.2,6.7-0.3,10.1-0.6c9.7-0.6,19.4-1.5,29-2.6s19.3-2.4,28.9-4
		c6.4-1,12.8-2.2,19.2-3.4c6.4-1.3,12.7-2.6,19.1-4.1c6.4-1.5,12.7-3,19-4.7c51.1-13.6,100.2-33.8,146-60.3l170.4-98.4L1959.4,1816z
		"/>
	<line class="st1" x1="1921.1" y1="2203.9" x2="1921.1" y2="2168"/>
	<path class="st2" d="M1898.1,2181.2c-0.4,0.6-0.5,1.3-0.4,2.1c1.2,5.9,11.2,10.6,23.4,10.6s22.2-4.6,23.4-10.6
		c0.1-0.7,0-1.4-0.4-2.1l-20.2-35.9c-0.9-1.5-2.8-2.1-4.3-1.2c-0.5,0.3-0.9,0.7-1.2,1.2L1898.1,2181.2z"/>
	<path class="st3" d="M1972.1,1892l-41.9,24.2c-8.6,5-11.6,16-6.6,24.6c1.6,2.7,3.9,5,6.6,6.6l75.9,43.8c8.6,5,11.6,16,6.6,24.6
		c-1.6,2.7-3.9,5-6.6,6.6l-49.9,28.8c-8.6,5-11.6,16-6.6,24.6c1.6,2.7,3.9,5,6.6,6.6l171.9,99.2c5.6,3.2,12.4,3.2,18,0l145.9-84.2
		c8.6-5,11.6-16,6.6-24.6c-1.6-2.7-3.9-5-6.6-6.6L1990.1,1892C1984.5,1888.8,1977.6,1888.8,1972.1,1892z"/>
	<g class="st4">
		<g class="st5">
			<g>
				<g>
					<defs>
						<path id="SVGID_1_" d="M1972.1,1892l-41.9,24.2c-8.6,5-11.6,16-6.6,24.6c1.6,2.7,3.9,5,6.6,6.6l75.9,43.8
							c8.6,5,11.6,16,6.6,24.6c-1.6,2.7-3.9,5-6.6,6.6l-49.9,28.8c-8.6,5-11.6,16-6.6,24.6c1.6,2.7,3.9,5,6.6,6.6l171.9,99.2
							c5.6,3.2,12.4,3.2,18,0l145.9-84.2c8.6-5,11.6-16,6.6-24.6c-1.6-2.7-3.9-5-6.6-6.6L1990.1,1892
							C1984.5,1888.8,1977.6,1888.8,1972.1,1892z"/>
					</defs>
					<clipPath id="SVGID_2_">
						<use xlink:href="#SVGID_1_"  style="overflow:visible;"/>
					</clipPath>
					<g class="st6">
						<line class="st7" x1="1743" y1="2021" x2="2119.8" y2="2238.5"/>
						<line class="st7" x1="1766.6" y1="2006.8" x2="2143.3" y2="2224.3"/>
						<line class="st7" x1="1790.1" y1="1992.7" x2="2166.8" y2="2210.2"/>
						<line class="st7" x1="1813.6" y1="1978.5" x2="2190.3" y2="2196"/>
						<line class="st7" x1="1837.1" y1="1964.3" x2="2213.8" y2="2181.8"/>
						<line class="st7" x1="1860.6" y1="1950.2" x2="2237.4" y2="2167.7"/>
						<line class="st7" x1="1884.2" y1="1936" x2="2260.9" y2="2153.5"/>
						<line class="st7" x1="1907.7" y1="1921.8" x2="2284.4" y2="2139.3"/>
						<line class="st7" x1="1931.2" y1="1907.7" x2="2307.9" y2="2125.2"/>
						<line class="st7" x1="1954.7" y1="1893.5" x2="2331.4" y2="2111"/>
						<line class="st7" x1="1978.2" y1="1879.3" x2="2354.9" y2="2096.8"/>
						<line class="st7" x1="2001.7" y1="1865.2" x2="2378.5" y2="2082.7"/>
						<line class="st7" x1="2025.3" y1="1851" x2="2402" y2="2068.5"/>
					</g>
				</g>
			</g>
		</g>
	</g>
	
		<linearGradient id="SVGID_3_" gradientUnits="userSpaceOnUse" x1="1871.3093" y1="1845.8562" x2="1890.9723" y2="1845.8562" gradientTransform="matrix(1 0 0 -1 0 3872)">
		<stop  offset="0" style="stop-color:#BFC6D4"/>
		<stop  offset="1" style="stop-color:#CFD4DF"/>
	</linearGradient>
	<path class="st8" d="M1890.6,2027.5c0.6,1,0.5,2.3-0.3,3.1c-1.6,1.7-5.1,2.9-9.1,2.9c-4.4,0-8.1-1.4-9.5-3.4
		c-0.5-0.7-0.6-1.6-0.3-2.3l2.7-7.3c0.5-1.3,1.9-2,3.2-1.6l8.7,2.4c0.6,0.2,1.2,0.6,1.5,1.2L1890.6,2027.5z"/>
	<path class="st3" d="M1117.9,1410.8l-225.1,130c-8.3,4.8-11.1,15.4-6.3,23.7c1.5,2.6,3.7,4.8,6.3,6.3l52,30
		c8.3,4.8,11.1,15.4,6.3,23.7c-1.5,2.6-3.7,4.8-6.3,6.3l-26,15c-8.3,4.8-11.1,15.4-6.3,23.7c1.5,2.6,3.7,4.8,6.3,6.3l433,250
		c5.4,3.1,12,3.1,17.3,0l86.6-50c5.4-3.1,12-3.1,17.3,0l268.5,155c5.4,3.1,12,3.1,17.3,0l69.3-40c8.3-4.8,11.1-15.4,6.3-23.7
		c-1.5-2.6-3.7-4.8-6.3-6.3l-52-30c-8.3-4.8-11.1-15.4-6.3-23.7c1.5-2.6,3.7-4.8,6.3-6.3l26-15c8.3-4.8,11.1-15.4,6.3-23.7
		c-1.5-2.6-3.7-4.8-6.3-6.3l-389.7-225c-8.3-4.8-11.1-15.4-6.3-23.7c1.5-2.6,3.7-4.8,6.3-6.3l0,0c8.3-4.8,11.1-15.4,6.3-23.7
		c-1.5-2.6-3.7-4.8-6.3-6.3l-277.2-160C1129.9,1407.7,1123.3,1407.7,1117.9,1410.8z"/>
	<line class="st1" x1="1753.7" y1="1973.7" x2="1753.7" y2="1937.8"/>
	<circle class="st2" cx="1753.7" cy="1935.1" r="23.5"/>
	<polygon class="st9" points="1583.2,1513.9 1514.6,1553.4 1629.5,1620 1698.6,1580.3 	"/>
	<polygon class="st10" points="1528.6,1553.4 1583.2,1522 1684.6,1580.3 1629.5,1611.9 	"/>
	
		<linearGradient id="SVGID_4_" gradientUnits="userSpaceOnUse" x1="1558.7" y1="2325.6001" x2="1663.8" y2="2325.6001" gradientTransform="matrix(1 0 0 -1 0 3872)">
		<stop  offset="0" style="stop-color:#FE5455"/>
		<stop  offset="1" style="stop-color:#FE7F80"/>
	</linearGradient>
	<polygon class="st11" points="1663.8,1539.6 1625.5,1591.9 1558.7,1553.3 1597,1500.9 	"/>
	<ellipse class="st12" cx="1628.5" cy="1544.4" rx="3.1" ry="2.8"/>
	<ellipse class="st12" cx="1606.3" cy="1531.6" rx="3.1" ry="2.8"/>
	<ellipse class="st12" cx="1615.7" cy="1561.9" rx="3.1" ry="2.8"/>
	<ellipse class="st12" cx="1593.6" cy="1548.6" rx="3.1" ry="2.8"/>
	
		<linearGradient id="SVGID_5_" gradientUnits="userSpaceOnUse" x1="1664.05" y1="1945.6" x2="1664.05" y2="2291.7" gradientTransform="matrix(1 0 0 -1 0 3872)">
		<stop  offset="0" style="stop-color:#FEBAA4"/>
		<stop  offset="1" style="stop-color:#FFDDD2"/>
	</linearGradient>
	<polygon class="st13" points="1629.5,1620 1629.5,1926.4 1698.6,1886.4 1698.6,1580.3 	"/>
	
		<linearGradient id="SVGID_6_" gradientUnits="userSpaceOnUse" x1="1572.05" y1="1945.6" x2="1572.05" y2="2318.6001" gradientTransform="matrix(1 0 0 -1 0 3872)">
		<stop  offset="0" style="stop-color:#FE9877"/>
		<stop  offset="1" style="stop-color:#FEBAA4"/>
	</linearGradient>
	<polygon class="st14" points="1629.5,1620 1514.6,1553.4 1514.6,1860 1629.5,1926.4 	"/>
	<line class="st15" x1="1514.6" y1="1591.7" x2="1629.5" y2="1658.3"/>
	<line class="st16" x1="1514.6" y1="1630" x2="1629.5" y2="1696.6"/>
	<line class="st17" x1="1514.6" y1="1668.3" x2="1629.5" y2="1734.9"/>
	<line class="st18" x1="1514.6" y1="1706.7" x2="1629.5" y2="1773.2"/>
	<line class="st19" x1="1514.6" y1="1745" x2="1629.5" y2="1811.5"/>
	<line class="st20" x1="1514.6" y1="1783.3" x2="1629.5" y2="1849.8"/>
	<line class="st21" x1="1514.6" y1="1821.7" x2="1629.5" y2="1888.1"/>
	<line class="st22" x1="1698.6" y1="1848.1" x2="1629.5" y2="1888.1"/>
	<line class="st23" x1="1698.6" y1="1809.9" x2="1629.5" y2="1849.8"/>
	<line class="st24" x1="1698.6" y1="1771.6" x2="1629.5" y2="1811.5"/>
	<line class="st25" x1="1698.6" y1="1733.3" x2="1629.5" y2="1773.2"/>
	<line class="st26" x1="1698.6" y1="1695.1" x2="1629.5" y2="1734.9"/>
	<line class="st27" x1="1698.6" y1="1656.8" x2="1629.5" y2="1696.6"/>
	<line class="st28" x1="1698.6" y1="1618.6" x2="1629.5" y2="1658.3"/>
	<line class="st29" x1="1597" y1="1500.9" x2="1663.8" y2="1539.6"/>
	<line class="st29" x1="1584.3" y1="1518.3" x2="1651" y2="1557"/>
	<line class="st29" x1="1571.5" y1="1535.8" x2="1638.3" y2="1574.5"/>
	<line class="st29" x1="1558.7" y1="1553.3" x2="1625.5" y2="1591.9"/>
	<line class="st30" x1="1650.9" y1="1557.2" x2="1650.9" y2="1577.1"/>
	<line class="st29" x1="1663.8" y1="1539.6" x2="1625.5" y2="1591.9"/>
	<line class="st29" x1="1641.6" y1="1526.7" x2="1603.2" y2="1579.1"/>
	<line class="st29" x1="1619.3" y1="1513.8" x2="1581" y2="1566.2"/>
	<line class="st29" x1="1597" y1="1500.9" x2="1558.7" y2="1553.3"/>
	<polygon class="st9" points="1127.2,1292.1 1026.1,1350.5 1122.2,1406 1148.8,1390.6 1212.9,1427.6 1287.6,1384.7 	"/>
	<polygon class="st10" points="1148.8,1382.4 1122.2,1397.8 1040.4,1350.5 1127.2,1300.4 1273.3,1384.7 1212.9,1419.4 	"/>
	
		<linearGradient id="SVGID_7_" gradientUnits="userSpaceOnUse" x1="1074.15" y1="2207.2998" x2="1074.15" y2="2521.5" gradientTransform="matrix(1 0 0 -1 0 3872)">
		<stop  offset="0" style="stop-color:#FE9877"/>
		<stop  offset="1" style="stop-color:#FEBAA4"/>
	</linearGradient>
	<path class="st31" d="M1026.1,1350.5v258.8l96.1,55.4V1406C1090.1,1387.5,1058.1,1369,1026.1,1350.5z"/>
	
		<linearGradient id="SVGID_8_" gradientUnits="userSpaceOnUse" x1="1135.5499" y1="2207.2" x2="1135.5499" y2="2481.3999" gradientTransform="matrix(1 0 0 -1 0 3872)">
		<stop  offset="0" style="stop-color:#FEBAA4"/>
		<stop  offset="1" style="stop-color:#FFDDD2"/>
	</linearGradient>
	<path class="st32" d="M1122.2,1664.8l26.7-15.4v-258.8l-26.7,15.4V1664.8z"/>
	
		<linearGradient id="SVGID_9_" gradientUnits="userSpaceOnUse" x1="1181.0499" y1="2185.3999" x2="1181.0499" y2="2481.3999" gradientTransform="matrix(1 0 0 -1 0 3872)">
		<stop  offset="0" style="stop-color:#FE9877"/>
		<stop  offset="1" style="stop-color:#FEBAA4"/>
	</linearGradient>
	<path class="st33" d="M1213.2,1686.6l-64.3-37.2v-258.8l64,37L1213.2,1686.6z"/>
	<polygon class="st10" points="1111.1,1412.9 1111.1,1431.2 1036.1,1388.1 1036.1,1369.7 	"/>
	<polygon class="st34" points="1111.1,1448.5 1111.1,1466.8 1036.1,1423.7 1036.1,1405.4 	"/>
	<polygon class="st35" points="1111.1,1484.2 1111.1,1502.4 1036.1,1459.3 1036.1,1441 	"/>
	<polygon class="st36" points="1111.1,1519.8 1111.1,1538.1 1036.1,1495 1036.1,1476.7 	"/>
	<polygon class="st37" points="1111.1,1555.4 1111.1,1573.7 1036.1,1530.6 1036.1,1512.3 	"/>
	<polygon class="st38" points="1111.1,1591.1 1111.1,1609.3 1036.1,1566.2 1036.1,1547.9 	"/>
	<polygon class="st39" points="1111.1,1626.7 1111.1,1645 1036.1,1601.9 1036.1,1583.6 	"/>
	
		<linearGradient id="SVGID_10_" gradientUnits="userSpaceOnUse" x1="1227.0499" y1="2158.5" x2="1227.0499" y2="2487.6001" gradientTransform="matrix(1 0 0 -1 0 3872)">
		<stop  offset="0" style="stop-color:#FEBAA4"/>
		<stop  offset="1" style="stop-color:#FFDDD2"/>
	</linearGradient>
	<path class="st40" d="M1287.6,1384.4l-74.8,43.2l0.2,217.4l-46.5,27v41.5c15.5-9,31.1-17.9,46.6-26.9l0,0
		c24.8-14.4,49.6-28.8,74.4-43.2v-259H1287.6z"/>
	<path class="st9" d="M1148.7,1607.8l-46.5,26.8l64.5,37.2l46.5-27L1148.7,1607.8z"/>
	<polygon class="st10" points="1116.4,1634.7 1148.7,1616.1 1198.9,1645 1166.7,1663.7 	"/>
	
		<linearGradient id="SVGID_11_" gradientUnits="userSpaceOnUse" x1="1134.4" y1="2158.5" x2="1134.4" y2="2237.3" gradientTransform="matrix(1 0 0 -1 0 3872)">
		<stop  offset="0" style="stop-color:#FE9877"/>
		<stop  offset="1" style="stop-color:#FEBAA4"/>
	</linearGradient>
	<polygon class="st41" points="1102.1,1634.7 1166.7,1671.9 1166.7,1713.5 1102.1,1676.2 	"/>
	<polygon class="st39" points="1125.2,1689.6 1125.2,1666.6 1143.6,1677.2 1143.6,1700.1 	"/>
	<path class="st9" d="M1124,1355.4l-21.9-12.6l-21.8,12.6l21.8,12.6L1124,1355.4z"/>
	<line class="st30" x1="1179.5" y1="1326.9" x2="1179.5" y2="1345.1"/>
	<line class="st30" x1="1248.6" y1="1368.6" x2="1248.6" y2="1386.8"/>
	
		<linearGradient id="SVGID_12_" gradientUnits="userSpaceOnUse" x1="1095.1" y1="2555" x2="1191.3" y2="2555" gradientTransform="matrix(1 0 0 -1 0 3872)">
		<stop  offset="0" style="stop-color:#FE5455"/>
		<stop  offset="1" style="stop-color:#FE7F80"/>
	</linearGradient>
	<polygon class="st42" points="1191.3,1310.7 1156.2,1358.7 1095.1,1323.3 1130.2,1275.3 	"/>
	<line class="st43" x1="1191.3" y1="1310.7" x2="1156.2" y2="1358.7"/>
	<line class="st43" x1="1170.9" y1="1298.9" x2="1135.8" y2="1346.9"/>
	<line class="st43" x1="1150.6" y1="1287.1" x2="1115.4" y2="1335.1"/>
	<line class="st43" x1="1130.2" y1="1275.3" x2="1095.1" y2="1323.3"/>
	<line class="st43" x1="1130.2" y1="1275.3" x2="1191.3" y2="1310.7"/>
	<line class="st43" x1="1118.5" y1="1291.3" x2="1179.6" y2="1326.7"/>
	<line class="st43" x1="1106.8" y1="1307.3" x2="1167.9" y2="1342.7"/>
	<line class="st43" x1="1095.1" y1="1323.3" x2="1156.2" y2="1358.7"/>
	
		<linearGradient id="SVGID_13_" gradientUnits="userSpaceOnUse" x1="1164.2" y1="2513.3" x2="1260.5" y2="2513.3" gradientTransform="matrix(1 0 0 -1 0 3872)">
		<stop  offset="0" style="stop-color:#FE5455"/>
		<stop  offset="1" style="stop-color:#FE7F80"/>
	</linearGradient>
	<polygon class="st44" points="1260.5,1352.4 1225.4,1400.4 1164.2,1365 1199.3,1317 	"/>
	<line class="st43" x1="1260.5" y1="1352.4" x2="1225.4" y2="1400.4"/>
	<line class="st43" x1="1240.1" y1="1340.6" x2="1205" y2="1388.6"/>
	<line class="st43" x1="1219.7" y1="1328.8" x2="1184.6" y2="1376.8"/>
	<line class="st43" x1="1199.3" y1="1317" x2="1164.2" y2="1365"/>
	<line class="st43" x1="1199.3" y1="1317" x2="1260.5" y2="1352.4"/>
	<line class="st43" x1="1187.6" y1="1333" x2="1248.8" y2="1368.4"/>
	<line class="st43" x1="1175.9" y1="1349" x2="1237.1" y2="1384.4"/>
	<line class="st43" x1="1164.2" y1="1365" x2="1225.4" y2="1400.4"/>
	<ellipse class="st45" cx="1228.1" cy="1356.8" rx="2.9" ry="2.6"/>
	<ellipse class="st45" cx="1207.8" cy="1345.1" rx="2.9" ry="2.6"/>
	<ellipse class="st45" cx="1216.4" cy="1372.9" rx="2.9" ry="2.6"/>
	<ellipse class="st45" cx="1196.2" cy="1360.7" rx="2.9" ry="2.6"/>
	<ellipse class="st45" cx="1159.2" cy="1315.1" rx="2.9" ry="2.6"/>
	<ellipse class="st45" cx="1138.8" cy="1303.4" rx="2.9" ry="2.6"/>
	<ellipse class="st45" cx="1147.4" cy="1331.2" rx="2.9" ry="2.6"/>
	<ellipse class="st45" cx="1127.2" cy="1318.9" rx="2.9" ry="2.6"/>
	<polygon class="st9" points="1280.5,1419.4 1280.5,1401.8 1225.2,1433.7 1225.2,1451.2 	"/>
	<polygon class="st46" points="1280.5,1455.2 1280.5,1437.6 1225.2,1469.5 1225.2,1487 	"/>
	<polygon class="st47" points="1280.5,1491 1280.5,1473.3 1225.2,1505.3 1225.2,1522.8 	"/>
	<polygon class="st48" points="1280.5,1526.8 1280.5,1509.1 1225.2,1541.1 1225.2,1558.6 	"/>
	<polygon class="st49" points="1280.5,1562.6 1280.5,1544.9 1225.2,1576.8 1225.2,1594.4 	"/>
	<polygon class="st50" points="1280.5,1598.4 1280.5,1580.7 1225.2,1612.6 1225.2,1630.2 	"/>
	<polygon class="st10" points="1280.5,1634.2 1280.5,1616.5 1225.2,1648.4 1225.2,1666 	"/>
	<polygon class="st9" points="1396.3,1452.8 1496.3,1510.5 1401.6,1565.2 1375.3,1550 1312.3,1586.4 1238.7,1543.9 	"/>
	<polygon class="st10" points="1252.7,1543.9 1396.3,1460.9 1482.2,1510.5 1401.6,1557.1 1375.3,1541.9 1312.3,1578.3 	"/>
	
		<linearGradient id="SVGID_14_" gradientUnits="userSpaceOnUse" x1="1275.55" y1="2030.6" x2="1275.55" y2="2328.1001" gradientTransform="matrix(1 0 0 -1 0 3872)">
		<stop  offset="0" style="stop-color:#FE9877"/>
		<stop  offset="1" style="stop-color:#FEBAA4"/>
	</linearGradient>
	<path class="st51" d="M1238.7,1543.9v254.9l73.3,42.6c0-2.2,0.3-251,0.4-255L1238.7,1543.9z"/>
	
		<linearGradient id="SVGID_15_" gradientUnits="userSpaceOnUse" x1="1448.9" y1="2052.1001" x2="1448.9" y2="2361.5" gradientTransform="matrix(1 0 0 -1 0 3872)">
		<stop  offset="0" style="stop-color:#FEBAA4"/>
		<stop  offset="1" style="stop-color:#FFDDD2"/>
	</linearGradient>
	<path class="st52" d="M1496.2,1510.5v254.8c-31.5,18.2-63.1,36.4-94.6,54.6c0-84.9,0-169.9,0-254.8L1496.2,1510.5z"/>
	
		<linearGradient id="SVGID_16_" gradientUnits="userSpaceOnUse" x1="1388.45" y1="2052" x2="1388.45" y2="2322" gradientTransform="matrix(1 0 0 -1 0 3872)">
		<stop  offset="0" style="stop-color:#FE9877"/>
		<stop  offset="1" style="stop-color:#FEBAA4"/>
	</linearGradient>
	<path class="st53" d="M1401.6,1820l-26.3-15.2V1550l26.3,15.2C1401.6,1650.1,1401.6,1735,1401.6,1820z"/>
	
		<linearGradient id="SVGID_17_" gradientUnits="userSpaceOnUse" x1="1343.6001" y1="2030.6" x2="1343.6001" y2="2322" gradientTransform="matrix(1 0 0 -1 0 3872)">
		<stop  offset="0" style="stop-color:#FEBAA4"/>
		<stop  offset="1" style="stop-color:#FFDDD2"/>
	</linearGradient>
	<path class="st54" d="M1312.3,1586.4l-0.4,255l63.4-36.6V1550L1312.3,1586.4z"/>
	<path class="st9" d="M1477.1,1534.7v24.4l-17.6,10.2c0-1.4,0-17.6,0-24.4C1464.1,1542.2,1475.9,1535.4,1477.1,1534.7z"/>
	<path class="st55" d="M1477.1,1575.2v24.4l-17.6,10.2c0-1.4,0-17.6,0-24.4C1464.1,1582.7,1475.9,1575.9,1477.1,1575.2z"/>
	<path class="st56" d="M1477.1,1615.8v24.4l-17.6,10.2c0-1.4,0-17.6,0-24.4C1464.1,1623.2,1475.9,1616.4,1477.1,1615.8z"/>
	<path class="st57" d="M1477.1,1656.3v24.4l-17.6,10.2c0-1.4,0-17.6,0-24.4C1464.1,1663.7,1475.9,1656.9,1477.1,1656.3z"/>
	<path class="st58" d="M1477.1,1696.8v24.4l-17.6,10.2c0-1.4,0-17.6,0-24.4C1464.1,1704.2,1475.9,1697.4,1477.1,1696.8z"/>
	<path class="st10" d="M1477.1,1737.3v24.4l-17.6,10.2c0-1.4,0-17.6,0-24.4C1464.1,1744.7,1475.9,1738,1477.1,1737.3z"/>
	<path class="st9" d="M1424.4,1565.2c4.7-2.7,16.4-9.5,17.6-10.2v24.4l-17.6,10.2C1424.4,1588.2,1424.4,1572,1424.4,1565.2z"/>
	<path class="st55" d="M1442,1595.5v24.4l-17.6,10.2c0-1.3,0-17.6,0-24.4C1429.1,1603,1440.9,1596.2,1442,1595.5z"/>
	<path class="st56" d="M1442,1636.1v24.4l-17.6,10.2c0-1.3,0-17.6,0-24.4C1429.1,1643.5,1440.9,1636.7,1442,1636.1z"/>
	<path class="st57" d="M1442,1676.6v24.4l-17.6,10.2c0-1.3,0-17.6,0-24.4L1442,1676.6z"/>
	<path class="st58" d="M1442,1717.1v24.4l-17.6,10.2c0-1.3,0-17.6,0-24.4L1442,1717.1z"/>
	<path class="st10" d="M1442,1757.6v24.4l-17.6,10.2c0-1.3,0-17.6,0-24.4L1442,1757.6z"/>
	<path class="st9" d="M1455,1509.9l-21.4-12.4l-21.4,12.4l21.4,12.4L1455,1509.9z"/>
	<line class="st30" x1="1341.3" y1="1480.4" x2="1341.3" y2="1498.8"/>
	<line class="st30" x1="1271" y1="1522.7" x2="1271" y2="1541.1"/>
	
		<linearGradient id="SVGID_18_" gradientUnits="userSpaceOnUse" x1="1329.2" y1="2401.7" x2="1427" y2="2401.7" gradientTransform="matrix(1 0 0 -1 0 3872)">
		<stop  offset="0" style="stop-color:#FE5455"/>
		<stop  offset="1" style="stop-color:#FE7F80"/>
	</linearGradient>
	<polygon class="st59" points="1329.2,1463.9 1364.9,1512.6 1427,1476.7 1391.3,1428 	"/>
	<line class="st43" x1="1329.2" y1="1463.9" x2="1364.9" y2="1512.6"/>
	<line class="st43" x1="1349.9" y1="1451.9" x2="1385.6" y2="1500.6"/>
	<line class="st43" x1="1370.6" y1="1439.9" x2="1406.3" y2="1488.7"/>
	<line class="st43" x1="1391.3" y1="1428" x2="1427" y2="1476.7"/>
	<line class="st43" x1="1391.3" y1="1428" x2="1329.2" y2="1463.9"/>
	<line class="st43" x1="1403.2" y1="1444.2" x2="1341.1" y2="1480.2"/>
	<line class="st43" x1="1415.1" y1="1460.4" x2="1353" y2="1496.4"/>
	<line class="st43" x1="1427" y1="1476.7" x2="1364.9" y2="1512.6"/>
	
		<linearGradient id="SVGID_19_" gradientUnits="userSpaceOnUse" x1="1259" y1="2359.3501" x2="1356.7" y2="2359.3501" gradientTransform="matrix(1 0 0 -1 0 3872)">
		<stop  offset="0" style="stop-color:#FE5455"/>
		<stop  offset="1" style="stop-color:#FE7F80"/>
	</linearGradient>
	<polygon class="st60" points="1259,1506.3 1294.7,1555 1356.7,1519 1321.1,1470.3 	"/>
	<line class="st43" x1="1259" y1="1506.3" x2="1294.7" y2="1555"/>
	<line class="st43" x1="1279.7" y1="1494.3" x2="1315.3" y2="1543"/>
	<line class="st43" x1="1300.4" y1="1482.3" x2="1336" y2="1531"/>
	<line class="st43" x1="1321.1" y1="1470.3" x2="1356.7" y2="1519"/>
	<line class="st43" x1="1321.1" y1="1470.3" x2="1259" y2="1506.3"/>
	<line class="st43" x1="1333" y1="1486.5" x2="1270.9" y2="1522.5"/>
	<line class="st43" x1="1344.9" y1="1502.8" x2="1282.8" y2="1538.7"/>
	<line class="st43" x1="1356.7" y1="1519" x2="1294.7" y2="1555"/>
	<ellipse class="st45" cx="1291.8" cy="1510.7" rx="2.9" ry="2.7"/>
	<ellipse class="st45" cx="1312.5" cy="1498.9" rx="2.9" ry="2.7"/>
	<ellipse class="st45" cx="1303.8" cy="1527.1" rx="2.9" ry="2.7"/>
	<ellipse class="st45" cx="1324.3" cy="1514.7" rx="2.9" ry="2.7"/>
	<ellipse class="st45" cx="1361.9" cy="1468.3" rx="2.9" ry="2.7"/>
	<ellipse class="st45" cx="1382.5" cy="1456.4" rx="2.9" ry="2.7"/>
	<ellipse class="st45" cx="1373.8" cy="1484.7" rx="2.9" ry="2.7"/>
	<ellipse class="st45" cx="1394.3" cy="1472.2" rx="2.9" ry="2.7"/>
	
		<linearGradient id="SVGID_20_" gradientUnits="userSpaceOnUse" x1="1881.2001" y1="2027.54" x2="1881.2001" y2="2056.8701" gradientTransform="matrix(1 0 0 -1 0 3872)">
		<stop  offset="0" style="stop-color:#FE7F80"/>
		<stop  offset="1" style="stop-color:#FE5455"/>
	</linearGradient>
	<path class="st61" d="M1903.4,1833.4c0,6.1-9.9,11.1-22.2,11.1s-22.2-5-22.2-11.1v-18.3h44.3L1903.4,1833.4L1903.4,1833.4z"/>
	
		<linearGradient id="SVGID_21_" gradientUnits="userSpaceOnUse" x1="1881.2001" y1="1992.9" x2="1881.2001" y2="2038.6" gradientTransform="matrix(1 0 0 -1 0 3872)">
		<stop  offset="0" style="stop-color:#FE7F80"/>
		<stop  offset="1" style="stop-color:#FEA9AA"/>
	</linearGradient>
	<path class="st62" d="M1903.4,1868c0,6.1-9.9,11.1-22.2,11.1s-22.2-5-22.2-11.1v-34.6c0,6.1,9.9,11.1,22.2,11.1s22.2-5,22.2-11.1
		V1868z"/>
	<polygon class="st12" points="1878.5,1849.3 1880,1860 1875.7,1860 1883.1,1873 1882.4,1862.3 1886.7,1862.3 	"/>
	<path class="st63" d="M1881.2,1824.7c-11.2,0-20.6-4.4-20.6-9.6s9.4-9.6,20.6-9.6s20.6,4.4,20.6,9.6S1892.4,1824.7,1881.2,1824.7z"
		/>
	<path class="st64" d="M1881.2,1807.1c10.9,0,19.1,4.2,19.1,8s-8.2,8-19.1,8s-19.1-4.2-19.1-8S1870.3,1807.1,1881.2,1807.1
		 M1881.2,1804.1c-12.2,0-22.2,5-22.2,11.1s9.9,11.1,22.2,11.1s22.2-5,22.2-11.1S1893.5,1804.1,1881.2,1804.1z"/>
	
		<linearGradient id="SVGID_22_" gradientUnits="userSpaceOnUse" x1="1881.2009" y1="2052.8" x2="1881.2009" y2="2063.5801" gradientTransform="matrix(1 0 0 -1 0 3872)">
		<stop  offset="0" style="stop-color:#FE5455"/>
		<stop  offset="1" style="stop-color:#FE7F80"/>
	</linearGradient>
	<path class="st65" d="M1881.2,1808.4c-4.5,0-8.1,1.8-8.1,4.1v2.6c0,2.2,3.6,4.1,8.1,4.1s8.1-1.8,8.1-4.1v-2.6
		C1889.4,1810.2,1885.7,1808.4,1881.2,1808.4z"/>
	
		<linearGradient id="SVGID_23_" gradientUnits="userSpaceOnUse" x1="1558.7" y1="2325.6001" x2="1663.8" y2="2325.6001" gradientTransform="matrix(1 0 0 -1 0 3872)">
		<stop  offset="0" style="stop-color:#FE764A"/>
		<stop  offset="1" style="stop-color:#FE9877"/>
	</linearGradient>
	<polygon class="st66" points="1663.8,1539.6 1625.5,1591.9 1558.7,1553.3 1597,1500.9 	"/>
	<ellipse class="st12" cx="1628.5" cy="1544.4" rx="3.1" ry="2.8"/>
	<ellipse class="st12" cx="1606.3" cy="1531.6" rx="3.1" ry="2.8"/>
	<ellipse class="st12" cx="1615.7" cy="1561.9" rx="3.1" ry="2.8"/>
	<ellipse class="st12" cx="1593.6" cy="1548.6" rx="3.1" ry="2.8"/>
	<line class="st67" x1="1597" y1="1500.9" x2="1663.8" y2="1539.6"/>
	<line class="st67" x1="1584.3" y1="1518.3" x2="1651" y2="1557"/>
	<line class="st67" x1="1571.5" y1="1535.8" x2="1638.3" y2="1574.5"/>
	<line class="st67" x1="1558.7" y1="1553.3" x2="1625.5" y2="1591.9"/>
	<line class="st68" x1="1650.9" y1="1557.2" x2="1650.9" y2="1577.1"/>
	<line class="st67" x1="1663.8" y1="1539.6" x2="1625.5" y2="1591.9"/>
	<line class="st67" x1="1641.6" y1="1526.7" x2="1603.2" y2="1579.1"/>
	<line class="st67" x1="1619.3" y1="1513.8" x2="1581" y2="1566.2"/>
	<line class="st67" x1="1597" y1="1500.9" x2="1558.7" y2="1553.3"/>
	<line class="st68" x1="1179.5" y1="1326.9" x2="1179.5" y2="1345.1"/>
	<line class="st68" x1="1248.6" y1="1368.6" x2="1248.6" y2="1386.8"/>
	
		<linearGradient id="SVGID_24_" gradientUnits="userSpaceOnUse" x1="1095.1" y1="2555" x2="1191.3" y2="2555" gradientTransform="matrix(1 0 0 -1 0 3872)">
		<stop  offset="0" style="stop-color:#FE764A"/>
		<stop  offset="1" style="stop-color:#FE9877"/>
	</linearGradient>
	<polygon class="st69" points="1191.3,1310.7 1156.2,1358.7 1095.1,1323.3 1130.2,1275.3 	"/>
	<line class="st67" x1="1191.3" y1="1310.7" x2="1156.2" y2="1358.7"/>
	<line class="st67" x1="1170.9" y1="1298.9" x2="1135.8" y2="1346.9"/>
	<line class="st67" x1="1150.6" y1="1287.1" x2="1115.4" y2="1335.1"/>
	<line class="st67" x1="1130.2" y1="1275.3" x2="1095.1" y2="1323.3"/>
	<line class="st67" x1="1130.2" y1="1275.3" x2="1191.3" y2="1310.7"/>
	<line class="st67" x1="1118.5" y1="1291.3" x2="1179.6" y2="1326.7"/>
	<line class="st67" x1="1106.8" y1="1307.3" x2="1167.9" y2="1342.7"/>
	<line class="st67" x1="1095.1" y1="1323.3" x2="1156.2" y2="1358.7"/>
	
		<linearGradient id="SVGID_25_" gradientUnits="userSpaceOnUse" x1="1164.2" y1="2513.3" x2="1260.5" y2="2513.3" gradientTransform="matrix(1 0 0 -1 0 3872)">
		<stop  offset="0" style="stop-color:#FE764A"/>
		<stop  offset="1" style="stop-color:#FE9877"/>
	</linearGradient>
	<polygon class="st70" points="1260.5,1352.4 1225.4,1400.4 1164.2,1365 1199.3,1317 	"/>
	<line class="st67" x1="1260.5" y1="1352.4" x2="1225.4" y2="1400.4"/>
	<line class="st67" x1="1240.1" y1="1340.6" x2="1205" y2="1388.6"/>
	<line class="st67" x1="1219.7" y1="1328.8" x2="1184.6" y2="1376.8"/>
	<line class="st67" x1="1199.3" y1="1317" x2="1164.2" y2="1365"/>
	<line class="st67" x1="1199.3" y1="1317" x2="1260.5" y2="1352.4"/>
	<line class="st67" x1="1187.6" y1="1333" x2="1248.8" y2="1368.4"/>
	<line class="st67" x1="1175.9" y1="1349" x2="1237.1" y2="1384.4"/>
	<line class="st67" x1="1164.2" y1="1365" x2="1225.4" y2="1400.4"/>
	<ellipse class="st71" cx="1228.1" cy="1356.8" rx="2.9" ry="2.6"/>
	<ellipse class="st71" cx="1207.8" cy="1345.1" rx="2.9" ry="2.6"/>
	<ellipse class="st71" cx="1216.4" cy="1372.9" rx="2.9" ry="2.6"/>
	<ellipse class="st71" cx="1196.2" cy="1360.7" rx="2.9" ry="2.6"/>
	<ellipse class="st71" cx="1159.2" cy="1315.1" rx="2.9" ry="2.6"/>
	<ellipse class="st71" cx="1138.8" cy="1303.4" rx="2.9" ry="2.6"/>
	<ellipse class="st71" cx="1147.4" cy="1331.2" rx="2.9" ry="2.6"/>
	<ellipse class="st71" cx="1127.2" cy="1318.9" rx="2.9" ry="2.6"/>
	<line class="st68" x1="1341.3" y1="1480.4" x2="1341.3" y2="1498.8"/>
	<line class="st68" x1="1271" y1="1522.7" x2="1271" y2="1541.1"/>
	
		<linearGradient id="SVGID_26_" gradientUnits="userSpaceOnUse" x1="1329.2" y1="2401.7" x2="1427" y2="2401.7" gradientTransform="matrix(1 0 0 -1 0 3872)">
		<stop  offset="0" style="stop-color:#FE764A"/>
		<stop  offset="1" style="stop-color:#FE9877"/>
	</linearGradient>
	<polygon class="st72" points="1329.2,1463.9 1364.9,1512.6 1427,1476.7 1391.3,1428 	"/>
	<line class="st67" x1="1329.2" y1="1463.9" x2="1364.9" y2="1512.6"/>
	<line class="st67" x1="1349.9" y1="1451.9" x2="1385.6" y2="1500.6"/>
	<line class="st67" x1="1370.6" y1="1439.9" x2="1406.3" y2="1488.7"/>
	<line class="st67" x1="1391.3" y1="1428" x2="1427" y2="1476.7"/>
	<line class="st67" x1="1391.3" y1="1428" x2="1329.2" y2="1463.9"/>
	<line class="st67" x1="1403.2" y1="1444.2" x2="1341.1" y2="1480.2"/>
	<line class="st67" x1="1415.1" y1="1460.4" x2="1353" y2="1496.4"/>
	<line class="st67" x1="1427" y1="1476.7" x2="1364.9" y2="1512.6"/>
	
		<linearGradient id="SVGID_27_" gradientUnits="userSpaceOnUse" x1="1259" y1="2359.3501" x2="1356.7" y2="2359.3501" gradientTransform="matrix(1 0 0 -1 0 3872)">
		<stop  offset="0" style="stop-color:#FE764A"/>
		<stop  offset="1" style="stop-color:#FE9877"/>
	</linearGradient>
	<polygon class="st73" points="1259,1506.3 1294.7,1555 1356.7,1519 1321.1,1470.3 	"/>
	<line class="st67" x1="1259" y1="1506.3" x2="1294.7" y2="1555"/>
	<line class="st67" x1="1279.7" y1="1494.3" x2="1315.3" y2="1543"/>
	<line class="st67" x1="1300.4" y1="1482.3" x2="1336" y2="1531"/>
	<line class="st67" x1="1321.1" y1="1470.3" x2="1356.7" y2="1519"/>
	<line class="st67" x1="1321.1" y1="1470.3" x2="1259" y2="1506.3"/>
	<line class="st67" x1="1333" y1="1486.5" x2="1270.9" y2="1522.5"/>
	<line class="st67" x1="1344.9" y1="1502.8" x2="1282.8" y2="1538.7"/>
	<line class="st67" x1="1356.7" y1="1519" x2="1294.7" y2="1555"/>
	<ellipse class="st71" cx="1291.8" cy="1510.7" rx="2.9" ry="2.7"/>
	<ellipse class="st71" cx="1312.5" cy="1498.9" rx="2.9" ry="2.7"/>
	<ellipse class="st71" cx="1303.8" cy="1527.1" rx="2.9" ry="2.7"/>
	<ellipse class="st71" cx="1324.3" cy="1514.7" rx="2.9" ry="2.7"/>
	<ellipse class="st71" cx="1361.9" cy="1468.3" rx="2.9" ry="2.7"/>
	<ellipse class="st71" cx="1382.5" cy="1456.4" rx="2.9" ry="2.7"/>
	<ellipse class="st71" cx="1373.8" cy="1484.7" rx="2.9" ry="2.7"/>
	<ellipse class="st71" cx="1394.3" cy="1472.2" rx="2.9" ry="2.7"/>
	
		<linearGradient id="SVGID_28_" gradientUnits="userSpaceOnUse" x1="1881.2001" y1="2027.54" x2="1881.2001" y2="2056.8701" gradientTransform="matrix(1 0 0 -1 0 3872)">
		<stop  offset="0" style="stop-color:#FE9877"/>
		<stop  offset="1" style="stop-color:#FE764A"/>
	</linearGradient>
	<path class="st74" d="M1903.4,1833.4c0,6.1-9.9,11.1-22.2,11.1s-22.2-5-22.2-11.1v-18.3h44.3L1903.4,1833.4L1903.4,1833.4z"/>
	
		<linearGradient id="SVGID_29_" gradientUnits="userSpaceOnUse" x1="1881.2001" y1="1992.9" x2="1881.2001" y2="2038.6" gradientTransform="matrix(1 0 0 -1 0 3872)">
		<stop  offset="0" style="stop-color:#FE9877"/>
		<stop  offset="1" style="stop-color:#FEBAA4"/>
	</linearGradient>
	<path class="st75" d="M1903.4,1868c0,6.1-9.9,11.1-22.2,11.1s-22.2-5-22.2-11.1v-34.6c0,6.1,9.9,11.1,22.2,11.1s22.2-5,22.2-11.1
		V1868z"/>
	<polygon class="st71" points="1878.5,1849.3 1880,1860 1875.7,1860 1883.1,1873 1882.4,1862.3 1886.7,1862.3 	"/>
	<path class="st9" d="M1881.2,1824.7c-11.2,0-20.6-4.4-20.6-9.6s9.4-9.6,20.6-9.6s20.6,4.4,20.6,9.6S1892.4,1824.7,1881.2,1824.7z"
		/>
	<path class="st39" d="M1881.2,1807.1c10.9,0,19.1,4.2,19.1,8s-8.2,8-19.1,8s-19.1-4.2-19.1-8S1870.3,1807.1,1881.2,1807.1
		 M1881.2,1804.1c-12.2,0-22.2,5-22.2,11.1s9.9,11.1,22.2,11.1s22.2-5,22.2-11.1S1893.5,1804.1,1881.2,1804.1z"/>
	
		<linearGradient id="SVGID_30_" gradientUnits="userSpaceOnUse" x1="1881.2009" y1="2052.8" x2="1881.2009" y2="2063.5801" gradientTransform="matrix(1 0 0 -1 0 3872)">
		<stop  offset="0" style="stop-color:#FE764A"/>
		<stop  offset="1" style="stop-color:#FE9877"/>
	</linearGradient>
	<path class="st76" d="M1881.2,1808.4c-4.5,0-8.1,1.8-8.1,4.1v2.6c0,2.2,3.6,4.1,8.1,4.1s8.1-1.8,8.1-4.1v-2.6
		C1889.4,1810.2,1885.7,1808.4,1881.2,1808.4z"/>
	
		<linearGradient id="SVGID_31_" gradientUnits="userSpaceOnUse" x1="1543.8" y1="1605.7996" x2="1543.8" y2="2795.8999" gradientTransform="matrix(1 0 0 -1 0 3872)">
		<stop  offset="0" style="stop-color:#FE5455"/>
		<stop  offset="1" style="stop-color:#FE5455;stop-opacity:0"/>
	</linearGradient>
	<path class="st77" d="M1128,1076.1l-470.4,271.6v259.9l427.8,247l574,331.4c5.8,3.3,11.6,6.6,17.5,9.7c5.9,3.2,11.8,6.2,17.8,9.1
		c11.9,5.9,24,11.3,36.2,16.3c6.1,2.5,12.2,4.9,18.4,7.2s12.3,4.5,18.6,6.6c18.6,6.3,37.5,11.6,56.5,16c12.7,2.9,25.4,5.4,38.3,7.5
		c12.8,2.1,25.7,3.8,38.6,5c9.7,0.9,19.4,1.6,29.1,2.1c6.5,0.3,12.9,0.5,19.4,0.6c3.2,0.1,6.5,0.1,9.7,0.1c6.5,0,13-0.1,19.4-0.3
		s12.9-0.5,19.4-0.9s12.9-0.9,19.4-1.6c16.1-1.6,32.2-3.8,48.2-6.7c6.4-1.2,12.8-2.4,19.1-3.8c22.3-4.7,44.4-10.8,66.1-18
		c6.2-2.1,12.4-4.3,18.6-6.6c6.2-2.3,12.3-4.7,18.4-7.2c12.2-5,24.2-10.5,36.2-16.3c6-2.9,11.9-6,17.8-9.1s11.7-6.4,17.5-9.7
		l170.4-98.4v-260L1128,1076.1z"/>
</g>
</svg>
