<?xml version="1.0" encoding="utf-8"?>
<!-- Generator: Adobe Illustrator 23.0.4, SVG Export Plug-In . SVG Version: 6.00 Build 0)  -->
<svg version="1.1" id="Layer_1" xmlns="http://www.w3.org/2000/svg" xmlns:xlink="http://www.w3.org/1999/xlink" x="0px" y="0px"
	 viewBox="0 0 3918.2 2475.3" style="enable-background:new 0 0 3918.2 2475.3;" xml:space="preserve">
<style type="text/css">
	.st0{opacity:0.15;fill:url(#SVGID_1_);enable-background:new    ;}
</style>
<title>DDS_ampx_secuencia_svg_02 [Recovered]</title>
<g id="elements">
	
		<linearGradient id="SVGID_1_" gradientUnits="userSpaceOnUse" x1="1543.7048" y1="209.6992" x2="1543.7048" y2="1399.89" gradientTransform="matrix(1 0 0 -1 0 2476)">
		<stop  offset="0" style="stop-color:#FE5455"/>
		<stop  offset="1" style="stop-color:#FE5455;stop-opacity:0"/>
	</linearGradient>
	<path class="st0" d="M1128,1076.1l-470.4,271.6v259.9l427.8,247l574,331.4c5.8,3.3,11.6,6.6,17.5,9.7c5.9,3.2,11.8,6.2,17.8,9.1
		c11.9,5.9,24,11.3,36.2,16.3c6.1,2.5,12.2,4.9,18.4,7.2s12.3,4.5,18.6,6.6c18.6,6.3,37.5,11.6,56.5,16c12.7,2.9,25.4,5.4,38.3,7.5
		c12.8,2.1,25.7,3.8,38.6,5c9.7,0.9,19.4,1.6,29.1,2.1c6.5,0.3,12.9,0.5,19.4,0.6c3.2,0.1,6.5,0.1,9.7,0.1c6.5,0,13-0.1,19.4-0.3
		s12.9-0.5,19.4-0.9c6.5-0.4,12.9-0.9,19.4-1.6c16.1-1.6,32.2-3.8,48.2-6.7c6.4-1.2,12.8-2.4,19.1-3.8c22.3-4.7,44.4-10.8,66.1-18
		c6.2-2.1,12.4-4.3,18.6-6.6c6.2-2.3,12.3-4.7,18.4-7.2c12.2-5,24.2-10.5,36.2-16.3c6-2.9,11.9-6,17.8-9.1s11.7-6.4,17.5-9.7
		l170.4-98.4v-260L1128,1076.1z"/>
</g>
</svg>
