<?xml version="1.0" encoding="utf-8"?>
<!-- Generator: Adobe Illustrator 23.0.4, SVG Export Plug-In . SVG Version: 6.00 Build 0)  -->
<svg version="1.1" id="Layer_1" xmlns="http://www.w3.org/2000/svg" xmlns:xlink="http://www.w3.org/1999/xlink" x="0px" y="0px"
	 viewBox="0 0 3918.2 2475.3" style="enable-background:new 0 0 3918.2 2475.3;" xml:space="preserve">
<style type="text/css">
	.st0{display:none;fill:#EFF1F4;}
	.st1{display:none;fill:#DFE2E9;}
	.st2{display:none;fill:none;stroke:#FFFFFF;stroke-width:7.97;stroke-linecap:round;stroke-miterlimit:10;}
	.st3{display:none;fill:#59BA9B;}
	.st4{display:none;fill:none;stroke:#BFC6D4;stroke-width:1.46;stroke-linecap:round;stroke-linejoin:round;}
	.st5{display:none;fill:url(#SVGID_1_);}
	.st6{display:none;fill:none;stroke:#EFF1F4;stroke-width:1.48;stroke-linecap:round;stroke-linejoin:round;}
	.st7{display:none;fill:url(#SVGID_2_);}
	.st8{display:none;fill:#F5F7F9;}
	.st9{display:none;fill:url(#SVGID_3_);}
	.st10{display:none;fill:url(#SVGID_4_);}
	.st11{display:none;fill:#BFC6D4;}
	.st12{display:none;fill:url(#SVGID_5_);}
	.st13{fill:#FE764A;}
	.st14{fill:url(#SVGID_6_);}
	.st15{fill:url(#SVGID_7_);}
	.st16{fill:url(#SVGID_8_);}
	.st17{fill:none;stroke:#F6CCCC;stroke-width:1.48;stroke-linecap:round;stroke-linejoin:round;}
	.st18{fill:#F6CCCC;}
	.st19{fill:#FE9877;}
	.st20{fill:#FFFFFF;}
	.st21{fill:#FE5455;}
	.st22{fill:url(#SVGID_9_);}
	.st23{fill:url(#SVGID_10_);}
	.st24{fill:url(#SVGID_11_);}
	.st25{fill:#FFD4D4;}
	.st26{fill:#FEA9AA;}
	.st27{fill:url(#SVGID_12_);}
	.st28{fill:url(#SVGID_13_);}
	.st29{fill:#FFDDD2;}
	.st30{fill-rule:evenodd;clip-rule:evenodd;fill:url(#SVGID_14_);}
	.st31{fill:none;stroke:#FE5455;stroke-width:1.46;stroke-linecap:round;stroke-linejoin:round;}
	.st32{fill:url(#SVGID_15_);}
	.st33{fill:url(#SVGID_16_);}
	.st34{fill:url(#SVGID_17_);}
	.st35{fill:url(#SVGID_18_);}
	.st36{fill:url(#SVGID_19_);}
	.st37{fill:url(#SVGID_20_);}
	.st38{fill:url(#SVGID_21_);}
	.st39{fill:url(#SVGID_22_);}
	.st40{fill:url(#SVGID_23_);}
	.st41{fill:url(#SVGID_24_);}
	.st42{fill:url(#SVGID_25_);}
	.st43{fill:url(#SVGID_26_);}
	.st44{fill:url(#SVGID_27_);}
	.st45{fill:url(#SVGID_28_);}
	.st46{fill:url(#SVGID_29_);}
	.st47{fill:url(#SVGID_30_);}
	.st48{fill:url(#SVGID_31_);}
	.st49{fill:url(#SVGID_32_);}
	.st50{fill:url(#SVGID_33_);}
	.st51{fill:url(#SVGID_34_);}
	.st52{fill:url(#SVGID_35_);}
	.st53{fill-rule:evenodd;clip-rule:evenodd;fill:url(#SVGID_36_);}
	.st54{fill:url(#SVGID_37_);}
	.st55{fill:url(#SVGID_38_);}
	.st56{fill:url(#SVGID_39_);}
	.st57{fill:url(#SVGID_40_);}
	.st58{fill:url(#SVGID_41_);}
	.st59{fill:url(#SVGID_42_);}
	.st60{fill:url(#SVGID_43_);}
	.st61{fill:url(#SVGID_44_);}
	.st62{fill:url(#SVGID_45_);}
	.st63{fill:url(#SVGID_46_);}
	.st64{fill:url(#SVGID_47_);}
	.st65{fill:url(#SVGID_48_);}
	.st66{fill:url(#SVGID_49_);}
	.st67{fill:url(#SVGID_50_);}
	.st68{fill:url(#SVGID_51_);}
	.st69{fill:url(#SVGID_52_);}
	.st70{fill:#CFD4DF;}
	.st71{fill:url(#SVGID_53_);}
	.st72{fill:url(#SVGID_54_);}
	.st73{fill:url(#SVGID_55_);}
	.st74{fill:url(#SVGID_56_);}
	.st75{fill:url(#SVGID_57_);}
	.st76{fill-rule:evenodd;clip-rule:evenodd;fill:url(#SVGID_58_);}
	.st77{fill:url(#SVGID_59_);}
	.st78{fill:url(#SVGID_60_);}
	.st79{fill:url(#SVGID_61_);}
	.st80{fill:url(#SVGID_62_);}
	.st81{fill:url(#SVGID_63_);}
	.st82{fill:url(#SVGID_64_);}
	.st83{fill:url(#SVGID_65_);}
	.st84{fill:url(#SVGID_66_);}
	.st85{fill:url(#SVGID_67_);}
	.st86{fill:url(#SVGID_68_);}
	.st87{fill:url(#SVGID_69_);}
	.st88{fill:url(#SVGID_70_);}
	.st89{fill:url(#SVGID_71_);}
	.st90{fill:url(#SVGID_72_);}
	.st91{fill:none;stroke:#FFDDD2;stroke-width:1.48;stroke-linecap:round;stroke-linejoin:round;}
	.st92{fill:url(#SVGID_73_);}
	.st93{fill:url(#SVGID_74_);}
	.st94{fill:url(#SVGID_75_);}
	.st95{fill:#FEBAA4;}
	.st96{fill:url(#SVGID_76_);}
	.st97{fill:none;stroke:#FE764A;stroke-width:1.46;stroke-linecap:round;stroke-linejoin:round;}
	.st98{fill:url(#SVGID_77_);}
	.st99{fill:url(#SVGID_78_);}
	.st100{fill:url(#SVGID_79_);}
	.st101{fill:url(#SVGID_80_);}
	.st102{fill:url(#SVGID_81_);}
	.st103{fill:url(#SVGID_82_);}
	.st104{fill:url(#SVGID_83_);}
	.st105{fill:url(#SVGID_84_);}
	.st106{fill:url(#SVGID_85_);}
	.st107{fill:url(#SVGID_86_);}
	.st108{fill:url(#SVGID_87_);}
	.st109{fill:url(#SVGID_88_);}
	.st110{fill:url(#SVGID_89_);}
	.st111{fill:url(#SVGID_90_);}
	.st112{fill:url(#SVGID_91_);}
	.st113{fill:url(#SVGID_92_);}
	.st114{fill:url(#SVGID_93_);}
	.st115{fill:url(#SVGID_94_);}
	.st116{fill:url(#SVGID_95_);}
	.st117{fill:url(#SVGID_96_);}
	.st118{fill:url(#SVGID_97_);}
	.st119{fill:url(#SVGID_98_);}
	.st120{fill:url(#SVGID_99_);}
	.st121{fill:url(#SVGID_100_);}
	.st122{fill:url(#SVGID_101_);}
	.st123{fill:url(#SVGID_102_);}
	.st124{fill:url(#SVGID_103_);}
	.st125{fill:url(#SVGID_104_);}
	.st126{fill:url(#SVGID_105_);}
	.st127{fill:url(#SVGID_106_);}
	.st128{fill:url(#SVGID_107_);}
	.st129{fill:url(#SVGID_108_);}
	.st130{fill:url(#SVGID_109_);}
	.st131{fill:url(#SVGID_110_);}
	.st132{fill:url(#SVGID_111_);}
	.st133{fill:url(#SVGID_112_);}
	.st134{fill:url(#SVGID_113_);}
	.st135{fill:url(#SVGID_114_);}
	.st136{fill:url(#SVGID_115_);}
	.st137{fill:url(#SVGID_116_);}
	.st138{fill:url(#SVGID_117_);}
	.st139{fill:url(#SVGID_118_);}
	.st140{fill:url(#SVGID_119_);}
	.st141{fill:url(#SVGID_120_);}
	.st142{fill:url(#SVGID_121_);}
	.st143{fill:url(#SVGID_122_);}
	.st144{fill:url(#SVGID_123_);}
	.st145{fill:url(#SVGID_124_);}
	.st146{fill:url(#SVGID_125_);}
	.st147{display:none;opacity:0.15;fill:url(#SVGID_126_);enable-background:new    ;}
</style>
<title>DDS_ampx_secuencia_svg_02 [Recovered]</title>
<g id="elements">
	<path class="st0" d="M376.5,1336.8c0.6,2.9,1.2,5.8,1.9,8.7c1,4.3,2.2,8.7,3.4,13c2.1,7.2,4.4,14.2,7,21.2c1.6,4.2,3.3,8.4,5,12.5
		c0.6,1.4,1.2,2.8,1.8,4.1c1.9,4.1,3.8,8.2,5.9,12.2c9.1,17.7,20,34.3,32.6,49.7c2,2.4,4,4.7,6,7.1c20.4,23.1,44.5,42.7,71.2,58
		l42.1,24.3L1024,1276l0,0l104-60l0,0l727.4-420l-464.6-268.2l-879.3,507.7c-101.2,58.4-147.9,164.1-140,266.1
		c0.3,4.4,0.8,8.9,1.3,13.3C373.8,1322.2,375,1329.5,376.5,1336.8z"/>
	<path class="st1" d="M1137.4,737.5c4.1,2.4,5.5,7.7,3.1,11.9c-0.8,1.3-1.8,2.4-3.1,3.1L828.7,931c-4.1,2.4-5.6,7.7-3.2,11.8
		c0.8,1.3,1.9,2.4,3.2,3.2l55.3,32c6,3.5,13.4,3.5,19.3,0L1463,655.2c6.1-3.5,8.2-11.3,4.7-17.4c-1.1-1.9-2.7-3.5-4.7-4.7
		l-75.2-43.4c-5.9-3.4-13.2-3.4-19.1,0l-231.3,132.8c-4.2,2.4-5.6,7.7-3.2,11.9C1135,735.6,1136.1,736.7,1137.4,737.5L1137.4,737.5z
		"/>
	<path class="st1" d="M704.5,1009.4l139.1,80.3c8,4.6,18,4.6,26,0l0,0c8-4.6,18-4.6,26,0l103.9,60c12.4,7.2,16.7,23.1,9.5,35.5
		c-2.3,3.9-5.5,7.2-9.5,9.5l-155.9,90c-8,4.6-18,4.6-26,0l-77.9-45c-8-4.6-18-4.6-26,0l-30.5,17.6c-8,4.6-18,4.6-26,0l-164.5-95
		c-12.4-7.2-16.7-23.1-9.5-35.5c2.3-3.9,5.5-7.2,9.5-9.5l185.8-107.9C686.5,1004.7,696.4,1004.7,704.5,1009.4z"/>
	<line class="st2" x1="718.8" y1="1120.5" x2="718.8" y2="1084.6"/>
	<circle class="st3" cx="718.8" cy="1081.9" r="23.5"/>
	<line class="st2" x1="905.5" y1="1198" x2="905.5" y2="1162.1"/>
	<path class="st3" d="M882.5,1175.2c-0.4,0.6-0.5,1.3-0.4,2c1.2,5.9,11.2,10.6,23.4,10.6s22.2-4.6,23.4-10.6c0.1-0.7,0-1.4-0.4-2
		l-20.2-35.9c-0.9-1.5-2.8-2.1-4.4-1.2c-0.5,0.3-0.9,0.7-1.2,1.2L882.5,1175.2z"/>
	<line class="st4" x1="567.9" y1="1128" x2="567.9" y2="1152.9"/>
	
		<linearGradient id="SVGID_1_" gradientUnits="userSpaceOnUse" x1="554.2" y1="2754.05" x2="665.2" y2="2754.05" gradientTransform="matrix(1 0 0 -1 0 3872)">
		<stop  offset="0" style="stop-color:#BFC6D4"/>
		<stop  offset="1" style="stop-color:#CFD4DF"/>
	</linearGradient>
	<polygon class="st5" points="554.2,1107.6 595.3,1168.8 665.2,1128.3 624.2,1067.1 	"/>
	<line class="st6" x1="554.2" y1="1107.6" x2="595.3" y2="1168.8"/>
	<line class="st6" x1="577.5" y1="1094.1" x2="618.6" y2="1155.3"/>
	<line class="st6" x1="600.8" y1="1080.6" x2="641.9" y2="1141.8"/>
	<line class="st6" x1="624.2" y1="1067.1" x2="665.2" y2="1128.3"/>
	<line class="st6" x1="624.2" y1="1067.1" x2="554.2" y2="1107.6"/>
	<line class="st6" x1="637.8" y1="1087.5" x2="567.9" y2="1128"/>
	<line class="st6" x1="651.5" y1="1107.9" x2="581.6" y2="1148.4"/>
	<line class="st6" x1="665.2" y1="1128.3" x2="595.3" y2="1168.8"/>
	<circle class="st0" cx="591.2" cy="1114.5" r="2.4"/>
	<circle class="st0" cx="605.1" cy="1135.1" r="2.4"/>
	<circle class="st0" cx="628.5" cy="1121.5" r="2.4"/>
	<circle class="st0" cx="614.7" cy="1101.2" r="2.4"/>
	
		<linearGradient id="SVGID_2_" gradientUnits="userSpaceOnUse" x1="1910.8301" y1="2640.3997" x2="1910.8301" y2="2681.7747" gradientTransform="matrix(-1 0 0 -1 2727.5801 3872)">
		<stop  offset="0" style="stop-color:#BFC6D4"/>
		<stop  offset="1" style="stop-color:#CFD4DF"/>
	</linearGradient>
	<path class="st7" d="M812.2,1191.3c2.9-1.5,6.2-1.5,9.1,0c1,0.5,1.8,1.5,1.9,2.6l0,0v34c-0.1,1.1-0.8,2.1-1.9,2.6
		c-2.9,1.4-6.2,1.4-9.1,0c-1.1-0.5-1.8-1.5-1.9-2.6V1194C810.4,1192.8,811.1,1191.8,812.2,1191.3z"/>
	<path class="st8" d="M821.8,1193.9c-0.1,0.9-0.6,1.7-1.5,2.1c-2.3,1.1-4.9,1.1-7.2,0c-0.8-0.4-1.4-1.2-1.5-2.1l2.5-124.1h5.1
		L821.8,1193.9z"/>
	
		<linearGradient id="SVGID_3_" gradientUnits="userSpaceOnUse" x1="1870.9415" y1="2804.3" x2="1870.9415" y2="2830.02" gradientTransform="matrix(-1 0 0 -1 2727.5801 3872)">
		<stop  offset="0" style="stop-color:#CFD4DF"/>
		<stop  offset="1" style="stop-color:#DFE2E9"/>
	</linearGradient>
	<path class="st9" d="M825.8,1067.7c0,0,60-22,61.8-23.5s1-2.3,1-2.3s-51.1,12.4-55,15.1c-3.3,2.3-4.4,5.5-5.9,6.4
		c-1,0.5-2.1,0.9-3.2,1.1L825.8,1067.7z"/>
	
		<linearGradient id="SVGID_4_" gradientUnits="userSpaceOnUse" x1="1921.2826" y1="2717.897" x2="1921.2826" y2="2800.3999" gradientTransform="matrix(-1 0 0 -1 2727.5801 3872)">
		<stop  offset="0" style="stop-color:#CFD4DF"/>
		<stop  offset="1" style="stop-color:#DFE2E9"/>
	</linearGradient>
	<path class="st10" d="M818,1071.6c0,0-27.1,76.9-27.2,79.8s1.3,2.7,1.3,2.7s28.7-60.6,29.3-66.6c0.5-5.1-1.5-8.7-1.1-10.8
		c0.3-1.4,0.8-2.8,1.5-4.1L818,1071.6z"/>
	<path class="st11" d="M805,1058.2c0.5-0.8,1.4-1.5,2-1.3l0,0l3.2,0.7l0,0l15.7,3.6l-7.7,13.8l-13.3-14.3l0,0
		C804.5,1059.9,804.5,1059,805,1058.2z"/>
	
		<linearGradient id="SVGID_5_" gradientUnits="userSpaceOnUse" x1="1924.3301" y1="2805.1001" x2="1924.3301" y2="2865.2439" gradientTransform="matrix(-1 0 0 -1 2727.5801 3872)">
		<stop  offset="0" style="stop-color:#CFD4DF"/>
		<stop  offset="1" style="stop-color:#DFE2E9"/>
	</linearGradient>
	<path class="st12" d="M823.2,1064.2c0,0-34.9-55.5-36.9-56.8s-3-0.2-3-0.2s21.5,49.7,25.3,52.8c3.3,2.7,7.7,2.6,8.9,3.8
		c0.8,0.9,1.4,1.9,1.8,3L823.2,1064.2z"/>
	<path class="st11" d="M818.6,1066c-1.8,3.2-2.1,8,0,9.3s6.2-1.4,8-4.6s1.9-8.1-0.2-9.3S820.3,1063,818.6,1066z"/>
	<line class="st2" x1="597.8" y1="1388.3" x2="597.8" y2="1352.4"/>
	<circle class="st3" cx="597.8" cy="1349.7" r="23.5"/>
	<g>
		<polygon class="st13" points="1212.2,997.8 1143.6,957.9 1105.3,945.3 1173.9,985.2 		"/>
		
			<linearGradient id="SVGID_6_" gradientUnits="userSpaceOnUse" x1="1101.65" y1="2782.6001" x2="1101.65" y2="2870" gradientTransform="matrix(1 0 0 -1 0 3872)">
			<stop  offset="0" style="stop-color:#FE9877"/>
			<stop  offset="1" style="stop-color:#FEBAA4"/>
		</linearGradient>
		<polygon class="st14" points="1135.9,1041.9 1067.3,1002 1067.4,1049.5 1136,1089.4 		"/>
		
			<linearGradient id="SVGID_7_" gradientUnits="userSpaceOnUse" x1="1067.3" y1="2878.3999" x2="1173.9" y2="2878.3999" gradientTransform="matrix(1 0 0 -1 0 3872)">
			<stop  offset="0" style="stop-color:#FE5455"/>
			<stop  offset="1" style="stop-color:#FE7F80"/>
		</linearGradient>
		<polygon class="st15" points="1173.9,985.2 1105.3,945.3 1067.3,1002 1135.9,1041.9 		"/>
		
			<linearGradient id="SVGID_8_" gradientUnits="userSpaceOnUse" x1="1174.1001" y1="2782.6001" x2="1174.1001" y2="2886.8" gradientTransform="matrix(1 0 0 -1 0 3872)">
			<stop  offset="0" style="stop-color:#FEBAA4"/>
			<stop  offset="1" style="stop-color:#FFDDD2"/>
		</linearGradient>
		<polygon class="st16" points="1173.9,985.2 1135.9,1041.9 1136,1089.4 1212.3,1045.3 1212.2,997.8 		"/>
		<line class="st17" x1="1067.3" y1="1002" x2="1105.3" y2="945.3"/>
		<line class="st17" x1="1090.2" y1="1015.3" x2="1128.3" y2="958.6"/>
		<line class="st17" x1="1113.1" y1="1028.6" x2="1151.2" y2="971.9"/>
		<line class="st17" x1="1136" y1="1041.9" x2="1174.1" y2="985.2"/>
		<line class="st17" x1="1105.3" y1="945.3" x2="1173.9" y2="985.2"/>
		<line class="st17" x1="1092.7" y1="964.2" x2="1161.3" y2="1004.1"/>
		<line class="st17" x1="1080" y1="983.1" x2="1148.6" y2="1023"/>
		<line class="st17" x1="1067.3" y1="1002" x2="1135.9" y2="1041.9"/>
		<circle class="st18" cx="1138.5" cy="990.8" r="2.8"/>
		<circle class="st18" cx="1115.3" cy="977.7" r="2.8"/>
		<circle class="st18" cx="1125.7" cy="1009.8" r="2.8"/>
		<circle class="st18" cx="1102.8" cy="996.4" r="2.8"/>
		<polygon class="st19" points="1185.7,1060.7 1162.6,1074 1162.6,1042.5 1185.7,1029.1 		"/>
	</g>
	<polygon class="st20" points="1279.8,1141.6 1162.6,1074 1185.7,1060.7 1303,1128.2 	"/>
	<path class="st21" d="M1103.6,1061.8c0,3.6,2.6,6.7,6.1,7.4c1.1,0.2,2.3,0,3.3-0.6h-0.1l4.1-2.2c1.8-1.1,2.9-3.1,2.8-5.2
		c0-3.6-2.6-6.7-6.1-7.4c-1.1-0.2-2.3,0-3.3,0.6l-4.1,2.2h0.1C1104.6,1057.6,1103.5,1059.6,1103.6,1061.8z"/>
	
		<linearGradient id="SVGID_9_" gradientUnits="userSpaceOnUse" x1="1103.5699" y1="2809.9207" x2="1117.91" y2="2809.9207" gradientTransform="matrix(1 0 0 -1 0 3872)">
		<stop  offset="0" style="stop-color:#FE5455"/>
		<stop  offset="1" style="stop-color:#FE7F80"/>
	</linearGradient>
	<path class="st22" d="M1112.4,1068.9c0.2-0.1,0.5-0.2,0.7-0.3l2.9-1.6c1.3-1.2,1.9-2.9,1.9-4.6c0-3.7-2.6-7-6.3-7.7
		c-0.6-0.1-1.2,0-1.8,0.1l-3.3,1.8c-0.7,0.3-1.2,0.8-1.7,1.4v0.1c-0.1,0.2-0.3,0.4-0.4,0.6c0,0,0,0,0,0.1c-0.2,0.4-0.4,0.9-0.6,1.4
		v0.2c0,0.2-0.1,0.4-0.1,0.6v0.2c0,0.3,0,0.5,0,0.8l0,0c0,2,0.8,3.9,2.2,5.4l0,0c0.4,0.4,0.7,0.7,1.2,1c0.3,0.2,0.6,0.4,0.9,0.5
		c0.6,0.3,1.2,0.5,1.8,0.6l0,0c0.3,0,0.6,0,0.8,0h0.2C1111.4,1069.2,1111.9,1069.1,1112.4,1068.9L1112.4,1068.9z"/>
	
		<linearGradient id="SVGID_10_" gradientUnits="userSpaceOnUse" x1="973.1" y1="2879.2" x2="973.1" y2="2908.53" gradientTransform="matrix(1 0 0 -1 0 3872)">
		<stop  offset="0" style="stop-color:#FE7F80"/>
		<stop  offset="1" style="stop-color:#FE5455"/>
	</linearGradient>
	<path class="st23" d="M995.3,981.7c0,6.1-9.9,11.1-22.2,11.1s-22.2-5-22.2-11.1v-18.3h44.3L995.3,981.7z"/>
	
		<linearGradient id="SVGID_11_" gradientUnits="userSpaceOnUse" x1="973.1" y1="2844.55" x2="973.1" y2="2890.25" gradientTransform="matrix(1 0 0 -1 0 3872)">
		<stop  offset="0" style="stop-color:#FE7F80"/>
		<stop  offset="1" style="stop-color:#FEA9AA"/>
	</linearGradient>
	<path class="st24" d="M995.3,1016.4c0,6.1-9.9,11.1-22.2,11.1s-22.2-5-22.2-11.1v-34.6c0,6.1,9.9,11.1,22.2,11.1s22.2-5,22.2-11.1
		V1016.4z"/>
	<polygon class="st25" points="970.5,997.7 972,1008.3 967.7,1008.3 975,1021.4 974.3,1010.7 978.7,1010.7 	"/>
	<path class="st26" d="M973.2,973c-11.2,0-20.6-4.4-20.6-9.6s9.5-9.5,20.6-9.5s20.6,4.4,20.6,9.5S984.4,973,973.2,973z"/>
	<path class="st21" d="M973.2,955.5c10.9,0,19.1,4.2,19.1,8s-8.2,8-19.1,8s-19.1-4.2-19.1-8S962.2,955.5,973.2,955.5 M973.2,952.5
		c-12.2,0-22.2,5-22.2,11.1s9.9,11.1,22.2,11.1s22.2-5,22.2-11.1S985.4,952.5,973.2,952.5z"/>
	
		<linearGradient id="SVGID_12_" gradientUnits="userSpaceOnUse" x1="973.2" y1="2904.45" x2="973.2" y2="2915.22" gradientTransform="matrix(1 0 0 -1 0 3872)">
		<stop  offset="0" style="stop-color:#FE5455"/>
		<stop  offset="1" style="stop-color:#FE7F80"/>
	</linearGradient>
	<path class="st27" d="M973.2,956.8c-4.5,0-8.1,1.8-8.1,4.1v2.6c0,2.2,3.6,4.1,8.1,4.1s8.1-1.8,8.1-4.1v-2.6
		C981.3,958.6,977.7,956.8,973.2,956.8z"/>
	
		<linearGradient id="SVGID_13_" gradientUnits="userSpaceOnUse" x1="1243.8" y1="2807.8999" x2="1243.8" y2="2856.8701" gradientTransform="matrix(1 0 0 -1 0 3872)">
		<stop  offset="0" style="stop-color:#FE764A"/>
		<stop  offset="1" style="stop-color:#FE9877"/>
	</linearGradient>
	<path class="st28" d="M1243.8,1015.2c-3,0-5.5,1.2-5.5,2.7v43.5c0,1.5,2.4,2.7,5.5,2.7s5.5-1.2,5.5-2.7v-43.5
		C1249.3,1016.4,1246.8,1015.2,1243.8,1015.2z"/>
	<path class="st29" d="M1282.7,930.7l-25.7-14.9c-4.8-2.8-8.5-3.4-11.4-1.7s-4.2,5.1-4.2,10.7v93c0,0.7,1.1,1.2,2.4,1.2
		s2.4-0.5,2.4-1.2v-93c0-3.5,0.7-5.9,1.8-6.5s3.5,0,6.6,1.7l25.7,14.9c1.2,0.7,2.6,0.3,3.3-0.9
		C1284.3,932.9,1283.9,931.4,1282.7,930.7L1282.7,930.7z"/>
	
		<linearGradient id="SVGID_14_" gradientUnits="userSpaceOnUse" x1="1278.2999" y1="2930.0894" x2="1278.2999" y2="2948.0315" gradientTransform="matrix(1 0 0 -1 0 3872)">
		<stop  offset="0" style="stop-color:#FE764A"/>
		<stop  offset="1" style="stop-color:#FE9877"/>
	</linearGradient>
	<path class="st30" d="M1289.6,939.5c-1,1.7-2.9,2.5-5.9,2.5c-6.4-0.4-12.3-3.8-15.9-9.2c-1.5-2.5-1.8-4.6-0.8-6.3s2.9-2.5,5.9-2.5
		c6.4,0.4,12.3,3.8,15.9,9.2C1290.3,935.7,1290.6,937.8,1289.6,939.5z"/>
	<path class="st31" d="M1109,1063l-41.2,23.4c-3.2,1.8-4.3,5.9-2.5,9.1c0.6,1,1.4,1.9,2.5,2.5l16,9.2"/>
	<g id="Car_3-1">
		<g id="Wheels">
			
				<linearGradient id="SVGID_15_" gradientUnits="userSpaceOnUse" x1="1129.16" y1="2710.9277" x2="1145.5938" y2="2710.9277" gradientTransform="matrix(1 0 0 -1 0 3872)">
				<stop  offset="0" style="stop-color:#FE7F80"/>
				<stop  offset="1" style="stop-color:#FEA9AA"/>
			</linearGradient>
			<path class="st32" d="M1143.4,1158.1c-1.3-2.1-3.1-3.9-5.2-5.2c-2-1.2-3.9-1.4-5.2-0.9l-0.4,0.2l-3.4,2l11.2,16.2l3.4-2
				c1.3-0.8,2-2.3,1.8-3.8C1145.5,1162.3,1144.7,1160.1,1143.4,1158.1z"/>
			
				<linearGradient id="SVGID_16_" gradientUnits="userSpaceOnUse" x1="1127.36" y1="2709.7019" x2="1142.1598" y2="2709.7019" gradientTransform="matrix(1 0 0 -1 0 3872)">
				<stop  offset="0" style="stop-color:#FE7F80"/>
				<stop  offset="1" style="stop-color:#FEA9AA"/>
			</linearGradient>
			<path class="st33" d="M1142.2,1166.6c0,2-0.8,3.4-2.2,4s-3.2,0.3-5.2-0.9c-2.1-1.3-3.9-3.1-5.2-5.2c-1.3-1.9-2-4.2-2.2-6.5
				c0-2,0.8-3.4,2.2-4s3.2-0.3,5.2,0.8c2.1,1.3,3.9,3.1,5.2,5.2C1141.3,1162,1142,1164.3,1142.2,1166.6z"/>
			<path class="st25" d="M1139.7,1165.2c0,2.7-2.2,3.7-4.9,2.1s-4.9-5.1-4.9-7.8s2.2-3.7,4.9-2.1S1139.7,1162.4,1139.7,1165.2z"/>
			
				<linearGradient id="SVGID_17_" gradientUnits="userSpaceOnUse" x1="1131.78" y1="2710.407" x2="1139.6899" y2="2710.407" gradientTransform="matrix(1 0 0 -1 0 3872)">
				<stop  offset="0" style="stop-color:#FE7F80"/>
				<stop  offset="1" style="stop-color:#FEA9AA"/>
			</linearGradient>
			<path class="st34" d="M1134.8,1157.4c-0.5-0.3-1.1-0.6-1.7-0.7c-0.8,0.4-1.3,1.4-1.2,2.3c0,2.4,2,5.5,4.3,6.8
				c1.4,0.8,2.7,0.9,3.4,0.3c0.1-0.3,0.1-0.7,0.1-1C1139.7,1162.4,1137.5,1159,1134.8,1157.4z"/>
			
				<linearGradient id="SVGID_18_" gradientUnits="userSpaceOnUse" x1="1077.9" y1="2740.4639" x2="1094.3337" y2="2740.4639" gradientTransform="matrix(1 0 0 -1 0 3872)">
				<stop  offset="0" style="stop-color:#FE7F80"/>
				<stop  offset="1" style="stop-color:#FEA9AA"/>
			</linearGradient>
			<path class="st35" d="M1092.2,1128.5c-1.3-2.1-3.1-3.9-5.2-5.2c-2.1-1.2-3.9-1.4-5.2-0.8c-0.1,0-0.2,0.1-0.4,0.2l-3.4,2
				l11.2,16.2l3.4-2c1.3-0.8,2-2.3,1.8-3.8C1094.2,1132.7,1093.5,1130.5,1092.2,1128.5z"/>
			
				<linearGradient id="SVGID_19_" gradientUnits="userSpaceOnUse" x1="1076.1002" y1="2739.25" x2="1090.9" y2="2739.25" gradientTransform="matrix(1 0 0 -1 0 3872)">
				<stop  offset="0" style="stop-color:#FE7F80"/>
				<stop  offset="1" style="stop-color:#FEA9AA"/>
			</linearGradient>
			<path class="st36" d="M1090.9,1137c0,2-0.8,3.4-2.2,4s-3.2,0.3-5.2-0.8c-2.1-1.3-3.9-3.1-5.2-5.2c-1.3-1.9-2-4.2-2.2-6.5
				c0-2,0.8-3.4,2.2-4s3.2-0.3,5.2,0.8c2.1,1.3,3.9,3.1,5.2,5.2C1090,1132.4,1090.8,1134.7,1090.9,1137z"/>
			<path class="st25" d="M1088.4,1135.6c0,2.7-2.2,3.7-4.9,2.1s-4.9-5.1-4.9-7.8s2.2-3.7,4.9-2.1S1088.4,1132.8,1088.4,1135.6z"/>
			
				<linearGradient id="SVGID_20_" gradientUnits="userSpaceOnUse" x1="1080.52" y1="2740.0071" x2="1088.4327" y2="2740.0071" gradientTransform="matrix(1 0 0 -1 0 3872)">
				<stop  offset="0" style="stop-color:#FE7F80"/>
				<stop  offset="1" style="stop-color:#FEA9AA"/>
			</linearGradient>
			<path class="st37" d="M1083.5,1127.8c-0.5-0.3-1.1-0.5-1.7-0.7c-0.8,0.4-1.3,1.4-1.2,2.3c0,2.4,2,5.5,4.3,6.8
				c1.4,0.8,2.7,0.9,3.5,0.3c0.1-0.3,0.1-0.7,0.1-1C1088.4,1132.8,1086.2,1129.4,1083.5,1127.8z"/>
		</g>
		<g id="Body">
			
				<linearGradient id="SVGID_21_" gradientUnits="userSpaceOnUse" x1="1124.53" y1="2717.55" x2="1132.27" y2="2717.55" gradientTransform="matrix(1 0 0 -1 0 3872)">
				<stop  offset="0" style="stop-color:#FE7F80"/>
				<stop  offset="1" style="stop-color:#FEA9AA"/>
			</linearGradient>
			<path class="st38" d="M1129.2,1154.2L1129.2,1154.2l3.1-1.8l-0.9-1.6l-6.8,3.9l2,3.4l0.9-0.5
				C1127.3,1156.4,1128,1155,1129.2,1154.2z"/>
			
				<linearGradient id="SVGID_22_" gradientUnits="userSpaceOnUse" x1="1073.6401" y1="2748.8999" x2="1081.8601" y2="2748.8999" gradientTransform="matrix(1 0 0 -1 0 3872)">
				<stop  offset="0" style="stop-color:#FE7F80"/>
				<stop  offset="1" style="stop-color:#FEA9AA"/>
			</linearGradient>
			<path class="st39" d="M1077.9,1124.7L1077.9,1124.7l3.4-2c0.1-0.1,0.2-0.1,0.4-0.2l0.2-0.1l-1.7-3l-6.5,3.8
				c0.4,1.1,0.9,2.2,1.4,3.2l0.2,0.4l1.3-0.7C1076.9,1125.5,1077.3,1125,1077.9,1124.7z"/>
			
				<linearGradient id="SVGID_23_" gradientUnits="userSpaceOnUse" x1="1072.2001" y1="2740.2021" x2="1184.038" y2="2740.2021" gradientTransform="matrix(1 0 0 -1 0 3872)">
				<stop  offset="0" style="stop-color:#FE5455"/>
				<stop  offset="1" style="stop-color:#FE7F80"/>
			</linearGradient>
			<path class="st40" d="M1171.8,1131.5c-0.8-0.7-6.2-4.5-10.3-7.3c-3.1-2.1-7.3-10.3-16.3-16.7c-5-3.6-17.4-13-34.2-12.7
				c-3,0.1-5.5-1.1-8.5-1.6c-2.8-0.5-5.8,0-8.2,1.5c-8,4.6-9.6,5.4-16,9.2c-0.7,0.4-3.8,2.5-4.4,4.5c-0.9,2.8-1.4,5.7-1.7,8.7v2
				c0.3,4.8,2,6,3,7.8c0.1-1.5,1-2.8,2.3-3.4c1.5-0.6,3.6-0.4,5.9,1c2.4,1.4,4.4,3.4,5.9,5.8c1.5,2.2,2.3,4.7,2.4,7.3
				c0,0.1,0,0.1,0,0.2c0,0.3,0.1,0.6,0.4,0.7l34.3,19.8c0-0.2,0-0.5,0-0.7c0-2.3,0.9-3.8,2.4-4.5s3.6-0.4,5.9,1
				c2.4,1.5,4.4,3.4,5.9,5.8c1.5,2.2,2.3,4.7,2.4,7.3v0.2c0,0.3,0.1,0.6,0.4,0.7c5.2,3,15.2,3.3,19.5,0.8l17.8-10.2
				c1.7-1,3.3-2.6,3.3-4.6c0.1-0.6,0-1.2-0.3-1.8c-0.2-0.7-1.1-1.7-1.1-2.3v-2.5C1182.6,1144.7,1180.7,1139,1171.8,1131.5z"/>
			
				<linearGradient id="SVGID_24_" gradientUnits="userSpaceOnUse" x1="1162.5139" y1="2715.9514" x2="1177.3792" y2="2715.9514" gradientTransform="matrix(1 0 0 -1 0 3872)">
				<stop  offset="0" style="stop-color:#FE7F80"/>
				<stop  offset="1" style="stop-color:#FEA9AA"/>
			</linearGradient>
			<path class="st41" d="M1164.3,1161.5l12.4-7.2c1.5-0.9,0.2-4.6-1-3.8l-12.1,7C1161.9,1158.4,1162.3,1162.7,1164.3,1161.5z"/>
			<path class="st25" d="M1127.4,1146.9l-1.6-0.9c-0.4-0.3-0.7-0.7-0.8-1.2l0,0c0-0.4,0.3-0.6,0.8-0.3l1.6,0.9
				c0.4,0.3,0.7,0.7,0.8,1.2l0,0C1128.2,1147,1127.8,1147.2,1127.4,1146.9z"/>
		</g>
		<g id="Headlights">
			<path class="st25" d="M1152.4,1159.8c1.6,0.4,3.4,0.2,4.8-0.6l3.9-2.3c0.6-0.3-1-2.7-2.6-2.6s-4.7,2.8-6.9,2.2
				C1149.7,1156,1147.8,1158.5,1152.4,1159.8z"/>
			<path class="st25" d="M1181.3,1142.8c-0.4-0.7-0.8-1.5-1.2-2.2c-0.9,1.8-2.7,2.4-3.9,3.7c-1.6,1.8-0.6,4.2,0,3.9l4.1-2.4
				C1181.4,1145.2,1181.8,1143.9,1181.3,1142.8z"/>
		</g>
		<g id="Windows">
			
				<linearGradient id="SVGID_25_" gradientUnits="userSpaceOnUse" x1="1126.65" y1="2746.2" x2="1159.95" y2="2746.2" gradientTransform="matrix(1 0 0 -1 0 3872)">
				<stop  offset="0" style="stop-color:#FE7F80"/>
				<stop  offset="1" style="stop-color:#FEA9AA"/>
			</linearGradient>
			<path class="st42" d="M1149.1,1112.4l-22.5,13l8.7,13.8h6.1c1.4,0,2.8-0.4,4-1.1l12.9-7.5c1-0.6,1.6-1.6,1.6-2.7v-2.9
				C1156.9,1120.4,1153.2,1116.1,1149.1,1112.4z"/>
			
				<linearGradient id="SVGID_26_" gradientUnits="userSpaceOnUse" x1="1085.5" y1="2747.0383" x2="1128.6" y2="2747.0383" gradientTransform="matrix(1 0 0 -1 0 3872)">
				<stop  offset="0" style="stop-color:#FE7F80"/>
				<stop  offset="1" style="stop-color:#FEA9AA"/>
			</linearGradient>
			<path class="st43" d="M1128.6,1138.6l-43.1-24.9c0,0,8.2-6.5,22.8,2C1125.7,1125.7,1128.6,1138.6,1128.6,1138.6z"/>
			
				<linearGradient id="SVGID_27_" gradientUnits="userSpaceOnUse" x1="1085.5002" y1="2769.325" x2="1116.7477" y2="2769.325" gradientTransform="matrix(1 0 0 -1 0 3872)">
				<stop  offset="0" style="stop-color:#FE7F80"/>
				<stop  offset="1" style="stop-color:#FEA9AA"/>
			</linearGradient>
			<path class="st44" d="M1116.4,1097.5c0.4-0.2,0.5-0.7,0.3-1.1c-0.1-0.2-0.3-0.4-0.6-0.4c-1.9-0.2-3.8-0.2-5.7,0
				c-1.1,0.1-2.2,0.4-3.2,1l-21.7,12.5c0,0,3.5-1.9,9.9-1.3c1.3,0.1,2.6-0.2,3.7-0.8L1116.4,1097.5z"/>
			<path class="st25" d="M1085.5,1113.7l43.1,24.9c-0.2-0.7-0.4-1.3-0.6-2l0,0l-17.2-10c0.5-2.7,1.4-5.3,2.7-7.7
				c-0.4-0.3-0.9-0.6-1.3-0.9c-1.4,2.4-2.3,5.1-2.8,7.8l-14.6-8.4c0.4-2.1,1.3-4.1,2.5-5.9c-0.7-0.1-1.3-0.2-1.9-0.2
				c-1,1.6-1.7,3.4-2.1,5.2l-6.3-3.7l0.1-0.1C1086.5,1113,1086,1113.4,1085.5,1113.7z"/>
			<path class="st25" d="M1106.9,1098.1c1-0.6,2-0.9,3.2-1c2.2-0.2,4.4-0.2,6.6,0.2c0.2-0.4,0.1-0.8-0.2-1.1
				c-0.1-0.1-0.2-0.1-0.3-0.1c-1.9-0.2-3.8-0.2-5.7,0c-1.1,0.1-2.2,0.4-3.2,1l-21.7,12.5c1.1-0.5,2.2-0.9,3.4-1.1L1106.9,1098.1z"/>
			<path class="st25" d="M1149.1,1112.4l-1.6,0.9c3.4,2.7,6.4,5.8,9,9.2c1.1,1.4,0.8,3.3-0.6,4.4c-0.1,0.1-0.2,0.2-0.4,0.2
				l-20.4,11.8l0.2,0.3h6.1c1.4,0,2.8-0.4,4-1.1l12.9-7.5c1-0.6,1.6-1.6,1.6-2.7v-3C1156.9,1120.4,1153.2,1116.1,1149.1,1112.4z"/>
		</g>
	</g>
	<g>
		<polygon class="st13" points="1447.4,862.7 1378.8,822.8 1340.5,810.2 1409.1,850.1 		"/>
		
			<linearGradient id="SVGID_28_" gradientUnits="userSpaceOnUse" x1="1336.8" y1="2917.8" x2="1336.8" y2="3005.1001" gradientTransform="matrix(1 0 0 -1 0 3872)">
			<stop  offset="0" style="stop-color:#FE9877"/>
			<stop  offset="1" style="stop-color:#FEBAA4"/>
		</linearGradient>
		<polygon class="st45" points="1371,906.8 1302.4,866.9 1302.6,914.4 1371.2,954.2 		"/>
		
			<linearGradient id="SVGID_29_" gradientUnits="userSpaceOnUse" x1="1302.4" y1="3013.5" x2="1409.1" y2="3013.5" gradientTransform="matrix(1 0 0 -1 0 3872)">
			<stop  offset="0" style="stop-color:#FE5455"/>
			<stop  offset="1" style="stop-color:#FE7F80"/>
		</linearGradient>
		<polygon class="st46" points="1409.1,850.1 1340.5,810.2 1302.4,866.9 1371,906.8 		"/>
		
			<linearGradient id="SVGID_30_" gradientUnits="userSpaceOnUse" x1="1409.25" y1="2917.8" x2="1409.25" y2="3021.8999" gradientTransform="matrix(1 0 0 -1 0 3872)">
			<stop  offset="0" style="stop-color:#FEBAA4"/>
			<stop  offset="1" style="stop-color:#FFDDD2"/>
		</linearGradient>
		<polygon class="st47" points="1409.1,850.1 1371,906.8 1371.2,954.2 1447.5,910.2 1447.4,862.7 		"/>
		<line class="st17" x1="1302.4" y1="866.9" x2="1340.5" y2="810.2"/>
		<line class="st17" x1="1325.3" y1="880.2" x2="1363.4" y2="823.5"/>
		<line class="st17" x1="1348.2" y1="893.5" x2="1386.3" y2="836.8"/>
		<line class="st17" x1="1371.2" y1="906.8" x2="1409.2" y2="850.1"/>
		<line class="st17" x1="1340.5" y1="810.2" x2="1409.1" y2="850.1"/>
		<line class="st17" x1="1327.8" y1="829.1" x2="1396.4" y2="869"/>
		<line class="st17" x1="1315.1" y1="848" x2="1383.7" y2="887.9"/>
		<line class="st17" x1="1302.4" y1="866.9" x2="1371" y2="906.8"/>
		<circle class="st18" cx="1373.6" cy="855.7" r="2.8"/>
		<circle class="st18" cx="1350.5" cy="842.5" r="2.8"/>
		<circle class="st18" cx="1360.8" cy="874.7" r="2.8"/>
		<circle class="st18" cx="1337.9" cy="861.3" r="2.8"/>
		<polygon class="st19" points="1420.9,925.5 1397.8,938.9 1397.8,907.3 1420.9,894 		"/>
	</g>
	<polygon class="st20" points="1515,1006.5 1397.8,938.9 1420.9,925.5 1538.1,993.1 	"/>
	<path class="st21" d="M1338.7,926.7c0,3.6,2.6,6.7,6.1,7.4c1.1,0.2,2.3,0,3.3-0.6h-0.1l4.1-2.2c1.8-1.1,2.9-3.1,2.8-5.2
		c0-3.6-2.6-6.7-6.1-7.4c-1.1-0.2-2.3,0-3.3,0.6l-4.1,2.2h0.1C1339.8,922.5,1338.6,924.5,1338.7,926.7z"/>
	
		<linearGradient id="SVGID_31_" gradientUnits="userSpaceOnUse" x1="1338.71" y1="2945.1206" x2="1353.0601" y2="2945.1206" gradientTransform="matrix(1 0 0 -1 0 3872)">
		<stop  offset="0" style="stop-color:#FE5455"/>
		<stop  offset="1" style="stop-color:#FE7F80"/>
	</linearGradient>
	<path class="st48" d="M1347.6,933.8c0.2-0.1,0.5-0.2,0.7-0.3l2.9-1.6c1.3-1.2,1.9-2.9,1.9-4.6c0-3.7-2.6-7-6.3-7.7
		c-0.6-0.1-1.2,0-1.8,0.1c0,0-3.2,1.8-3.3,1.8c-0.7,0.3-1.2,0.8-1.7,1.4v0.1c-0.1,0.2-0.2,0.4-0.4,0.5c0,0,0,0,0,0.1
		c-0.2,0.4-0.4,0.9-0.6,1.4c0,0.1,0,0.1,0,0.2s-0.1,0.4-0.1,0.6v0.2c0,0.3,0,0.5,0,0.8l0,0c0,2,0.8,3.9,2.2,5.4l0,0
		c0.3,0.4,0.7,0.7,1.2,1c0.3,0.2,0.6,0.4,0.9,0.5c0.6,0.3,1.2,0.5,1.8,0.5l0,0c0.3,0,0.6,0,0.8,0h0.2
		C1346.6,934.1,1347.1,934,1347.6,933.8L1347.6,933.8z"/>
	
		<linearGradient id="SVGID_32_" gradientUnits="userSpaceOnUse" x1="1208.3501" y1="3014.3" x2="1208.3501" y2="3043.6001" gradientTransform="matrix(1 0 0 -1 0 3872)">
		<stop  offset="0" style="stop-color:#FE7F80"/>
		<stop  offset="1" style="stop-color:#FE5455"/>
	</linearGradient>
	<path class="st49" d="M1230.5,846.6c0,6.1-9.9,11.1-22.1,11.1s-22.2-5-22.2-11.1v-18.2h44.3L1230.5,846.6L1230.5,846.6z"/>
	
		<linearGradient id="SVGID_33_" gradientUnits="userSpaceOnUse" x1="1208.3501" y1="2979.7" x2="1208.3501" y2="3025.3999" gradientTransform="matrix(1 0 0 -1 0 3872)">
		<stop  offset="0" style="stop-color:#FE7F80"/>
		<stop  offset="1" style="stop-color:#FEA9AA"/>
	</linearGradient>
	<path class="st50" d="M1230.5,881.2c0,6.1-9.9,11.1-22.1,11.1s-22.2-5-22.2-11.1v-34.6c0,6.1,9.9,11.1,22.2,11.1s22.1-5,22.1-11.1
		V881.2z"/>
	<polygon class="st25" points="1205.6,862.5 1207.1,873.2 1202.8,873.2 1210.2,886.2 1209.5,875.5 1213.8,875.5 	"/>
	<path class="st26" d="M1208.3,837.9c-11.2,0-20.6-4.4-20.6-9.5s9.4-9.6,20.6-9.6s20.6,4.4,20.6,9.6S1219.5,837.9,1208.3,837.9z"/>
	<path class="st21" d="M1208.3,820.3c10.9,0,19.1,4.2,19.1,8s-8.2,8-19.1,8s-19.1-4.2-19.1-8S1197.4,820.3,1208.3,820.3
		 M1208.3,817.3c-12.2,0-22.2,5-22.2,11.1s9.9,11.1,22.2,11.1s22.1-5,22.1-11.1S1220.6,817.3,1208.3,817.3z"/>
	
		<linearGradient id="SVGID_34_" gradientUnits="userSpaceOnUse" x1="1208.301" y1="3039.5801" x2="1208.301" y2="3050.3501" gradientTransform="matrix(1 0 0 -1 0 3872)">
		<stop  offset="0" style="stop-color:#FE5455"/>
		<stop  offset="1" style="stop-color:#FE7F80"/>
	</linearGradient>
	<path class="st51" d="M1208.3,821.7c-4.5,0-8.1,1.8-8.1,4.1v2.7c0,2.2,3.6,4.1,8.1,4.1s8.1-1.8,8.1-4.1v-2.7
		C1216.5,823.5,1212.8,821.7,1208.3,821.7z"/>
	
		<linearGradient id="SVGID_35_" gradientUnits="userSpaceOnUse" x1="1479" y1="2943.02" x2="1479" y2="2992" gradientTransform="matrix(1 0 0 -1 0 3872)">
		<stop  offset="0" style="stop-color:#FE764A"/>
		<stop  offset="1" style="stop-color:#FE9877"/>
	</linearGradient>
	<path class="st52" d="M1479,880c-3,0-5.5,1.2-5.5,2.7v43.5c0,1.5,2.5,2.7,5.5,2.7s5.5-1.2,5.5-2.7v-43.5
		C1484.4,881.2,1482,880,1479,880z"/>
	<path class="st29" d="M1517.8,795.6l-25.7-14.9c-4.8-2.8-8.6-3.4-11.4-1.7s-4.2,5.1-4.2,10.7v93c0,0.7,1.1,1.2,2.4,1.2
		s2.4-0.5,2.4-1.2v-93c0-3.5,0.7-5.9,1.8-6.5s3.5,0,6.6,1.7l25.7,14.8c1.2,0.6,2.6,0.2,3.3-1
		C1519.3,797.6,1518.9,796.3,1517.8,795.6L1517.8,795.6z"/>
	
		<linearGradient id="SVGID_36_" gradientUnits="userSpaceOnUse" x1="1513.3999" y1="3065.2192" x2="1513.3999" y2="3083.1609" gradientTransform="matrix(1 0 0 -1 0 3872)">
		<stop  offset="0" style="stop-color:#FE764A"/>
		<stop  offset="1" style="stop-color:#FE9877"/>
	</linearGradient>
	<path class="st53" d="M1524.7,804.3c-1,1.7-2.9,2.5-5.9,2.5c-6.4-0.4-12.3-3.8-15.9-9.2c-1.5-2.5-1.8-4.6-0.8-6.3s2.9-2.5,5.9-2.5
		c6.4,0.4,12.3,3.8,15.9,9.2C1525.4,800.5,1525.7,802.7,1524.7,804.3z"/>
	<path class="st31" d="M1344.1,927.9l-41.1,23.4c-3.2,1.8-4.3,5.9-2.5,9.1c0.6,1,1.4,1.9,2.5,2.5l16,9.2"/>
	<g id="Car_3-1-2">
		<g id="Wheels-2">
			
				<linearGradient id="SVGID_37_" gradientUnits="userSpaceOnUse" x1="1364.3101" y1="2846.0278" x2="1380.7438" y2="2846.0278" gradientTransform="matrix(1 0 0 -1 0 3872)">
				<stop  offset="0" style="stop-color:#FE7F80"/>
				<stop  offset="1" style="stop-color:#FEA9AA"/>
			</linearGradient>
			<path class="st54" d="M1378.6,1023c-1.3-2.1-3.1-3.9-5.2-5.2c-2-1.2-3.9-1.4-5.2-0.9l-0.4,0.2l-3.4,2l11.2,16.2l3.4-2
				c1.3-0.8,2-2.3,1.8-3.8C1380.6,1027.2,1379.9,1024.9,1378.6,1023z"/>
			
				<linearGradient id="SVGID_38_" gradientUnits="userSpaceOnUse" x1="1362.5002" y1="2844.802" x2="1377.3" y2="2844.802" gradientTransform="matrix(1 0 0 -1 0 3872)">
				<stop  offset="0" style="stop-color:#FE7F80"/>
				<stop  offset="1" style="stop-color:#FEA9AA"/>
			</linearGradient>
			<path class="st55" d="M1377.3,1031.5c0,2-0.8,3.4-2.2,4s-3.2,0.3-5.2-0.9c-2.1-1.3-3.9-3.1-5.2-5.2c-1.3-1.9-2.1-4.2-2.2-6.5
				c0-2,0.8-3.4,2.2-4s3.2-0.3,5.2,0.8c2.1,1.3,3.9,3.1,5.2,5.2C1376.4,1026.9,1377.2,1029.1,1377.3,1031.5z"/>
			<path class="st25" d="M1374.8,1030c0,2.7-2.2,3.7-4.9,2.1s-4.9-5.1-4.9-7.8s2.2-3.7,4.9-2.1S1374.8,1027.3,1374.8,1030z"/>
			
				<linearGradient id="SVGID_39_" gradientUnits="userSpaceOnUse" x1="1366.9301" y1="2845.5071" x2="1374.8451" y2="2845.5071" gradientTransform="matrix(1 0 0 -1 0 3872)">
				<stop  offset="0" style="stop-color:#FE7F80"/>
				<stop  offset="1" style="stop-color:#FEA9AA"/>
			</linearGradient>
			<path class="st56" d="M1369.9,1022.3c-0.5-0.3-1.1-0.6-1.7-0.7c-0.9,0.4-1.3,1.4-1.2,2.3c0,2.4,1.9,5.5,4.3,6.8
				c1.4,0.8,2.7,0.9,3.5,0.3c0.1-0.3,0.1-0.7,0.1-1C1374.8,1027.3,1372.6,1023.8,1369.9,1022.3z"/>
			
				<linearGradient id="SVGID_40_" gradientUnits="userSpaceOnUse" x1="1313.05" y1="2875.5637" x2="1329.4838" y2="2875.5637" gradientTransform="matrix(1 0 0 -1 0 3872)">
				<stop  offset="0" style="stop-color:#FE7F80"/>
				<stop  offset="1" style="stop-color:#FEA9AA"/>
			</linearGradient>
			<path class="st57" d="M1327.3,993.4c-1.3-2.1-3.1-3.9-5.2-5.2c-2-1.2-3.9-1.4-5.2-0.8c-0.1,0-0.2,0.1-0.4,0.2l-3.4,2l11.2,16.2
				l3.4-2c1.3-0.8,2-2.3,1.8-3.8C1329.4,997.6,1328.6,995.3,1327.3,993.4z"/>
			
				<linearGradient id="SVGID_41_" gradientUnits="userSpaceOnUse" x1="1311.24" y1="2874.3501" x2="1326.0398" y2="2874.3501" gradientTransform="matrix(1 0 0 -1 0 3872)">
				<stop  offset="0" style="stop-color:#FE7F80"/>
				<stop  offset="1" style="stop-color:#FEA9AA"/>
			</linearGradient>
			<path class="st58" d="M1326.1,1001.9c0,2-0.8,3.4-2.2,4s-3.2,0.3-5.2-0.8c-2.1-1.3-3.9-3.1-5.2-5.2c-1.3-1.9-2.1-4.2-2.2-6.5
				c0-2,0.8-3.4,2.2-4s3.2-0.3,5.2,0.8c2.1,1.3,3.9,3.1,5.2,5.2C1325.2,997.3,1325.9,999.5,1326.1,1001.9z"/>
			<path class="st25" d="M1323.6,1000.5c0,2.7-2.2,3.7-4.9,2.1s-4.9-5.1-4.9-7.8s2.2-3.7,4.9-2.1S1323.6,997.7,1323.6,1000.5z"/>
			
				<linearGradient id="SVGID_42_" gradientUnits="userSpaceOnUse" x1="1315.67" y1="2875.1072" x2="1323.5851" y2="2875.1072" gradientTransform="matrix(1 0 0 -1 0 3872)">
				<stop  offset="0" style="stop-color:#FE7F80"/>
				<stop  offset="1" style="stop-color:#FEA9AA"/>
			</linearGradient>
			<path class="st59" d="M1318.6,992.7c-0.5-0.3-1.1-0.5-1.7-0.7c-0.9,0.4-1.3,1.4-1.2,2.3c0,2.4,1.9,5.5,4.3,6.8
				c1.4,0.8,2.7,0.9,3.5,0.3c0.1-0.3,0.1-0.7,0.1-1C1323.6,997.7,1321.4,994.2,1318.6,992.7z"/>
		</g>
		<g id="Body-2">
			
				<linearGradient id="SVGID_43_" gradientUnits="userSpaceOnUse" x1="1359.6801" y1="2852.6001" x2="1367.42" y2="2852.6001" gradientTransform="matrix(1 0 0 -1 0 3872)">
				<stop  offset="0" style="stop-color:#FE7F80"/>
				<stop  offset="1" style="stop-color:#FEA9AA"/>
			</linearGradient>
			<path class="st60" d="M1364.3,1019.1L1364.3,1019.1l3.1-1.8l-0.9-1.6l-6.8,4l2,3.4l0.9-0.5
				C1362.5,1021.3,1363.1,1019.9,1364.3,1019.1z"/>
			
				<linearGradient id="SVGID_44_" gradientUnits="userSpaceOnUse" x1="1308.7902" y1="2884.1001" x2="1317.0101" y2="2884.1001" gradientTransform="matrix(1 0 0 -1 0 3872)">
				<stop  offset="0" style="stop-color:#FE7F80"/>
				<stop  offset="1" style="stop-color:#FEA9AA"/>
			</linearGradient>
			<path class="st61" d="M1313.1,989.5L1313.1,989.5l3.4-2c0.1-0.1,0.2-0.1,0.4-0.2l0.2-0.1l-1.7-3l-6.5,3.8
				c0.4,1.1,0.9,2.2,1.4,3.2l0.2,0.4l1.3-0.7C1312,990.4,1312.5,989.9,1313.1,989.5z"/>
			
				<linearGradient id="SVGID_45_" gradientUnits="userSpaceOnUse" x1="1307.4" y1="2875.2954" x2="1419.2379" y2="2875.2954" gradientTransform="matrix(1 0 0 -1 0 3872)">
				<stop  offset="0" style="stop-color:#FE5455"/>
				<stop  offset="1" style="stop-color:#FE7F80"/>
			</linearGradient>
			<path class="st62" d="M1407,996.4c-0.8-0.7-6.2-4.5-10.3-7.3c-3.1-2.1-7.3-10.3-16.3-16.7c-5-3.6-17.4-13-34.2-12.7
				c-3.1,0.1-5.5-1.1-8.5-1.6c-2.8-0.5-5.8,0.1-8.2,1.5c-8,4.6-9.6,5.4-16,9.2c-0.7,0.4-3.8,2.5-4.4,4.5c-0.9,2.8-1.4,5.7-1.7,8.7v2
				c0.3,4.8,2,6,3,7.8c0.1-1.5,1-2.8,2.3-3.4c1.5-0.6,3.6-0.4,5.9,1c2.4,1.4,4.4,3.4,5.9,5.8c1.5,2.2,2.3,4.7,2.4,7.3v0.2
				c0,0.3,0.1,0.6,0.4,0.7l34.3,19.8c0-0.2,0-0.5,0-0.7c0-2.3,0.9-3.8,2.4-4.5s3.6-0.4,5.9,1c2.4,1.5,4.4,3.4,5.9,5.8
				c1.5,2.2,2.3,4.7,2.4,7.3c0,0.1,0,0.1,0,0.2c0,0.3,0.1,0.6,0.4,0.7c5.2,3,15.2,3.3,19.5,0.8l17.8-10.2c1.7-1,3.3-2.6,3.3-4.6
				c0.1-0.6,0-1.2-0.3-1.8c-0.2-0.7-1.1-1.8-1.1-2.3v-2.5C1417.7,1009.6,1415.9,1003.9,1407,996.4z"/>
			
				<linearGradient id="SVGID_46_" gradientUnits="userSpaceOnUse" x1="1397.6321" y1="2851.0649" x2="1412.509" y2="2851.0649" gradientTransform="matrix(1 0 0 -1 0 3872)">
				<stop  offset="0" style="stop-color:#FE7F80"/>
				<stop  offset="1" style="stop-color:#FEA9AA"/>
			</linearGradient>
			<path class="st63" d="M1399.4,1026.4l12.4-7.2c1.5-0.9,0.2-4.6-1-3.8l-12.1,7C1397,1023.3,1397.4,1027.5,1399.4,1026.4z"/>
			<path class="st25" d="M1362.5,1011.8l-1.6-0.9c-0.4-0.3-0.7-0.7-0.8-1.2l0,0c0-0.4,0.4-0.6,0.8-0.3l1.6,0.9
				c0.4,0.3,0.7,0.7,0.8,1.2l0,0C1363.3,1011.9,1362.9,1012.1,1362.5,1011.8z"/>
		</g>
		<g id="Headlights-2">
			<path class="st25" d="M1387.6,1024.7c1.6,0.4,3.4,0.2,4.8-0.6l3.9-2.3c0.5-0.3-1-2.7-2.6-2.6s-4.7,2.8-6.9,2.2
				C1384.9,1020.9,1382.9,1023.4,1387.6,1024.7z"/>
			<path class="st25" d="M1416.5,1007.6c-0.4-0.7-0.8-1.5-1.2-2.2c-0.9,1.8-2.7,2.4-3.9,3.7c-1.6,1.8-0.6,4.2,0,3.9l4.1-2.4
				C1416.6,1010.1,1417,1008.7,1416.5,1007.6z"/>
		</g>
		<g id="Windows-2">
			
				<linearGradient id="SVGID_47_" gradientUnits="userSpaceOnUse" x1="1361.8" y1="2881.3" x2="1395.08" y2="2881.3" gradientTransform="matrix(1 0 0 -1 0 3872)">
				<stop  offset="0" style="stop-color:#FE7F80"/>
				<stop  offset="1" style="stop-color:#FEA9AA"/>
			</linearGradient>
			<path class="st64" d="M1384.3,977.3l-22.5,13l8.7,13.8h6.1c1.4,0,2.8-0.4,4-1.1l13-7.5c1-0.6,1.6-1.6,1.6-2.7v-2.9
				C1392.1,985.3,1388.4,981,1384.3,977.3z"/>
			
				<linearGradient id="SVGID_48_" gradientUnits="userSpaceOnUse" x1="1320.7001" y1="2882.1382" x2="1363.8" y2="2882.1382" gradientTransform="matrix(1 0 0 -1 0 3872)">
				<stop  offset="0" style="stop-color:#FE7F80"/>
				<stop  offset="1" style="stop-color:#FEA9AA"/>
			</linearGradient>
			<path class="st65" d="M1363.8,1003.5l-43.1-24.9c0,0,8.2-6.5,22.8,2C1360.9,990.6,1363.8,1003.5,1363.8,1003.5z"/>
			
				<linearGradient id="SVGID_49_" gradientUnits="userSpaceOnUse" x1="1320.6699" y1="2904.425" x2="1351.911" y2="2904.425" gradientTransform="matrix(1 0 0 -1 0 3872)">
				<stop  offset="0" style="stop-color:#FE7F80"/>
				<stop  offset="1" style="stop-color:#FEA9AA"/>
			</linearGradient>
			<path class="st66" d="M1351.5,962.4c0.4-0.2,0.5-0.7,0.3-1.1c-0.1-0.2-0.3-0.4-0.6-0.4c-1.9-0.2-3.8-0.2-5.7,0
				c-1.1,0.1-2.2,0.4-3.2,1l-21.7,12.5c0,0,3.5-1.9,9.9-1.3c1.3,0.1,2.6-0.2,3.7-0.8L1351.5,962.4z"/>
			<path class="st25" d="M1320.7,978.6l43.1,24.9c-0.2-0.7-0.4-1.3-0.6-2l0,0l-17.2-10c0.5-2.7,1.4-5.3,2.7-7.7
				c-0.4-0.3-0.9-0.6-1.3-1c-1.4,2.4-2.3,5.1-2.8,7.8l-14.6-8.4c0.4-2.1,1.3-4.1,2.5-5.9c-0.6-0.1-1.3-0.2-1.9-0.2
				c-1,1.6-1.7,3.4-2.1,5.2l-6.3-3.7l0.1-0.1C1321.6,977.9,1321.1,978.3,1320.7,978.6z"/>
			<path class="st25" d="M1342.1,963c1-0.6,2-0.9,3.2-1c2.2-0.2,4.4-0.2,6.6,0.2c0.2-0.4,0.1-0.9-0.2-1.1c-0.1-0.1-0.2-0.1-0.3-0.1
				c-1.9-0.2-3.8-0.2-5.7,0c-1.1,0.1-2.2,0.4-3.2,1l-21.7,12.5c1.1-0.5,2.2-0.9,3.4-1.1L1342.1,963z"/>
			<path class="st25" d="M1384.3,977.3l-1.6,0.9c3.4,2.7,6.4,5.8,9,9.2c1.1,1.4,0.8,3.4-0.6,4.4c-0.1,0.1-0.2,0.2-0.3,0.2
				l-20.3,11.7l0.2,0.3h6.1c1.4,0,2.8-0.4,4-1.1l13-7.5c1-0.6,1.6-1.6,1.6-2.7v-2.9C1392.1,985.2,1388.4,981,1384.3,977.3z"/>
		</g>
	</g>
	<g>
		<polygon class="st13" points="1682.4,727.6 1613.8,687.7 1575.5,675.1 1644.1,715 		"/>
		
			<linearGradient id="SVGID_50_" gradientUnits="userSpaceOnUse" x1="1571.8" y1="3052.8999" x2="1571.8" y2="3140.2" gradientTransform="matrix(1 0 0 -1 0 3872)">
			<stop  offset="0" style="stop-color:#FE9877"/>
			<stop  offset="1" style="stop-color:#FEBAA4"/>
		</linearGradient>
		<polygon class="st67" points="1606.1,771.7 1537.4,731.8 1537.6,779.3 1606.2,819.1 		"/>
		
			<linearGradient id="SVGID_51_" gradientUnits="userSpaceOnUse" x1="1537.4" y1="3148.6001" x2="1644.1" y2="3148.6001" gradientTransform="matrix(1 0 0 -1 0 3872)">
			<stop  offset="0" style="stop-color:#FE5455"/>
			<stop  offset="1" style="stop-color:#FE7F80"/>
		</linearGradient>
		<polygon class="st68" points="1644.1,715 1575.5,675.1 1537.4,731.8 1606.1,771.7 		"/>
		
			<linearGradient id="SVGID_52_" gradientUnits="userSpaceOnUse" x1="1644.3" y1="3052.8999" x2="1644.3" y2="3157" gradientTransform="matrix(1 0 0 -1 0 3872)">
			<stop  offset="0" style="stop-color:#FEBAA4"/>
			<stop  offset="1" style="stop-color:#FFDDD2"/>
		</linearGradient>
		<polygon class="st69" points="1644.1,715 1606.1,771.7 1606.2,819.1 1682.5,775.1 1682.4,727.6 		"/>
		<line class="st17" x1="1537.4" y1="731.8" x2="1575.5" y2="675.1"/>
		<line class="st17" x1="1560.4" y1="745.1" x2="1598.4" y2="688.4"/>
		<line class="st17" x1="1583.3" y1="758.4" x2="1621.3" y2="701.7"/>
		<line class="st17" x1="1606.2" y1="771.7" x2="1644.3" y2="715"/>
		<line class="st17" x1="1575.5" y1="675.1" x2="1644.1" y2="715"/>
		<line class="st17" x1="1562.8" y1="694" x2="1631.4" y2="733.9"/>
		<line class="st17" x1="1550.1" y1="712.9" x2="1618.7" y2="752.8"/>
		<line class="st17" x1="1537.4" y1="731.8" x2="1606.1" y2="771.7"/>
		<circle class="st18" cx="1608.6" cy="720.6" r="2.8"/>
		<circle class="st18" cx="1585.5" cy="707.4" r="2.8"/>
		<circle class="st18" cx="1595.9" cy="739.5" r="2.8"/>
		<circle class="st18" cx="1572.9" cy="726.2" r="2.8"/>
		<polygon class="st70" points="1655.9,790.4 1632.8,803.8 1632.8,772.2 1655.9,758.9 		"/>
	</g>
	<polygon class="st20" points="1750,871.4 1632.8,803.8 1655.9,790.4 1773.1,858 	"/>
	<path class="st21" d="M1573.7,791.6c0,3.6,2.6,6.7,6.1,7.4c1.1,0.2,2.3,0,3.3-0.6h-0.1l4.1-2.2c1.8-1.1,2.9-3.1,2.8-5.2
		c0-3.6-2.6-6.8-6.1-7.5c-1.1-0.2-2.3,0-3.3,0.6l-4.1,2.2h0.1C1574.8,787.4,1573.7,789.4,1573.7,791.6z"/>
	
		<linearGradient id="SVGID_53_" gradientUnits="userSpaceOnUse" x1="1573.74" y1="3080.1707" x2="1588.09" y2="3080.1707" gradientTransform="matrix(1 0 0 -1 0 3872)">
		<stop  offset="0" style="stop-color:#FE5455"/>
		<stop  offset="1" style="stop-color:#FE7F80"/>
	</linearGradient>
	<path class="st71" d="M1582.6,798.7c0.2-0.1,0.5-0.2,0.7-0.3l2.9-1.6c1.3-1.2,1.9-2.9,1.9-4.6c0-3.7-2.6-7-6.3-7.7
		c-0.6-0.1-1.2,0-1.8,0.1l-3.3,1.8c-0.7,0.3-1.2,0.8-1.7,1.4v0.1c-0.1,0.2-0.2,0.4-0.4,0.5c0,0,0,0,0,0.1c-0.2,0.4-0.4,0.9-0.6,1.4
		v0.2c0,0.2-0.1,0.4-0.1,0.6v0.2c0,0.3,0,0.5,0,0.8l0,0c0,2,0.7,4,2,5.5l0,0c0.4,0.4,0.7,0.7,1.2,1c0.3,0.2,0.6,0.4,0.9,0.5
		c0.6,0.3,1.2,0.5,1.8,0.5l0,0c0.3,0,0.6,0,0.8,0h0.2c0.5,0,1.1-0.1,1.6-0.3L1582.6,798.7z"/>
	
		<linearGradient id="SVGID_54_" gradientUnits="userSpaceOnUse" x1="1443.3501" y1="3149.3999" x2="1443.3501" y2="3178.73" gradientTransform="matrix(1 0 0 -1 0 3872)">
		<stop  offset="0" style="stop-color:#FE7F80"/>
		<stop  offset="1" style="stop-color:#FE5455"/>
	</linearGradient>
	<path class="st72" d="M1465.5,711.5c0,6.1-9.9,11.1-22.1,11.1s-22.2-5-22.2-11.1v-18.3h44.3L1465.5,711.5L1465.5,711.5z"/>
	
		<linearGradient id="SVGID_55_" gradientUnits="userSpaceOnUse" x1="1443.3501" y1="3114.8" x2="1443.3501" y2="3160.5" gradientTransform="matrix(1 0 0 -1 0 3872)">
		<stop  offset="0" style="stop-color:#FE7F80"/>
		<stop  offset="1" style="stop-color:#FEA9AA"/>
	</linearGradient>
	<path class="st73" d="M1465.5,746.1c0,6.1-9.9,11.1-22.1,11.1s-22.2-5-22.2-11.1v-34.6c0,6.1,9.9,11.1,22.2,11.1s22.1-5,22.1-11.1
		V746.1z"/>
	<polygon class="st25" points="1440.7,727.4 1442.2,738.1 1437.9,738.1 1445.2,751.1 1444.5,740.4 1448.8,740.4 	"/>
	<path class="st26" d="M1443.4,702.8c-11.2,0-20.6-4.4-20.6-9.6s9.4-9.5,20.6-9.5s20.6,4.4,20.6,9.5S1454.6,702.8,1443.4,702.8z"/>
	<path class="st21" d="M1443.4,685.2c10.9,0,19.1,4.2,19.1,8s-8.2,8-19.1,8s-19.1-4.2-19.1-8S1432.4,685.2,1443.4,685.2
		 M1443.4,682.2c-12.2,0-22.2,5-22.2,11.1s9.9,11.1,22.2,11.1s22.1-5,22.1-11.1S1455.6,682.2,1443.4,682.2z"/>
	
		<linearGradient id="SVGID_56_" gradientUnits="userSpaceOnUse" x1="1443.4" y1="3174.6799" x2="1443.4" y2="3185.46" gradientTransform="matrix(1 0 0 -1 0 3872)">
		<stop  offset="0" style="stop-color:#FE5455"/>
		<stop  offset="1" style="stop-color:#FE7F80"/>
	</linearGradient>
	<path class="st74" d="M1443.4,686.5c-4.5,0-8.1,1.8-8.1,4.1v2.6c0,2.2,3.6,4.1,8.1,4.1s8.1-1.8,8.1-4.1v-2.6
		C1451.5,688.4,1447.9,686.5,1443.4,686.5z"/>
	
		<linearGradient id="SVGID_57_" gradientUnits="userSpaceOnUse" x1="1714" y1="3078.1101" x2="1714" y2="3127.0801" gradientTransform="matrix(1 0 0 -1 0 3872)">
		<stop  offset="0" style="stop-color:#FE764A"/>
		<stop  offset="1" style="stop-color:#FE9877"/>
	</linearGradient>
	<path class="st75" d="M1714,744.9c-3,0-5.5,1.2-5.5,2.7v43.5c0,1.5,2.5,2.7,5.5,2.7s5.5-1.2,5.5-2.7v-43.5
		C1719.5,746.1,1717,744.9,1714,744.9z"/>
	<path class="st29" d="M1752.9,660.5l-25.7-14.8c-4.8-2.8-8.6-3.4-11.4-1.7s-4.2,5.1-4.2,10.7v93c0,0.7,1.1,1.2,2.4,1.2
		s2.4-0.5,2.4-1.2v-93c0-3.5,0.7-5.9,1.8-6.5s3.5,0,6.6,1.7l25.7,14.9c1.2,0.7,2.6,0.3,3.3-0.9
		C1754.4,662.6,1754,661.1,1752.9,660.5L1752.9,660.5L1752.9,660.5z"/>
	
		<linearGradient id="SVGID_58_" gradientUnits="userSpaceOnUse" x1="1748.4783" y1="3200.3286" x2="1748.4783" y2="3218.261" gradientTransform="matrix(1 0 0 -1 0 3872)">
		<stop  offset="0" style="stop-color:#FE764A"/>
		<stop  offset="1" style="stop-color:#FE9877"/>
	</linearGradient>
	<path class="st76" d="M1759.8,669.2c-1,1.7-2.9,2.5-5.9,2.5c-6.5-0.4-12.3-3.8-15.9-9.2c-1.5-2.5-1.8-4.6-0.8-6.3s2.9-2.5,5.9-2.5
		c6.4,0.4,12.3,3.8,15.9,9.2C1760.5,665.4,1760.7,667.6,1759.8,669.2z"/>
	<path class="st31" d="M1579.2,792.8l-41.2,23.4c-3.2,1.8-4.3,5.9-2.5,9.1c0.6,1,1.4,1.9,2.5,2.5l16,9.2"/>
	<g id="Car_3-1-3">
		<g id="Wheels-3">
			
				<linearGradient id="SVGID_59_" gradientUnits="userSpaceOnUse" x1="1599.34" y1="2981.0637" x2="1615.7737" y2="2981.0637" gradientTransform="matrix(1 0 0 -1 0 3872)">
				<stop  offset="0" style="stop-color:#FE7F80"/>
				<stop  offset="1" style="stop-color:#FEA9AA"/>
			</linearGradient>
			<path class="st77" d="M1613.6,887.9c-1.3-2.1-3.1-3.9-5.2-5.2c-2-1.2-3.9-1.4-5.2-0.8c-0.1,0-0.2,0.1-0.4,0.2l-3.4,2l11.2,16.2
				l3.4-2c1.3-0.8,2-2.3,1.8-3.8C1615.6,892.1,1614.9,889.8,1613.6,887.9z"/>
			
				<linearGradient id="SVGID_60_" gradientUnits="userSpaceOnUse" x1="1597.5299" y1="2979.8999" x2="1612.3297" y2="2979.8999" gradientTransform="matrix(1 0 0 -1 0 3872)">
				<stop  offset="0" style="stop-color:#FE7F80"/>
				<stop  offset="1" style="stop-color:#FEA9AA"/>
			</linearGradient>
			<path class="st78" d="M1612.3,896.4c0,2-0.8,3.4-2.2,4s-3.2,0.3-5.2-0.9c-2.1-1.3-3.9-3.1-5.2-5.2c-1.3-1.9-2.1-4.2-2.2-6.5
				c0-2,0.8-3.4,2.2-4s3.2-0.3,5.2,0.9c2.1,1.3,3.9,3.1,5.2,5.2C1611.5,891.8,1612.2,894,1612.3,896.4z"/>
			<path class="st25" d="M1609.9,894.9c0,2.7-2.2,3.7-4.9,2.1s-4.9-5-4.9-7.8s2.2-3.7,4.9-2.1S1609.9,892.2,1609.9,894.9z"/>
			
				<linearGradient id="SVGID_61_" gradientUnits="userSpaceOnUse" x1="1601.96" y1="2980.6072" x2="1609.875" y2="2980.6072" gradientTransform="matrix(1 0 0 -1 0 3872)">
				<stop  offset="0" style="stop-color:#FE7F80"/>
				<stop  offset="1" style="stop-color:#FEA9AA"/>
			</linearGradient>
			<path class="st79" d="M1604.9,887.2c-0.5-0.3-1.1-0.6-1.7-0.7c-0.9,0.4-1.3,1.4-1.2,2.3c0,2.4,2,5.5,4.3,6.8
				c1.4,0.8,2.7,0.9,3.5,0.3c0.1-0.3,0.1-0.7,0.1-1C1609.9,892.2,1607.7,888.7,1604.9,887.2z"/>
			
				<linearGradient id="SVGID_62_" gradientUnits="userSpaceOnUse" x1="1548.08" y1="3010.7278" x2="1564.5137" y2="3010.7278" gradientTransform="matrix(1 0 0 -1 0 3872)">
				<stop  offset="0" style="stop-color:#FE7F80"/>
				<stop  offset="1" style="stop-color:#FEA9AA"/>
			</linearGradient>
			<path class="st80" d="M1562.3,858.3c-1.3-2.1-3.1-3.9-5.2-5.2c-2-1.2-3.9-1.4-5.2-0.9c-0.1,0.1-0.2,0.1-0.4,0.2l-3.4,2l11.2,16.2
				l3.4-2c1.3-0.8,2-2.3,1.8-3.8C1564.4,862.5,1563.6,860.2,1562.3,858.3z"/>
			
				<linearGradient id="SVGID_63_" gradientUnits="userSpaceOnUse" x1="1546.2699" y1="3009.45" x2="1561.0697" y2="3009.45" gradientTransform="matrix(1 0 0 -1 0 3872)">
				<stop  offset="0" style="stop-color:#FE7F80"/>
				<stop  offset="1" style="stop-color:#FEA9AA"/>
			</linearGradient>
			<path class="st81" d="M1561.1,866.8c0,2-0.8,3.4-2.2,4s-3.2,0.3-5.2-0.8c-2.1-1.3-3.9-3.1-5.2-5.2c-1.3-1.9-2.1-4.2-2.2-6.5
				c0-2,0.8-3.4,2.2-4s3.2-0.3,5.2,0.8c2.1,1.3,3.9,3.1,5.2,5.2C1560.2,862.2,1561,864.4,1561.1,866.8z"/>
			<path class="st25" d="M1558.6,865.3c0,2.7-2.2,3.7-4.9,2.1s-4.9-5.1-4.9-7.8s2.2-3.7,4.9-2.1S1558.6,862.6,1558.6,865.3z"/>
			
				<linearGradient id="SVGID_64_" gradientUnits="userSpaceOnUse" x1="1550.7" y1="3010.2073" x2="1558.615" y2="3010.2073" gradientTransform="matrix(1 0 0 -1 0 3872)">
				<stop  offset="0" style="stop-color:#FE7F80"/>
				<stop  offset="1" style="stop-color:#FEA9AA"/>
			</linearGradient>
			<path class="st82" d="M1553.7,857.6c-0.5-0.3-1.1-0.5-1.7-0.7c-0.9,0.4-1.3,1.4-1.2,2.3c0,2.4,1.9,5.5,4.3,6.8
				c1.4,0.8,2.7,0.9,3.5,0.3c0.1-0.3,0.1-0.7,0.1-1C1558.6,862.6,1556.4,859.1,1553.7,857.6z"/>
		</g>
		<g id="Body-3">
			
				<linearGradient id="SVGID_65_" gradientUnits="userSpaceOnUse" x1="1594.71" y1="2987.7" x2="1602.45" y2="2987.7" gradientTransform="matrix(1 0 0 -1 0 3872)">
				<stop  offset="0" style="stop-color:#FE7F80"/>
				<stop  offset="1" style="stop-color:#FEA9AA"/>
			</linearGradient>
			<path class="st83" d="M1599.3,884L1599.3,884l3.1-1.8l-0.9-1.6l-6.8,4l2,3.4l0.9-0.5C1597.5,886.1,1598.2,884.8,1599.3,884z"/>
			
				<linearGradient id="SVGID_66_" gradientUnits="userSpaceOnUse" x1="1543.8201" y1="3019.1001" x2="1552.04" y2="3019.1001" gradientTransform="matrix(1 0 0 -1 0 3872)">
				<stop  offset="0" style="stop-color:#FE7F80"/>
				<stop  offset="1" style="stop-color:#FEA9AA"/>
			</linearGradient>
			<path class="st84" d="M1548.1,854.4L1548.1,854.4l3.4-2c0.1-0.1,0.2-0.1,0.4-0.2h0.2l-1.7-3l-6.5,3.8c0.4,1.1,0.9,2.2,1.4,3.2
				l0.2,0.4l1.3-0.7C1547,855.3,1547.5,854.8,1548.1,854.4z"/>
			
				<linearGradient id="SVGID_67_" gradientUnits="userSpaceOnUse" x1="1542.4" y1="3010.4456" x2="1654.2004" y2="3010.4456" gradientTransform="matrix(1 0 0 -1 0 3872)">
				<stop  offset="0" style="stop-color:#FE5455"/>
				<stop  offset="1" style="stop-color:#FE7F80"/>
			</linearGradient>
			<path class="st85" d="M1642,861.3c-0.8-0.7-6.2-4.5-10.3-7.3c-3.1-2.1-7.3-10.3-16.3-16.7c-5-3.6-17.4-13-34.2-12.7
				c-3.1,0.1-5.5-1.1-8.5-1.6c-2.8-0.5-5.8,0.1-8.2,1.5c-8,4.6-9.6,5.4-16,9.2c-0.7,0.4-3.8,2.5-4.4,4.5c-0.9,2.8-1.4,5.7-1.7,8.7v2
				c0.3,4.8,2,6,3,7.8c0.1-1.5,1-2.8,2.3-3.4c1.5-0.6,3.6-0.4,5.9,1c2.4,1.5,4.4,3.4,5.9,5.8c1.5,2.2,2.3,4.7,2.4,7.3v0.2
				c0,0.3,0.1,0.6,0.4,0.7l34.3,19.7c0-0.2,0-0.5,0-0.7c0-2.3,0.9-3.8,2.4-4.5s3.6-0.4,5.9,1c2.4,1.5,4.4,3.4,5.9,5.8
				c1.5,2.2,2.3,4.7,2.4,7.3c0,0.1,0,0.1,0,0.2c0,0.3,0.1,0.6,0.4,0.7c5.2,3,15.2,3.3,19.5,0.8l17.8-10.2c1.7-1,3.3-2.6,3.3-4.6
				c0-0.6,0-1.2-0.3-1.8c-0.2-0.7-1.1-1.7-1.1-2.3v-2.5C1652.8,874.5,1650.9,868.8,1642,861.3z"/>
			
				<linearGradient id="SVGID_68_" gradientUnits="userSpaceOnUse" x1="1632.7004" y1="2986.165" x2="1647.575" y2="2986.165" gradientTransform="matrix(1 0 0 -1 0 3872)">
				<stop  offset="0" style="stop-color:#FE7F80"/>
				<stop  offset="1" style="stop-color:#FEA9AA"/>
			</linearGradient>
			<path class="st86" d="M1634.5,891.3l12.4-7.2c1.5-0.9,0.2-4.6-1-3.8l-12.1,7C1632.1,888.2,1632.4,892.4,1634.5,891.3z"/>
			<path class="st25" d="M1597.5,876.7l-1.6-0.9c-0.4-0.3-0.7-0.7-0.8-1.2l0,0c0-0.4,0.4-0.6,0.8-0.3l1.6,0.9
				c0.4,0.3,0.7,0.7,0.8,1.2l0,0C1598.3,876.8,1598,877,1597.5,876.7z"/>
		</g>
		<g id="Headlights-3">
			<path class="st25" d="M1622.6,889.6c1.6,0.4,3.4,0.2,4.8-0.6l4-2.3c0.5-0.3-1-2.7-2.6-2.6s-4.7,2.8-6.9,2.2
				C1619.9,885.8,1617.9,888.3,1622.6,889.6z"/>
			<path class="st25" d="M1651.5,872.5c-0.4-0.7-0.8-1.5-1.2-2.2c-0.9,1.8-2.7,2.4-3.9,3.7c-1.6,1.8-0.6,4.2,0,3.9s2-1.2,4.1-2.4
				C1651.6,875,1652,873.6,1651.5,872.5z"/>
		</g>
		<g id="Windows-3">
			
				<linearGradient id="SVGID_69_" gradientUnits="userSpaceOnUse" x1="1596.8" y1="3016.3999" x2="1630.1" y2="3016.3999" gradientTransform="matrix(1 0 0 -1 0 3872)">
				<stop  offset="0" style="stop-color:#FE7F80"/>
				<stop  offset="1" style="stop-color:#FEA9AA"/>
			</linearGradient>
			<path class="st87" d="M1619.3,842.2l-22.5,13l8.7,13.8h6.1c1.4,0,2.8-0.4,3.9-1.1l13-7.5c1-0.6,1.6-1.6,1.6-2.7v-2.9
				C1627.1,850.2,1623.4,845.9,1619.3,842.2z"/>
			
				<linearGradient id="SVGID_70_" gradientUnits="userSpaceOnUse" x1="1555.7001" y1="3017.2383" x2="1598.8" y2="3017.2383" gradientTransform="matrix(1 0 0 -1 0 3872)">
				<stop  offset="0" style="stop-color:#FE7F80"/>
				<stop  offset="1" style="stop-color:#FEA9AA"/>
			</linearGradient>
			<path class="st88" d="M1598.8,868.4l-43.1-24.9c0,0,8.2-6.5,22.8,2C1595.9,855.5,1598.8,868.4,1598.8,868.4z"/>
			
				<linearGradient id="SVGID_71_" gradientUnits="userSpaceOnUse" x1="1555.7002" y1="3039.5249" x2="1586.9476" y2="3039.5249" gradientTransform="matrix(1 0 0 -1 0 3872)">
				<stop  offset="0" style="stop-color:#FE7F80"/>
				<stop  offset="1" style="stop-color:#FEA9AA"/>
			</linearGradient>
			<path class="st89" d="M1586.6,827.3c0.4-0.2,0.5-0.7,0.3-1.1c-0.1-0.2-0.3-0.4-0.6-0.4c-1.9-0.2-3.8-0.2-5.7,0
				c-1.1,0.1-2.2,0.4-3.2,1l-21.7,12.5c0,0,3.5-1.9,9.9-1.3c1.3,0.1,2.6-0.2,3.7-0.8L1586.6,827.3z"/>
			<path class="st25" d="M1555.7,843.5l43.1,24.9c-0.2-0.7-0.4-1.3-0.6-2l0,0l-17.2-10c0.5-2.7,1.4-5.3,2.7-7.7
				c-0.4-0.3-0.9-0.6-1.3-0.9c-1.4,2.4-2.3,5.1-2.8,7.8l-14.6-8.5c0.4-2.1,1.3-4.1,2.5-5.8c-0.6-0.1-1.3-0.2-1.9-0.2
				c-1,1.6-1.7,3.4-2.1,5.2l-6.3-3.7l0.1-0.1C1556.6,842.8,1556.2,843.1,1555.7,843.5z"/>
			<path class="st25" d="M1577.1,827.9c1-0.6,2-0.9,3.2-1c2.2-0.2,4.4-0.2,6.6,0.2c0.2-0.4,0.1-0.9-0.2-1.1
				c-0.1-0.1-0.2-0.1-0.3-0.1c-1.9-0.2-3.8-0.2-5.7,0c-1.1,0.1-2.2,0.4-3.2,1l-21.7,12.5c1.1-0.5,2.2-0.9,3.4-1.1L1577.1,827.9z"/>
			<path class="st25" d="M1619.3,842.2l-1.6,0.9c3.4,2.7,6.4,5.8,9,9.2c1.1,1.4,0.8,3.4-0.6,4.4c-0.1,0.1-0.2,0.2-0.3,0.2
				l-20.3,11.7l0.2,0.3h6.1c1.4,0,2.8-0.4,4-1.1l13-7.5c1-0.6,1.6-1.6,1.6-2.7v-2.9C1627.1,850.1,1623.5,845.9,1619.3,842.2z"/>
		</g>
	</g>
	<polygon class="st19" points="1655.9,790.4 1632.8,803.8 1632.8,772.3 1655.9,758.9 	"/>
	<g>
		
			<linearGradient id="SVGID_72_" gradientUnits="userSpaceOnUse" x1="1067.3" y1="2878.3999" x2="1173.9" y2="2878.3999" gradientTransform="matrix(1 0 0 -1 0 3872)">
			<stop  offset="0" style="stop-color:#FE764A"/>
			<stop  offset="1" style="stop-color:#FE9877"/>
		</linearGradient>
		<polygon class="st90" points="1173.9,985.2 1105.3,945.3 1067.3,1002 1135.9,1041.9 		"/>
		<line class="st91" x1="1067.3" y1="1002" x2="1105.3" y2="945.3"/>
		<line class="st91" x1="1090.2" y1="1015.3" x2="1128.3" y2="958.6"/>
		<line class="st91" x1="1113.1" y1="1028.6" x2="1151.2" y2="971.9"/>
		<line class="st91" x1="1136" y1="1041.9" x2="1174.1" y2="985.2"/>
		<line class="st91" x1="1105.3" y1="945.3" x2="1173.9" y2="985.2"/>
		<line class="st91" x1="1092.7" y1="964.2" x2="1161.3" y2="1004.1"/>
		<line class="st91" x1="1080" y1="983.1" x2="1148.6" y2="1023"/>
		<line class="st91" x1="1067.3" y1="1002" x2="1135.9" y2="1041.9"/>
		<circle class="st29" cx="1138.5" cy="990.8" r="2.8"/>
		<circle class="st29" cx="1115.3" cy="977.7" r="2.8"/>
		<circle class="st29" cx="1125.7" cy="1009.8" r="2.8"/>
		<circle class="st29" cx="1102.8" cy="996.4" r="2.8"/>
	</g>
	<path class="st21" d="M1103.6,1061.8c0,3.6,2.6,6.7,6.1,7.4c1.1,0.2,2.3,0,3.3-0.6h-0.1l4.1-2.2c1.8-1.1,2.9-3.1,2.8-5.2
		c0-3.6-2.6-6.7-6.1-7.4c-1.1-0.2-2.3,0-3.3,0.6l-4.1,2.2h0.1C1104.6,1057.6,1103.5,1059.6,1103.6,1061.8z"/>
	
		<linearGradient id="SVGID_73_" gradientUnits="userSpaceOnUse" x1="1103.5699" y1="2809.9207" x2="1117.91" y2="2809.9207" gradientTransform="matrix(1 0 0 -1 0 3872)">
		<stop  offset="0" style="stop-color:#FE764A"/>
		<stop  offset="1" style="stop-color:#FE9877"/>
	</linearGradient>
	<path class="st92" d="M1112.4,1068.9c0.2-0.1,0.5-0.2,0.7-0.3l2.9-1.6c1.3-1.2,1.9-2.9,1.9-4.6c0-3.7-2.6-7-6.3-7.7
		c-0.6-0.1-1.2,0-1.8,0.1l-3.3,1.8c-0.7,0.3-1.2,0.8-1.7,1.4v0.1c-0.1,0.2-0.3,0.4-0.4,0.6c0,0,0,0,0,0.1c-0.2,0.4-0.4,0.9-0.6,1.4
		v0.2c0,0.2-0.1,0.4-0.1,0.6v0.2c0,0.3,0,0.5,0,0.8l0,0c0,2,0.8,3.9,2.2,5.4l0,0c0.4,0.4,0.7,0.7,1.2,1c0.3,0.2,0.6,0.4,0.9,0.5
		c0.6,0.3,1.2,0.5,1.8,0.6l0,0c0.3,0,0.6,0,0.8,0h0.2C1111.4,1069.2,1111.9,1069.1,1112.4,1068.9L1112.4,1068.9z"/>
	
		<linearGradient id="SVGID_74_" gradientUnits="userSpaceOnUse" x1="973.1" y1="2879.2" x2="973.1" y2="2908.53" gradientTransform="matrix(1 0 0 -1 0 3872)">
		<stop  offset="0" style="stop-color:#FE9877"/>
		<stop  offset="1" style="stop-color:#FE764A"/>
	</linearGradient>
	<path class="st93" d="M995.3,981.7c0,6.1-9.9,11.1-22.2,11.1s-22.2-5-22.2-11.1v-18.3h44.3L995.3,981.7z"/>
	
		<linearGradient id="SVGID_75_" gradientUnits="userSpaceOnUse" x1="973.1" y1="2844.55" x2="973.1" y2="2890.25" gradientTransform="matrix(1 0 0 -1 0 3872)">
		<stop  offset="0" style="stop-color:#FE9877"/>
		<stop  offset="1" style="stop-color:#FEBAA4"/>
	</linearGradient>
	<path class="st94" d="M995.3,1016.4c0,6.1-9.9,11.1-22.2,11.1s-22.2-5-22.2-11.1v-34.6c0,6.1,9.9,11.1,22.2,11.1s22.2-5,22.2-11.1
		V1016.4z"/>
	<polygon class="st29" points="970.5,997.7 972,1008.3 967.7,1008.3 975,1021.4 974.3,1010.7 978.7,1010.7 	"/>
	<path class="st95" d="M973.2,973c-11.2,0-20.6-4.4-20.6-9.6s9.5-9.5,20.6-9.5s20.6,4.4,20.6,9.5S984.4,973,973.2,973z"/>
	<path class="st13" d="M973.2,955.5c10.9,0,19.1,4.2,19.1,8s-8.2,8-19.1,8s-19.1-4.2-19.1-8S962.2,955.5,973.2,955.5 M973.2,952.5
		c-12.2,0-22.2,5-22.2,11.1s9.9,11.1,22.2,11.1s22.2-5,22.2-11.1S985.4,952.5,973.2,952.5z"/>
	
		<linearGradient id="SVGID_76_" gradientUnits="userSpaceOnUse" x1="973.2" y1="2904.45" x2="973.2" y2="2915.22" gradientTransform="matrix(1 0 0 -1 0 3872)">
		<stop  offset="0" style="stop-color:#FE764A"/>
		<stop  offset="1" style="stop-color:#FE9877"/>
	</linearGradient>
	<path class="st96" d="M973.2,956.8c-4.5,0-8.1,1.8-8.1,4.1v2.6c0,2.2,3.6,4.1,8.1,4.1s8.1-1.8,8.1-4.1v-2.6
		C981.3,958.6,977.7,956.8,973.2,956.8z"/>
	<path class="st97" d="M1109,1063l-41.2,23.4c-3.2,1.8-4.3,5.9-2.5,9.1c0.6,1,1.4,1.9,2.5,2.5l16,9.2"/>
	<g id="Car_3-1-4">
		<g id="Wheels-4">
			
				<linearGradient id="SVGID_77_" gradientUnits="userSpaceOnUse" x1="1129.16" y1="2710.9277" x2="1145.5938" y2="2710.9277" gradientTransform="matrix(1 0 0 -1 0 3872)">
				<stop  offset="0" style="stop-color:#FE764A"/>
				<stop  offset="1" style="stop-color:#FEBAA4"/>
			</linearGradient>
			<path class="st98" d="M1143.4,1158.1c-1.3-2.1-3.1-3.9-5.2-5.2c-2-1.2-3.9-1.4-5.2-0.9l-0.4,0.2l-3.4,2l11.2,16.2l3.4-2
				c1.3-0.8,2-2.3,1.8-3.8C1145.5,1162.3,1144.7,1160.1,1143.4,1158.1z"/>
			
				<linearGradient id="SVGID_78_" gradientUnits="userSpaceOnUse" x1="1127.36" y1="2709.7019" x2="1142.1598" y2="2709.7019" gradientTransform="matrix(1 0 0 -1 0 3872)">
				<stop  offset="0" style="stop-color:#FE764A"/>
				<stop  offset="1" style="stop-color:#FEBAA4"/>
			</linearGradient>
			<path class="st99" d="M1142.2,1166.6c0,2-0.8,3.4-2.2,4s-3.2,0.3-5.2-0.9c-2.1-1.3-3.9-3.1-5.2-5.2c-1.3-1.9-2-4.2-2.2-6.5
				c0-2,0.8-3.4,2.2-4s3.2-0.3,5.2,0.8c2.1,1.3,3.9,3.1,5.2,5.2C1141.3,1162,1142,1164.3,1142.2,1166.6z"/>
			<path class="st25" d="M1139.7,1165.2c0,2.7-2.2,3.7-4.9,2.1s-4.9-5.1-4.9-7.8s2.2-3.7,4.9-2.1S1139.7,1162.4,1139.7,1165.2z"/>
			
				<linearGradient id="SVGID_79_" gradientUnits="userSpaceOnUse" x1="1131.78" y1="2710.407" x2="1139.6899" y2="2710.407" gradientTransform="matrix(1 0 0 -1 0 3872)">
				<stop  offset="0" style="stop-color:#FE764A"/>
				<stop  offset="1" style="stop-color:#FEBAA4"/>
			</linearGradient>
			<path class="st100" d="M1134.8,1157.4c-0.5-0.3-1.1-0.6-1.7-0.7c-0.8,0.4-1.3,1.4-1.2,2.3c0,2.4,2,5.5,4.3,6.8
				c1.4,0.8,2.7,0.9,3.4,0.3c0.1-0.3,0.1-0.7,0.1-1C1139.7,1162.4,1137.5,1159,1134.8,1157.4z"/>
			
				<linearGradient id="SVGID_80_" gradientUnits="userSpaceOnUse" x1="1077.9" y1="2740.4639" x2="1094.3337" y2="2740.4639" gradientTransform="matrix(1 0 0 -1 0 3872)">
				<stop  offset="0" style="stop-color:#FE764A"/>
				<stop  offset="1" style="stop-color:#FEBAA4"/>
			</linearGradient>
			<path class="st101" d="M1092.2,1128.5c-1.3-2.1-3.1-3.9-5.2-5.2c-2.1-1.2-3.9-1.4-5.2-0.8c-0.1,0-0.2,0.1-0.4,0.2l-3.4,2
				l11.2,16.2l3.4-2c1.3-0.8,2-2.3,1.8-3.8C1094.2,1132.7,1093.5,1130.5,1092.2,1128.5z"/>
			
				<linearGradient id="SVGID_81_" gradientUnits="userSpaceOnUse" x1="1076.1002" y1="2739.25" x2="1090.9" y2="2739.25" gradientTransform="matrix(1 0 0 -1 0 3872)">
				<stop  offset="0" style="stop-color:#FE764A"/>
				<stop  offset="1" style="stop-color:#FEBAA4"/>
			</linearGradient>
			<path class="st102" d="M1090.9,1137c0,2-0.8,3.4-2.2,4s-3.2,0.3-5.2-0.8c-2.1-1.3-3.9-3.1-5.2-5.2c-1.3-1.9-2-4.2-2.2-6.5
				c0-2,0.8-3.4,2.2-4s3.2-0.3,5.2,0.8c2.1,1.3,3.9,3.1,5.2,5.2C1090,1132.4,1090.8,1134.7,1090.9,1137z"/>
			<path class="st25" d="M1088.4,1135.6c0,2.7-2.2,3.7-4.9,2.1s-4.9-5.1-4.9-7.8s2.2-3.7,4.9-2.1S1088.4,1132.8,1088.4,1135.6z"/>
			
				<linearGradient id="SVGID_82_" gradientUnits="userSpaceOnUse" x1="1080.52" y1="2740.0071" x2="1088.4327" y2="2740.0071" gradientTransform="matrix(1 0 0 -1 0 3872)">
				<stop  offset="0" style="stop-color:#FE764A"/>
				<stop  offset="1" style="stop-color:#FEBAA4"/>
			</linearGradient>
			<path class="st103" d="M1083.5,1127.8c-0.5-0.3-1.1-0.5-1.7-0.7c-0.8,0.4-1.3,1.4-1.2,2.3c0,2.4,2,5.5,4.3,6.8
				c1.4,0.8,2.7,0.9,3.5,0.3c0.1-0.3,0.1-0.7,0.1-1C1088.4,1132.8,1086.2,1129.4,1083.5,1127.8z"/>
		</g>
		<g id="Body-4">
			
				<linearGradient id="SVGID_83_" gradientUnits="userSpaceOnUse" x1="1124.53" y1="2717.55" x2="1132.27" y2="2717.55" gradientTransform="matrix(1 0 0 -1 0 3872)">
				<stop  offset="0" style="stop-color:#FE764A"/>
				<stop  offset="1" style="stop-color:#FEBAA4"/>
			</linearGradient>
			<path class="st104" d="M1129.2,1154.2L1129.2,1154.2l3.1-1.8l-0.9-1.6l-6.8,3.9l2,3.4l0.9-0.5
				C1127.3,1156.4,1128,1155,1129.2,1154.2z"/>
			
				<linearGradient id="SVGID_84_" gradientUnits="userSpaceOnUse" x1="1073.6401" y1="2748.8999" x2="1081.8601" y2="2748.8999" gradientTransform="matrix(1 0 0 -1 0 3872)">
				<stop  offset="0" style="stop-color:#FE764A"/>
				<stop  offset="1" style="stop-color:#FEBAA4"/>
			</linearGradient>
			<path class="st105" d="M1077.9,1124.7L1077.9,1124.7l3.4-2c0.1-0.1,0.2-0.1,0.4-0.2l0.2-0.1l-1.7-3l-6.5,3.8
				c0.4,1.1,0.9,2.2,1.4,3.2l0.2,0.4l1.3-0.7C1076.9,1125.5,1077.3,1125,1077.9,1124.7z"/>
			
				<linearGradient id="SVGID_85_" gradientUnits="userSpaceOnUse" x1="1072.2001" y1="2740.2021" x2="1184.038" y2="2740.2021" gradientTransform="matrix(1 0 0 -1 0 3872)">
				<stop  offset="0" style="stop-color:#FE764A"/>
				<stop  offset="1" style="stop-color:#FE9877"/>
			</linearGradient>
			<path class="st106" d="M1171.8,1131.5c-0.8-0.7-6.2-4.5-10.3-7.3c-3.1-2.1-7.3-10.3-16.3-16.7c-5-3.6-17.4-13-34.2-12.7
				c-3,0.1-5.5-1.1-8.5-1.6c-2.8-0.5-5.8,0-8.2,1.5c-8,4.6-9.6,5.4-16,9.2c-0.7,0.4-3.8,2.5-4.4,4.5c-0.9,2.8-1.4,5.7-1.7,8.7v2
				c0.3,4.8,2,6,3,7.8c0.1-1.5,1-2.8,2.3-3.4c1.5-0.6,3.6-0.4,5.9,1c2.4,1.4,4.4,3.4,5.9,5.8c1.5,2.2,2.3,4.7,2.4,7.3
				c0,0.1,0,0.1,0,0.2c0,0.3,0.1,0.6,0.4,0.7l34.3,19.8c0-0.2,0-0.5,0-0.7c0-2.3,0.9-3.8,2.4-4.5s3.6-0.4,5.9,1
				c2.4,1.5,4.4,3.4,5.9,5.8c1.5,2.2,2.3,4.7,2.4,7.3v0.2c0,0.3,0.1,0.6,0.4,0.7c5.2,3,15.2,3.3,19.5,0.8l17.8-10.2
				c1.7-1,3.3-2.6,3.3-4.6c0.1-0.6,0-1.2-0.3-1.8c-0.2-0.7-1.1-1.7-1.1-2.3v-2.5C1182.6,1144.7,1180.7,1139,1171.8,1131.5z"/>
			
				<linearGradient id="SVGID_86_" gradientUnits="userSpaceOnUse" x1="1162.5139" y1="2715.9514" x2="1177.3792" y2="2715.9514" gradientTransform="matrix(1 0 0 -1 0 3872)">
				<stop  offset="0" style="stop-color:#FE764A"/>
				<stop  offset="1" style="stop-color:#FEBAA4"/>
			</linearGradient>
			<path class="st107" d="M1164.3,1161.5l12.4-7.2c1.5-0.9,0.2-4.6-1-3.8l-12.1,7C1161.9,1158.4,1162.3,1162.7,1164.3,1161.5z"/>
			<path class="st25" d="M1127.4,1146.9l-1.6-0.9c-0.4-0.3-0.7-0.7-0.8-1.2l0,0c0-0.4,0.3-0.6,0.8-0.3l1.6,0.9
				c0.4,0.3,0.7,0.7,0.8,1.2l0,0C1128.2,1147,1127.8,1147.2,1127.4,1146.9z"/>
		</g>
		<g id="Headlights-4">
			<path class="st25" d="M1152.4,1159.8c1.6,0.4,3.4,0.2,4.8-0.6l3.9-2.3c0.6-0.3-1-2.7-2.6-2.6s-4.7,2.8-6.9,2.2
				C1149.7,1156,1147.8,1158.5,1152.4,1159.8z"/>
			<path class="st25" d="M1181.3,1142.8c-0.4-0.7-0.8-1.5-1.2-2.2c-0.9,1.8-2.7,2.4-3.9,3.7c-1.6,1.8-0.6,4.2,0,3.9l4.1-2.4
				C1181.4,1145.2,1181.8,1143.9,1181.3,1142.8z"/>
		</g>
		<g id="Windows-4">
			
				<linearGradient id="SVGID_87_" gradientUnits="userSpaceOnUse" x1="1126.65" y1="2746.2" x2="1159.95" y2="2746.2" gradientTransform="matrix(1 0 0 -1 0 3872)">
				<stop  offset="0" style="stop-color:#FE764A"/>
				<stop  offset="1" style="stop-color:#FEBAA4"/>
			</linearGradient>
			<path class="st108" d="M1149.1,1112.4l-22.5,13l8.7,13.8h6.1c1.4,0,2.8-0.4,4-1.1l12.9-7.5c1-0.6,1.6-1.6,1.6-2.7v-2.9
				C1156.9,1120.4,1153.2,1116.1,1149.1,1112.4z"/>
			
				<linearGradient id="SVGID_88_" gradientUnits="userSpaceOnUse" x1="1085.5" y1="2747.0383" x2="1128.6" y2="2747.0383" gradientTransform="matrix(1 0 0 -1 0 3872)">
				<stop  offset="0" style="stop-color:#FE764A"/>
				<stop  offset="1" style="stop-color:#FEBAA4"/>
			</linearGradient>
			<path class="st109" d="M1128.6,1138.6l-43.1-24.9c0,0,8.2-6.5,22.8,2C1125.7,1125.7,1128.6,1138.6,1128.6,1138.6z"/>
			
				<linearGradient id="SVGID_89_" gradientUnits="userSpaceOnUse" x1="1085.5002" y1="2769.325" x2="1116.7477" y2="2769.325" gradientTransform="matrix(1 0 0 -1 0 3872)">
				<stop  offset="0" style="stop-color:#FE764A"/>
				<stop  offset="1" style="stop-color:#FEBAA4"/>
			</linearGradient>
			<path class="st110" d="M1116.4,1097.5c0.4-0.2,0.5-0.7,0.3-1.1c-0.1-0.2-0.3-0.4-0.6-0.4c-1.9-0.2-3.8-0.2-5.7,0
				c-1.1,0.1-2.2,0.4-3.2,1l-21.7,12.5c0,0,3.5-1.9,9.9-1.3c1.3,0.1,2.6-0.2,3.7-0.8L1116.4,1097.5z"/>
			<path class="st25" d="M1085.5,1113.7l43.1,24.9c-0.2-0.7-0.4-1.3-0.6-2l0,0l-17.2-10c0.5-2.7,1.4-5.3,2.7-7.7
				c-0.4-0.3-0.9-0.6-1.3-0.9c-1.4,2.4-2.3,5.1-2.8,7.8l-14.6-8.4c0.4-2.1,1.3-4.1,2.5-5.9c-0.7-0.1-1.3-0.2-1.9-0.2
				c-1,1.6-1.7,3.4-2.1,5.2l-6.3-3.7l0.1-0.1C1086.5,1113,1086,1113.4,1085.5,1113.7z"/>
			<path class="st25" d="M1106.9,1098.1c1-0.6,2-0.9,3.2-1c2.2-0.2,4.4-0.2,6.6,0.2c0.2-0.4,0.1-0.8-0.2-1.1
				c-0.1-0.1-0.2-0.1-0.3-0.1c-1.9-0.2-3.8-0.2-5.7,0c-1.1,0.1-2.2,0.4-3.2,1l-21.7,12.5c1.1-0.5,2.2-0.9,3.4-1.1L1106.9,1098.1z"/>
			<path class="st25" d="M1149.1,1112.4l-1.6,0.9c3.4,2.7,6.4,5.8,9,9.2c1.1,1.4,0.8,3.3-0.6,4.4c-0.1,0.1-0.2,0.2-0.4,0.2
				l-20.4,11.8l0.2,0.3h6.1c1.4,0,2.8-0.4,4-1.1l12.9-7.5c1-0.6,1.6-1.6,1.6-2.7v-3C1156.9,1120.4,1153.2,1116.1,1149.1,1112.4z"/>
		</g>
	</g>
	<g>
		
			<linearGradient id="SVGID_90_" gradientUnits="userSpaceOnUse" x1="1302.4" y1="3013.5" x2="1409.1" y2="3013.5" gradientTransform="matrix(1 0 0 -1 0 3872)">
			<stop  offset="0" style="stop-color:#FE764A"/>
			<stop  offset="1" style="stop-color:#FE9877"/>
		</linearGradient>
		<polygon class="st111" points="1409.1,850.1 1340.5,810.2 1302.4,866.9 1371,906.8 		"/>
		<line class="st91" x1="1302.4" y1="866.9" x2="1340.5" y2="810.2"/>
		<line class="st91" x1="1325.3" y1="880.2" x2="1363.4" y2="823.5"/>
		<line class="st91" x1="1348.2" y1="893.5" x2="1386.3" y2="836.8"/>
		<line class="st91" x1="1371.2" y1="906.8" x2="1409.2" y2="850.1"/>
		<line class="st91" x1="1340.5" y1="810.2" x2="1409.1" y2="850.1"/>
		<line class="st91" x1="1327.8" y1="829.1" x2="1396.4" y2="869"/>
		<line class="st91" x1="1315.1" y1="848" x2="1383.7" y2="887.9"/>
		<line class="st91" x1="1302.4" y1="866.9" x2="1371" y2="906.8"/>
		<circle class="st29" cx="1373.6" cy="855.7" r="2.8"/>
		<circle class="st29" cx="1350.5" cy="842.5" r="2.8"/>
		<circle class="st29" cx="1360.8" cy="874.7" r="2.8"/>
		<circle class="st29" cx="1337.9" cy="861.3" r="2.8"/>
	</g>
	<path class="st21" d="M1338.7,926.7c0,3.6,2.6,6.7,6.1,7.4c1.1,0.2,2.3,0,3.3-0.6h-0.1l4.1-2.2c1.8-1.1,2.9-3.1,2.8-5.2
		c0-3.6-2.6-6.7-6.1-7.4c-1.1-0.2-2.3,0-3.3,0.6l-4.1,2.2h0.1C1339.8,922.5,1338.6,924.5,1338.7,926.7z"/>
	
		<linearGradient id="SVGID_91_" gradientUnits="userSpaceOnUse" x1="1338.71" y1="2945.1206" x2="1353.0601" y2="2945.1206" gradientTransform="matrix(1 0 0 -1 0 3872)">
		<stop  offset="0" style="stop-color:#FE764A"/>
		<stop  offset="1" style="stop-color:#FE9877"/>
	</linearGradient>
	<path class="st112" d="M1347.6,933.8c0.2-0.1,0.5-0.2,0.7-0.3l2.9-1.6c1.3-1.2,1.9-2.9,1.9-4.6c0-3.7-2.6-7-6.3-7.7
		c-0.6-0.1-1.2,0-1.8,0.1c0,0-3.2,1.8-3.3,1.8c-0.7,0.3-1.2,0.8-1.7,1.4v0.1c-0.1,0.2-0.2,0.4-0.4,0.5c0,0,0,0,0,0.1
		c-0.2,0.4-0.4,0.9-0.6,1.4c0,0.1,0,0.1,0,0.2s-0.1,0.4-0.1,0.6v0.2c0,0.3,0,0.5,0,0.8l0,0c0,2,0.8,3.9,2.2,5.4l0,0
		c0.3,0.4,0.7,0.7,1.2,1c0.3,0.2,0.6,0.4,0.9,0.5c0.6,0.3,1.2,0.5,1.8,0.5l0,0c0.3,0,0.6,0,0.8,0h0.2
		C1346.6,934.1,1347.1,934,1347.6,933.8L1347.6,933.8z"/>
	
		<linearGradient id="SVGID_92_" gradientUnits="userSpaceOnUse" x1="1208.3501" y1="3014.3" x2="1208.3501" y2="3043.6001" gradientTransform="matrix(1 0 0 -1 0 3872)">
		<stop  offset="0" style="stop-color:#FE9877"/>
		<stop  offset="1" style="stop-color:#FE764A"/>
	</linearGradient>
	<path class="st113" d="M1230.5,846.6c0,6.1-9.9,11.1-22.1,11.1s-22.2-5-22.2-11.1v-18.2h44.3L1230.5,846.6L1230.5,846.6z"/>
	
		<linearGradient id="SVGID_93_" gradientUnits="userSpaceOnUse" x1="1208.3501" y1="2979.7" x2="1208.3501" y2="3025.3999" gradientTransform="matrix(1 0 0 -1 0 3872)">
		<stop  offset="0" style="stop-color:#FE9877"/>
		<stop  offset="1" style="stop-color:#FEBAA4"/>
	</linearGradient>
	<path class="st114" d="M1230.5,881.2c0,6.1-9.9,11.1-22.1,11.1s-22.2-5-22.2-11.1v-34.6c0,6.1,9.9,11.1,22.2,11.1s22.1-5,22.1-11.1
		V881.2z"/>
	<polygon class="st29" points="1205.6,862.5 1207.1,873.2 1202.8,873.2 1210.2,886.2 1209.5,875.5 1213.8,875.5 	"/>
	<path class="st95" d="M1208.3,837.9c-11.2,0-20.6-4.4-20.6-9.5s9.4-9.6,20.6-9.6s20.6,4.4,20.6,9.6S1219.5,837.9,1208.3,837.9z"/>
	<path class="st13" d="M1208.3,820.3c10.9,0,19.1,4.2,19.1,8s-8.2,8-19.1,8s-19.1-4.2-19.1-8S1197.4,820.3,1208.3,820.3
		 M1208.3,817.3c-12.2,0-22.2,5-22.2,11.1s9.9,11.1,22.2,11.1s22.1-5,22.1-11.1S1220.6,817.3,1208.3,817.3z"/>
	
		<linearGradient id="SVGID_94_" gradientUnits="userSpaceOnUse" x1="1208.301" y1="3039.5801" x2="1208.301" y2="3050.3501" gradientTransform="matrix(1 0 0 -1 0 3872)">
		<stop  offset="0" style="stop-color:#FE764A"/>
		<stop  offset="1" style="stop-color:#FE9877"/>
	</linearGradient>
	<path class="st115" d="M1208.3,821.7c-4.5,0-8.1,1.8-8.1,4.1v2.7c0,2.2,3.6,4.1,8.1,4.1s8.1-1.8,8.1-4.1v-2.7
		C1216.5,823.5,1212.8,821.7,1208.3,821.7z"/>
	<path class="st97" d="M1344.1,927.9l-41.1,23.4c-3.2,1.8-4.3,5.9-2.5,9.1c0.6,1,1.4,1.9,2.5,2.5l16,9.2"/>
	<g id="Car_3-1-5">
		<g id="Wheels-5">
			
				<linearGradient id="SVGID_95_" gradientUnits="userSpaceOnUse" x1="1364.3101" y1="2846.0278" x2="1380.7438" y2="2846.0278" gradientTransform="matrix(1 0 0 -1 0 3872)">
				<stop  offset="0" style="stop-color:#FE764A"/>
				<stop  offset="1" style="stop-color:#FEBAA4"/>
			</linearGradient>
			<path class="st116" d="M1378.6,1023c-1.3-2.1-3.1-3.9-5.2-5.2c-2-1.2-3.9-1.4-5.2-0.9l-0.4,0.2l-3.4,2l11.2,16.2l3.4-2
				c1.3-0.8,2-2.3,1.8-3.8C1380.6,1027.2,1379.9,1024.9,1378.6,1023z"/>
			
				<linearGradient id="SVGID_96_" gradientUnits="userSpaceOnUse" x1="1362.5002" y1="2844.802" x2="1377.3" y2="2844.802" gradientTransform="matrix(1 0 0 -1 0 3872)">
				<stop  offset="0" style="stop-color:#FE764A"/>
				<stop  offset="1" style="stop-color:#FEBAA4"/>
			</linearGradient>
			<path class="st117" d="M1377.3,1031.5c0,2-0.8,3.4-2.2,4s-3.2,0.3-5.2-0.9c-2.1-1.3-3.9-3.1-5.2-5.2c-1.3-1.9-2.1-4.2-2.2-6.5
				c0-2,0.8-3.4,2.2-4s3.2-0.3,5.2,0.8c2.1,1.3,3.9,3.1,5.2,5.2C1376.4,1026.9,1377.2,1029.1,1377.3,1031.5z"/>
			<path class="st25" d="M1374.8,1030c0,2.7-2.2,3.7-4.9,2.1s-4.9-5.1-4.9-7.8s2.2-3.7,4.9-2.1S1374.8,1027.3,1374.8,1030z"/>
			
				<linearGradient id="SVGID_97_" gradientUnits="userSpaceOnUse" x1="1366.9301" y1="2845.5071" x2="1374.8451" y2="2845.5071" gradientTransform="matrix(1 0 0 -1 0 3872)">
				<stop  offset="0" style="stop-color:#FE764A"/>
				<stop  offset="1" style="stop-color:#FEBAA4"/>
			</linearGradient>
			<path class="st118" d="M1369.9,1022.3c-0.5-0.3-1.1-0.6-1.7-0.7c-0.9,0.4-1.3,1.4-1.2,2.3c0,2.4,1.9,5.5,4.3,6.8
				c1.4,0.8,2.7,0.9,3.5,0.3c0.1-0.3,0.1-0.7,0.1-1C1374.8,1027.3,1372.6,1023.8,1369.9,1022.3z"/>
			
				<linearGradient id="SVGID_98_" gradientUnits="userSpaceOnUse" x1="1313.05" y1="2875.5637" x2="1329.4838" y2="2875.5637" gradientTransform="matrix(1 0 0 -1 0 3872)">
				<stop  offset="0" style="stop-color:#FE764A"/>
				<stop  offset="1" style="stop-color:#FEBAA4"/>
			</linearGradient>
			<path class="st119" d="M1327.3,993.4c-1.3-2.1-3.1-3.9-5.2-5.2c-2-1.2-3.9-1.4-5.2-0.8c-0.1,0-0.2,0.1-0.4,0.2l-3.4,2l11.2,16.2
				l3.4-2c1.3-0.8,2-2.3,1.8-3.8C1329.4,997.6,1328.6,995.3,1327.3,993.4z"/>
			
				<linearGradient id="SVGID_99_" gradientUnits="userSpaceOnUse" x1="1311.24" y1="2874.3501" x2="1326.0398" y2="2874.3501" gradientTransform="matrix(1 0 0 -1 0 3872)">
				<stop  offset="0" style="stop-color:#FE764A"/>
				<stop  offset="1" style="stop-color:#FEBAA4"/>
			</linearGradient>
			<path class="st120" d="M1326.1,1001.9c0,2-0.8,3.4-2.2,4s-3.2,0.3-5.2-0.8c-2.1-1.3-3.9-3.1-5.2-5.2c-1.3-1.9-2.1-4.2-2.2-6.5
				c0-2,0.8-3.4,2.2-4s3.2-0.3,5.2,0.8c2.1,1.3,3.9,3.1,5.2,5.2C1325.2,997.3,1325.9,999.5,1326.1,1001.9z"/>
			<path class="st25" d="M1323.6,1000.5c0,2.7-2.2,3.7-4.9,2.1s-4.9-5.1-4.9-7.8s2.2-3.7,4.9-2.1S1323.6,997.7,1323.6,1000.5z"/>
			
				<linearGradient id="SVGID_100_" gradientUnits="userSpaceOnUse" x1="1315.67" y1="2875.1072" x2="1323.5851" y2="2875.1072" gradientTransform="matrix(1 0 0 -1 0 3872)">
				<stop  offset="0" style="stop-color:#FE764A"/>
				<stop  offset="1" style="stop-color:#FEBAA4"/>
			</linearGradient>
			<path class="st121" d="M1318.6,992.7c-0.5-0.3-1.1-0.5-1.7-0.7c-0.9,0.4-1.3,1.4-1.2,2.3c0,2.4,1.9,5.5,4.3,6.8
				c1.4,0.8,2.7,0.9,3.5,0.3c0.1-0.3,0.1-0.7,0.1-1C1323.6,997.7,1321.4,994.2,1318.6,992.7z"/>
		</g>
		<g id="Body-5">
			
				<linearGradient id="SVGID_101_" gradientUnits="userSpaceOnUse" x1="1359.6801" y1="2852.6001" x2="1367.42" y2="2852.6001" gradientTransform="matrix(1 0 0 -1 0 3872)">
				<stop  offset="0" style="stop-color:#FE764A"/>
				<stop  offset="1" style="stop-color:#FEBAA4"/>
			</linearGradient>
			<path class="st122" d="M1364.3,1019.1L1364.3,1019.1l3.1-1.8l-0.9-1.6l-6.8,4l2,3.4l0.9-0.5
				C1362.5,1021.3,1363.1,1019.9,1364.3,1019.1z"/>
			
				<linearGradient id="SVGID_102_" gradientUnits="userSpaceOnUse" x1="1308.7902" y1="2884.1001" x2="1317.0101" y2="2884.1001" gradientTransform="matrix(1 0 0 -1 0 3872)">
				<stop  offset="0" style="stop-color:#FE764A"/>
				<stop  offset="1" style="stop-color:#FEBAA4"/>
			</linearGradient>
			<path class="st123" d="M1313.1,989.5L1313.1,989.5l3.4-2c0.1-0.1,0.2-0.1,0.4-0.2l0.2-0.1l-1.7-3l-6.5,3.8
				c0.4,1.1,0.9,2.2,1.4,3.2l0.2,0.4l1.3-0.7C1312,990.4,1312.5,989.9,1313.1,989.5z"/>
			
				<linearGradient id="SVGID_103_" gradientUnits="userSpaceOnUse" x1="1307.4" y1="2875.2954" x2="1419.2379" y2="2875.2954" gradientTransform="matrix(1 0 0 -1 0 3872)">
				<stop  offset="0" style="stop-color:#FE764A"/>
				<stop  offset="1" style="stop-color:#FE9877"/>
			</linearGradient>
			<path class="st124" d="M1407,996.4c-0.8-0.7-6.2-4.5-10.3-7.3c-3.1-2.1-7.3-10.3-16.3-16.7c-5-3.6-17.4-13-34.2-12.7
				c-3.1,0.1-5.5-1.1-8.5-1.6c-2.8-0.5-5.8,0.1-8.2,1.5c-8,4.6-9.6,5.4-16,9.2c-0.7,0.4-3.8,2.5-4.4,4.5c-0.9,2.8-1.4,5.7-1.7,8.7v2
				c0.3,4.8,2,6,3,7.8c0.1-1.5,1-2.8,2.3-3.4c1.5-0.6,3.6-0.4,5.9,1c2.4,1.4,4.4,3.4,5.9,5.8c1.5,2.2,2.3,4.7,2.4,7.3v0.2
				c0,0.3,0.1,0.6,0.4,0.7l34.3,19.8c0-0.2,0-0.5,0-0.7c0-2.3,0.9-3.8,2.4-4.5s3.6-0.4,5.9,1c2.4,1.5,4.4,3.4,5.9,5.8
				c1.5,2.2,2.3,4.7,2.4,7.3c0,0.1,0,0.1,0,0.2c0,0.3,0.1,0.6,0.4,0.7c5.2,3,15.2,3.3,19.5,0.8l17.8-10.2c1.7-1,3.3-2.6,3.3-4.6
				c0.1-0.6,0-1.2-0.3-1.8c-0.2-0.7-1.1-1.8-1.1-2.3v-2.5C1417.7,1009.6,1415.9,1003.9,1407,996.4z"/>
			
				<linearGradient id="SVGID_104_" gradientUnits="userSpaceOnUse" x1="1397.6321" y1="2851.0649" x2="1412.509" y2="2851.0649" gradientTransform="matrix(1 0 0 -1 0 3872)">
				<stop  offset="0" style="stop-color:#FE764A"/>
				<stop  offset="1" style="stop-color:#FEBAA4"/>
			</linearGradient>
			<path class="st125" d="M1399.4,1026.4l12.4-7.2c1.5-0.9,0.2-4.6-1-3.8l-12.1,7C1397,1023.3,1397.4,1027.5,1399.4,1026.4z"/>
			<path class="st25" d="M1362.5,1011.8l-1.6-0.9c-0.4-0.3-0.7-0.7-0.8-1.2l0,0c0-0.4,0.4-0.6,0.8-0.3l1.6,0.9
				c0.4,0.3,0.7,0.7,0.8,1.2l0,0C1363.3,1011.9,1362.9,1012.1,1362.5,1011.8z"/>
		</g>
		<g id="Headlights-5">
			<path class="st25" d="M1387.6,1024.7c1.6,0.4,3.4,0.2,4.8-0.6l3.9-2.3c0.5-0.3-1-2.7-2.6-2.6s-4.7,2.8-6.9,2.2
				C1384.9,1020.9,1382.9,1023.4,1387.6,1024.7z"/>
			<path class="st25" d="M1416.5,1007.6c-0.4-0.7-0.8-1.5-1.2-2.2c-0.9,1.8-2.7,2.4-3.9,3.7c-1.6,1.8-0.6,4.2,0,3.9l4.1-2.4
				C1416.6,1010.1,1417,1008.7,1416.5,1007.6z"/>
		</g>
		<g id="Windows-5">
			
				<linearGradient id="SVGID_105_" gradientUnits="userSpaceOnUse" x1="1361.8" y1="2881.3" x2="1395.08" y2="2881.3" gradientTransform="matrix(1 0 0 -1 0 3872)">
				<stop  offset="0" style="stop-color:#FE764A"/>
				<stop  offset="1" style="stop-color:#FEBAA4"/>
			</linearGradient>
			<path class="st126" d="M1384.3,977.3l-22.5,13l8.7,13.8h6.1c1.4,0,2.8-0.4,4-1.1l13-7.5c1-0.6,1.6-1.6,1.6-2.7v-2.9
				C1392.1,985.3,1388.4,981,1384.3,977.3z"/>
			
				<linearGradient id="SVGID_106_" gradientUnits="userSpaceOnUse" x1="1320.7001" y1="2882.1382" x2="1363.8" y2="2882.1382" gradientTransform="matrix(1 0 0 -1 0 3872)">
				<stop  offset="0" style="stop-color:#FE764A"/>
				<stop  offset="1" style="stop-color:#FEBAA4"/>
			</linearGradient>
			<path class="st127" d="M1363.8,1003.5l-43.1-24.9c0,0,8.2-6.5,22.8,2C1360.9,990.6,1363.8,1003.5,1363.8,1003.5z"/>
			
				<linearGradient id="SVGID_107_" gradientUnits="userSpaceOnUse" x1="1320.6699" y1="2904.425" x2="1351.911" y2="2904.425" gradientTransform="matrix(1 0 0 -1 0 3872)">
				<stop  offset="0" style="stop-color:#FE764A"/>
				<stop  offset="1" style="stop-color:#FEBAA4"/>
			</linearGradient>
			<path class="st128" d="M1351.5,962.4c0.4-0.2,0.5-0.7,0.3-1.1c-0.1-0.2-0.3-0.4-0.6-0.4c-1.9-0.2-3.8-0.2-5.7,0
				c-1.1,0.1-2.2,0.4-3.2,1l-21.7,12.5c0,0,3.5-1.9,9.9-1.3c1.3,0.1,2.6-0.2,3.7-0.8L1351.5,962.4z"/>
			<path class="st25" d="M1320.7,978.6l43.1,24.9c-0.2-0.7-0.4-1.3-0.6-2l0,0l-17.2-10c0.5-2.7,1.4-5.3,2.7-7.7
				c-0.4-0.3-0.9-0.6-1.3-1c-1.4,2.4-2.3,5.1-2.8,7.8l-14.6-8.4c0.4-2.1,1.3-4.1,2.5-5.9c-0.6-0.1-1.3-0.2-1.9-0.2
				c-1,1.6-1.7,3.4-2.1,5.2l-6.3-3.7l0.1-0.1C1321.6,977.9,1321.1,978.3,1320.7,978.6z"/>
			<path class="st25" d="M1342.1,963c1-0.6,2-0.9,3.2-1c2.2-0.2,4.4-0.2,6.6,0.2c0.2-0.4,0.1-0.9-0.2-1.1c-0.1-0.1-0.2-0.1-0.3-0.1
				c-1.9-0.2-3.8-0.2-5.7,0c-1.1,0.1-2.2,0.4-3.2,1l-21.7,12.5c1.1-0.5,2.2-0.9,3.4-1.1L1342.1,963z"/>
			<path class="st25" d="M1384.3,977.3l-1.6,0.9c3.4,2.7,6.4,5.8,9,9.2c1.1,1.4,0.8,3.4-0.6,4.4c-0.1,0.1-0.2,0.2-0.3,0.2
				l-20.3,11.7l0.2,0.3h6.1c1.4,0,2.8-0.4,4-1.1l13-7.5c1-0.6,1.6-1.6,1.6-2.7v-2.9C1392.1,985.2,1388.4,981,1384.3,977.3z"/>
		</g>
	</g>
	<g>
		
			<linearGradient id="SVGID_108_" gradientUnits="userSpaceOnUse" x1="1537.4" y1="3148.6001" x2="1644.1" y2="3148.6001" gradientTransform="matrix(1 0 0 -1 0 3872)">
			<stop  offset="0" style="stop-color:#FE764A"/>
			<stop  offset="1" style="stop-color:#FE9877"/>
		</linearGradient>
		<polygon class="st129" points="1644.1,715 1575.5,675.1 1537.4,731.8 1606.1,771.7 		"/>
		<line class="st91" x1="1537.4" y1="731.8" x2="1575.5" y2="675.1"/>
		<line class="st91" x1="1560.4" y1="745.1" x2="1598.4" y2="688.4"/>
		<line class="st91" x1="1583.3" y1="758.4" x2="1621.3" y2="701.7"/>
		<line class="st91" x1="1606.2" y1="771.7" x2="1644.3" y2="715"/>
		<line class="st91" x1="1575.5" y1="675.1" x2="1644.1" y2="715"/>
		<line class="st91" x1="1562.8" y1="694" x2="1631.4" y2="733.9"/>
		<line class="st91" x1="1550.1" y1="712.9" x2="1618.7" y2="752.8"/>
		<line class="st91" x1="1537.4" y1="731.8" x2="1606.1" y2="771.7"/>
		<circle class="st29" cx="1608.6" cy="720.6" r="2.8"/>
		<circle class="st29" cx="1585.5" cy="707.4" r="2.8"/>
		<circle class="st29" cx="1595.9" cy="739.5" r="2.8"/>
		<circle class="st29" cx="1572.9" cy="726.2" r="2.8"/>
	</g>
	<path class="st21" d="M1573.7,791.6c0,3.6,2.6,6.7,6.1,7.4c1.1,0.2,2.3,0,3.3-0.6h-0.1l4.1-2.2c1.8-1.1,2.9-3.1,2.8-5.2
		c0-3.6-2.6-6.8-6.1-7.5c-1.1-0.2-2.3,0-3.3,0.6l-4.1,2.2h0.1C1574.8,787.4,1573.7,789.4,1573.7,791.6z"/>
	
		<linearGradient id="SVGID_109_" gradientUnits="userSpaceOnUse" x1="1573.74" y1="3080.1707" x2="1588.09" y2="3080.1707" gradientTransform="matrix(1 0 0 -1 0 3872)">
		<stop  offset="0" style="stop-color:#FE764A"/>
		<stop  offset="1" style="stop-color:#FE9877"/>
	</linearGradient>
	<path class="st130" d="M1582.6,798.7c0.2-0.1,0.5-0.2,0.7-0.3l2.9-1.6c1.3-1.2,1.9-2.9,1.9-4.6c0-3.7-2.6-7-6.3-7.7
		c-0.6-0.1-1.2,0-1.8,0.1l-3.3,1.8c-0.7,0.3-1.2,0.8-1.7,1.4v0.1c-0.1,0.2-0.2,0.4-0.4,0.5c0,0,0,0,0,0.1c-0.2,0.4-0.4,0.9-0.6,1.4
		v0.2c0,0.2-0.1,0.4-0.1,0.6v0.2c0,0.3,0,0.5,0,0.8l0,0c0,2,0.7,4,2,5.5l0,0c0.4,0.4,0.7,0.7,1.2,1c0.3,0.2,0.6,0.4,0.9,0.5
		c0.6,0.3,1.2,0.5,1.8,0.5l0,0c0.3,0,0.6,0,0.8,0h0.2c0.5,0,1.1-0.1,1.6-0.3L1582.6,798.7z"/>
	
		<linearGradient id="SVGID_110_" gradientUnits="userSpaceOnUse" x1="1443.3501" y1="3149.3999" x2="1443.3501" y2="3178.73" gradientTransform="matrix(1 0 0 -1 0 3872)">
		<stop  offset="0" style="stop-color:#FE9877"/>
		<stop  offset="1" style="stop-color:#FE764A"/>
	</linearGradient>
	<path class="st131" d="M1465.5,711.5c0,6.1-9.9,11.1-22.1,11.1s-22.2-5-22.2-11.1v-18.3h44.3L1465.5,711.5L1465.5,711.5z"/>
	
		<linearGradient id="SVGID_111_" gradientUnits="userSpaceOnUse" x1="1443.3501" y1="3114.8" x2="1443.3501" y2="3160.5" gradientTransform="matrix(1 0 0 -1 0 3872)">
		<stop  offset="0" style="stop-color:#FE9877"/>
		<stop  offset="1" style="stop-color:#FEBAA4"/>
	</linearGradient>
	<path class="st132" d="M1465.5,746.1c0,6.1-9.9,11.1-22.1,11.1s-22.2-5-22.2-11.1v-34.6c0,6.1,9.9,11.1,22.2,11.1s22.1-5,22.1-11.1
		V746.1z"/>
	<polygon class="st29" points="1440.7,727.4 1442.2,738.1 1437.9,738.1 1445.2,751.1 1444.5,740.4 1448.8,740.4 	"/>
	<path class="st95" d="M1443.4,702.8c-11.2,0-20.6-4.4-20.6-9.6s9.4-9.5,20.6-9.5s20.6,4.4,20.6,9.5S1454.6,702.8,1443.4,702.8z"/>
	<path class="st13" d="M1443.4,685.2c10.9,0,19.1,4.2,19.1,8s-8.2,8-19.1,8s-19.1-4.2-19.1-8S1432.4,685.2,1443.4,685.2
		 M1443.4,682.2c-12.2,0-22.2,5-22.2,11.1s9.9,11.1,22.2,11.1s22.1-5,22.1-11.1S1455.6,682.2,1443.4,682.2z"/>
	
		<linearGradient id="SVGID_112_" gradientUnits="userSpaceOnUse" x1="1443.4" y1="3174.6799" x2="1443.4" y2="3185.46" gradientTransform="matrix(1 0 0 -1 0 3872)">
		<stop  offset="0" style="stop-color:#FE764A"/>
		<stop  offset="1" style="stop-color:#FE9877"/>
	</linearGradient>
	<path class="st133" d="M1443.4,686.5c-4.5,0-8.1,1.8-8.1,4.1v2.6c0,2.2,3.6,4.1,8.1,4.1s8.1-1.8,8.1-4.1v-2.6
		C1451.5,688.4,1447.9,686.5,1443.4,686.5z"/>
	<path class="st97" d="M1579.2,792.8l-41.2,23.4c-3.2,1.8-4.3,5.9-2.5,9.1c0.6,1,1.4,1.9,2.5,2.5l16,9.2"/>
	<g id="Car_3-1-6">
		<g id="Wheels-6">
			
				<linearGradient id="SVGID_113_" gradientUnits="userSpaceOnUse" x1="1599.34" y1="2981.0637" x2="1615.7737" y2="2981.0637" gradientTransform="matrix(1 0 0 -1 0 3872)">
				<stop  offset="0" style="stop-color:#FE764A"/>
				<stop  offset="1" style="stop-color:#FEBAA4"/>
			</linearGradient>
			<path class="st134" d="M1613.6,887.9c-1.3-2.1-3.1-3.9-5.2-5.2c-2-1.2-3.9-1.4-5.2-0.8c-0.1,0-0.2,0.1-0.4,0.2l-3.4,2l11.2,16.2
				l3.4-2c1.3-0.8,2-2.3,1.8-3.8C1615.6,892.1,1614.9,889.8,1613.6,887.9z"/>
			
				<linearGradient id="SVGID_114_" gradientUnits="userSpaceOnUse" x1="1597.5299" y1="2979.8999" x2="1612.3297" y2="2979.8999" gradientTransform="matrix(1 0 0 -1 0 3872)">
				<stop  offset="0" style="stop-color:#FE764A"/>
				<stop  offset="1" style="stop-color:#FEBAA4"/>
			</linearGradient>
			<path class="st135" d="M1612.3,896.4c0,2-0.8,3.4-2.2,4s-3.2,0.3-5.2-0.9c-2.1-1.3-3.9-3.1-5.2-5.2c-1.3-1.9-2.1-4.2-2.2-6.5
				c0-2,0.8-3.4,2.2-4s3.2-0.3,5.2,0.9c2.1,1.3,3.9,3.1,5.2,5.2C1611.5,891.8,1612.2,894,1612.3,896.4z"/>
			<path class="st25" d="M1609.9,894.9c0,2.7-2.2,3.7-4.9,2.1s-4.9-5-4.9-7.8s2.2-3.7,4.9-2.1S1609.9,892.2,1609.9,894.9z"/>
			
				<linearGradient id="SVGID_115_" gradientUnits="userSpaceOnUse" x1="1601.96" y1="2980.6072" x2="1609.875" y2="2980.6072" gradientTransform="matrix(1 0 0 -1 0 3872)">
				<stop  offset="0" style="stop-color:#FE764A"/>
				<stop  offset="1" style="stop-color:#FEBAA4"/>
			</linearGradient>
			<path class="st136" d="M1604.9,887.2c-0.5-0.3-1.1-0.6-1.7-0.7c-0.9,0.4-1.3,1.4-1.2,2.3c0,2.4,2,5.5,4.3,6.8
				c1.4,0.8,2.7,0.9,3.5,0.3c0.1-0.3,0.1-0.7,0.1-1C1609.9,892.2,1607.7,888.7,1604.9,887.2z"/>
			
				<linearGradient id="SVGID_116_" gradientUnits="userSpaceOnUse" x1="1548.08" y1="3010.7278" x2="1564.5137" y2="3010.7278" gradientTransform="matrix(1 0 0 -1 0 3872)">
				<stop  offset="0" style="stop-color:#FE764A"/>
				<stop  offset="1" style="stop-color:#FEBAA4"/>
			</linearGradient>
			<path class="st137" d="M1562.3,858.3c-1.3-2.1-3.1-3.9-5.2-5.2c-2-1.2-3.9-1.4-5.2-0.9c-0.1,0.1-0.2,0.1-0.4,0.2l-3.4,2
				l11.2,16.2l3.4-2c1.3-0.8,2-2.3,1.8-3.8C1564.4,862.5,1563.6,860.2,1562.3,858.3z"/>
			
				<linearGradient id="SVGID_117_" gradientUnits="userSpaceOnUse" x1="1546.2699" y1="3009.45" x2="1561.0697" y2="3009.45" gradientTransform="matrix(1 0 0 -1 0 3872)">
				<stop  offset="0" style="stop-color:#FE764A"/>
				<stop  offset="1" style="stop-color:#FEBAA4"/>
			</linearGradient>
			<path class="st138" d="M1561.1,866.8c0,2-0.8,3.4-2.2,4s-3.2,0.3-5.2-0.8c-2.1-1.3-3.9-3.1-5.2-5.2c-1.3-1.9-2.1-4.2-2.2-6.5
				c0-2,0.8-3.4,2.2-4s3.2-0.3,5.2,0.8c2.1,1.3,3.9,3.1,5.2,5.2C1560.2,862.2,1561,864.4,1561.1,866.8z"/>
			<path class="st25" d="M1558.6,865.3c0,2.7-2.2,3.7-4.9,2.1s-4.9-5.1-4.9-7.8s2.2-3.7,4.9-2.1S1558.6,862.6,1558.6,865.3z"/>
			
				<linearGradient id="SVGID_118_" gradientUnits="userSpaceOnUse" x1="1550.7" y1="3010.2073" x2="1558.615" y2="3010.2073" gradientTransform="matrix(1 0 0 -1 0 3872)">
				<stop  offset="0" style="stop-color:#FE764A"/>
				<stop  offset="1" style="stop-color:#FEBAA4"/>
			</linearGradient>
			<path class="st139" d="M1553.7,857.6c-0.5-0.3-1.1-0.5-1.7-0.7c-0.9,0.4-1.3,1.4-1.2,2.3c0,2.4,1.9,5.5,4.3,6.8
				c1.4,0.8,2.7,0.9,3.5,0.3c0.1-0.3,0.1-0.7,0.1-1C1558.6,862.6,1556.4,859.1,1553.7,857.6z"/>
		</g>
		<g id="Body-6">
			
				<linearGradient id="SVGID_119_" gradientUnits="userSpaceOnUse" x1="1594.71" y1="2987.7" x2="1602.45" y2="2987.7" gradientTransform="matrix(1 0 0 -1 0 3872)">
				<stop  offset="0" style="stop-color:#FE764A"/>
				<stop  offset="1" style="stop-color:#FEBAA4"/>
			</linearGradient>
			<path class="st140" d="M1599.3,884L1599.3,884l3.1-1.8l-0.9-1.6l-6.8,4l2,3.4l0.9-0.5C1597.5,886.1,1598.2,884.8,1599.3,884z"/>
			
				<linearGradient id="SVGID_120_" gradientUnits="userSpaceOnUse" x1="1543.8201" y1="3019.1001" x2="1552.04" y2="3019.1001" gradientTransform="matrix(1 0 0 -1 0 3872)">
				<stop  offset="0" style="stop-color:#FE764A"/>
				<stop  offset="1" style="stop-color:#FEBAA4"/>
			</linearGradient>
			<path class="st141" d="M1548.1,854.4L1548.1,854.4l3.4-2c0.1-0.1,0.2-0.1,0.4-0.2h0.2l-1.7-3l-6.5,3.8c0.4,1.1,0.9,2.2,1.4,3.2
				l0.2,0.4l1.3-0.7C1547,855.3,1547.5,854.8,1548.1,854.4z"/>
			
				<linearGradient id="SVGID_121_" gradientUnits="userSpaceOnUse" x1="1542.4" y1="3010.4456" x2="1654.2004" y2="3010.4456" gradientTransform="matrix(1 0 0 -1 0 3872)">
				<stop  offset="0" style="stop-color:#FE764A"/>
				<stop  offset="1" style="stop-color:#FE9877"/>
			</linearGradient>
			<path class="st142" d="M1642,861.3c-0.8-0.7-6.2-4.5-10.3-7.3c-3.1-2.1-7.3-10.3-16.3-16.7c-5-3.6-17.4-13-34.2-12.7
				c-3.1,0.1-5.5-1.1-8.5-1.6c-2.8-0.5-5.8,0.1-8.2,1.5c-8,4.6-9.6,5.4-16,9.2c-0.7,0.4-3.8,2.5-4.4,4.5c-0.9,2.8-1.4,5.7-1.7,8.7v2
				c0.3,4.8,2,6,3,7.8c0.1-1.5,1-2.8,2.3-3.4c1.5-0.6,3.6-0.4,5.9,1c2.4,1.5,4.4,3.4,5.9,5.8c1.5,2.2,2.3,4.7,2.4,7.3v0.2
				c0,0.3,0.1,0.6,0.4,0.7l34.3,19.7c0-0.2,0-0.5,0-0.7c0-2.3,0.9-3.8,2.4-4.5s3.6-0.4,5.9,1c2.4,1.5,4.4,3.4,5.9,5.8
				c1.5,2.2,2.3,4.7,2.4,7.3c0,0.1,0,0.1,0,0.2c0,0.3,0.1,0.6,0.4,0.7c5.2,3,15.2,3.3,19.5,0.8l17.8-10.2c1.7-1,3.3-2.6,3.3-4.6
				c0-0.6,0-1.2-0.3-1.8c-0.2-0.7-1.1-1.7-1.1-2.3v-2.5C1652.8,874.5,1650.9,868.8,1642,861.3z"/>
			
				<linearGradient id="SVGID_122_" gradientUnits="userSpaceOnUse" x1="1632.7004" y1="2986.165" x2="1647.575" y2="2986.165" gradientTransform="matrix(1 0 0 -1 0 3872)">
				<stop  offset="0" style="stop-color:#FE764A"/>
				<stop  offset="1" style="stop-color:#FEBAA4"/>
			</linearGradient>
			<path class="st143" d="M1634.5,891.3l12.4-7.2c1.5-0.9,0.2-4.6-1-3.8l-12.1,7C1632.1,888.2,1632.4,892.4,1634.5,891.3z"/>
			<path class="st25" d="M1597.5,876.7l-1.6-0.9c-0.4-0.3-0.7-0.7-0.8-1.2l0,0c0-0.4,0.4-0.6,0.8-0.3l1.6,0.9
				c0.4,0.3,0.7,0.7,0.8,1.2l0,0C1598.3,876.8,1598,877,1597.5,876.7z"/>
		</g>
		<g id="Headlights-6">
			<path class="st25" d="M1622.6,889.6c1.6,0.4,3.4,0.2,4.8-0.6l4-2.3c0.5-0.3-1-2.7-2.6-2.6s-4.7,2.8-6.9,2.2
				C1619.9,885.8,1617.9,888.3,1622.6,889.6z"/>
			<path class="st25" d="M1651.5,872.5c-0.4-0.7-0.8-1.5-1.2-2.2c-0.9,1.8-2.7,2.4-3.9,3.7c-1.6,1.8-0.6,4.2,0,3.9s2-1.2,4.1-2.4
				C1651.6,875,1652,873.6,1651.5,872.5z"/>
		</g>
		<g id="Windows-6">
			
				<linearGradient id="SVGID_123_" gradientUnits="userSpaceOnUse" x1="1596.8" y1="3016.3999" x2="1630.1" y2="3016.3999" gradientTransform="matrix(1 0 0 -1 0 3872)">
				<stop  offset="0" style="stop-color:#FE764A"/>
				<stop  offset="1" style="stop-color:#FEBAA4"/>
			</linearGradient>
			<path class="st144" d="M1619.3,842.2l-22.5,13l8.7,13.8h6.1c1.4,0,2.8-0.4,3.9-1.1l13-7.5c1-0.6,1.6-1.6,1.6-2.7v-2.9
				C1627.1,850.2,1623.4,845.9,1619.3,842.2z"/>
			
				<linearGradient id="SVGID_124_" gradientUnits="userSpaceOnUse" x1="1555.7001" y1="3017.2383" x2="1598.8" y2="3017.2383" gradientTransform="matrix(1 0 0 -1 0 3872)">
				<stop  offset="0" style="stop-color:#FE764A"/>
				<stop  offset="1" style="stop-color:#FEBAA4"/>
			</linearGradient>
			<path class="st145" d="M1598.8,868.4l-43.1-24.9c0,0,8.2-6.5,22.8,2C1595.9,855.5,1598.8,868.4,1598.8,868.4z"/>
			
				<linearGradient id="SVGID_125_" gradientUnits="userSpaceOnUse" x1="1555.7002" y1="3039.5249" x2="1586.9476" y2="3039.5249" gradientTransform="matrix(1 0 0 -1 0 3872)">
				<stop  offset="0" style="stop-color:#FE764A"/>
				<stop  offset="1" style="stop-color:#FEBAA4"/>
			</linearGradient>
			<path class="st146" d="M1586.6,827.3c0.4-0.2,0.5-0.7,0.3-1.1c-0.1-0.2-0.3-0.4-0.6-0.4c-1.9-0.2-3.8-0.2-5.7,0
				c-1.1,0.1-2.2,0.4-3.2,1l-21.7,12.5c0,0,3.5-1.9,9.9-1.3c1.3,0.1,2.6-0.2,3.7-0.8L1586.6,827.3z"/>
			<path class="st25" d="M1555.7,843.5l43.1,24.9c-0.2-0.7-0.4-1.3-0.6-2l0,0l-17.2-10c0.5-2.7,1.4-5.3,2.7-7.7
				c-0.4-0.3-0.9-0.6-1.3-0.9c-1.4,2.4-2.3,5.1-2.8,7.8l-14.6-8.5c0.4-2.1,1.3-4.1,2.5-5.8c-0.6-0.1-1.3-0.2-1.9-0.2
				c-1,1.6-1.7,3.4-2.1,5.2l-6.3-3.7l0.1-0.1C1556.6,842.8,1556.2,843.1,1555.7,843.5z"/>
			<path class="st25" d="M1577.1,827.9c1-0.6,2-0.9,3.2-1c2.2-0.2,4.4-0.2,6.6,0.2c0.2-0.4,0.1-0.9-0.2-1.1
				c-0.1-0.1-0.2-0.1-0.3-0.1c-1.9-0.2-3.8-0.2-5.7,0c-1.1,0.1-2.2,0.4-3.2,1l-21.7,12.5c1.1-0.5,2.2-0.9,3.4-1.1L1577.1,827.9z"/>
			<path class="st25" d="M1619.3,842.2l-1.6,0.9c3.4,2.7,6.4,5.8,9,9.2c1.1,1.4,0.8,3.4-0.6,4.4c-0.1,0.1-0.2,0.2-0.3,0.2
				l-20.3,11.7l0.2,0.3h6.1c1.4,0,2.8-0.4,4-1.1l13-7.5c1-0.6,1.6-1.6,1.6-2.7v-2.9C1627.1,850.1,1623.5,845.9,1619.3,842.2z"/>
		</g>
	</g>
	
		<linearGradient id="SVGID_126_" gradientUnits="userSpaceOnUse" x1="1113.0372" y1="2324.2993" x2="1113.0372" y2="3604.1001" gradientTransform="matrix(1 0 0 -1 0 3872)">
		<stop  offset="0" style="stop-color:#FE5455"/>
		<stop  offset="1" style="stop-color:#FE5455;stop-opacity:0"/>
	</linearGradient>
	<path class="st147" d="M1390.8,267.9L511.5,775.5c-93.9,54.2-140.8,149-140.8,243.9c0,5.9,0.2,11.9,0.5,17.8v224.4
		c-0.4,5.9-0.6,11.8-0.5,17.8c0,5.9,0.2,11.9,0.5,17.8c0.3,4.4,0.6,8.9,1.1,13.3s1.1,8.8,1.8,13.2c0.5,2.9,1,5.9,1.5,8.8
		c0.5,2.7,1,5.3,1.6,8c0.1,0.5,0.2,1,0.4,1.6c0.9,4.1,1.9,8.1,3,12.2c1.2,4.3,2.4,8.6,3.8,12.9c0.9,2.8,1.9,5.7,2.9,8.5
		s2.1,5.6,3.2,8.4s2.2,5.6,3.4,8.3c4.2,9.7,8.9,19.1,14.2,28.3c1.5,2.6,3.1,5.2,4.7,7.8c1.6,2.6,3.3,5.1,5,7.7
		c2.5,3.8,5.2,7.6,7.9,11.3c2.8,3.7,5.6,7.3,8.6,10.9c1.4,1.8,2.9,3.5,4.4,5.2c2.6,3,5.2,5.9,8,8.8c11,11.6,23,22.3,35.8,31.8
		c2.6,2,5.3,3.9,8,5.8c6.8,4.7,13.8,9.2,21.1,13.4l42.1,24.3l478.7-276.4l95.6-55.2l727.4-420v-260L1390.8,267.9z"/>
</g>
</svg>
