<?xml version="1.0" encoding="utf-8"?>
<!-- Generator: Adobe Illustrator 23.0.4, SVG Export Plug-In . SVG Version: 6.00 Build 0)  -->
<svg version="1.1" id="Layer_1" xmlns="http://www.w3.org/2000/svg" xmlns:xlink="http://www.w3.org/1999/xlink" x="0px" y="0px"
	 viewBox="0 0 3918.2 2475.3" style="enable-background:new 0 0 3918.2 2475.3;" xml:space="preserve">
<style type="text/css">
	.st0{opacity:0.15;fill:url(#SVGID_1_);enable-background:new    ;}
</style>
<title>DDS_ampx_secuencia_svg_02 [Recovered]</title>
<g id="elements">
	
		<linearGradient id="SVGID_1_" gradientUnits="userSpaceOnUse" x1="1113.0399" y1="928.3997" x2="1113.0399" y2="2208.1401" gradientTransform="matrix(1 0 0 -1 0 2476)">
		<stop  offset="0" style="stop-color:#FE5455"/>
		<stop  offset="1" style="stop-color:#FE5455;stop-opacity:0"/>
	</linearGradient>
	<path class="st0" d="M1390.8,267.9L511.5,775.5c-93.9,54.2-140.8,149-140.8,243.9c0,5.9,0.2,11.9,0.5,17.8v224.4
		c-0.4,5.9-0.6,11.8-0.5,17.8c0,5.9,0.2,11.9,0.5,17.8c0.3,4.4,0.6,8.9,1.1,13.3s1.1,8.8,1.8,13.2c0.5,2.9,1,5.9,1.5,8.8
		c0.5,2.7,1,5.3,1.6,8c0.1,0.5,0.2,1,0.4,1.6c0.9,4.1,1.9,8.1,3,12.2c1.2,4.3,2.4,8.6,3.8,12.9c0.9,2.8,1.9,5.7,2.9,8.5
		c1,2.8,2.1,5.6,3.2,8.4c1.1,2.8,2.2,5.6,3.4,8.3c4.2,9.7,8.9,19.1,14.2,28.3c1.5,2.6,3.1,5.2,4.7,7.8c1.6,2.6,3.3,5.1,5,7.7
		c2.5,3.8,5.2,7.6,7.9,11.3c2.8,3.7,5.6,7.3,8.6,10.9c1.4,1.8,2.9,3.5,4.4,5.2c2.6,3,5.2,5.9,8,8.8c11,11.6,23,22.3,35.8,31.8
		c2.6,2,5.3,3.9,8,5.8c6.8,4.7,13.8,9.2,21.1,13.4l42.1,24.3l478.7-276.4l95.6-55.2l727.4-420V536.1L1390.8,267.9z"/>
</g>
</svg>
