<?xml version="1.0" encoding="utf-8"?>
<!-- Generator: Adobe Illustrator 23.0.4, SVG Export Plug-In . SVG Version: 6.00 Build 0)  -->
<svg version="1.1" id="Layer_1" xmlns="http://www.w3.org/2000/svg" xmlns:xlink="http://www.w3.org/1999/xlink" x="0px" y="0px"
	 viewBox="0 0 3918.2 2475.3" style="enable-background:new 0 0 3918.2 2475.3;" xml:space="preserve">
<style type="text/css">
	.st0{display:none;fill:#EFF1F4;}
	.st1{display:none;fill:#DFE2E9;}
	.st2{display:none;fill:none;stroke:#FFFFFF;stroke-width:7.97;stroke-linecap:round;stroke-miterlimit:10;}
	.st3{display:none;fill:#59BA9B;}
	.st4{fill:url(#SVGID_1_);}
	.st5{fill:#FEBAA4;}
	.st6{fill:#FEAA8E;}
	.st7{fill:#FE9877;}
	.st8{fill:url(#SVGID_2_);}
	.st9{fill:url(#SVGID_3_);}
	.st10{fill:#FFD4D4;}
	.st11{fill:url(#SVGID_4_);}
	.st12{fill:#FE7F80;}
	.st13{fill:url(#SVGID_5_);}
	.st14{fill:url(#SVGID_6_);}
	.st15{fill:url(#SVGID_7_);}
	.st16{fill:url(#SVGID_8_);}
	.st17{fill:url(#SVGID_9_);}
	.st18{fill:none;stroke:#FE906C;stroke-miterlimit:10;}
	.st19{fill:none;stroke:#FE8761;stroke-miterlimit:10;}
	.st20{fill:none;stroke:#FE7F55;stroke-miterlimit:10;}
	.st21{fill:url(#SVGID_10_);}
	.st22{fill:url(#SVGID_11_);}
	.st23{fill:url(#SVGID_12_);}
	.st24{fill:url(#SVGID_13_);}
	.st25{fill:#FEA689;}
	.st26{fill:#FE845C;}
	.st27{fill:url(#SVGID_14_);}
	.st28{fill:#D3D3D3;}
	.st29{fill:url(#SVGID_15_);}
	.st30{fill:url(#SVGID_16_);}
	.st31{fill:url(#SVGID_17_);}
	.st32{fill:none;stroke:#FE9877;stroke-miterlimit:10;}
	.st33{fill:url(#SVGID_18_);}
	.st34{fill:url(#SVGID_19_);}
	.st35{fill:url(#SVGID_20_);}
	.st36{fill:none;}
	.st37{fill:url(#SVGID_21_);}
	.st38{fill:url(#SVGID_22_);}
	.st39{fill:url(#SVGID_23_);}
	.st40{fill:url(#SVGID_24_);}
	.st41{fill:url(#SVGID_25_);}
	.st42{fill:url(#SVGID_26_);}
	.st43{fill:url(#SVGID_27_);}
	.st44{fill:url(#SVGID_28_);}
	.st45{fill:#FEB49C;}
	.st46{fill:#FEAD92;}
	.st47{fill:#FE9F81;}
	.st48{fill:url(#SVGID_29_);}
	.st49{fill:url(#SVGID_30_);}
	.st50{fill:none;stroke:#FFD4D4;stroke-width:1.48;stroke-linecap:round;stroke-linejoin:round;}
	.st51{fill:none;stroke:#FE5455;stroke-width:1.46;stroke-linecap:round;stroke-linejoin:round;}
	.st52{fill:url(#SVGID_31_);}
	.st53{fill:url(#SVGID_32_);}
	.st54{fill:url(#SVGID_33_);}
	.st55{fill:url(#SVGID_34_);}
	.st56{fill:url(#SVGID_35_);}
	.st57{fill:url(#SVGID_36_);}
	.st58{fill:url(#SVGID_37_);}
	.st59{fill:url(#SVGID_38_);}
	.st60{fill:url(#SVGID_39_);}
	.st61{fill:url(#SVGID_40_);}
	.st62{fill:url(#SVGID_41_);}
	.st63{fill:url(#SVGID_42_);}
	.st64{fill:url(#SVGID_43_);}
	.st65{fill:none;stroke:#FFDDD2;stroke-width:1.48;stroke-linecap:round;stroke-linejoin:round;}
	.st66{fill:none;stroke:#FE764A;stroke-width:1.46;stroke-linecap:round;stroke-linejoin:round;}
	.st67{display:none;opacity:0.15;fill:url(#SVGID_44_);enable-background:new    ;}
</style>
<title>DDS_ampx_secuencia_svg_02 [Recovered]</title>
<g id="elements">
	<polygon class="st0" points="1232,1276 1959.5,1696 2686.8,1276 1959.4,856 	"/>
	<path class="st1" d="M1510.4,1375.8l168.4,97.2c12.6,7.3,28.2,7.3,40.8-0.1l62.7-36.5c12.7-7.4,28.3-7.4,40.9,0l63.2,36.7
		c12.6,7.3,28.2,7.3,40.8,0.1l350.9-202.5c14.4-8.3,19.3-26.6,11-41c-2.6-4.5-6.4-8.3-10.9-10.9l-90-52.6
		c-12.6-7.4-28.2-7.4-40.9-0.1l-67.6,38.8c-12.6,7.3-28.1,7.3-40.7,0l-141.3-81.5c-12.6-7.3-28.1-7.3-40.7,0l-346.7,200.4
		c-14.3,8.3-19.3,26.6-11,41C1502,1369.4,1505.8,1373.2,1510.4,1375.8z"/>
	<line class="st2" x1="1748" y1="1500.8" x2="1748" y2="1464.8"/>
	<circle class="st3" cx="1748" cy="1462.1" r="23.5"/>
	<line class="st2" x1="2274.1" y1="1142.9" x2="2274.1" y2="1107"/>
	<path class="st3" d="M2251.2,1120.2c-0.4,0.6-0.5,1.3-0.4,2c1.2,5.9,11.2,10.6,23.4,10.6s22.2-4.6,23.4-10.6c0.1-0.7,0-1.4-0.4-2
		l-20.2-35.9c-0.9-1.5-2.8-2.1-4.3-1.2c-0.5,0.3-0.9,0.7-1.2,1.2L2251.2,1120.2z"/>
	<line class="st2" x1="2377.9" y1="1202.9" x2="2377.9" y2="1167"/>
	<path class="st3" d="M2354.9,1180.2c-0.4,0.6-0.5,1.3-0.4,2c1.2,5.9,11.2,10.6,23.4,10.6s22.2-4.6,23.4-10.6c0.1-0.7,0-1.4-0.4-2
		l-20.2-35.9c-0.9-1.5-2.8-2.1-4.3-1.2c-0.5,0.3-0.9,0.7-1.2,1.2L2354.9,1180.2z"/>
	<line class="st2" x1="2481.7" y1="1262.9" x2="2481.7" y2="1227"/>
	<path class="st3" d="M2458.7,1240.2c-0.4,0.6-0.5,1.3-0.4,2c1.2,5.9,11.2,10.6,23.4,10.6s22.2-4.6,23.4-10.6c0.1-0.7,0-1.4-0.4-2
		l-20.2-35.9c-0.9-1.5-2.8-2.1-4.3-1.2c-0.5,0.3-0.9,0.7-1.2,1.2L2458.7,1240.2z"/>
	
		<linearGradient id="SVGID_1_" gradientUnits="userSpaceOnUse" x1="1528.2001" y1="-65.1" x2="1528.2001" y2="-320.6" gradientTransform="matrix(1 0 0 1 0 1396)">
		<stop  offset="0" style="stop-color:#FEBAA4"/>
		<stop  offset="1" style="stop-color:#FFDDD2"/>
	</linearGradient>
	<polygon class="st4" points="1429.9,1330.9 1626.3,1218.3 1626.5,1075.4 1430.1,1190.1 	"/>
	<path class="st5" d="M1445.1,1195.2c4.7-2.7,16.4-9.5,17.6-10.2v24.4l-17.6,10.2C1445.1,1218.2,1445.1,1202,1445.1,1195.2z"/>
	<path class="st6" d="M1445.1,1240.3l17.6-10.2v24.4l-17.6,10.2C1445.1,1263.3,1445.1,1247.1,1445.1,1240.3z"/>
	<path class="st7" d="M1445.1,1285.4l17.6-10.2v24.4l-17.6,10.2C1445.1,1308.4,1445.1,1292.2,1445.1,1285.4z"/>
	<path class="st5" d="M1475.5,1178c4.7-2.7,16.4-9.5,17.6-10.2v24.4l-17.6,10.2C1475.5,1201,1475.5,1184.7,1475.5,1178z"/>
	<path class="st6" d="M1475.5,1223.1c4.7-2.7,16.4-9.5,17.6-10.2v24.4l-17.6,10.2C1475.5,1246.1,1475.5,1229.8,1475.5,1223.1z"/>
	<path class="st7" d="M1475.5,1268.2l17.6-10.2v24.4l-17.6,10.2C1475.5,1291.2,1475.5,1274.9,1475.5,1268.2z"/>
	<path class="st5" d="M1506,1160.7l17.6-10.2v24.4l-17.6,10.2C1506,1183.8,1506,1167.5,1506,1160.7z"/>
	<path class="st6" d="M1506,1205.8c4.7-2.7,16.4-9.5,17.6-10.2v24.4l-17.6,10.2C1506,1228.8,1506,1212.6,1506,1205.8z"/>
	<path class="st7" d="M1506,1251c4.7-2.7,16.4-9.5,17.6-10.2v24.4l-17.6,10.2C1506,1274,1506,1257.7,1506,1251z"/>
	<path class="st5" d="M1536.4,1143.5c4.7-2.7,16.4-9.5,17.6-10.2v24.4l-17.6,10.2C1536.4,1166.5,1536.4,1150.3,1536.4,1143.5z"/>
	<path class="st6" d="M1536.4,1188.6l17.6-10.2v24.4l-17.6,10.2C1536.4,1211.6,1536.4,1195.4,1536.4,1188.6z"/>
	<path class="st7" d="M1536.4,1233.7c4.7-2.7,16.4-9.5,17.6-10.2v24.4l-17.6,10.2C1536.4,1256.7,1536.4,1240.5,1536.4,1233.7z"/>
	<path class="st5" d="M1566.8,1126.3c4.7-2.7,16.4-9.5,17.6-10.2v24.4l-17.6,10.2C1566.8,1149.3,1566.8,1133,1566.8,1126.3z"/>
	<path class="st6" d="M1566.8,1171.4l17.6-10.2v24.4l-17.6,10.2C1566.8,1194.4,1566.8,1178.2,1566.8,1171.4z"/>
	<path class="st7" d="M1566.8,1216.5l17.6-10.2v24.4l-17.6,10.2C1566.8,1239.5,1566.8,1223.3,1566.8,1216.5z"/>
	<path class="st5" d="M1597.3,1109.1c4.7-2.7,16.4-9.5,17.6-10.2v24.4l-17.6,10.2C1597.3,1132.1,1597.3,1115.8,1597.3,1109.1z"/>
	<path class="st6" d="M1597.3,1154.2c4.7-2.7,16.4-9.5,17.6-10.2v24.4l-17.6,10.2C1597.3,1177.2,1597.3,1160.9,1597.3,1154.2z"/>
	<path class="st7" d="M1597.3,1199.3l17.6-10.2v24.4l-17.6,10.2C1597.3,1222.3,1597.3,1206,1597.3,1199.3z"/>
	
		<linearGradient id="SVGID_2_" gradientUnits="userSpaceOnUse" x1="1385.2001" y1="-65.1" x2="1385.2001" y2="-269.2" gradientTransform="matrix(1 0 0 1 0 1396)">
		<stop  offset="0" style="stop-color:#FE9877"/>
		<stop  offset="1" style="stop-color:#FEBAA4"/>
	</linearGradient>
	<polygon class="st8" points="1430.1,1190.2 1430.1,1190.2 1430.1,1190.1 1430,1190.1 1381.3,1126.8 1340.3,1138.3 1340.3,1279.2 
		1429.9,1330.9 	"/>
	<polygon class="st7" points="1340.3,1138.3 1381.3,1126.8 1579.1,1013.8 1538.1,1025.2 	"/>
	
		<linearGradient id="SVGID_3_" gradientUnits="userSpaceOnUse" x1="1381.3" y1="-293.8" x2="1628.9" y2="-293.8" gradientTransform="matrix(1 0 0 1 0 1396)">
		<stop  offset="0" style="stop-color:#FE5455"/>
		<stop  offset="1" style="stop-color:#FE7F80"/>
	</linearGradient>
	<polygon class="st9" points="1381.3,1126.8 1579.1,1013.8 1628.9,1077.3 1430.5,1190.6 	"/>
	<ellipse class="st10" cx="1426.1" cy="1132.5" rx="3.6" ry="3.3"/>
	<ellipse class="st10" cx="1454.4" cy="1116.2" rx="3.6" ry="3.3"/>
	<ellipse class="st10" cx="1482.7" cy="1100" rx="3.6" ry="3.3"/>
	<ellipse class="st10" cx="1511" cy="1083.8" rx="3.6" ry="3.3"/>
	<ellipse class="st10" cx="1539.3" cy="1067.5" rx="3.6" ry="3.3"/>
	<ellipse class="st10" cx="1567.6" cy="1051.3" rx="3.6" ry="3.3"/>
	<ellipse class="st10" cx="1583.9" cy="1072.4" rx="3.6" ry="3.3"/>
	<ellipse class="st10" cx="1555.6" cy="1088.6" rx="3.6" ry="3.3"/>
	<ellipse class="st10" cx="1527.4" cy="1104.7" rx="3.6" ry="3.3"/>
	<ellipse class="st10" cx="1499.1" cy="1120.9" rx="3.6" ry="3.3"/>
	<ellipse class="st10" cx="1470.9" cy="1137" rx="3.6" ry="3.3"/>
	<ellipse class="st10" cx="1442.6" cy="1153.1" rx="3.6" ry="3.3"/>
	
		<linearGradient id="SVGID_4_" gradientUnits="userSpaceOnUse" x1="2003.6" y1="-199.1" x2="2076.3999" y2="-199.1" gradientTransform="matrix(1 0 0 1 0 1396)">
		<stop  offset="0" style="stop-color:#FE5455"/>
		<stop  offset="1" style="stop-color:#FE7F80"/>
	</linearGradient>
	<polygon class="st11" points="2003.6,1202.4 2049.3,1176 2076.4,1191.4 2030.7,1217.8 	"/>
	<path class="st12" d="M2049.3,1178.3l23,13.1l-41.7,24l-23-13.1L2049.3,1178.3 M2049.3,1173.7l-49.7,28.7l31.1,17.7l49.7-28.7
		L2049.3,1173.7z"/>
	
		<linearGradient id="SVGID_5_" gradientUnits="userSpaceOnUse" x1="2055.5498" y1="-137.7" x2="2055.5498" y2="-204.6" gradientTransform="matrix(1 0 0 1 0 1396)">
		<stop  offset="0" style="stop-color:#FE7F80"/>
		<stop  offset="1" style="stop-color:#FEA9AA"/>
	</linearGradient>
	<polygon class="st13" points="2030.7,1220.1 2030.7,1258.3 2080.4,1229.6 2080.4,1191.4 	"/>
	
		<linearGradient id="SVGID_6_" gradientUnits="userSpaceOnUse" x1="2015" y1="-137.7" x2="2015" y2="-193.6" gradientTransform="matrix(1 0 0 1 0 1396)">
		<stop  offset="0" style="stop-color:#FE5455"/>
		<stop  offset="1" style="stop-color:#FE7F80"/>
	</linearGradient>
	<polygon class="st14" points="1999.6,1202.4 1999.3,1240.5 2030.7,1258.3 2030.7,1220.1 	"/>
	<polygon class="st10" points="2050.7,1227.1 2057.2,1236.6 2056.6,1226.1 2060.4,1223.9 2053.1,1214.8 2054.5,1224.9 	"/>
	
		<linearGradient id="SVGID_7_" gradientUnits="userSpaceOnUse" x1="2050.9001" y1="-202.2" x2="2050.9001" y2="-214.7001" gradientTransform="matrix(1 0 0 1 0 1396)">
		<stop  offset="0" style="stop-color:#FE7F80"/>
		<stop  offset="1" style="stop-color:#FEA9AA"/>
	</linearGradient>
	<path class="st15" d="M2056.6,1184.6L2056.6,1184.6c0-1.8-2.5-3.3-5.7-3.3s-5.7,1.5-5.7,3.3l0,0l0,0v5.9c0,1.8,2.5,3.3,5.7,3.3
		c3.1,0,5.7-1.5,5.7-3.3V1184.6z"/>
	
		<linearGradient id="SVGID_8_" gradientUnits="userSpaceOnUse" x1="2029" y1="-190.2" x2="2029" y2="-202.6901" gradientTransform="matrix(1 0 0 1 0 1396)">
		<stop  offset="0" style="stop-color:#FE7F80"/>
		<stop  offset="1" style="stop-color:#FEA9AA"/>
	</linearGradient>
	<path class="st16" d="M2034.7,1196.6L2034.7,1196.6c0-1.9-2.5-3.3-5.7-3.3s-5.7,1.5-5.7,3.3v0.1l0,0v5.9c0,1.8,2.5,3.3,5.7,3.3
		s5.7-1.5,5.7-3.3V1196.6z"/>
	
		<linearGradient id="SVGID_9_" gradientUnits="userSpaceOnUse" x1="1951.05" y1="-305.1" x2="1951.05" y2="-522.6" gradientTransform="matrix(1 0 0 1 0 1396)">
		<stop  offset="0" style="stop-color:#FE9877"/>
		<stop  offset="1" style="stop-color:#FEBAA4"/>
	</linearGradient>
	<polygon class="st17" points="2050.8,984.7 2050.8,1090.9 1851.3,975 1851.3,873.4 	"/>
	<line class="st18" x1="2050.8" y1="1011.3" x2="1851.3" y2="898.8"/>
	<line class="st19" x1="2050.8" y1="1037.8" x2="1851.3" y2="924.2"/>
	<line class="st20" x1="2050.8" y1="1064.4" x2="1851.3" y2="949.6"/>
	<polygon class="st5" points="2144.8,930.5 1948.7,817.7 1851.3,873.4 2050.9,984.7 	"/>
	<polygon class="st7" points="1948.7,826.5 1866.8,873.3 1873.9,877.3 2050.9,976 2122.6,934.5 2129.5,930.5 	"/>
	
		<linearGradient id="SVGID_10_" gradientUnits="userSpaceOnUse" x1="2169.5498" y1="-243.5" x2="2169.5498" y2="-462.3" gradientTransform="matrix(1 0 0 1 0 1396)">
		<stop  offset="0" style="stop-color:#FEBAA4"/>
		<stop  offset="1" style="stop-color:#FFDDD2"/>
	</linearGradient>
	<polygon class="st21" points="2230.2,933.7 2230.2,1082.4 2108.9,1152.5 2108.9,1003.7 	"/>
	
		<linearGradient id="SVGID_11_" gradientUnits="userSpaceOnUse" x1="2065.7" y1="-243.5" x2="2065.7" y2="-442.1" gradientTransform="matrix(1 0 0 1 0 1396)">
		<stop  offset="0" style="stop-color:#FE9877"/>
		<stop  offset="1" style="stop-color:#FEBAA4"/>
	</linearGradient>
	<polygon class="st22" points="2108.9,1003.7 2108.9,1152.5 2022.5,1102.7 2022.5,953.9 	"/>
	
		<linearGradient id="SVGID_12_" gradientUnits="userSpaceOnUse" x1="1891.4501" y1="-338.4" x2="1891.4501" y2="-444.3" gradientTransform="matrix(1 0 0 1 0 1396)">
		<stop  offset="0" style="stop-color:#FEBAA4"/>
		<stop  offset="1" style="stop-color:#FFDDD2"/>
	</linearGradient>
	<polygon class="st23" points="1925.3,951.7 1925.3,1018.2 1857.6,1057.6 1857.6,991 	"/>
	
		<linearGradient id="SVGID_13_" gradientUnits="userSpaceOnUse" x1="1821.25" y1="-338.4" x2="1821.25" y2="-447.8" gradientTransform="matrix(1 0 0 1 0 1396)">
		<stop  offset="0" style="stop-color:#FE9877"/>
		<stop  offset="1" style="stop-color:#FEBAA4"/>
	</linearGradient>
	<polygon class="st24" points="1857.6,991 1857.6,1057.6 1784.9,1014.8 1784.9,948.2 	"/>
	<path class="st5" d="M1987.7,918.5c-20.4,0-37-10.7-37-23.9c0-4.7,2-9.2,5.9-13c6.8-6.8,18.4-10.9,31.1-10.9
		c20.4,0,37,10.7,37,23.9c0,4.7-2,9.2-5.9,13C2012,914.5,2000.4,918.5,1987.7,918.5z M1987.6,874.5c-11.7,0-22.3,3.7-28.4,9.8
		c-3.1,3.1-4.8,6.7-4.8,10.3c0,11.1,14.9,20.1,33.2,20.1c11.7,0,22.3-3.7,28.4-9.8c3.1-3.1,4.8-6.7,4.8-10.3
		C2020.8,883.5,2006,874.5,1987.6,874.5L1987.6,874.5z"/>
	<polygon class="st5" points="2006.6,889.4 1995.2,896 1985.3,890.3 1996.8,883.7 1990.4,880 1962.4,896.2 1968.8,899.9 
		1980.2,893.3 1990,898.9 1978.6,905.5 1985,909.2 2013,893 	"/>
	<polygon class="st5" points="2022.5,953.9 2143.4,884.1 2230.2,933.7 2108.9,1003.7 	"/>
	<polygon class="st7" points="2036.5,953.9 2143.4,892.2 2216.2,933.7 2108.9,995.7 	"/>
	<polygon class="st5" points="1917,968.4 1865.8,998.4 1865.8,1014.4 1910.5,988.1 1918.6,983.5 1918.6,967.5 	"/>
	<polygon class="st25" points="1917,993.2 1865.8,1023.3 1865.8,1039.3 1910.5,1013 1918.6,1008.3 1918.6,992.3 	"/>
	<polygon class="st26" points="1842.5,1019.5 1792.2,989.9 1792.2,1006 1848.9,1039.3 1848.9,1037.3 1848.9,1023.3 	"/>
	<polygon class="st7" points="1792.2,965.1 1792.2,981.1 1800.2,985.7 1848.9,1014.4 1848.9,998.4 1793.8,966 	"/>
	<polygon class="st5" points="2066.2,951.3 2085.1,940.5 2103.8,951.3 2085.1,962.2 	"/>
	<polygon class="st5" points="2094.6,967.6 2113.4,956.7 2132.1,967.6 2113.4,978.5 	"/>
	
		<linearGradient id="SVGID_14_" gradientUnits="userSpaceOnUse" x1="18163.9805" y1="-479.75" x2="18264.3809" y2="-479.75" gradientTransform="matrix(-1 0 0 1 20363.7812 1396)">
		<stop  offset="0" style="stop-color:#FE5455"/>
		<stop  offset="1" style="stop-color:#FE7F80"/>
	</linearGradient>
	<polygon class="st27" points="2199.8,909.7 2163.1,959.7 2099.4,922.8 2136,872.8 	"/>
	<ellipse class="st10" cx="2166.2" cy="914.2" rx="3" ry="2.7"/>
	<ellipse class="st10" cx="2145" cy="902" rx="3" ry="2.7"/>
	<ellipse class="st10" cx="2154" cy="931" rx="3" ry="2.7"/>
	<ellipse class="st10" cx="2132.9" cy="918.2" rx="3" ry="2.7"/>
	<polygon class="st5" points="1784.9,948.2 1851.4,909.7 1925.3,951.7 1857.6,991 	"/>
	<polygon class="st7" points="1798.8,948.3 1851.4,917.8 1911.2,951.8 1857.6,982.9 	"/>
	<polygon class="st5" points="1836.3,941.2 1851.4,932.5 1866.4,941.2 1851.4,949.9 	"/>
	<polygon class="st28" points="1840.2,1450.5 1839.9,1450.7 1840.2,1450.9 	"/>
	<path class="st5" d="M1961.3,1526.8l191.1-110.3l-2.6-1.5l-0.5-0.3l-0.5-0.3l-0.6-0.4l-5.5-3.2l-0.5-0.3l-0.3-0.2l-8.3-4.8l-3.4-2
		l33.9-19.6l33.9-19.5l22.2,12.8l191.2-110.3l-64.7-37.4l0,0l-64.7-37.4l-36.7,21.2l-3.2,1.8l-3.7,2.1l-84.2,48.6l-3.1,1.8l-7.6,4.4
		l-1.3,0.8l-3.1,1.8l-12.9,7.4l-0.6,0.3l-0.5,0.3l-2.9,1.7l-0.5,0.3l-0.5,0.3l-0.5,0.3l-2.8,1.6l-0.5,0.3l-0.5,0.3l-0.7,0.4
		l-0.5,0.3l-2.8,1.6l-0.5,0.3l-0.5,0.3l-0.7,0.4l-14.2,8.2l-1.3,0.8l-3.1,1.8l-2.1,1.2l22.2,12.8l-3.4,2l-9.6,5.5l-1.2,0.7l-4.3,2.5
		l-15.4,8.8l-33.9,19.6l-22.2-12.8l-191.2,110.4L1961.3,1526.8z"/>
	<polygon class="st7" points="1845.8,1452.1 2022.9,1349.8 2045.2,1362.7 2127,1315.4 2104.8,1302.6 2281.9,1200.3 2397.4,1267 
		2220.2,1369.3 2198,1356.4 2116.2,1403.7 2138.4,1416.5 1961.3,1518.8 	"/>
	
		<linearGradient id="SVGID_15_" gradientUnits="userSpaceOnUse" x1="2101.8999" y1="-67.73" x2="2101.8999" y2="-93.4301" gradientTransform="matrix(1 0 0 1 0 1396)">
		<stop  offset="0" style="stop-color:#FE9877"/>
		<stop  offset="1" style="stop-color:#FEBAA4"/>
	</linearGradient>
	<polygon class="st29" points="2090.8,1302.6 2090.8,1328.3 2113,1315.4 	"/>
	<path class="st5" d="M2143.3,1356.5l-23.2-13.4l-23.2,13.4l23.2,13.4L2143.3,1356.5z"/>
	
		<linearGradient id="SVGID_16_" gradientUnits="userSpaceOnUse" x1="1896.55" y1="245.2" x2="1896.55" y2="56.1" gradientTransform="matrix(1 0 0 1 0 1396)">
		<stop  offset="0" style="stop-color:#FE9877"/>
		<stop  offset="1" style="stop-color:#FEBAA4"/>
	</linearGradient>
	<polygon class="st30" points="1831.8,1566.4 1961.3,1641.2 1961.3,1526.8 1831.8,1452.1 	"/>
	
		<linearGradient id="SVGID_17_" gradientUnits="userSpaceOnUse" x1="2056.8501" y1="245.2" x2="2056.8501" y2="20.5" gradientTransform="matrix(1 0 0 1 0 1396)">
		<stop  offset="0" style="stop-color:#FEBAA4"/>
		<stop  offset="1" style="stop-color:#FFDDD2"/>
	</linearGradient>
	<polygon class="st31" points="2152.4,1416.5 1961.3,1526.8 1961.3,1641.2 2152.4,1530.8 	"/>
	<line class="st20" x1="1831.8" y1="1480.7" x2="1961.3" y2="1555.4"/>
	<line class="st20" x1="1831.8" y1="1509.3" x2="1961.3" y2="1584"/>
	<line class="st20" x1="1831.8" y1="1537.8" x2="1961.3" y2="1612.6"/>
	<line class="st32" x1="1961.3" y1="1612.6" x2="2152.4" y2="1502.2"/>
	<line class="st32" x1="1961.3" y1="1584" x2="2152.4" y2="1473.7"/>
	<line class="st32" x1="1961.3" y1="1555.4" x2="2152.4" y2="1445.1"/>
	
		<linearGradient id="SVGID_18_" gradientUnits="userSpaceOnUse" x1="2315.7998" y1="95.6" x2="2315.7998" y2="-129.1" gradientTransform="matrix(1 0 0 1 0 1396)">
		<stop  offset="0" style="stop-color:#FEBAA4"/>
		<stop  offset="1" style="stop-color:#FFDDD2"/>
	</linearGradient>
	<polygon class="st33" points="2411.4,1266.9 2220.2,1377.2 2220.2,1491.6 2411.4,1381.2 	"/>
	<line class="st32" x1="2220.2" y1="1463" x2="2411.4" y2="1352.6"/>
	<line class="st32" x1="2220.2" y1="1434.4" x2="2411.4" y2="1324.1"/>
	<line class="st32" x1="2220.2" y1="1405.8" x2="2411.4" y2="1295.5"/>
	
		<linearGradient id="SVGID_19_" gradientUnits="userSpaceOnUse" x1="2209.1001" y1="95.5" x2="2209.1001" y2="-31.5" gradientTransform="matrix(1 0 0 1 0 1396)">
		<stop  offset="0" style="stop-color:#FE9877"/>
		<stop  offset="1" style="stop-color:#FEBAA4"/>
	</linearGradient>
	<polygon class="st34" points="2198,1364.5 2220.2,1377.3 2220.2,1491.5 2198,1478.7 	"/>
	
		<linearGradient id="SVGID_20_" gradientUnits="userSpaceOnUse" x1="2164.1001" y1="108.6" x2="2164.1001" y2="-31.5" gradientTransform="matrix(1 0 0 1 0 1396)">
		<stop  offset="0" style="stop-color:#FEBAA4"/>
		<stop  offset="1" style="stop-color:#FFDDD2"/>
	</linearGradient>
	<polygon class="st35" points="2198,1478.2 2152.4,1504.6 2152.4,1416.5 2130.2,1403.7 2198,1364.5 	"/>
	<polygon class="st7" points="2180.1,1488.6 2152.4,1504.6 2152.4,1466.1 2180.1,1450.1 	"/>
	<line class="st36" x1="2224.1" y1="1259.8" x2="1928.5" y2="1431.3"/>
	
		<linearGradient id="SVGID_21_" gradientUnits="userSpaceOnUse" x1="1880" y1="35.65" x2="1983.6" y2="35.65" gradientTransform="matrix(1 0 0 1 0 1396)">
		<stop  offset="0" style="stop-color:#FE5455"/>
		<stop  offset="1" style="stop-color:#FE7F80"/>
	</linearGradient>
	<polygon class="st37" points="1880,1422 1918.3,1479.1 1983.6,1441.3 1945.3,1384.2 	"/>
	<circle class="st10" cx="1914.6" cy="1428.5" r="2.5"/>
	<circle class="st10" cx="1927.5" cy="1447.6" r="2.5"/>
	<circle class="st10" cx="1949.3" cy="1435" r="2.5"/>
	<circle class="st10" cx="1936.4" cy="1416" r="2.5"/>
	
		<linearGradient id="SVGID_22_" gradientUnits="userSpaceOnUse" x1="1961.4" y1="-10.25" x2="2065" y2="-10.25" gradientTransform="matrix(1 0 0 1 0 1396)">
		<stop  offset="0" style="stop-color:#FE5455"/>
		<stop  offset="1" style="stop-color:#FE7F80"/>
	</linearGradient>
	<polygon class="st38" points="1961.4,1376.1 1999.7,1433.2 2065,1395.4 2026.7,1338.3 	"/>
	<circle class="st10" cx="1995.9" cy="1382.6" r="2.5"/>
	<circle class="st10" cx="2008.9" cy="1401.7" r="2.5"/>
	<circle class="st10" cx="2030.7" cy="1389.1" r="2.5"/>
	<circle class="st10" cx="2017.8" cy="1370.1" r="2.5"/>
	
		<linearGradient id="SVGID_23_" gradientUnits="userSpaceOnUse" x1="2142.1001" y1="-116.05" x2="2245.7" y2="-116.05" gradientTransform="matrix(1 0 0 1 0 1396)">
		<stop  offset="0" style="stop-color:#FE5455"/>
		<stop  offset="1" style="stop-color:#FE7F80"/>
	</linearGradient>
	<polygon class="st39" points="2142.1,1270.3 2180.4,1327.4 2245.7,1289.6 2207.4,1232.5 	"/>
	<circle class="st10" cx="2176.7" cy="1276.8" r="2.5"/>
	<circle class="st10" cx="2189.7" cy="1295.9" r="2.5"/>
	<circle class="st10" cx="2211.5" cy="1283.3" r="2.5"/>
	<circle class="st10" cx="2198.6" cy="1264.3" r="2.5"/>
	
		<linearGradient id="SVGID_24_" gradientUnits="userSpaceOnUse" x1="2223.5" y1="-161.95" x2="2327.1001" y2="-161.95" gradientTransform="matrix(1 0 0 1 0 1396)">
		<stop  offset="0" style="stop-color:#FE5455"/>
		<stop  offset="1" style="stop-color:#FE7F80"/>
	</linearGradient>
	<polygon class="st40" points="2223.5,1224.4 2261.8,1281.5 2327.1,1243.7 2288.8,1186.6 	"/>
	<circle class="st10" cx="2258.1" cy="1230.9" r="2.5"/>
	<circle class="st10" cx="2271" cy="1250" r="2.5"/>
	<circle class="st10" cx="2292.8" cy="1237.4" r="2.5"/>
	<circle class="st10" cx="2279.9" cy="1218.4" r="2.5"/>
	<polygon class="st5" points="1823.8,1016.6 1923.7,1074.3 1829,1128.9 1802.8,1113.7 1739.7,1150.1 1666.1,1107.6 	"/>
	<polygon class="st7" points="1680.1,1107.6 1823.8,1024.7 1909.7,1074.3 1829,1120.8 1802.8,1105.7 1739.7,1142.1 	"/>
	
		<linearGradient id="SVGID_25_" gradientUnits="userSpaceOnUse" x1="1702.9501" y1="9.1" x2="1702.9501" y2="-288.4" gradientTransform="matrix(1 0 0 1 0 1396)">
		<stop  offset="0" style="stop-color:#FE9877"/>
		<stop  offset="1" style="stop-color:#FEBAA4"/>
	</linearGradient>
	<path class="st41" d="M1666.1,1107.6v254.9l73.3,42.6c0-2.2,0.4-251,0.4-255L1666.1,1107.6z"/>
	
		<linearGradient id="SVGID_26_" gradientUnits="userSpaceOnUse" x1="1876.3" y1="-12.2999" x2="1876.3" y2="-321.7" gradientTransform="matrix(1 0 0 1 0 1396)">
		<stop  offset="0" style="stop-color:#FEBAA4"/>
		<stop  offset="1" style="stop-color:#FFDDD2"/>
	</linearGradient>
	<path class="st42" d="M1923.6,1074.3v254.8l-94.6,54.6v-254.8L1923.6,1074.3z"/>
	
		<linearGradient id="SVGID_27_" gradientUnits="userSpaceOnUse" x1="1815.85" y1="-12.3" x2="1815.85" y2="-282.3" gradientTransform="matrix(1 0 0 1 0 1396)">
		<stop  offset="0" style="stop-color:#FE9877"/>
		<stop  offset="1" style="stop-color:#FEBAA4"/>
	</linearGradient>
	<path class="st43" d="M1829,1383.7l-26.3-15.2v-254.8l26.3,15.2V1383.7z"/>
	
		<linearGradient id="SVGID_28_" gradientUnits="userSpaceOnUse" x1="1771" y1="9.1" x2="1771" y2="-282.3" gradientTransform="matrix(1 0 0 1 0 1396)">
		<stop  offset="0" style="stop-color:#FEBAA4"/>
		<stop  offset="1" style="stop-color:#FFDDD2"/>
	</linearGradient>
	<path class="st44" d="M1739.7,1150.1l-0.4,255l63.4-36.6v-254.8L1739.7,1150.1z"/>
	<path class="st5" d="M1904.5,1098.5v24.4l-17.6,10.1c0-1.4,0-17.6,0-24.4C1891.6,1105.9,1903.3,1099.2,1904.5,1098.5z"/>
	<path class="st45" d="M1904.5,1139v24.4l-17.6,10.2c0-1.4,0-17.6,0-24.4C1891.6,1146.4,1903.3,1139.7,1904.5,1139z"/>
	<path class="st46" d="M1904.5,1179.5v24.4l-17.6,10.2c0-1.3,0-17.6,0-24.4C1891.6,1187,1903.3,1180.2,1904.5,1179.5z"/>
	<path class="st25" d="M1904.5,1220v24.4l-17.6,10.2c0-1.3,0-17.6,0-24.4C1891.6,1227.5,1903.3,1220.7,1904.5,1220z"/>
	<path class="st47" d="M1904.5,1260.5v24.4l-17.6,10.2c0-1.3,0-17.6,0-24.4L1904.5,1260.5z"/>
	<path class="st7" d="M1904.5,1301v24.4l-17.6,10.2c0-1.3,0-17.6,0-24.4L1904.5,1301z"/>
	<path class="st5" d="M1851.8,1129l17.6-10.2v24.4l-17.6,10.2C1851.9,1152,1851.8,1135.7,1851.8,1129z"/>
	<path class="st45" d="M1869.4,1159.3v24.4l-17.6,10.2c0-1.3,0-17.6,0-24.4L1869.4,1159.3z"/>
	<path class="st46" d="M1869.4,1199.8v24.4l-17.6,10.2c0-1.3,0-17.6,0-24.4L1869.4,1199.8z"/>
	<path class="st25" d="M1869.4,1240.3v24.4l-17.6,10.2c0-1.3,0-17.6,0-24.4L1869.4,1240.3z"/>
	<path class="st47" d="M1869.4,1280.8v24.4l-17.6,10.2c0-1.3,0-17.6,0-24.4L1869.4,1280.8z"/>
	<path class="st7" d="M1869.4,1321.3v24.4l-17.6,10.2c0-1.3,0-17.6,0-24.4L1869.4,1321.3z"/>
	<path class="st5" d="M1882.4,1073.6l-21.4-12.4l-21.4,12.4l21.4,12.4L1882.4,1073.6z"/>
	
		<linearGradient id="SVGID_29_" gradientUnits="userSpaceOnUse" x1="1756.7" y1="-361.95" x2="1854.4" y2="-361.95" gradientTransform="matrix(1 0 0 1 0 1396)">
		<stop  offset="0" style="stop-color:#FE5455"/>
		<stop  offset="1" style="stop-color:#FE7F80"/>
	</linearGradient>
	<polygon class="st48" points="1756.7,1027.7 1792.3,1076.4 1854.4,1040.4 1818.8,991.7 	"/>
	
		<linearGradient id="SVGID_30_" gradientUnits="userSpaceOnUse" x1="1686.4" y1="-319.6" x2="1784.2" y2="-319.6" gradientTransform="matrix(1 0 0 1 0 1396)">
		<stop  offset="0" style="stop-color:#FE5455"/>
		<stop  offset="1" style="stop-color:#FE7F80"/>
	</linearGradient>
	<polygon class="st49" points="1686.4,1070 1722.1,1118.7 1784.2,1082.8 1748.5,1034.1 	"/>
	<ellipse class="st10" cx="1719.3" cy="1074.5" rx="2.9" ry="2.7"/>
	<ellipse class="st10" cx="1739.9" cy="1062.6" rx="2.9" ry="2.7"/>
	<ellipse class="st10" cx="1731.2" cy="1090.8" rx="2.9" ry="2.7"/>
	<ellipse class="st10" cx="1751.7" cy="1078.4" rx="2.9" ry="2.7"/>
	<ellipse class="st10" cx="1789.3" cy="1032.1" rx="2.9" ry="2.7"/>
	<ellipse class="st10" cx="1809.9" cy="1020.2" rx="2.9" ry="2.7"/>
	<ellipse class="st10" cx="1801.2" cy="1048.4" rx="2.9" ry="2.7"/>
	<ellipse class="st10" cx="1821.8" cy="1036" rx="2.9" ry="2.7"/>
	<line class="st18" x1="2022.5" y1="991.1" x2="2108.9" y2="1040.9"/>
	<line class="st19" x1="2022.5" y1="1028.3" x2="2108.9" y2="1078.1"/>
	<line class="st20" x1="2022.5" y1="1065.5" x2="2108.9" y2="1115.3"/>
	<line class="st32" x1="2108.9" y1="1040.9" x2="2230.2" y2="970.9"/>
	<line class="st32" x1="2108.9" y1="1078.1" x2="2230.2" y2="1008.1"/>
	<line class="st32" x1="2108.9" y1="1115.3" x2="2230.2" y2="1045.2"/>
	<line class="st50" x1="1381.3" y1="1126.8" x2="1430.5" y2="1190.6"/>
	<line class="st50" x1="1409.6" y1="1110.6" x2="1458.9" y2="1174.4"/>
	<line class="st50" x1="1437.8" y1="1094.5" x2="1487.2" y2="1158.2"/>
	<line class="st50" x1="1466.1" y1="1078.4" x2="1515.5" y2="1142"/>
	<line class="st50" x1="1494.4" y1="1062.2" x2="1543.9" y2="1125.8"/>
	<line class="st50" x1="1522.6" y1="1046.1" x2="1572.2" y2="1109.7"/>
	<line class="st50" x1="1550.9" y1="1030" x2="1600.5" y2="1093.5"/>
	<line class="st50" x1="1579.1" y1="1013.8" x2="1628.9" y2="1077.3"/>
	<line class="st50" x1="1381.3" y1="1126.8" x2="1579.1" y2="1013.8"/>
	<line class="st50" x1="1397.7" y1="1148" x2="1595.7" y2="1035"/>
	<line class="st50" x1="1414.1" y1="1169.3" x2="1612.3" y2="1056.2"/>
	<line class="st50" x1="1430.5" y1="1190.6" x2="1628.9" y2="1077.3"/>
	<line class="st51" x1="2187.4" y1="926.6" x2="2187.4" y2="945.5"/>
	<line class="st50" x1="2199.8" y1="909.7" x2="2163.1" y2="959.7"/>
	<line class="st50" x1="2178.5" y1="897.4" x2="2141.9" y2="947.4"/>
	<line class="st50" x1="2157.2" y1="885.1" x2="2120.6" y2="935.1"/>
	<line class="st50" x1="2136" y1="872.8" x2="2099.4" y2="922.8"/>
	<line class="st50" x1="2136" y1="872.8" x2="2199.8" y2="909.7"/>
	<line class="st50" x1="2123.8" y1="889.4" x2="2187.6" y2="926.4"/>
	<line class="st50" x1="2111.6" y1="906.1" x2="2175.4" y2="943.1"/>
	<line class="st50" x1="2099.4" y1="922.8" x2="2163.1" y2="959.7"/>
	<line class="st51" x1="1892.8" y1="1441" x2="1892.8" y2="1464.3"/>
	<line class="st51" x1="1974.1" y1="1395.1" x2="1974.1" y2="1418.4"/>
	<line class="st51" x1="2154.9" y1="1289.3" x2="2154.9" y2="1312.6"/>
	<line class="st51" x1="2236.2" y1="1243.4" x2="2236.2" y2="1266.7"/>
	<line class="st50" x1="1880" y1="1422" x2="1918.3" y2="1479.1"/>
	<line class="st50" x1="1901.8" y1="1409.4" x2="1940.1" y2="1466.5"/>
	<line class="st50" x1="1923.5" y1="1396.8" x2="1961.8" y2="1453.9"/>
	<line class="st50" x1="1945.3" y1="1384.2" x2="1983.6" y2="1441.3"/>
	<line class="st50" x1="1945.3" y1="1384.2" x2="1880" y2="1422"/>
	<line class="st50" x1="1958.1" y1="1403.2" x2="1892.8" y2="1441"/>
	<line class="st50" x1="1970.8" y1="1422.3" x2="1905.5" y2="1460.1"/>
	<line class="st50" x1="1983.6" y1="1441.3" x2="1918.3" y2="1479.1"/>
	<line class="st50" x1="1961.4" y1="1376.1" x2="1999.7" y2="1433.2"/>
	<line class="st50" x1="1983.1" y1="1363.5" x2="2021.4" y2="1420.6"/>
	<line class="st50" x1="2004.9" y1="1350.9" x2="2043.2" y2="1408"/>
	<line class="st50" x1="2026.7" y1="1338.3" x2="2065" y2="1395.4"/>
	<line class="st50" x1="2026.7" y1="1338.3" x2="1961.4" y2="1376.1"/>
	<line class="st50" x1="2039.4" y1="1357.3" x2="1974.1" y2="1395.1"/>
	<line class="st50" x1="2052.2" y1="1376.3" x2="1986.9" y2="1414.2"/>
	<line class="st50" x1="2065" y1="1395.4" x2="1999.7" y2="1433.2"/>
	<line class="st50" x1="2142.1" y1="1270.3" x2="2180.4" y2="1327.4"/>
	<line class="st50" x1="2163.9" y1="1257.7" x2="2202.2" y2="1314.8"/>
	<line class="st50" x1="2185.6" y1="1245.1" x2="2224" y2="1302.2"/>
	<line class="st50" x1="2207.4" y1="1232.5" x2="2245.7" y2="1289.6"/>
	<line class="st50" x1="2207.4" y1="1232.5" x2="2142.1" y2="1270.3"/>
	<line class="st50" x1="2220.2" y1="1251.5" x2="2154.9" y2="1289.3"/>
	<line class="st50" x1="2232.9" y1="1270.6" x2="2167.7" y2="1308.4"/>
	<line class="st50" x1="2245.7" y1="1289.6" x2="2180.4" y2="1327.4"/>
	<line class="st50" x1="2223.5" y1="1224.4" x2="2261.8" y2="1281.5"/>
	<line class="st50" x1="2245.2" y1="1211.8" x2="2283.6" y2="1268.9"/>
	<line class="st50" x1="2267" y1="1199.2" x2="2305.3" y2="1256.3"/>
	<line class="st50" x1="2288.8" y1="1186.6" x2="2327.1" y2="1243.7"/>
	<line class="st50" x1="2288.8" y1="1186.6" x2="2223.5" y2="1224.4"/>
	<line class="st50" x1="2301.6" y1="1205.6" x2="2236.3" y2="1243.4"/>
	<line class="st50" x1="2314.3" y1="1224.7" x2="2249" y2="1262.5"/>
	<line class="st50" x1="2327.1" y1="1243.7" x2="2261.8" y2="1281.5"/>
	<line class="st51" x1="1768.7" y1="1044.1" x2="1768.7" y2="1062.6"/>
	<line class="st51" x1="1698.5" y1="1086.5" x2="1698.5" y2="1104.9"/>
	<line class="st50" x1="1756.7" y1="1027.7" x2="1792.3" y2="1076.4"/>
	<line class="st50" x1="1777.3" y1="1015.7" x2="1813" y2="1064.4"/>
	<line class="st50" x1="1798.1" y1="1003.7" x2="1833.7" y2="1052.4"/>
	<line class="st50" x1="1818.8" y1="991.7" x2="1854.4" y2="1040.4"/>
	<line class="st50" x1="1818.8" y1="991.7" x2="1756.7" y2="1027.7"/>
	<line class="st50" x1="1830.6" y1="1008" x2="1768.5" y2="1043.9"/>
	<line class="st50" x1="1842.5" y1="1024.2" x2="1780.4" y2="1060.2"/>
	<line class="st50" x1="1854.4" y1="1040.4" x2="1792.3" y2="1076.4"/>
	<line class="st50" x1="1686.4" y1="1070" x2="1722.1" y2="1118.7"/>
	<line class="st50" x1="1707.1" y1="1058" x2="1742.8" y2="1106.7"/>
	<line class="st50" x1="1727.8" y1="1046" x2="1763.5" y2="1094.7"/>
	<line class="st50" x1="1748.5" y1="1034.1" x2="1784.2" y2="1082.8"/>
	<line class="st50" x1="1748.5" y1="1034.1" x2="1686.4" y2="1070"/>
	<line class="st50" x1="1760.4" y1="1050.3" x2="1698.3" y2="1086.2"/>
	<line class="st50" x1="1772.3" y1="1066.5" x2="1710.2" y2="1102.5"/>
	<line class="st50" x1="1784.2" y1="1082.8" x2="1722.1" y2="1118.7"/>
	
		<linearGradient id="SVGID_31_" gradientUnits="userSpaceOnUse" x1="1381.3" y1="-293.8" x2="1628.9" y2="-293.8" gradientTransform="matrix(1 0 0 1 0 1396)">
		<stop  offset="0" style="stop-color:#FE764A"/>
		<stop  offset="1" style="stop-color:#FE9877"/>
	</linearGradient>
	<polygon class="st52" points="1381.3,1126.8 1579.1,1013.8 1628.9,1077.3 1430.5,1190.6 	"/>
	<ellipse class="st10" cx="1426.1" cy="1132.5" rx="3.6" ry="3.3"/>
	<ellipse class="st10" cx="1454.4" cy="1116.2" rx="3.6" ry="3.3"/>
	<ellipse class="st10" cx="1482.7" cy="1100" rx="3.6" ry="3.3"/>
	<ellipse class="st10" cx="1511" cy="1083.8" rx="3.6" ry="3.3"/>
	<ellipse class="st10" cx="1539.3" cy="1067.5" rx="3.6" ry="3.3"/>
	<ellipse class="st10" cx="1567.6" cy="1051.3" rx="3.6" ry="3.3"/>
	<ellipse class="st10" cx="1583.9" cy="1072.4" rx="3.6" ry="3.3"/>
	<ellipse class="st10" cx="1555.6" cy="1088.6" rx="3.6" ry="3.3"/>
	<ellipse class="st10" cx="1527.4" cy="1104.7" rx="3.6" ry="3.3"/>
	<ellipse class="st10" cx="1499.1" cy="1120.9" rx="3.6" ry="3.3"/>
	<ellipse class="st10" cx="1470.9" cy="1137" rx="3.6" ry="3.3"/>
	<ellipse class="st10" cx="1442.6" cy="1153.1" rx="3.6" ry="3.3"/>
	
		<linearGradient id="SVGID_32_" gradientUnits="userSpaceOnUse" x1="2003.6" y1="-199.1" x2="2076.3999" y2="-199.1" gradientTransform="matrix(1 0 0 1 0 1396)">
		<stop  offset="0" style="stop-color:#FE764A"/>
		<stop  offset="1" style="stop-color:#FE9877"/>
	</linearGradient>
	<polygon class="st53" points="2003.6,1202.4 2049.3,1176 2076.4,1191.4 2030.7,1217.8 	"/>
	<path class="st7" d="M2049.3,1178.3l23,13.1l-41.7,24l-23-13.1L2049.3,1178.3 M2049.3,1173.7l-49.7,28.7l31.1,17.7l49.7-28.7
		L2049.3,1173.7z"/>
	
		<linearGradient id="SVGID_33_" gradientUnits="userSpaceOnUse" x1="2055.5498" y1="-137.7" x2="2055.5498" y2="-204.6" gradientTransform="matrix(1 0 0 1 0 1396)">
		<stop  offset="0" style="stop-color:#FE764A"/>
		<stop  offset="1" style="stop-color:#FEBAA4"/>
	</linearGradient>
	<polygon class="st54" points="2030.7,1220.1 2030.7,1258.3 2080.4,1229.6 2080.4,1191.4 	"/>
	
		<linearGradient id="SVGID_34_" gradientUnits="userSpaceOnUse" x1="2015" y1="-137.7" x2="2015" y2="-193.6" gradientTransform="matrix(1 0 0 1 0 1396)">
		<stop  offset="0" style="stop-color:#FE764A"/>
		<stop  offset="1" style="stop-color:#FE9877"/>
	</linearGradient>
	<polygon class="st55" points="1999.6,1202.4 1999.3,1240.5 2030.7,1258.3 2030.7,1220.1 	"/>
	<polygon class="st10" points="2050.7,1227.1 2057.2,1236.6 2056.6,1226.1 2060.4,1223.9 2053.1,1214.8 2054.5,1224.9 	"/>
	
		<linearGradient id="SVGID_35_" gradientUnits="userSpaceOnUse" x1="2050.9001" y1="-202.2" x2="2050.9001" y2="-214.7001" gradientTransform="matrix(1 0 0 1 0 1396)">
		<stop  offset="0" style="stop-color:#FE764A"/>
		<stop  offset="1" style="stop-color:#FEBAA4"/>
	</linearGradient>
	<path class="st56" d="M2056.6,1184.6L2056.6,1184.6c0-1.8-2.5-3.3-5.7-3.3s-5.7,1.5-5.7,3.3l0,0l0,0v5.9c0,1.8,2.5,3.3,5.7,3.3
		c3.1,0,5.7-1.5,5.7-3.3V1184.6z"/>
	
		<linearGradient id="SVGID_36_" gradientUnits="userSpaceOnUse" x1="2029" y1="-190.2" x2="2029" y2="-202.6901" gradientTransform="matrix(1 0 0 1 0 1396)">
		<stop  offset="0" style="stop-color:#FE764A"/>
		<stop  offset="1" style="stop-color:#FEBAA4"/>
	</linearGradient>
	<path class="st57" d="M2034.7,1196.6L2034.7,1196.6c0-1.9-2.5-3.3-5.7-3.3s-5.7,1.5-5.7,3.3v0.1l0,0v5.9c0,1.8,2.5,3.3,5.7,3.3
		s5.7-1.5,5.7-3.3V1196.6z"/>
	
		<linearGradient id="SVGID_37_" gradientUnits="userSpaceOnUse" x1="18163.9805" y1="-479.75" x2="18264.3809" y2="-479.75" gradientTransform="matrix(-1 0 0 1 20363.7812 1396)">
		<stop  offset="0" style="stop-color:#FE764A"/>
		<stop  offset="1" style="stop-color:#FE9877"/>
	</linearGradient>
	<polygon class="st58" points="2199.8,909.7 2163.1,959.7 2099.4,922.8 2136,872.8 	"/>
	<ellipse class="st10" cx="2166.2" cy="914.2" rx="3" ry="2.7"/>
	<ellipse class="st10" cx="2145" cy="902" rx="3" ry="2.7"/>
	<ellipse class="st10" cx="2154" cy="931" rx="3" ry="2.7"/>
	<ellipse class="st10" cx="2132.9" cy="918.2" rx="3" ry="2.7"/>
	<polygon class="st28" points="1840.2,1450.5 1839.9,1450.7 1840.2,1450.9 	"/>
	
		<linearGradient id="SVGID_38_" gradientUnits="userSpaceOnUse" x1="1880" y1="35.65" x2="1983.6" y2="35.65" gradientTransform="matrix(1 0 0 1 0 1396)">
		<stop  offset="0" style="stop-color:#FE764A"/>
		<stop  offset="1" style="stop-color:#FE9877"/>
	</linearGradient>
	<polygon class="st59" points="1880,1422 1918.3,1479.1 1983.6,1441.3 1945.3,1384.2 	"/>
	<circle class="st10" cx="1914.6" cy="1428.5" r="2.5"/>
	<circle class="st10" cx="1927.5" cy="1447.6" r="2.5"/>
	<circle class="st10" cx="1949.3" cy="1435" r="2.5"/>
	<circle class="st10" cx="1936.4" cy="1416" r="2.5"/>
	
		<linearGradient id="SVGID_39_" gradientUnits="userSpaceOnUse" x1="1961.4" y1="-10.25" x2="2065" y2="-10.25" gradientTransform="matrix(1 0 0 1 0 1396)">
		<stop  offset="0" style="stop-color:#FE764A"/>
		<stop  offset="1" style="stop-color:#FE9877"/>
	</linearGradient>
	<polygon class="st60" points="1961.4,1376.1 1999.7,1433.2 2065,1395.4 2026.7,1338.3 	"/>
	<circle class="st10" cx="1995.9" cy="1382.6" r="2.5"/>
	<circle class="st10" cx="2008.9" cy="1401.7" r="2.5"/>
	<circle class="st10" cx="2030.7" cy="1389.1" r="2.5"/>
	<circle class="st10" cx="2017.8" cy="1370.1" r="2.5"/>
	
		<linearGradient id="SVGID_40_" gradientUnits="userSpaceOnUse" x1="2142.1001" y1="-116.05" x2="2245.7" y2="-116.05" gradientTransform="matrix(1 0 0 1 0 1396)">
		<stop  offset="0" style="stop-color:#FE764A"/>
		<stop  offset="1" style="stop-color:#FE9877"/>
	</linearGradient>
	<polygon class="st61" points="2142.1,1270.3 2180.4,1327.4 2245.7,1289.6 2207.4,1232.5 	"/>
	<circle class="st10" cx="2176.7" cy="1276.8" r="2.5"/>
	<circle class="st10" cx="2189.7" cy="1295.9" r="2.5"/>
	<circle class="st10" cx="2211.5" cy="1283.3" r="2.5"/>
	<circle class="st10" cx="2198.6" cy="1264.3" r="2.5"/>
	
		<linearGradient id="SVGID_41_" gradientUnits="userSpaceOnUse" x1="2223.5" y1="-161.95" x2="2327.1001" y2="-161.95" gradientTransform="matrix(1 0 0 1 0 1396)">
		<stop  offset="0" style="stop-color:#FE764A"/>
		<stop  offset="1" style="stop-color:#FE9877"/>
	</linearGradient>
	<polygon class="st62" points="2223.5,1224.4 2261.8,1281.5 2327.1,1243.7 2288.8,1186.6 	"/>
	<circle class="st10" cx="2258.1" cy="1230.9" r="2.5"/>
	<circle class="st10" cx="2271" cy="1250" r="2.5"/>
	<circle class="st10" cx="2292.8" cy="1237.4" r="2.5"/>
	<circle class="st10" cx="2279.9" cy="1218.4" r="2.5"/>
	
		<linearGradient id="SVGID_42_" gradientUnits="userSpaceOnUse" x1="1756.7" y1="-361.95" x2="1854.4" y2="-361.95" gradientTransform="matrix(1 0 0 1 0 1396)">
		<stop  offset="0" style="stop-color:#FE764A"/>
		<stop  offset="1" style="stop-color:#FE9877"/>
	</linearGradient>
	<polygon class="st63" points="1756.7,1027.7 1792.3,1076.4 1854.4,1040.4 1818.8,991.7 	"/>
	
		<linearGradient id="SVGID_43_" gradientUnits="userSpaceOnUse" x1="1686.4" y1="-319.6" x2="1784.2" y2="-319.6" gradientTransform="matrix(1 0 0 1 0 1396)">
		<stop  offset="0" style="stop-color:#FE764A"/>
		<stop  offset="1" style="stop-color:#FE9877"/>
	</linearGradient>
	<polygon class="st64" points="1686.4,1070 1722.1,1118.7 1784.2,1082.8 1748.5,1034.1 	"/>
	<ellipse class="st10" cx="1719.3" cy="1074.5" rx="2.9" ry="2.7"/>
	<ellipse class="st10" cx="1739.9" cy="1062.6" rx="2.9" ry="2.7"/>
	<ellipse class="st10" cx="1731.2" cy="1090.8" rx="2.9" ry="2.7"/>
	<ellipse class="st10" cx="1751.7" cy="1078.4" rx="2.9" ry="2.7"/>
	<ellipse class="st10" cx="1789.3" cy="1032.1" rx="2.9" ry="2.7"/>
	<ellipse class="st10" cx="1809.9" cy="1020.2" rx="2.9" ry="2.7"/>
	<ellipse class="st10" cx="1801.2" cy="1048.4" rx="2.9" ry="2.7"/>
	<ellipse class="st10" cx="1821.8" cy="1036" rx="2.9" ry="2.7"/>
	<line class="st65" x1="1381.3" y1="1126.8" x2="1430.5" y2="1190.6"/>
	<line class="st65" x1="1409.6" y1="1110.6" x2="1458.9" y2="1174.4"/>
	<line class="st65" x1="1437.8" y1="1094.5" x2="1487.2" y2="1158.2"/>
	<line class="st65" x1="1466.1" y1="1078.4" x2="1515.5" y2="1142"/>
	<line class="st65" x1="1494.4" y1="1062.2" x2="1543.9" y2="1125.8"/>
	<line class="st65" x1="1522.6" y1="1046.1" x2="1572.2" y2="1109.7"/>
	<line class="st65" x1="1550.9" y1="1030" x2="1600.5" y2="1093.5"/>
	<line class="st65" x1="1579.1" y1="1013.8" x2="1628.9" y2="1077.3"/>
	<line class="st65" x1="1381.3" y1="1126.8" x2="1579.1" y2="1013.8"/>
	<line class="st65" x1="1397.7" y1="1148" x2="1595.7" y2="1035"/>
	<line class="st65" x1="1414.1" y1="1169.3" x2="1612.3" y2="1056.2"/>
	<line class="st65" x1="1430.5" y1="1190.6" x2="1628.9" y2="1077.3"/>
	<line class="st66" x1="2187.4" y1="926.6" x2="2187.4" y2="945.5"/>
	<line class="st65" x1="2199.8" y1="909.7" x2="2163.1" y2="959.7"/>
	<line class="st65" x1="2178.5" y1="897.4" x2="2141.9" y2="947.4"/>
	<line class="st65" x1="2157.2" y1="885.1" x2="2120.6" y2="935.1"/>
	<line class="st65" x1="2136" y1="872.8" x2="2099.4" y2="922.8"/>
	<line class="st65" x1="2136" y1="872.8" x2="2199.8" y2="909.7"/>
	<line class="st65" x1="2123.8" y1="889.4" x2="2187.6" y2="926.4"/>
	<line class="st65" x1="2111.6" y1="906.1" x2="2175.4" y2="943.1"/>
	<line class="st65" x1="2099.4" y1="922.8" x2="2163.1" y2="959.7"/>
	<line class="st66" x1="1892.8" y1="1441" x2="1892.8" y2="1464.3"/>
	<line class="st66" x1="1974.1" y1="1395.1" x2="1974.1" y2="1418.4"/>
	<line class="st66" x1="2154.9" y1="1289.3" x2="2154.9" y2="1312.6"/>
	<line class="st66" x1="2236.2" y1="1243.4" x2="2236.2" y2="1266.7"/>
	<line class="st65" x1="1880" y1="1422" x2="1918.3" y2="1479.1"/>
	<line class="st65" x1="1901.8" y1="1409.4" x2="1940.1" y2="1466.5"/>
	<line class="st65" x1="1923.5" y1="1396.8" x2="1961.8" y2="1453.9"/>
	<line class="st65" x1="1945.3" y1="1384.2" x2="1983.6" y2="1441.3"/>
	<line class="st65" x1="1945.3" y1="1384.2" x2="1880" y2="1422"/>
	<line class="st65" x1="1958.1" y1="1403.2" x2="1892.8" y2="1441"/>
	<line class="st65" x1="1970.8" y1="1422.3" x2="1905.5" y2="1460.1"/>
	<line class="st65" x1="1983.6" y1="1441.3" x2="1918.3" y2="1479.1"/>
	<line class="st65" x1="1961.4" y1="1376.1" x2="1999.7" y2="1433.2"/>
	<line class="st65" x1="1983.1" y1="1363.5" x2="2021.4" y2="1420.6"/>
	<line class="st65" x1="2004.9" y1="1350.9" x2="2043.2" y2="1408"/>
	<line class="st65" x1="2026.7" y1="1338.3" x2="2065" y2="1395.4"/>
	<line class="st65" x1="2026.7" y1="1338.3" x2="1961.4" y2="1376.1"/>
	<line class="st65" x1="2039.4" y1="1357.3" x2="1974.1" y2="1395.1"/>
	<line class="st65" x1="2052.2" y1="1376.3" x2="1986.9" y2="1414.2"/>
	<line class="st65" x1="2065" y1="1395.4" x2="1999.7" y2="1433.2"/>
	<line class="st65" x1="2142.1" y1="1270.3" x2="2180.4" y2="1327.4"/>
	<line class="st65" x1="2163.9" y1="1257.7" x2="2202.2" y2="1314.8"/>
	<line class="st65" x1="2185.6" y1="1245.1" x2="2224" y2="1302.2"/>
	<line class="st65" x1="2207.4" y1="1232.5" x2="2245.7" y2="1289.6"/>
	<line class="st65" x1="2207.4" y1="1232.5" x2="2142.1" y2="1270.3"/>
	<line class="st65" x1="2220.2" y1="1251.5" x2="2154.9" y2="1289.3"/>
	<line class="st65" x1="2232.9" y1="1270.6" x2="2167.7" y2="1308.4"/>
	<line class="st65" x1="2245.7" y1="1289.6" x2="2180.4" y2="1327.4"/>
	<line class="st65" x1="2223.5" y1="1224.4" x2="2261.8" y2="1281.5"/>
	<line class="st65" x1="2245.2" y1="1211.8" x2="2283.6" y2="1268.9"/>
	<line class="st65" x1="2267" y1="1199.2" x2="2305.3" y2="1256.3"/>
	<line class="st65" x1="2288.8" y1="1186.6" x2="2327.1" y2="1243.7"/>
	<line class="st65" x1="2288.8" y1="1186.6" x2="2223.5" y2="1224.4"/>
	<line class="st65" x1="2301.6" y1="1205.6" x2="2236.3" y2="1243.4"/>
	<line class="st65" x1="2314.3" y1="1224.7" x2="2249" y2="1262.5"/>
	<line class="st65" x1="2327.1" y1="1243.7" x2="2261.8" y2="1281.5"/>
	<line class="st66" x1="1768.7" y1="1044.1" x2="1768.7" y2="1062.6"/>
	<line class="st66" x1="1698.5" y1="1086.5" x2="1698.5" y2="1104.9"/>
	<line class="st65" x1="1756.7" y1="1027.7" x2="1792.3" y2="1076.4"/>
	<line class="st65" x1="1777.3" y1="1015.7" x2="1813" y2="1064.4"/>
	<line class="st65" x1="1798.1" y1="1003.7" x2="1833.7" y2="1052.4"/>
	<line class="st65" x1="1818.8" y1="991.7" x2="1854.4" y2="1040.4"/>
	<line class="st65" x1="1818.8" y1="991.7" x2="1756.7" y2="1027.7"/>
	<line class="st65" x1="1830.6" y1="1008" x2="1768.5" y2="1043.9"/>
	<line class="st65" x1="1842.5" y1="1024.2" x2="1780.4" y2="1060.2"/>
	<line class="st65" x1="1854.4" y1="1040.4" x2="1792.3" y2="1076.4"/>
	<line class="st65" x1="1686.4" y1="1070" x2="1722.1" y2="1118.7"/>
	<line class="st65" x1="1707.1" y1="1058" x2="1742.8" y2="1106.7"/>
	<line class="st65" x1="1727.8" y1="1046" x2="1763.5" y2="1094.7"/>
	<line class="st65" x1="1748.5" y1="1034.1" x2="1784.2" y2="1082.8"/>
	<line class="st65" x1="1748.5" y1="1034.1" x2="1686.4" y2="1070"/>
	<line class="st65" x1="1760.4" y1="1050.3" x2="1698.3" y2="1086.2"/>
	<line class="st65" x1="1772.3" y1="1066.5" x2="1710.2" y2="1102.5"/>
	<line class="st65" x1="1784.2" y1="1082.8" x2="1722.1" y2="1118.7"/>
	
		<linearGradient id="SVGID_44_" gradientUnits="userSpaceOnUse" x1="1959.4" y1="300" x2="1959.4" y2="-799.9" gradientTransform="matrix(1 0 0 1 0 1396)">
		<stop  offset="0" style="stop-color:#FE5455"/>
		<stop  offset="1" style="stop-color:#FE5455;stop-opacity:0"/>
	</linearGradient>
	<polygon class="st67" points="1959.4,596.1 1232,1016.1 1232,1276 1959.5,1696 2686.8,1276 2686.8,1016.1 	"/>
</g>
</svg>
