<?xml version="1.0" encoding="utf-8"?>
<!-- Generator: Adobe Illustrator 23.0.4, SVG Export Plug-In . SVG Version: 6.00 Build 0)  -->
<svg version="1.1" id="Layer_1" xmlns="http://www.w3.org/2000/svg" xmlns:xlink="http://www.w3.org/1999/xlink" x="0px" y="0px"
	 viewBox="0 0 3918.2 2475.3" style="enable-background:new 0 0 3918.2 2475.3;" xml:space="preserve">
<style type="text/css">
	.st0{display:none;fill:#DFE2E9;}
	.st1{display:none;fill:url(#SVGID_1_);}
	.st2{display:none;fill:url(#SVGID_2_);}
	.st3{display:none;fill:url(#SVGID_3_);}
	.st4{display:none;fill:none;stroke:#BFC6D4;stroke-width:2;stroke-linecap:round;stroke-linejoin:round;}
	.st5{display:none;fill:none;stroke:#FFFFFF;stroke-width:7.97;stroke-linecap:round;stroke-miterlimit:10;}
	.st6{display:none;fill:#59BA9B;}
	.st7{fill:none;stroke:#FE5455;stroke-width:1.46;stroke-linecap:round;stroke-linejoin:round;}
	.st8{fill:none;stroke:#BFC6D4;stroke-width:1.46;stroke-linecap:round;stroke-linejoin:round;}
	.st9{fill:#FE5455;}
	.st10{fill:none;stroke:#FE764A;stroke-width:1.46;stroke-linecap:round;stroke-linejoin:round;}
	.st11{fill:url(#SVGID_4_);}
	.st12{fill:none;stroke:#FFDDD2;stroke-width:1.48;stroke-linecap:round;stroke-linejoin:round;}
	.st13{fill:#FFD4D4;}
	.st14{fill:url(#SVGID_5_);}
	.st15{fill:url(#SVGID_6_);}
	.st16{fill:url(#SVGID_7_);}
	.st17{fill:url(#SVGID_8_);}
	.st18{fill:url(#SVGID_9_);}
	.st19{fill:url(#SVGID_10_);}
	.st20{fill:url(#SVGID_11_);}
	.st21{fill:url(#SVGID_12_);}
	.st22{fill:#FE9877;}
	.st23{fill:url(#SVGID_13_);}
	.st24{fill:url(#SVGID_14_);}
	.st25{fill:url(#SVGID_15_);}
	.st26{fill:url(#SVGID_16_);}
	.st27{fill:url(#SVGID_17_);}
	.st28{fill:url(#SVGID_18_);}
	.st29{fill:url(#SVGID_19_);}
	.st30{fill:url(#SVGID_20_);}
	.st31{fill:url(#SVGID_21_);}
</style>
<title>DDS_ampx_secuencia_svg_02 [Recovered]</title>
<g id="elements">
	<path class="st0" d="M2299.4,452.4l-87.8-51c-6.5-3.8-14.6-3.7-21,0.2l-35.8,19.9c-6.4,3.9-14.5,4-21,0.2l-67.5-37.7
		c-6.4-3.7-14.2-3.7-20.6,0l-266.4,154.8c-9.8,5.7-13.2,18.2-7.5,28.1c1.8,3.1,4.4,5.7,7.5,7.5l174,99.6c6.3,3.7,14.2,3.7,20.5,0.1
		L2299.3,488c9.8-5.6,13.2-18.2,7.6-28C2305.1,456.9,2302.5,454.3,2299.4,452.4z"/>
	
		<linearGradient id="SVGID_1_" gradientUnits="userSpaceOnUse" x1="1803.5499" y1="-1013.6" x2="1803.5499" y2="-1120.3" gradientTransform="matrix(1 0 0 1 0 1396)">
		<stop  offset="0" style="stop-color:#DFE2E9"/>
		<stop  offset="1" style="stop-color:#EFF1F4"/>
	</linearGradient>
	<path class="st1" d="M1835.7,275.7h-64.3v88.2l0,0c0,4.8,3.1,9.5,9.4,13.1c12.5,7.2,33,7.2,45.5,0c6.3-3.6,9.4-8.4,9.4-13.1l0,0
		V275.7z"/>
	
		<linearGradient id="SVGID_2_" gradientUnits="userSpaceOnUse" x1="1803.5" y1="-1101.3" x2="1803.5" y2="-1145.53" gradientTransform="matrix(1 0 0 1 0 1396)">
		<stop  offset="0" style="stop-color:#CFD4DF"/>
		<stop  offset="1" style="stop-color:#DFE2E9"/>
	</linearGradient>
	<path class="st2" d="M1835.7,275.9c0-10.4-14.4-25.5-32.2-25.5s-32.2,15.1-32.2,25.5s14.4,18.8,32.2,18.8
		S1835.7,286.3,1835.7,275.9z"/>
	
		<linearGradient id="SVGID_3_" gradientUnits="userSpaceOnUse" x1="1803.55" y1="-1013.6" x2="1803.55" y2="-1082.4027" gradientTransform="matrix(1 0 0 1 0 1396)">
		<stop  offset="0" style="stop-color:#CFD4DF"/>
		<stop  offset="1" style="stop-color:#DFE2E9"/>
	</linearGradient>
	<path class="st3" d="M1771.4,363.9c0,4.8,3.1,9.5,9.4,13.1c12.5,7.2,33,7.2,45.5,0c6.3-3.6,9.4-8.4,9.4-13.1v-50.2
		c0,4.8-3.1,9.5-9.4,13.1c-12.5,7.2-33,7.2-45.5,0c-6.3-3.6-9.4-8.4-9.4-13.1V363.9z"/>
	<line class="st4" x1="1814.6" y1="291.5" x2="1814.6" y2="383.4"/>
	<line class="st4" x1="1825.6" y1="287.6" x2="1825.6" y2="379.4"/>
	<line class="st4" x1="1814.6" y1="297.9" x2="1825.6" y2="294.2"/>
	<line class="st4" x1="1814.6" y1="306.8" x2="1825.6" y2="303.1"/>
	<line class="st4" x1="1814.6" y1="315.7" x2="1825.6" y2="312"/>
	<line class="st4" x1="1814.6" y1="324.6" x2="1825.6" y2="320.9"/>
	<line class="st4" x1="1814.6" y1="333.5" x2="1825.6" y2="329.8"/>
	<line class="st4" x1="1814.6" y1="342.4" x2="1825.6" y2="338.7"/>
	<line class="st4" x1="1814.6" y1="351.3" x2="1825.6" y2="347.6"/>
	<line class="st4" x1="1814.6" y1="360.2" x2="1825.6" y2="356.5"/>
	<line class="st4" x1="1814.6" y1="369.1" x2="1825.6" y2="365.4"/>
	<line class="st4" x1="1814.6" y1="378" x2="1825.6" y2="374.3"/>
	<path class="st0" d="M1697.3,395.6l12,7c3.9,2.3,5.2,7.3,3,11.2c-0.7,1.2-1.7,2.3-3,3l-5.1,2.9c-3.9,2.3-5.3,7.3-3,11.2
		c0.7,1.2,1.8,2.3,3,3l7.6,4.4c3.9,2.3,5.3,7.3,3,11.2c-0.7,1.2-1.8,2.3-3,3l-56.7,32.9c-5.5,3.2-12.3,3.2-17.8,0l-44.2-25.6
		c-3.9-2.3-5.2-7.3-3-11.2c0.7-1.2,1.7-2.3,3-3l86.3-50C1685,392.4,1691.8,392.4,1697.3,395.6z"/>
	<line class="st5" x1="1641.2" y1="454.6" x2="1641.2" y2="418.6"/>
	<circle class="st6" cx="1641.2" cy="415.9" r="23.5"/>
	<line class="st5" x1="1934.5" y1="367.2" x2="1934.5" y2="331.3"/>
	<path class="st6" d="M1911.5,344.5c-0.4,0.6-0.5,1.3-0.4,2c1.2,5.9,11.2,10.6,23.4,10.6s22.2-4.6,23.4-10.6c0.1-0.7,0-1.4-0.4-2
		l-20.2-35.9c-0.9-1.5-2.8-2.1-4.4-1.2c-0.5,0.3-0.9,0.7-1.2,1.2L1911.5,344.5z"/>
	<path class="st7" d="M2108.1,418.8L1795.7,599c-4.7,2.7-10.5,2.7-15.3,0l-43.2-25.1"/>
	<line class="st7" x1="1914.9" y1="561.5" x2="1940.9" y2="576.6"/>
	<line class="st7" x1="2005.7" y1="508.5" x2="2031.6" y2="523.6"/>
	<line class="st8" x1="2135.4" y1="476.6" x2="2046.7" y2="425.1"/>
	<line class="st7" x1="1955.5" y1="598.4" x2="2174.2" y2="470.1"/>
	<ellipse class="st9" cx="1737.2" cy="573.8" rx="6.5" ry="3.3"/>
	<path class="st7" d="M2135.4,476.6l-158.9-92.2c-3.3-1.9-7.4-1.9-10.7,0l-106.9,61.7"/>
	<line class="st7" x1="2135.4" y1="476.6" x2="2046.7" y2="425.1"/>
	<line class="st10" x1="1865.1" y1="545.7" x2="1865.1" y2="568.8"/>
	
		<linearGradient id="SVGID_4_" gradientUnits="userSpaceOnUse" x1="1852.4" y1="-859.7" x2="1955.5" y2="-859.7" gradientTransform="matrix(1 0 0 1 0 1396)">
		<stop  offset="0" style="stop-color:#FE764A"/>
		<stop  offset="1" style="stop-color:#FE9877"/>
	</linearGradient>
	<polygon class="st11" points="1852.4,526.7 1890.6,583.5 1955.5,546 1917.4,489.1 	"/>
	<line class="st12" x1="1852.4" y1="526.7" x2="1890.6" y2="583.5"/>
	<line class="st12" x1="1874.1" y1="514.2" x2="1912.2" y2="571"/>
	<line class="st12" x1="1895.7" y1="501.6" x2="1933.8" y2="558.5"/>
	<line class="st12" x1="1917.4" y1="489.1" x2="1955.5" y2="546"/>
	<line class="st12" x1="1917.4" y1="489.1" x2="1852.4" y2="526.7"/>
	<line class="st12" x1="1930.1" y1="508.1" x2="1865.2" y2="545.7"/>
	<line class="st12" x1="1942.8" y1="527" x2="1877.8" y2="564.6"/>
	<line class="st12" x1="1955.5" y1="546" x2="1890.6" y2="583.5"/>
	<circle class="st13" cx="1886.8" cy="533.2" r="2.5"/>
	<circle class="st13" cx="1899.7" cy="552.2" r="2.5"/>
	<circle class="st13" cx="1921.4" cy="539.7" r="2.5"/>
	<circle class="st13" cx="1908.6" cy="520.8" r="2.5"/>
	<line class="st10" x1="1951.6" y1="495.8" x2="1951.6" y2="518.9"/>
	
		<linearGradient id="SVGID_5_" gradientUnits="userSpaceOnUse" x1="1938.9" y1="-909.55" x2="2041.9" y2="-909.55" gradientTransform="matrix(1 0 0 1 0 1396)">
		<stop  offset="0" style="stop-color:#FE764A"/>
		<stop  offset="1" style="stop-color:#FE9877"/>
	</linearGradient>
	<polygon class="st14" points="1938.9,476.9 1977,533.7 2041.9,496.1 2003.8,439.2 	"/>
	<line class="st12" x1="1938.9" y1="476.8" x2="1977" y2="533.7"/>
	<line class="st12" x1="1960.5" y1="464.3" x2="1998.6" y2="521.1"/>
	<line class="st12" x1="1982.2" y1="451.8" x2="2020.3" y2="508.6"/>
	<line class="st12" x1="2003.8" y1="439.2" x2="2041.9" y2="496.1"/>
	<line class="st12" x1="2003.8" y1="439.2" x2="1938.9" y2="476.8"/>
	<line class="st12" x1="2016.5" y1="458.2" x2="1951.6" y2="495.8"/>
	<line class="st12" x1="2029.2" y1="477.1" x2="1964.3" y2="514.7"/>
	<line class="st12" x1="2041.9" y1="496.1" x2="1977" y2="533.7"/>
	<circle class="st13" cx="1973.2" cy="483.3" r="2.5"/>
	<circle class="st13" cx="1986.2" cy="502.3" r="2.5"/>
	<circle class="st13" cx="2007.8" cy="489.8" r="2.5"/>
	<circle class="st13" cx="1995" cy="470.9" r="2.5"/>
	<line class="st10" x1="2038" y1="445.9" x2="2038" y2="469"/>
	
		<linearGradient id="SVGID_6_" gradientUnits="userSpaceOnUse" x1="2025.3" y1="-959.45" x2="2128.3999" y2="-959.45" gradientTransform="matrix(1 0 0 1 0 1396)">
		<stop  offset="0" style="stop-color:#FE764A"/>
		<stop  offset="1" style="stop-color:#FE9877"/>
	</linearGradient>
	<polygon class="st15" points="2025.3,427 2063.4,483.8 2128.4,446.2 2090.2,389.3 	"/>
	<line class="st12" x1="2025.3" y1="427" x2="2063.4" y2="483.8"/>
	<line class="st12" x1="2046.9" y1="414.4" x2="2085.1" y2="471.2"/>
	<line class="st12" x1="2068.6" y1="401.9" x2="2106.7" y2="458.7"/>
	<line class="st12" x1="2090.2" y1="389.3" x2="2128.4" y2="446.2"/>
	<line class="st12" x1="2090.2" y1="389.3" x2="2025.3" y2="427"/>
	<line class="st12" x1="2102.9" y1="408.3" x2="2038" y2="445.9"/>
	<line class="st12" x1="2115.6" y1="427.2" x2="2050.7" y2="464.8"/>
	<line class="st12" x1="2128.4" y1="446.2" x2="2063.4" y2="483.8"/>
	<circle class="st13" cx="2059.7" cy="433.4" r="2.5"/>
	<circle class="st13" cx="2072.6" cy="452.5" r="2.5"/>
	<circle class="st13" cx="2094.3" cy="439.9" r="2.5"/>
	<circle class="st13" cx="2081.4" cy="421" r="2.5"/>
	<line class="st10" x1="1940.6" y1="595.5" x2="1940.6" y2="618.7"/>
	
		<linearGradient id="SVGID_7_" gradientUnits="userSpaceOnUse" x1="1927.9" y1="-809.8" x2="2030.9" y2="-809.8" gradientTransform="matrix(1 0 0 1 0 1396)">
		<stop  offset="0" style="stop-color:#FE764A"/>
		<stop  offset="1" style="stop-color:#FE9877"/>
	</linearGradient>
	<polygon class="st16" points="1927.9,576.6 1966,633.4 2030.9,595.8 1992.8,539 	"/>
	<line class="st12" x1="1927.9" y1="576.6" x2="1966" y2="633.4"/>
	<line class="st12" x1="1949.5" y1="564.1" x2="1987.7" y2="620.9"/>
	<line class="st12" x1="1971.2" y1="551.5" x2="2009.3" y2="608.4"/>
	<line class="st12" x1="1992.8" y1="539" x2="2030.9" y2="595.8"/>
	<line class="st12" x1="1992.8" y1="539" x2="1927.9" y2="576.6"/>
	<line class="st12" x1="2005.5" y1="558" x2="1940.6" y2="595.6"/>
	<line class="st12" x1="2018.2" y1="576.9" x2="1953.3" y2="614.5"/>
	<line class="st12" x1="2030.9" y1="595.8" x2="1966" y2="633.4"/>
	<circle class="st13" cx="1962.3" cy="583.1" r="2.5"/>
	<circle class="st13" cx="1975.2" cy="602.1" r="2.5"/>
	<circle class="st13" cx="1996.9" cy="589.6" r="2.5"/>
	<circle class="st13" cx="1984" cy="570.7" r="2.5"/>
	<line class="st10" x1="2027" y1="545.7" x2="2027" y2="568.8"/>
	
		<linearGradient id="SVGID_8_" gradientUnits="userSpaceOnUse" x1="2014.3" y1="-859.7" x2="2117.3999" y2="-859.7" gradientTransform="matrix(1 0 0 1 0 1396)">
		<stop  offset="0" style="stop-color:#FE764A"/>
		<stop  offset="1" style="stop-color:#FE9877"/>
	</linearGradient>
	<polygon class="st17" points="2014.3,526.7 2052.4,583.5 2117.4,546 2079.3,489.1 	"/>
	<line class="st12" x1="2014.3" y1="526.7" x2="2052.4" y2="583.5"/>
	<line class="st12" x1="2036" y1="514.2" x2="2074.1" y2="571"/>
	<line class="st12" x1="2057.6" y1="501.6" x2="2095.7" y2="558.5"/>
	<line class="st12" x1="2079.3" y1="489.1" x2="2117.4" y2="546"/>
	<line class="st12" x1="2079.3" y1="489.1" x2="2014.3" y2="526.7"/>
	<line class="st12" x1="2092" y1="508.1" x2="2027" y2="545.7"/>
	<line class="st12" x1="2104.7" y1="527" x2="2039.7" y2="564.6"/>
	<line class="st12" x1="2117.4" y1="546" x2="2052.4" y2="583.5"/>
	<circle class="st13" cx="2048.7" cy="533.2" r="2.5"/>
	<circle class="st13" cx="2061.6" cy="552.2" r="2.5"/>
	<circle class="st13" cx="2083.3" cy="539.7" r="2.5"/>
	<circle class="st13" cx="2070.5" cy="520.8" r="2.5"/>
	<line class="st10" x1="2113.5" y1="495.8" x2="2113.5" y2="518.9"/>
	
		<linearGradient id="SVGID_9_" gradientUnits="userSpaceOnUse" x1="2100.8" y1="-909.55" x2="2203.8" y2="-909.55" gradientTransform="matrix(1 0 0 1 0 1396)">
		<stop  offset="0" style="stop-color:#FE764A"/>
		<stop  offset="1" style="stop-color:#FE9877"/>
	</linearGradient>
	<polygon class="st18" points="2100.8,476.9 2138.9,533.7 2203.8,496.1 2165.7,439.2 	"/>
	<line class="st12" x1="2100.8" y1="476.8" x2="2138.9" y2="533.7"/>
	<line class="st12" x1="2122.4" y1="464.3" x2="2160.5" y2="521.1"/>
	<line class="st12" x1="2144.1" y1="451.8" x2="2182.2" y2="508.6"/>
	<line class="st12" x1="2165.7" y1="439.2" x2="2203.8" y2="496.1"/>
	<line class="st12" x1="2165.7" y1="439.2" x2="2100.8" y2="476.8"/>
	<line class="st12" x1="2178.4" y1="458.2" x2="2113.5" y2="495.8"/>
	<line class="st12" x1="2191.1" y1="477.1" x2="2126.2" y2="514.7"/>
	<line class="st12" x1="2203.8" y1="496.1" x2="2138.9" y2="533.7"/>
	<circle class="st13" cx="2135.1" cy="483.3" r="2.5"/>
	<circle class="st13" cx="2148.1" cy="502.3" r="2.5"/>
	<circle class="st13" cx="2169.7" cy="489.8" r="2.5"/>
	<circle class="st13" cx="2156.9" cy="470.9" r="2.5"/>
	
		<linearGradient id="SVGID_10_" gradientUnits="userSpaceOnUse" x1="1840.75" y1="-929" x2="1840.75" y2="-978.2" gradientTransform="matrix(1 0 0 1 0 1396)">
		<stop  offset="0" style="stop-color:#FE764A"/>
		<stop  offset="1" style="stop-color:#FE9877"/>
	</linearGradient>
	<polygon class="st19" points="1827.2,417.8 1854.3,433.5 1854.3,467 1827.2,451.3 	"/>
	
		<linearGradient id="SVGID_11_" gradientUnits="userSpaceOnUse" x1="1867.8" y1="-929" x2="1867.8" y2="-978.2" gradientTransform="matrix(1 0 0 1 0 1396)">
		<stop  offset="0" style="stop-color:#FE764A"/>
		<stop  offset="1" style="stop-color:#FEBAA4"/>
	</linearGradient>
	<polygon class="st20" points="1881.3,417.8 1854.3,433.5 1854.3,467 1881.3,451.3 	"/>
	
		<linearGradient id="SVGID_12_" gradientUnits="userSpaceOnUse" x1="1831.2" y1="-978.2" x2="1877.35" y2="-978.2" gradientTransform="matrix(1 0 0 1 0 1396)">
		<stop  offset="0" style="stop-color:#FE764A"/>
		<stop  offset="1" style="stop-color:#FE9877"/>
	</linearGradient>
	<polygon class="st21" points="1844.9,425.7 1836.9,421.1 1831.2,417.8 1836.9,414.5 1844.9,409.9 1854.3,404.4 1863.6,409.9 
		1871.6,414.5 1877.3,417.8 1871.6,421.1 1863.6,425.7 1854.3,431.2 	"/>
	<path class="st22" d="M1854.3,406.7l8.3,4.8l8,4.6l2.8,1.6l-2.8,1.6l-8,4.6l-8.3,4.8l-8.4-4.9l-8-4.6l-2.8-1.6l2.8-1.6l8-4.6
		L1854.3,406.7 M1854.3,402.1l-10.4,6l-8,4.6l-8.7,5.1l8.7,5.1l8,4.6l10.4,6l10.3-6l8-4.6l8.7-5.1l-8.7-5.1l-8-4.6L1854.3,402.1z"/>
	
		<linearGradient id="SVGID_13_" gradientUnits="userSpaceOnUse" x1="1802.55" y1="-906.9" x2="1802.55" y2="-956.1" gradientTransform="matrix(1 0 0 1 0 1396)">
		<stop  offset="0" style="stop-color:#FE764A"/>
		<stop  offset="1" style="stop-color:#FE9877"/>
	</linearGradient>
	<polygon class="st23" points="1789,439.9 1816.1,455.6 1816.1,489.1 1789,473.4 	"/>
	
		<linearGradient id="SVGID_14_" gradientUnits="userSpaceOnUse" x1="1829.6499" y1="-906.9" x2="1829.6499" y2="-956.1" gradientTransform="matrix(1 0 0 1 0 1396)">
		<stop  offset="0" style="stop-color:#FE764A"/>
		<stop  offset="1" style="stop-color:#FEBAA4"/>
	</linearGradient>
	<polygon class="st24" points="1843.2,439.9 1816.1,455.6 1816.1,489.1 1843.2,473.4 	"/>
	
		<linearGradient id="SVGID_15_" gradientUnits="userSpaceOnUse" x1="1793" y1="-956.1" x2="1839.15" y2="-956.1" gradientTransform="matrix(1 0 0 1 0 1396)">
		<stop  offset="0" style="stop-color:#FE764A"/>
		<stop  offset="1" style="stop-color:#FE9877"/>
	</linearGradient>
	<polygon class="st25" points="1806.7,447.9 1798.7,443.2 1793,439.9 1798.8,436.6 1806.7,432 1816.1,426.5 1825.4,432 
		1833.4,436.6 1839.2,439.9 1833.4,443.2 1825.4,447.9 1816.1,453.3 	"/>
	<path class="st22" d="M1816.1,428.9l8.4,4.8l8,4.6l2.8,1.6l-2.8,1.6l-8,4.6l-8.3,4.8l-8.3-4.9l-8-4.6l-2.8-1.6l2.8-1.6l8-4.6
		L1816.1,428.9 M1816.1,424.2l-10.3,6l-8,4.6l-8.7,5.1l8.7,5.1l8,4.6l10.3,6l10.4-6l8-4.6l8.7-5.1l-8.7-5.1l-8-4.6L1816.1,424.2z"/>
	
		<linearGradient id="SVGID_16_" gradientUnits="userSpaceOnUse" x1="1764.4" y1="-884.75" x2="1764.4" y2="-933.95" gradientTransform="matrix(1 0 0 1 0 1396)">
		<stop  offset="0" style="stop-color:#FE764A"/>
		<stop  offset="1" style="stop-color:#FE9877"/>
	</linearGradient>
	<polygon class="st26" points="1750.9,462 1777.9,477.7 1777.9,511.2 1750.9,495.6 	"/>
	
		<linearGradient id="SVGID_17_" gradientUnits="userSpaceOnUse" x1="1791.4501" y1="-884.75" x2="1791.4501" y2="-933.95" gradientTransform="matrix(1 0 0 1 0 1396)">
		<stop  offset="0" style="stop-color:#FE764A"/>
		<stop  offset="1" style="stop-color:#FEBAA4"/>
	</linearGradient>
	<polygon class="st27" points="1805,462 1777.9,477.7 1777.9,511.2 1805,495.6 	"/>
	
		<linearGradient id="SVGID_18_" gradientUnits="userSpaceOnUse" x1="1754.8" y1="-933.95" x2="1800.9501" y2="-933.95" gradientTransform="matrix(1 0 0 1 0 1396)">
		<stop  offset="0" style="stop-color:#FE764A"/>
		<stop  offset="1" style="stop-color:#FE9877"/>
	</linearGradient>
	<polygon class="st28" points="1768.6,470 1760.6,465.4 1754.8,462 1760.6,458.7 1768.6,454.1 1777.9,448.7 1787.3,454.1 
		1795.3,458.7 1801,462 1795.3,465.4 1787.3,470 1777.9,475.4 	"/>
	<path class="st22" d="M1777.9,451l8.4,4.8l8,4.6l2.7,1.6l-2.8,1.6l-8,4.6l-8.3,4.8l-8.3-4.9l-8-4.6l-2.8-1.6l2.8-1.6l8-4.6
		L1777.9,451 M1777.9,446.3l-10.3,6l-8,4.6l-8.7,5.1l8.7,5.1l8,4.6l10.3,6l10.4-6l8-4.6l8.8-5.1l-8.7-5.1l-8-4.6L1777.9,446.3
		L1777.9,446.3z"/>
	
		<linearGradient id="SVGID_19_" gradientUnits="userSpaceOnUse" x1="1726.2" y1="-862.6" x2="1726.2" y2="-911.83" gradientTransform="matrix(1 0 0 1 0 1396)">
		<stop  offset="0" style="stop-color:#FE764A"/>
		<stop  offset="1" style="stop-color:#FE9877"/>
	</linearGradient>
	<polygon class="st29" points="1712.7,484.1 1739.7,499.8 1739.7,533.4 1712.7,517.7 	"/>
	
		<linearGradient id="SVGID_20_" gradientUnits="userSpaceOnUse" x1="1753.25" y1="-862.6" x2="1753.25" y2="-911.83" gradientTransform="matrix(1 0 0 1 0 1396)">
		<stop  offset="0" style="stop-color:#FE764A"/>
		<stop  offset="1" style="stop-color:#FEBAA4"/>
	</linearGradient>
	<polygon class="st30" points="1766.8,484.1 1739.7,499.8 1739.7,533.4 1766.8,517.7 	"/>
	
		<linearGradient id="SVGID_21_" gradientUnits="userSpaceOnUse" x1="1716.65" y1="-911.85" x2="1762.8101" y2="-911.85" gradientTransform="matrix(1 0 0 1 0 1396)">
		<stop  offset="0" style="stop-color:#FE764A"/>
		<stop  offset="1" style="stop-color:#FE9877"/>
	</linearGradient>
	<polygon class="st31" points="1730.4,492.1 1722.4,487.5 1716.7,484.1 1722.4,480.8 1730.4,476.2 1739.7,470.8 1749.1,476.2 
		1757.1,480.8 1762.8,484.1 1757.1,487.5 1749.1,492.1 1739.7,497.5 	"/>
	<path class="st22" d="M1739.7,473.1l8.4,4.8l8,4.6l2.8,1.6l-2.8,1.6l-8,4.6l-8.3,4.8l-8.3-4.8l-8-4.6l-2.8-1.6l2.8-1.6l8-4.6
		L1739.7,473.1 M1739.7,468.5l-10.3,6l-8,4.6l-8.7,5.1l8.7,5.1l8,4.6l10.3,6l10.4-6l8-4.6l8.7-5.1l-8.7-5.1l-8-4.6L1739.7,468.5z"/>
</g>
</svg>
