<?xml version="1.0" encoding="utf-8"?>
<!-- Generator: Adobe Illustrator 23.0.4, SVG Export Plug-In . SVG Version: 6.00 Build 0)  -->
<svg version="1.1" id="Layer_1" xmlns="http://www.w3.org/2000/svg" xmlns:xlink="http://www.w3.org/1999/xlink" x="0px" y="0px"
	 viewBox="0 0 3918.2 2475.3" style="enable-background:new 0 0 3918.2 2475.3;" xml:space="preserve">
<style type="text/css">
	.st0{display:none;fill:#DFE2E9;}
	.st1{fill:none;stroke:#FFFFFF;stroke-width:7.97;stroke-linecap:round;stroke-miterlimit:10;}
	.st2{display:none;fill:#59BA9B;}
	.st3{fill:none;stroke:#FE5455;stroke-width:1.46;stroke-linecap:round;stroke-linejoin:round;}
	.st4{fill:#FE5455;}
	.st5{fill:none;}
	.st6{fill:url(#SVGID_1_);}
	.st7{fill:url(#SVGID_2_);}
	.st8{fill:url(#SVGID_3_);}
	.st9{fill:#FE9877;}
	.st10{fill:url(#SVGID_4_);}
	.st11{fill:url(#SVGID_5_);}
	.st12{fill:url(#SVGID_6_);}
	.st13{fill:url(#SVGID_7_);}
	.st14{fill:url(#SVGID_8_);}
	.st15{fill:url(#SVGID_9_);}
	.st16{fill:url(#SVGID_10_);}
	.st17{fill:url(#SVGID_11_);}
	.st18{fill:url(#SVGID_12_);}
	.st19{fill:url(#SVGID_13_);}
	.st20{fill:#FFDDD2;}
	.st21{fill:url(#SVGID_14_);}
	.st22{fill:url(#SVGID_15_);}
	.st23{fill:#FE764A;}
	.st24{fill:url(#SVGID_16_);}
	.st25{fill:url(#SVGID_17_);}
	.st26{fill:url(#SVGID_18_);}
	.st27{fill:url(#SVGID_19_);}
	.st28{fill:url(#SVGID_20_);}
	.st29{fill:url(#SVGID_21_);}
	.st30{fill:url(#SVGID_22_);}
	.st31{fill:url(#SVGID_23_);}
	.st32{fill:url(#SVGID_24_);}
	.st33{fill:url(#SVGID_25_);}
	.st34{fill:url(#SVGID_26_);}
	.st35{fill:url(#SVGID_27_);}
	.st36{fill:url(#SVGID_28_);}
	.st37{fill:url(#SVGID_29_);}
	.st38{fill:url(#SVGID_30_);}
	.st39{fill:url(#SVGID_31_);}
	.st40{fill:url(#SVGID_32_);}
	.st41{fill:url(#SVGID_33_);}
	.st42{fill:url(#SVGID_34_);}
	.st43{fill:url(#SVGID_35_);}
	.st44{fill:url(#SVGID_36_);}
	.st45{fill:url(#SVGID_37_);}
	.st46{fill:url(#SVGID_38_);}
	.st47{fill:url(#SVGID_39_);}
	.st48{fill:url(#SVGID_40_);}
	.st49{fill:url(#SVGID_41_);}
	.st50{fill:url(#SVGID_42_);}
	.st51{fill:url(#SVGID_43_);}
	.st52{fill:url(#SVGID_44_);}
</style>
<title>DDS_ampx_secuencia_svg_02 [Recovered]</title>
<g id="elements">
	<path class="st0" d="M3047.5,880.8l-74.4,42.9c-5.6,3.2-7.5,10.3-4.3,15.8c1,1.8,2.5,3.2,4.3,4.3l0,0c5.6,3.2,7.5,10.3,4.3,15.9
		c-1,1.8-2.5,3.2-4.3,4.3l-177.2,103.3c-5.6,3.2-7.4,10.3-4.2,15.9c1,1.8,2.5,3.2,4.2,4.2l45.1,25.7c6.9,4,15.5,4,22.4,0
		l286.4-166.3c5.6-3.2,7.5-10.3,4.3-15.8c-1-1.8-2.5-3.2-4.3-4.3l-79.9-45.8C3063,876.8,3054.4,876.8,3047.5,880.8z"/>
	<path class="st0" d="M2944.6,879.6l-167.1-97.1c-8-4.6-18-4.6-26,0l-18.8,10.5c-8,4.6-18,4.6-26,0L2505,675.9
		c-8.1-4.7-10.8-15-6.2-23c1.5-2.6,3.6-4.7,6.2-6.2l58.5-33.5c8-4.6,18-4.6,26,0l395,229.3c8.1,4.7,10.8,15,6.2,23
		c-1.5,2.6-3.7,4.7-6.3,6.2l-13.9,7.9C2962.5,884.3,2952.6,884.3,2944.6,879.6z"/>
	<line class="st1" x1="3053.2" y1="932.9" x2="3053.2" y2="897"/>
	<circle class="st2" cx="3053.2" cy="894.2" r="23.5"/>
	<path class="st0" d="M2184.8,787.7l196.6-115c5.7-3.2,12.6-3.2,18.3,0.1L2584.3,780c8,4.7,18,4.7,26,0l0,0c8-4.6,18-4.6,26,0
		l223.1,128.5c4.1,2.4,5.5,7.7,3.1,11.8c-0.8,1.3-1.8,2.4-3.1,3.1l0,0c-4.1,2.4-5.5,7.7-3.1,11.8c0.8,1.3,1.8,2.4,3.2,3.1l26.1,15
		c4.1,2.4,5.6,7.6,3.2,11.8c-0.8,1.3-1.9,2.5-3.2,3.2l-195.1,114.5c-5.7,3.3-12.7,3.3-18.3,0l-487.3-280.2
		c-4.1-2.4-5.6-7.7-3.2-11.8C2182.4,789.6,2183.5,788.5,2184.8,787.7z"/>
	<line class="st3" x1="2723.7" y1="980.3" x2="2356.2" y2="770.1"/>
	<polyline class="st3" points="2651.8,1021.8 2723.7,980.3 2723.7,980.3 	"/>
	<polyline class="st3" points="2522,946.7 2593.1,905.6 2608.2,914.2 	"/>
	<polyline class="st3" points="2392.2,871.6 2462.5,830.9 2492.6,848.1 	"/>
	<polyline class="st3" points="2262.4,796.5 2331.9,756.2 2377.1,782.1 	"/>
	<polyline class="st3" points="2782,946.5 2723.7,980.3 2723.7,980.3 	"/>
	<polyline class="st3" points="2652.1,871.5 2593.1,905.6 2619.5,920.7 	"/>
	<polyline class="st3" points="2522.1,796.4 2462.5,830.9 2515.3,861.1 	"/>
	<polyline class="st3" points="2392.1,721.4 2331.9,756.2 2411.1,801.5 	"/>
	<path class="st4" d="M2730.9,980.3c0-1.8-2.9-4.3-6.5-4.3s-6.5,2.5-6.5,4.3s2.9,3.3,6.5,3.3S2730.9,982.1,2730.9,980.3z"/>
	<path class="st4" d="M2600.2,905.1c0-1.8-2.9-4.3-6.5-4.3s-6.5,2.5-6.5,4.3s2.9,3.3,6.5,3.3S2600.2,906.9,2600.2,905.1z"/>
	<path class="st4" d="M2468.9,830.5c0-1.8-2.9-4.3-6.5-4.3s-6.5,2.5-6.5,4.3s2.9,3.3,6.5,3.3S2468.9,832.3,2468.9,830.5z"/>
	<path class="st4" d="M2339.4,756.2c0-1.8-2.9-4.3-6.5-4.3s-6.5,2.5-6.5,4.3s2.9,3.3,6.5,3.3S2339.4,758,2339.4,756.2z"/>
	<line class="st5" x1="2371.7" y1="616.4" x2="2760.7" y2="840.1"/>
	<line class="st5" x1="2242.7" y1="692.4" x2="2631.7" y2="916.1"/>
	<path class="st3" d="M3102.4,1015.2l-67.4-40.1c-4.7-2.7-10.6-2.7-15.3,0l-114,65.8"/>
	<ellipse class="st4" cx="3102.4" cy="1014.8" rx="6.5" ry="3.3"/>
	<line class="st3" x1="2729.4" y1="983.5" x2="2842.4" y2="1048.2"/>
	
		<linearGradient id="SVGID_1_" gradientUnits="userSpaceOnUse" x1="2968.4949" y1="1457.62" x2="2968.4949" y2="1506.85" gradientTransform="matrix(1 0 0 -1 0 2476)">
		<stop  offset="0" style="stop-color:#FE764A"/>
		<stop  offset="1" style="stop-color:#FE9877"/>
	</linearGradient>
	<polygon class="st6" points="2955,969.2 2982,984.8 2982,1018.4 2955,1002.7 	"/>
	
		<linearGradient id="SVGID_2_" gradientUnits="userSpaceOnUse" x1="2995.5449" y1="1457.62" x2="2995.5449" y2="1506.85" gradientTransform="matrix(1 0 0 -1 0 2476)">
		<stop  offset="0" style="stop-color:#FE764A"/>
		<stop  offset="1" style="stop-color:#FEBAA4"/>
	</linearGradient>
	<polygon class="st7" points="3009.1,969.2 2982,984.8 2982,1018.4 3009.1,1002.7 	"/>
	
		<linearGradient id="SVGID_3_" gradientUnits="userSpaceOnUse" x1="2958.9399" y1="1506.845" x2="3005.1001" y2="1506.845" gradientTransform="matrix(1 0 0 -1 0 2476)">
		<stop  offset="0" style="stop-color:#FE764A"/>
		<stop  offset="1" style="stop-color:#FE9877"/>
	</linearGradient>
	<polygon class="st8" points="2972.7,977.1 2964.7,972.5 2958.9,969.2 2964.7,965.8 2972.7,961.2 2982,955.8 2991.4,961.2 
		2999.4,965.8 3005.1,969.2 2999.4,972.5 2991.4,977.1 2982,982.5 	"/>
	<path class="st9" d="M2982,958.1l8.4,4.8l8,4.6l2.8,1.6l-2.7,1.6l-8,4.6l-8.4,4.8l-8.4-4.8l-8-4.6l-2.8-1.6l2.7-1.6l8-4.6
		L2982,958.1 M2982,953.5l-10.4,6l-8,4.6l-8.7,5.1l8.7,5.1l8,4.6l10.4,6l10.4-6l8-4.6l8.7-5.1l-8.7-5.1l-8-4.6L2982,953.5z"/>
	
		<linearGradient id="SVGID_4_" gradientUnits="userSpaceOnUse" x1="2930.3149" y1="1435.5" x2="2930.3149" y2="1484.72" gradientTransform="matrix(1 0 0 -1 0 2476)">
		<stop  offset="0" style="stop-color:#FE764A"/>
		<stop  offset="1" style="stop-color:#FE9877"/>
	</linearGradient>
	<polygon class="st10" points="2916.8,991.3 2943.8,1007 2943.8,1040.5 2916.8,1024.8 	"/>
	
		<linearGradient id="SVGID_5_" gradientUnits="userSpaceOnUse" x1="2957.365" y1="1435.5" x2="2957.365" y2="1484.72" gradientTransform="matrix(1 0 0 -1 0 2476)">
		<stop  offset="0" style="stop-color:#FE764A"/>
		<stop  offset="1" style="stop-color:#FEBAA4"/>
	</linearGradient>
	<polygon class="st11" points="2970.9,991.3 2943.8,1007 2943.8,1040.5 2970.9,1024.8 	"/>
	
		<linearGradient id="SVGID_6_" gradientUnits="userSpaceOnUse" x1="2920.76" y1="1484.725" x2="2966.9199" y2="1484.725" gradientTransform="matrix(1 0 0 -1 0 2476)">
		<stop  offset="0" style="stop-color:#FE764A"/>
		<stop  offset="1" style="stop-color:#FE9877"/>
	</linearGradient>
	<polygon class="st12" points="2934.5,999.2 2926.5,994.6 2920.8,991.3 2926.5,987.9 2934.5,983.3 2943.8,977.9 2953.2,983.3 
		2961.2,987.9 2966.9,991.3 2961.2,994.6 2953.2,999.2 2943.8,1004.6 	"/>
	<path class="st9" d="M2943.8,980.2l8.4,4.8l8,4.6l2.8,1.6l-2.7,1.6l-8,4.6l-8.4,4.8l-8.4-4.8l-8-4.6l-2.8-1.6l2.8-1.6l8-4.6
		L2943.8,980.2 M2943.8,975.6l-10.4,6l-8,4.6l-8.7,5.1l8.7,5.1l8,4.6l10.4,6l10.4-6l8-4.6l8.7-5.1l-8.7-5.1l-8-4.6L2943.8,975.6z"/>
	
		<linearGradient id="SVGID_7_" gradientUnits="userSpaceOnUse" x1="2892.135" y1="1413.38" x2="2892.135" y2="1462.6" gradientTransform="matrix(1 0 0 -1 0 2476)">
		<stop  offset="0" style="stop-color:#FE764A"/>
		<stop  offset="1" style="stop-color:#FE9877"/>
	</linearGradient>
	<polygon class="st13" points="2878.6,1013.4 2905.7,1029.1 2905.7,1062.6 2878.6,1046.9 	"/>
	
		<linearGradient id="SVGID_8_" gradientUnits="userSpaceOnUse" x1="2919.1848" y1="1413.38" x2="2919.1848" y2="1462.6" gradientTransform="matrix(1 0 0 -1 0 2476)">
		<stop  offset="0" style="stop-color:#FE764A"/>
		<stop  offset="1" style="stop-color:#FEBAA4"/>
	</linearGradient>
	<polygon class="st14" points="2932.7,1013.4 2905.7,1029.1 2905.7,1062.6 2932.7,1046.9 	"/>
	
		<linearGradient id="SVGID_9_" gradientUnits="userSpaceOnUse" x1="2882.5801" y1="1462.6" x2="2928.74" y2="1462.6" gradientTransform="matrix(1 0 0 -1 0 2476)">
		<stop  offset="0" style="stop-color:#FE764A"/>
		<stop  offset="1" style="stop-color:#FE9877"/>
	</linearGradient>
	<polygon class="st15" points="2896.3,1021.3 2888.3,1016.7 2882.6,1013.4 2888.3,1010.1 2896.3,1005.5 2905.7,1000 2915,1005.5 
		2923,1010.1 2928.7,1013.4 2923,1016.7 2915,1021.3 2905.7,1026.8 	"/>
	<path class="st9" d="M2905.7,1002.3l8.4,4.8l8,4.6l2.8,1.6l-2.8,1.6l-8,4.6l-8.4,4.8l-8.4-4.8l-8-4.6l-2.8-1.6l2.8-1.6l8-4.6
		L2905.7,1002.3 M2905.6,997.7l-10.4,6l-8,4.6l-8.7,5.1l8.7,5.1l8,4.6l10.4,6l10.4-6l8-4.6l8.7-5.1l-8.7-5.1l-8-4.6L2905.6,997.7z"
		/>
	
		<linearGradient id="SVGID_10_" gradientUnits="userSpaceOnUse" x1="2853.9548" y1="1391.26" x2="2853.9548" y2="1440.48" gradientTransform="matrix(1 0 0 -1 0 2476)">
		<stop  offset="0" style="stop-color:#FE764A"/>
		<stop  offset="1" style="stop-color:#FE9877"/>
	</linearGradient>
	<polygon class="st16" points="2840.4,1035.5 2867.5,1051.2 2867.5,1084.7 2840.4,1069.1 	"/>
	
		<linearGradient id="SVGID_11_" gradientUnits="userSpaceOnUse" x1="2881.0049" y1="1391.26" x2="2881.0049" y2="1440.48" gradientTransform="matrix(1 0 0 -1 0 2476)">
		<stop  offset="0" style="stop-color:#FE764A"/>
		<stop  offset="1" style="stop-color:#FEBAA4"/>
	</linearGradient>
	<polygon class="st17" points="2894.5,1035.5 2867.5,1051.2 2867.5,1084.7 2894.5,1069.1 	"/>
	
		<linearGradient id="SVGID_12_" gradientUnits="userSpaceOnUse" x1="2844.3999" y1="1440.48" x2="2890.5601" y2="1440.48" gradientTransform="matrix(1 0 0 -1 0 2476)">
		<stop  offset="0" style="stop-color:#FE764A"/>
		<stop  offset="1" style="stop-color:#FE9877"/>
	</linearGradient>
	<polygon class="st18" points="2858.1,1043.5 2850.1,1038.8 2844.4,1035.5 2850.1,1032.2 2858.1,1027.6 2867.5,1022.2 
		2876.8,1027.6 2884.8,1032.2 2890.6,1035.5 2884.8,1038.9 2876.8,1043.5 2867.5,1048.9 	"/>
	<path class="st9" d="M2867.5,1024.5l8.4,4.8l8,4.6l2.8,1.6l-2.8,1.6l-8,4.6l-8.3,4.8l-8.4-4.8l-8-4.6l-2.8-1.6l2.8-1.6l8-4.6
		L2867.5,1024.5 M2867.5,1019.8l-10.4,6l-8,4.6l-8.7,5.1l8.7,5.1l8,4.6l10.4,6l10.4-6l8-4.6l8.7-5.1l-8.7-5.1l-8-4.6L2867.5,1019.8z
		"/>
	
		<linearGradient id="SVGID_13_" gradientUnits="userSpaceOnUse" x1="2779.96" y1="1523.4999" x2="2779.96" y2="1564.8502" gradientTransform="matrix(1 0 0 -1 0 2476)">
		<stop  offset="0" style="stop-color:#FE764A"/>
		<stop  offset="1" style="stop-color:#FE9877"/>
	</linearGradient>
	<path class="st19" d="M2784.5,912.2c-2.9-1.4-6.2-1.4-9.1,0c-1.1,0.5-1.8,1.5-1.9,2.6l0,0v34c0.1,1.1,0.8,2.2,1.9,2.6
		c2.9,1.4,6.2,1.4,9.1,0c1.1-0.5,1.8-1.5,1.9-2.6v-34C2786.3,913.7,2785.6,912.7,2784.5,912.2z"/>
	<path class="st20" d="M2774.9,914.8c0.1,0.9,0.6,1.7,1.5,2.1c2.3,1.1,4.9,1.1,7.2,0c0.8-0.4,1.4-1.2,1.5-2.1l-2.5-124.1h-5.1
		L2774.9,914.8z"/>
	
		<linearGradient id="SVGID_14_" gradientUnits="userSpaceOnUse" x1="2740.1084" y1="1687.37" x2="2740.1084" y2="1713.0901" gradientTransform="matrix(1 0 0 -1 0 2476)">
		<stop  offset="0" style="stop-color:#FE9877"/>
		<stop  offset="1" style="stop-color:#FEBAA4"/>
	</linearGradient>
	<path class="st21" d="M2770.9,788.6c0,0-60-22-61.8-23.5s-1-2.3-1-2.3s51.1,12.4,55,15.1c3.3,2.3,4.4,5.5,5.9,6.4
		c1,0.5,2.1,0.9,3.2,1.2L2770.9,788.6z"/>
	
		<linearGradient id="SVGID_15_" gradientUnits="userSpaceOnUse" x1="2790.3616" y1="1600.9789" x2="2790.3616" y2="1683.48" gradientTransform="matrix(1 0 0 -1 0 2476)">
		<stop  offset="0" style="stop-color:#FE9877"/>
		<stop  offset="1" style="stop-color:#FEBAA4"/>
	</linearGradient>
	<path class="st22" d="M2778.7,792.5c0,0,27.1,76.9,27.1,79.8s-1.3,2.7-1.3,2.7s-28.7-60.6-29.3-66.5c-0.6-5.1,1.5-8.7,1.1-10.8
		c-0.3-1.4-0.8-2.8-1.5-4.1L2778.7,792.5z"/>
	<path class="st23" d="M2791.7,779.2c-0.5-0.8-1.4-1.5-2-1.3l0,0l-3.2,0.7l0,0l-15.6,3.6l7.8,13.8l13.3-14.3l0,0
		C2792.2,780.9,2792.2,779.9,2791.7,779.2z"/>
	
		<linearGradient id="SVGID_16_" gradientUnits="userSpaceOnUse" x1="2793.4148" y1="1688.15" x2="2793.4148" y2="1748.2968" gradientTransform="matrix(1 0 0 -1 0 2476)">
		<stop  offset="0" style="stop-color:#FE9877"/>
		<stop  offset="1" style="stop-color:#FEBAA4"/>
	</linearGradient>
	<path class="st24" d="M2773.4,785.1c0,0,34.9-55.5,36.9-56.8s3-0.2,3-0.2s-21.4,49.7-25.3,52.8c-3.3,2.7-7.6,2.6-8.9,3.8
		c-0.8,0.9-1.4,1.9-1.8,3L2773.4,785.1z"/>
	<path class="st23" d="M2778.1,787c1.8,3.2,2.1,8,0,9.3s-6.2-1.4-8-4.6s-1.9-8.1,0.2-9.3S2776.4,783.9,2778.1,787z"/>
	
		<linearGradient id="SVGID_17_" gradientUnits="userSpaceOnUse" x1="2650.2998" y1="1598.0601" x2="2650.2998" y2="1639.4099" gradientTransform="matrix(1 0 0 -1 0 2476)">
		<stop  offset="0" style="stop-color:#FE764A"/>
		<stop  offset="1" style="stop-color:#FE9877"/>
	</linearGradient>
	<path class="st25" d="M2654.8,837.7c-2.9-1.4-6.2-1.4-9.1,0c-1.1,0.5-1.8,1.5-1.9,2.6l0,0v34c0.1,1.1,0.8,2.1,1.9,2.6
		c2.9,1.4,6.2,1.4,9.1,0c1.1-0.5,1.8-1.5,1.9-2.6v-34C2656.6,839.1,2655.9,838.1,2654.8,837.7z"/>
	<path class="st20" d="M2645.2,840.3c0.1,0.9,0.6,1.7,1.5,2.1c2.3,1.1,4.9,1.1,7.2,0c0.8-0.4,1.4-1.2,1.5-2.1l-2.5-124.1h-5.1
		L2645.2,840.3z"/>
	
		<linearGradient id="SVGID_18_" gradientUnits="userSpaceOnUse" x1="2610.4316" y1="1761.9299" x2="2610.4316" y2="1787.65" gradientTransform="matrix(1 0 0 -1 0 2476)">
		<stop  offset="0" style="stop-color:#FE9877"/>
		<stop  offset="1" style="stop-color:#FEBAA4"/>
	</linearGradient>
	<path class="st26" d="M2641.2,714.1c0,0-60-22-61.8-23.5s-1-2.3-1-2.3s51.1,12.4,55,15.1c3.3,2.3,4.4,5.5,5.9,6.4
		c1,0.5,2.1,0.9,3.2,1.1L2641.2,714.1z"/>
	
		<linearGradient id="SVGID_19_" gradientUnits="userSpaceOnUse" x1="2660.6963" y1="1675.4889" x2="2660.6963" y2="1758" gradientTransform="matrix(1 0 0 -1 0 2476)">
		<stop  offset="0" style="stop-color:#FE9877"/>
		<stop  offset="1" style="stop-color:#FEBAA4"/>
	</linearGradient>
	<path class="st27" d="M2649.1,718c0,0,27.1,76.9,27.1,79.8s-1.3,2.7-1.3,2.7s-28.7-60.6-29.3-66.5c-0.6-5.1,1.5-8.7,1.1-10.8
		c-0.3-1.4-0.8-2.8-1.5-4.1L2649.1,718z"/>
	<path class="st23" d="M2662,704.6c-0.5-0.8-1.4-1.5-2-1.3l0,0l-3.2,0.7l0,0l-15.6,3.6l7.8,13.8l13.3-14.3l0,0
		C2662.6,706.3,2662.5,705.4,2662,704.6z"/>
	
		<linearGradient id="SVGID_20_" gradientUnits="userSpaceOnUse" x1="2663.7549" y1="1762.72" x2="2663.7549" y2="1822.8524" gradientTransform="matrix(1 0 0 -1 0 2476)">
		<stop  offset="0" style="stop-color:#FE9877"/>
		<stop  offset="1" style="stop-color:#FEBAA4"/>
	</linearGradient>
	<path class="st28" d="M2643.8,710.6c0,0,34.9-55.5,36.9-56.8s3-0.2,3-0.2s-21.5,49.7-25.3,52.8c-3.3,2.7-7.6,2.6-8.9,3.8
		c-0.8,0.9-1.4,1.9-1.8,3L2643.8,710.6z"/>
	<path class="st23" d="M2648.5,712.4c1.8,3.2,2.1,8,0,9.3s-6.2-1.4-8.1-4.6s-1.9-8.1,0.2-9.3S2646.7,709.3,2648.5,712.4z"/>
	
		<linearGradient id="SVGID_21_" gradientUnits="userSpaceOnUse" x1="2520.6348" y1="1672.6199" x2="2520.6348" y2="1713.9702" gradientTransform="matrix(1 0 0 -1 0 2476)">
		<stop  offset="0" style="stop-color:#FE764A"/>
		<stop  offset="1" style="stop-color:#FE9877"/>
	</linearGradient>
	<path class="st29" d="M2525.2,763.1c-2.9-1.4-6.2-1.4-9.1,0c-1.1,0.5-1.8,1.5-1.9,2.6l0,0v34c0.1,1.1,0.8,2.1,1.9,2.6
		c2.9,1.4,6.2,1.4,9.1,0c1.1-0.5,1.8-1.5,1.9-2.6v-34C2526.9,764.6,2526.2,763.6,2525.2,763.1z"/>
	<path class="st20" d="M2515.6,765.7c0.1,0.9,0.6,1.7,1.5,2.1c2.3,1.1,4.9,1.1,7.2,0c0.8-0.4,1.4-1.2,1.5-2.1l-2.5-124.1h-5.1
		L2515.6,765.7z"/>
	
		<linearGradient id="SVGID_22_" gradientUnits="userSpaceOnUse" x1="2480.7734" y1="1836.49" x2="2480.7734" y2="1862.21" gradientTransform="matrix(1 0 0 -1 0 2476)">
		<stop  offset="0" style="stop-color:#FE9877"/>
		<stop  offset="1" style="stop-color:#FEBAA4"/>
	</linearGradient>
	<path class="st30" d="M2511.5,639.5c0,0-60-22-61.8-23.5s-1-2.3-1-2.3s51.1,12.4,55,15.1c3.3,2.3,4.4,5.5,5.9,6.4
		c1,0.5,2.1,0.9,3.2,1.1L2511.5,639.5z"/>
	
		<linearGradient id="SVGID_23_" gradientUnits="userSpaceOnUse" x1="2531.0315" y1="1750.0989" x2="2531.0315" y2="1832.61" gradientTransform="matrix(1 0 0 -1 0 2476)">
		<stop  offset="0" style="stop-color:#FE9877"/>
		<stop  offset="1" style="stop-color:#FEBAA4"/>
	</linearGradient>
	<path class="st31" d="M2519.4,643.4c0,0,27.1,76.9,27.1,79.8s-1.3,2.7-1.3,2.7s-28.7-60.6-29.3-66.5c-0.6-5.1,1.5-8.7,1.1-10.8
		c-0.3-1.4-0.8-2.8-1.5-4.1L2519.4,643.4z"/>
	<path class="st23" d="M2532.3,630.1c-0.4-0.8-1.4-1.5-2-1.3l0,0l-3.2,0.7l0,0l-15.7,3.5l7.8,13.8l13.3-14.3l0,0
		C2532.9,631.7,2532.8,630.8,2532.3,630.1z"/>
	
		<linearGradient id="SVGID_24_" gradientUnits="userSpaceOnUse" x1="2534.0901" y1="1837.29" x2="2534.0901" y2="1897.4338" gradientTransform="matrix(1 0 0 -1 0 2476)">
		<stop  offset="0" style="stop-color:#FE9877"/>
		<stop  offset="1" style="stop-color:#FEBAA4"/>
	</linearGradient>
	<path class="st32" d="M2514.1,636c0,0,34.9-55.5,36.9-56.8s3-0.2,3-0.2s-21.5,49.7-25.4,52.8c-3.3,2.7-7.6,2.6-8.9,3.8
		c-0.8,0.9-1.4,1.9-1.8,3L2514.1,636z"/>
	<path class="st23" d="M2518.8,637.9c1.8,3.2,2.1,8,0,9.3s-6.2-1.4-8.1-4.6s-1.9-8.1,0.2-9.3S2517,634.8,2518.8,637.9z"/>
	
		<linearGradient id="SVGID_25_" gradientUnits="userSpaceOnUse" x1="2390.97" y1="1747.1497" x2="2390.97" y2="1788.5439" gradientTransform="matrix(1 0 0 -1 0 2476)">
		<stop  offset="0" style="stop-color:#FE764A"/>
		<stop  offset="1" style="stop-color:#FE9877"/>
	</linearGradient>
	<path class="st33" d="M2395.5,688.5c-2.9-1.4-6.2-1.4-9.1,0c-1,0.5-1.8,1.5-1.9,2.6l0,0v34c0.1,1.1,0.8,2.1,1.9,2.6
		c2.9,1.4,6.2,1.4,9.1,0c1-0.5,1.8-1.5,1.9-2.6v-34C2397.3,690,2396.6,689,2395.5,688.5z"/>
	<path class="st20" d="M2385.9,691.2c0.1,0.9,0.6,1.7,1.5,2.1c2.2,1.1,4.9,1.1,7.2,0c0.8-0.4,1.4-1.2,1.5-2.1l-2.5-124.2h-5.1
		L2385.9,691.2z"/>
	
		<linearGradient id="SVGID_26_" gradientUnits="userSpaceOnUse" x1="2351.1064" y1="1911.05" x2="2351.1064" y2="1936.77" gradientTransform="matrix(1 0 0 -1 0 2476)">
		<stop  offset="0" style="stop-color:#FE9877"/>
		<stop  offset="1" style="stop-color:#FEBAA4"/>
	</linearGradient>
	<path class="st34" d="M2381.9,565c0,0-60-22-61.8-23.5s-1-2.2-1-2.2s51.1,12.4,55,15.1c3.3,2.3,4.4,5.5,5.9,6.4
		c1,0.5,2.1,0.9,3.2,1.1L2381.9,565z"/>
	
		<linearGradient id="SVGID_27_" gradientUnits="userSpaceOnUse" x1="2401.3716" y1="1824.6589" x2="2401.3716" y2="1907.1699" gradientTransform="matrix(1 0 0 -1 0 2476)">
		<stop  offset="0" style="stop-color:#FE9877"/>
		<stop  offset="1" style="stop-color:#FEBAA4"/>
	</linearGradient>
	<path class="st35" d="M2389.7,568.8c0,0,27.1,76.9,27.1,79.8s-1.3,2.7-1.3,2.7s-28.7-60.6-29.3-66.5c-0.6-5.1,1.5-8.7,1.1-10.8
		c-0.3-1.4-0.8-2.8-1.5-4.1L2389.7,568.8z"/>
	<path class="st23" d="M2402.7,555.5c-0.5-0.8-1.4-1.5-2-1.3l0,0l-3.2,0.7l0,0l-15.6,3.6l7.8,13.8l13.2-14.2l0,0
		C2403.2,557.2,2403.2,556.3,2402.7,555.5z"/>
	
		<linearGradient id="SVGID_28_" gradientUnits="userSpaceOnUse" x1="2404.4248" y1="1911.8401" x2="2404.4248" y2="1971.9838" gradientTransform="matrix(1 0 0 -1 0 2476)">
		<stop  offset="0" style="stop-color:#FE9877"/>
		<stop  offset="1" style="stop-color:#FEBAA4"/>
	</linearGradient>
	<path class="st36" d="M2384.5,561.5c0,0,34.9-55.5,36.9-56.8s3-0.1,3-0.1s-21.5,49.7-25.3,52.8c-3.3,2.7-7.6,2.6-8.9,3.8
		c-0.8,0.9-1.4,1.9-1.8,3L2384.5,561.5z"/>
	<path class="st23" d="M2389.1,563.3c1.8,3.2,2.1,8,0,9.3s-6.2-1.4-8.1-4.6s-1.9-8.1,0.2-9.3S2387.4,560.2,2389.1,563.3z"/>
	<line class="st5" x1="2371.7" y1="616.4" x2="2760.7" y2="840.1"/>
	
		<linearGradient id="SVGID_29_" gradientUnits="userSpaceOnUse" x1="2650.96" y1="1447.4999" x2="2650.96" y2="1488.8502" gradientTransform="matrix(1 0 0 -1 0 2476)">
		<stop  offset="0" style="stop-color:#FE764A"/>
		<stop  offset="1" style="stop-color:#FE9877"/>
	</linearGradient>
	<path class="st37" d="M2655.5,988.2c-2.9-1.4-6.2-1.4-9.1,0c-1.1,0.5-1.8,1.5-1.9,2.6l0,0v33.9c0.1,1.1,0.8,2.2,1.9,2.6
		c2.9,1.4,6.2,1.4,9.1,0c1.1-0.5,1.8-1.5,1.9-2.6v-33.9C2657.3,989.7,2656.6,988.7,2655.5,988.2z"/>
	<path class="st20" d="M2645.9,990.8c0.1,0.9,0.6,1.7,1.5,2.1c2.3,1.1,4.9,1.1,7.2,0c0.8-0.4,1.4-1.2,1.5-2.1l-2.5-124.1h-5.1
		L2645.9,990.8z"/>
	
		<linearGradient id="SVGID_30_" gradientUnits="userSpaceOnUse" x1="2611.1084" y1="1611.37" x2="2611.1084" y2="1637.0901" gradientTransform="matrix(1 0 0 -1 0 2476)">
		<stop  offset="0" style="stop-color:#FE9877"/>
		<stop  offset="1" style="stop-color:#FEBAA4"/>
	</linearGradient>
	<path class="st38" d="M2641.9,864.6c0,0-60-22-61.8-23.5s-1-2.3-1-2.3s51.1,12.4,55,15.1c3.3,2.3,4.4,5.5,5.9,6.4
		c1,0.5,2.1,0.9,3.2,1.2L2641.9,864.6z"/>
	
		<linearGradient id="SVGID_31_" gradientUnits="userSpaceOnUse" x1="2661.3616" y1="1524.9789" x2="2661.3616" y2="1607.48" gradientTransform="matrix(1 0 0 -1 0 2476)">
		<stop  offset="0" style="stop-color:#FE9877"/>
		<stop  offset="1" style="stop-color:#FEBAA4"/>
	</linearGradient>
	<path class="st39" d="M2649.7,868.5c0,0,27.1,76.9,27.1,79.8s-1.3,2.7-1.3,2.7s-28.7-60.6-29.3-66.5c-0.6-5.1,1.5-8.7,1.1-10.8
		c-0.3-1.4-0.8-2.8-1.5-4.1L2649.7,868.5z"/>
	<path class="st23" d="M2662.7,855.2c-0.5-0.8-1.4-1.5-2-1.3l0,0l-3.2,0.7l0,0l-15.6,3.6l7.8,13.8l13.3-14.3l0,0
		C2663.2,856.9,2663.2,855.9,2662.7,855.2z"/>
	
		<linearGradient id="SVGID_32_" gradientUnits="userSpaceOnUse" x1="2664.4148" y1="1612.15" x2="2664.4148" y2="1672.2968" gradientTransform="matrix(1 0 0 -1 0 2476)">
		<stop  offset="0" style="stop-color:#FE9877"/>
		<stop  offset="1" style="stop-color:#FEBAA4"/>
	</linearGradient>
	<path class="st40" d="M2644.4,861.1c0,0,34.9-55.5,36.9-56.8s3-0.2,3-0.2s-21.4,49.7-25.3,52.8c-3.3,2.7-7.6,2.6-8.9,3.8
		c-0.8,0.9-1.4,1.9-1.8,3L2644.4,861.1z"/>
	<path class="st23" d="M2649.1,863c1.8,3.2,2.1,8,0,9.3s-6.2-1.4-8-4.6s-1.9-8.1,0.2-9.3S2647.4,859.9,2649.1,863z"/>
	
		<linearGradient id="SVGID_33_" gradientUnits="userSpaceOnUse" x1="2521.2998" y1="1522.0601" x2="2521.2998" y2="1563.4099" gradientTransform="matrix(1 0 0 -1 0 2476)">
		<stop  offset="0" style="stop-color:#FE764A"/>
		<stop  offset="1" style="stop-color:#FE9877"/>
	</linearGradient>
	<path class="st41" d="M2525.8,913.7c-2.9-1.4-6.2-1.4-9.1,0c-1.1,0.5-1.8,1.5-1.9,2.6l0,0v34c0.1,1.1,0.8,2.1,1.9,2.6
		c2.9,1.4,6.2,1.4,9.1,0c1.1-0.5,1.8-1.5,1.9-2.6v-34C2527.6,915.1,2526.9,914.1,2525.8,913.7z"/>
	<path class="st20" d="M2516.2,916.3c0.1,0.9,0.6,1.7,1.5,2.1c2.3,1.1,4.9,1.1,7.2,0c0.8-0.4,1.4-1.2,1.5-2.1l-2.5-124.1h-5.1
		L2516.2,916.3z"/>
	
		<linearGradient id="SVGID_34_" gradientUnits="userSpaceOnUse" x1="2481.4316" y1="1685.9299" x2="2481.4316" y2="1711.65" gradientTransform="matrix(1 0 0 -1 0 2476)">
		<stop  offset="0" style="stop-color:#FE9877"/>
		<stop  offset="1" style="stop-color:#FEBAA4"/>
	</linearGradient>
	<path class="st42" d="M2512.2,790.1c0,0-60-22-61.8-23.5s-1-2.3-1-2.3s51.1,12.4,55,15.1c3.3,2.3,4.4,5.5,5.9,6.4
		c1,0.5,2.1,0.9,3.2,1.1L2512.2,790.1z"/>
	
		<linearGradient id="SVGID_35_" gradientUnits="userSpaceOnUse" x1="2531.6963" y1="1599.4889" x2="2531.6963" y2="1682" gradientTransform="matrix(1 0 0 -1 0 2476)">
		<stop  offset="0" style="stop-color:#FE9877"/>
		<stop  offset="1" style="stop-color:#FEBAA4"/>
	</linearGradient>
	<path class="st43" d="M2520.1,794c0,0,27.1,76.9,27.1,79.8s-1.3,2.7-1.3,2.7s-28.7-60.6-29.3-66.5c-0.6-5.1,1.5-8.7,1.1-10.8
		c-0.3-1.4-0.8-2.8-1.5-4.1L2520.1,794z"/>
	<path class="st23" d="M2533,780.6c-0.5-0.8-1.4-1.5-2-1.3l0,0l-3.2,0.7l0,0l-15.6,3.6l7.8,13.8l13.3-14.3l0,0
		C2533.6,782.3,2533.5,781.4,2533,780.6z"/>
	
		<linearGradient id="SVGID_36_" gradientUnits="userSpaceOnUse" x1="2534.7549" y1="1686.72" x2="2534.7549" y2="1746.8524" gradientTransform="matrix(1 0 0 -1 0 2476)">
		<stop  offset="0" style="stop-color:#FE9877"/>
		<stop  offset="1" style="stop-color:#FEBAA4"/>
	</linearGradient>
	<path class="st44" d="M2514.8,786.6c0,0,34.9-55.5,36.9-56.8s3-0.2,3-0.2s-21.5,49.7-25.3,52.8c-3.3,2.7-7.6,2.6-8.9,3.8
		c-0.8,0.9-1.4,1.9-1.8,3L2514.8,786.6z"/>
	<path class="st23" d="M2519.5,788.4c1.8,3.2,2.1,8,0,9.3s-6.2-1.4-8.1-4.6s-1.9-8.1,0.2-9.3S2517.7,785.3,2519.5,788.4z"/>
	
		<linearGradient id="SVGID_37_" gradientUnits="userSpaceOnUse" x1="2391.6348" y1="1596.6199" x2="2391.6348" y2="1637.9702" gradientTransform="matrix(1 0 0 -1 0 2476)">
		<stop  offset="0" style="stop-color:#FE764A"/>
		<stop  offset="1" style="stop-color:#FE9877"/>
	</linearGradient>
	<path class="st45" d="M2396.2,839.1c-2.9-1.4-6.2-1.4-9.1,0c-1.1,0.5-1.8,1.5-1.9,2.6l0,0v34c0.1,1.1,0.8,2.1,1.9,2.6
		c2.9,1.4,6.2,1.4,9.1,0c1.1-0.5,1.8-1.5,1.9-2.6v-34C2397.9,840.6,2397.2,839.6,2396.2,839.1z"/>
	<path class="st20" d="M2386.6,841.7c0.1,0.9,0.6,1.7,1.5,2.1c2.3,1.1,4.9,1.1,7.2,0c0.8-0.4,1.4-1.2,1.5-2.1l-2.5-124.1h-5.1
		L2386.6,841.7z"/>
	
		<linearGradient id="SVGID_38_" gradientUnits="userSpaceOnUse" x1="2351.7734" y1="1760.49" x2="2351.7734" y2="1786.21" gradientTransform="matrix(1 0 0 -1 0 2476)">
		<stop  offset="0" style="stop-color:#FE9877"/>
		<stop  offset="1" style="stop-color:#FEBAA4"/>
	</linearGradient>
	<path class="st46" d="M2382.5,715.5c0,0-60-22-61.8-23.5s-1-2.3-1-2.3s51.1,12.4,55,15.1c3.3,2.3,4.4,5.5,5.9,6.4
		c1,0.5,2.1,0.9,3.2,1.1L2382.5,715.5z"/>
	
		<linearGradient id="SVGID_39_" gradientUnits="userSpaceOnUse" x1="2402.0315" y1="1674.0989" x2="2402.0315" y2="1756.61" gradientTransform="matrix(1 0 0 -1 0 2476)">
		<stop  offset="0" style="stop-color:#FE9877"/>
		<stop  offset="1" style="stop-color:#FEBAA4"/>
	</linearGradient>
	<path class="st47" d="M2390.4,719.4c0,0,27.1,76.9,27.1,79.8s-1.3,2.7-1.3,2.7s-28.7-60.6-29.3-66.5c-0.6-5.1,1.5-8.7,1.1-10.8
		c-0.3-1.4-0.8-2.8-1.5-4.1L2390.4,719.4z"/>
	<path class="st23" d="M2403.3,706.1c-0.4-0.8-1.4-1.5-2-1.3l0,0l-3.2,0.7l0,0l-15.7,3.5l7.8,13.8l13.3-14.3l0,0
		C2403.9,707.7,2403.8,706.8,2403.3,706.1z"/>
	
		<linearGradient id="SVGID_40_" gradientUnits="userSpaceOnUse" x1="2405.0901" y1="1761.29" x2="2405.0901" y2="1821.4338" gradientTransform="matrix(1 0 0 -1 0 2476)">
		<stop  offset="0" style="stop-color:#FE9877"/>
		<stop  offset="1" style="stop-color:#FEBAA4"/>
	</linearGradient>
	<path class="st48" d="M2385.1,712c0,0,34.9-55.5,36.9-56.8s3-0.2,3-0.2s-21.5,49.7-25.4,52.8c-3.3,2.7-7.6,2.6-8.9,3.8
		c-0.8,0.9-1.4,1.9-1.8,3L2385.1,712z"/>
	<path class="st23" d="M2389.8,713.9c1.8,3.2,2.1,8,0,9.3s-6.2-1.4-8.1-4.6s-1.9-8.1,0.2-9.3S2388,710.8,2389.8,713.9z"/>
	
		<linearGradient id="SVGID_41_" gradientUnits="userSpaceOnUse" x1="2261.97" y1="1671.1497" x2="2261.97" y2="1712.5439" gradientTransform="matrix(1 0 0 -1 0 2476)">
		<stop  offset="0" style="stop-color:#FE764A"/>
		<stop  offset="1" style="stop-color:#FE9877"/>
	</linearGradient>
	<path class="st49" d="M2266.5,764.5c-2.9-1.4-6.2-1.4-9.1,0c-1,0.5-1.8,1.5-1.9,2.6l0,0v34c0.1,1.1,0.8,2.1,1.9,2.6
		c2.9,1.4,6.2,1.4,9.1,0c1-0.5,1.8-1.5,1.9-2.6v-34C2268.3,766,2267.6,765,2266.5,764.5z"/>
	<path class="st20" d="M2256.9,767.2c0.1,0.9,0.6,1.7,1.5,2.1c2.2,1.1,4.9,1.1,7.2,0c0.8-0.4,1.4-1.2,1.5-2.1l-2.5-124.2h-5.1
		L2256.9,767.2z"/>
	
		<linearGradient id="SVGID_42_" gradientUnits="userSpaceOnUse" x1="2222.1064" y1="1835.05" x2="2222.1064" y2="1860.77" gradientTransform="matrix(1 0 0 -1 0 2476)">
		<stop  offset="0" style="stop-color:#FE9877"/>
		<stop  offset="1" style="stop-color:#FEBAA4"/>
	</linearGradient>
	<path class="st50" d="M2252.9,641c0,0-60-22-61.8-23.5s-1-2.2-1-2.2s51.1,12.4,55,15.1c3.3,2.3,4.4,5.5,5.9,6.4
		c1,0.5,2.1,0.9,3.2,1.1L2252.9,641z"/>
	
		<linearGradient id="SVGID_43_" gradientUnits="userSpaceOnUse" x1="2272.3716" y1="1748.6589" x2="2272.3716" y2="1831.1699" gradientTransform="matrix(1 0 0 -1 0 2476)">
		<stop  offset="0" style="stop-color:#FE9877"/>
		<stop  offset="1" style="stop-color:#FEBAA4"/>
	</linearGradient>
	<path class="st51" d="M2260.7,644.8c0,0,27.1,76.9,27.1,79.8s-1.3,2.7-1.3,2.7s-28.7-60.6-29.3-66.5c-0.6-5.1,1.5-8.7,1.1-10.8
		c-0.3-1.4-0.8-2.8-1.5-4.1L2260.7,644.8z"/>
	<path class="st23" d="M2273.7,631.5c-0.5-0.8-1.4-1.5-2-1.3l0,0l-3.2,0.7l0,0l-15.6,3.6l7.8,13.8l13.2-14.2l0,0
		C2274.2,633.2,2274.2,632.3,2273.7,631.5z"/>
	
		<linearGradient id="SVGID_44_" gradientUnits="userSpaceOnUse" x1="2275.4248" y1="1835.8401" x2="2275.4248" y2="1895.9838" gradientTransform="matrix(1 0 0 -1 0 2476)">
		<stop  offset="0" style="stop-color:#FE9877"/>
		<stop  offset="1" style="stop-color:#FEBAA4"/>
	</linearGradient>
	<path class="st52" d="M2255.5,637.5c0,0,34.9-55.5,36.9-56.8s3-0.2,3-0.2s-21.5,49.7-25.3,52.8c-3.3,2.7-7.6,2.6-8.9,3.8
		c-0.8,0.9-1.4,1.9-1.8,3L2255.5,637.5z"/>
	<path class="st23" d="M2260.1,639.3c1.8,3.2,2.1,8,0,9.3s-6.2-1.4-8.1-4.6s-1.9-8.1,0.2-9.3S2258.4,636.2,2260.1,639.3z"/>
</g>
</svg>
