<?xml version="1.0" encoding="utf-8"?>
<!-- Generator: Adobe Illustrator 23.0.4, SVG Export Plug-In . SVG Version: 6.00 Build 0)  -->
<svg version="1.1" id="Layer_1" xmlns="http://www.w3.org/2000/svg" xmlns:xlink="http://www.w3.org/1999/xlink" x="0px" y="0px"
	 viewBox="0 0 3918.2 2475.3" style="enable-background:new 0 0 3918.2 2475.3;" xml:space="preserve">
<style type="text/css">
	.st0{fill:none;stroke:#FFFFFF;stroke-width:7.97;stroke-linecap:round;stroke-miterlimit:10;}
	.st1{fill:url(#SVGID_1_);}
	.st2{fill:#FE7F80;}
	.st3{fill:url(#SVGID_2_);}
	.st4{fill:url(#SVGID_3_);}
	.st5{fill:#FFD4D4;}
	.st6{fill:url(#SVGID_4_);}
	.st7{fill:url(#SVGID_5_);}
	.st8{fill:none;stroke:#FFD4D4;stroke-width:1.48;stroke-linecap:round;stroke-linejoin:round;}
	.st9{fill:url(#SVGID_6_);}
	.st10{fill:#BFC6D4;}
	.st11{fill:#CFD4DF;}
	.st12{fill:url(#SVGID_7_);}
	.st13{fill:url(#SVGID_8_);}
	.st14{fill:url(#SVGID_9_);}
	.st15{fill:url(#SVGID_10_);}
	.st16{fill:url(#SVGID_11_);}
	.st17{fill:#FE9877;}
	.st18{fill:url(#SVGID_12_);}
	.st19{fill:url(#SVGID_13_);}
	.st20{fill:url(#SVGID_14_);}
	.st21{fill:url(#SVGID_15_);}
	.st22{fill:none;stroke:#FFDDD2;stroke-width:1.48;stroke-linecap:round;stroke-linejoin:round;}
	.st23{fill:url(#SVGID_16_);}
	.st24{fill:url(#SVGID_17_);}
	.st25{fill:url(#SVGID_18_);}
	.st26{display:none;opacity:0.15;fill:url(#SVGID_19_);enable-background:new    ;}
</style>
<title>DDS_ampx_secuencia_svg_02 [Recovered]</title>
<g id="elements">
	<line class="st0" x1="2607.4" y1="1493.7" x2="2607.4" y2="1457.8"/>
	
		<linearGradient id="SVGID_1_" gradientUnits="userSpaceOnUse" x1="2801.01" y1="1121.83" x2="2873.74" y2="1121.83" gradientTransform="matrix(1 0 0 -1 0 2476)">
		<stop  offset="0" style="stop-color:#FE5455"/>
		<stop  offset="1" style="stop-color:#FE7F80"/>
	</linearGradient>
	<polygon class="st1" points="2801,1359.7 2846.7,1333.3 2873.7,1348.7 2828.1,1375.1 	"/>
	<path class="st2" d="M2846.7,1335.6l23,13.1l-41.7,24l-23-13.1L2846.7,1335.6 M2846.7,1330.9l-49.7,28.7l31.1,17.7l49.7-28.7
		L2846.7,1330.9L2846.7,1330.9z"/>
	
		<linearGradient id="SVGID_2_" gradientUnits="userSpaceOnUse" x1="2852.915" y1="1060.39" x2="2852.915" y2="1127.33" gradientTransform="matrix(1 0 0 -1 0 2476)">
		<stop  offset="0" style="stop-color:#FE7F80"/>
		<stop  offset="1" style="stop-color:#FEA9AA"/>
	</linearGradient>
	<polygon class="st3" points="2828.1,1377.4 2828.1,1415.6 2877.8,1386.9 2877.8,1348.7 	"/>
	
		<linearGradient id="SVGID_3_" gradientUnits="userSpaceOnUse" x1="2812.385" y1="1060.39" x2="2812.385" y2="1116.3199" gradientTransform="matrix(1 0 0 -1 0 2476)">
		<stop  offset="0" style="stop-color:#FE5455"/>
		<stop  offset="1" style="stop-color:#FE7F80"/>
	</linearGradient>
	<polygon class="st4" points="2797,1359.7 2796.7,1397.8 2828.1,1415.6 2828.1,1377.4 	"/>
	<polygon class="st5" points="2848.1,1384.4 2854.6,1393.9 2853.9,1383.4 2857.8,1381.1 2850.5,1372.1 2851.9,1382.2 	"/>
	
		<linearGradient id="SVGID_4_" gradientUnits="userSpaceOnUse" x1="2848.3301" y1="1124.9299" x2="2848.3301" y2="1137.4199" gradientTransform="matrix(1 0 0 -1 0 2476)">
		<stop  offset="0" style="stop-color:#FE7F80"/>
		<stop  offset="1" style="stop-color:#FEA9AA"/>
	</linearGradient>
	<path class="st6" d="M2854,1341.9L2854,1341.9c0-1.8-2.5-3.3-5.7-3.3s-5.7,1.5-5.7,3.3l0,0l0,0v5.9c0,1.8,2.5,3.3,5.7,3.3
		s5.7-1.5,5.7-3.3V1341.9z"/>
	
		<linearGradient id="SVGID_5_" gradientUnits="userSpaceOnUse" x1="2826.4302" y1="1112.9199" x2="2826.4302" y2="1125.41" gradientTransform="matrix(1 0 0 -1 0 2476)">
		<stop  offset="0" style="stop-color:#FE7F80"/>
		<stop  offset="1" style="stop-color:#FEA9AA"/>
	</linearGradient>
	<path class="st7" d="M2832.1,1353.9L2832.1,1353.9c0-1.9-2.5-3.3-5.7-3.3s-5.7,1.5-5.7,3.3v0.1l0,0v5.9c0,1.8,2.5,3.3,5.7,3.3
		s5.7-1.5,5.7-3.3V1353.9z"/>
	<line class="st8" x1="2952.7" y1="1592" x2="2894.5" y2="1654.8"/>
	<line class="st8" x1="2928.7" y1="1578" x2="2870.5" y2="1640.8"/>
	<line class="st8" x1="2904.7" y1="1564.1" x2="2846.5" y2="1626.9"/>
	<line class="st8" x1="2880.7" y1="1550.1" x2="2822.5" y2="1612.9"/>
	<line class="st8" x1="2856.7" y1="1536.2" x2="2798.5" y2="1599"/>
	<line class="st8" x1="2832.7" y1="1522.2" x2="2774.5" y2="1585"/>
	<line class="st8" x1="2808.7" y1="1508.3" x2="2750.5" y2="1571.1"/>
	<line class="st8" x1="2784.7" y1="1494.3" x2="2726.5" y2="1557.1"/>
	<line class="st8" x1="2952.7" y1="1592" x2="2784.7" y2="1494.3"/>
	<line class="st8" x1="2933.3" y1="1612.9" x2="2765.3" y2="1515.3"/>
	<line class="st8" x1="2913.9" y1="1633.8" x2="2745.9" y2="1536.2"/>
	<line class="st8" x1="2894.5" y1="1654.8" x2="2726.5" y2="1557.1"/>
	<line class="st8" x1="3066.4" y1="1526.3" x2="3008.2" y2="1589.1"/>
	<line class="st8" x1="3042.4" y1="1512.4" x2="2984.2" y2="1575.2"/>
	<line class="st8" x1="3018.4" y1="1498.4" x2="2960.2" y2="1561.2"/>
	<line class="st8" x1="2994.4" y1="1484.5" x2="2936.2" y2="1547.3"/>
	<line class="st8" x1="2970.4" y1="1470.6" x2="2912.2" y2="1533.3"/>
	<line class="st8" x1="2946.4" y1="1456.6" x2="2888.2" y2="1519.4"/>
	<line class="st8" x1="2922.4" y1="1442.7" x2="2864.2" y2="1505.5"/>
	<line class="st8" x1="2898.4" y1="1428.7" x2="2840.2" y2="1491.5"/>
	<line class="st8" x1="3066.4" y1="1526.3" x2="2898.4" y2="1428.7"/>
	<line class="st8" x1="3047" y1="1547.3" x2="2879" y2="1449.7"/>
	<line class="st8" x1="3027.6" y1="1568.2" x2="2859.6" y2="1470.6"/>
	<line class="st8" x1="3008.2" y1="1589.1" x2="2840.2" y2="1491.5"/>
	<line class="st8" x1="2839.1" y1="1657.6" x2="2780.9" y2="1720.4"/>
	<line class="st8" x1="2815.1" y1="1643.6" x2="2756.9" y2="1706.4"/>
	<line class="st8" x1="2791.1" y1="1629.7" x2="2732.9" y2="1692.5"/>
	<line class="st8" x1="2767.1" y1="1615.7" x2="2708.9" y2="1678.5"/>
	<line class="st8" x1="2743.1" y1="1601.8" x2="2684.9" y2="1664.6"/>
	<line class="st8" x1="2719.1" y1="1587.8" x2="2660.9" y2="1650.6"/>
	<line class="st8" x1="2695.1" y1="1573.9" x2="2636.9" y2="1636.7"/>
	<line class="st8" x1="2671.1" y1="1559.9" x2="2612.9" y2="1622.8"/>
	<line class="st8" x1="2839.1" y1="1657.6" x2="2671.1" y2="1559.9"/>
	<line class="st8" x1="2819.7" y1="1678.5" x2="2651.7" y2="1580.9"/>
	<line class="st8" x1="2800.3" y1="1699.4" x2="2632.3" y2="1601.8"/>
	<line class="st8" x1="2780.9" y1="1720.4" x2="2612.9" y2="1622.8"/>
	
		<linearGradient id="SVGID_6_" gradientUnits="userSpaceOnUse" x1="2951.4099" y1="714.34" x2="2951.4099" y2="952.48" gradientTransform="matrix(1 0 0 -1 0 2476)">
		<stop  offset="0" style="stop-color:#DFE2E9"/>
		<stop  offset="1" style="stop-color:#EFF1F4"/>
	</linearGradient>
	<polygon class="st9" points="3122,1564.8 3121.9,1523.5 3066.4,1526.3 3008.2,1589.1 3008.2,1589.1 2952.7,1591.9 2894.5,1654.8 
		2894.5,1654.8 2839.1,1657.6 2780.9,1720.4 2781,1761.7 2894.6,1696 2894.6,1696 3008.3,1630.4 3008.3,1630.4 	"/>
	<g>
		<polygon class="st10" points="3121.9,1523.5 2953.9,1425.9 2898.4,1428.7 3066.4,1526.3 		"/>
		<polygon class="st10" points="3066.4,1526.3 2898.4,1428.7 2840.2,1491.5 3008.2,1589.1 		"/>
	</g>
	<polygon class="st11" points="3090.5,1582.9 3039.7,1612.3 3039.7,1584.9 3090.5,1555.5 	"/>
	<g>
		<polygon class="st10" points="3008.2,1589.1 2840.2,1491.5 2784.8,1494.3 2952.7,1591.9 		"/>
		<polygon class="st10" points="2952.7,1591.9 2784.8,1494.3 2726.5,1557.1 2894.5,1654.8 		"/>
	</g>
	<polygon class="st11" points="2976.9,1648.6 2926.1,1677.9 2926.1,1650.5 2976.9,1621.2 	"/>
	<polygon class="st10" points="2894.5,1654.8 2726.5,1557.1 2671.1,1559.9 2839.1,1657.6 	"/>
	
		<linearGradient id="SVGID_7_" gradientUnits="userSpaceOnUse" x1="2696.925" y1="714.34" x2="2696.925" y2="853.25" gradientTransform="matrix(1 0 0 -1 0 2476)">
		<stop  offset="0" style="stop-color:#CFD4DF"/>
		<stop  offset="1" style="stop-color:#DFE2E9"/>
	</linearGradient>
	<polygon class="st12" points="2780.9,1720.4 2612.9,1622.8 2613,1664 2781,1761.7 	"/>
	<polygon class="st10" points="2729.6,1703 2770.1,1726.6 2770.2,1743 2729.6,1719.4 	"/>
	<polygon class="st10" points="2717.2,1695.8 2717.2,1712.2 2676.6,1688.6 2676.6,1672.2 	"/>
	<polygon class="st10" points="2664.2,1681.4 2623.7,1657.8 2623.6,1641.4 2664.2,1665 	"/>
	<polygon class="st10" points="2839.1,1657.6 2671.1,1559.9 2612.9,1622.8 2780.9,1720.4 	"/>
	<polygon class="st11" points="2863.2,1714.2 2812.4,1743.5 2812.4,1716.1 2863.2,1686.8 	"/>
	
		<linearGradient id="SVGID_8_" gradientUnits="userSpaceOnUse" x1="2726.53" y1="901.455" x2="2952.73" y2="901.455" gradientTransform="matrix(1 0 0 -1 0 2476)">
		<stop  offset="0" style="stop-color:#FE5455"/>
		<stop  offset="1" style="stop-color:#FE7F80"/>
	</linearGradient>
	<polygon class="st13" points="2952.7,1592 2784.7,1494.3 2726.5,1557.1 2894.5,1654.8 	"/>
	<circle class="st5" cx="2909.2" cy="1598.9" r="3.1"/>
	<circle class="st5" cx="2885.2" cy="1585" r="3.1"/>
	<circle class="st5" cx="2861.2" cy="1571" r="3.1"/>
	<circle class="st5" cx="2837.2" cy="1557.1" r="3.1"/>
	<circle class="st5" cx="2813.1" cy="1543.1" r="3.1"/>
	<circle class="st5" cx="2789.1" cy="1529.2" r="3.1"/>
	<circle class="st5" cx="2769.8" cy="1550.1" r="3.1"/>
	<circle class="st5" cx="2793.8" cy="1564.1" r="3.1"/>
	<circle class="st5" cx="2817.9" cy="1578.1" r="3.1"/>
	<circle class="st5" cx="2841.9" cy="1592.1" r="3.1"/>
	<circle class="st5" cx="2865.9" cy="1606.1" r="3.1"/>
	<circle class="st5" cx="2889.9" cy="1620" r="3.1"/>
	<line class="st8" x1="2952.7" y1="1592" x2="2894.5" y2="1654.8"/>
	<line class="st8" x1="2928.7" y1="1578" x2="2870.5" y2="1640.8"/>
	<line class="st8" x1="2904.7" y1="1564.1" x2="2846.5" y2="1626.9"/>
	<line class="st8" x1="2880.7" y1="1550.1" x2="2822.5" y2="1612.9"/>
	<line class="st8" x1="2856.7" y1="1536.2" x2="2798.5" y2="1599"/>
	<line class="st8" x1="2832.7" y1="1522.2" x2="2774.5" y2="1585"/>
	<line class="st8" x1="2808.7" y1="1508.3" x2="2750.5" y2="1571.1"/>
	<line class="st8" x1="2784.7" y1="1494.3" x2="2726.5" y2="1557.1"/>
	<line class="st8" x1="2952.7" y1="1592" x2="2784.7" y2="1494.3"/>
	<line class="st8" x1="2933.3" y1="1612.9" x2="2765.3" y2="1515.3"/>
	<line class="st8" x1="2913.9" y1="1633.8" x2="2745.9" y2="1536.2"/>
	<line class="st8" x1="2894.5" y1="1654.8" x2="2726.5" y2="1557.1"/>
	
		<linearGradient id="SVGID_9_" gradientUnits="userSpaceOnUse" x1="2840.2" y1="967.075" x2="3066.4099" y2="967.075" gradientTransform="matrix(1 0 0 -1 0 2476)">
		<stop  offset="0" style="stop-color:#FE5455"/>
		<stop  offset="1" style="stop-color:#FE7F80"/>
	</linearGradient>
	<polygon class="st14" points="3066.4,1526.3 2898.4,1428.7 2840.2,1491.5 3008.2,1589.1 	"/>
	<circle class="st5" cx="3022.9" cy="1533.3" r="3.1"/>
	<circle class="st5" cx="2998.9" cy="1519.3" r="3.1"/>
	<circle class="st5" cx="2974.9" cy="1505.4" r="3.1"/>
	<circle class="st5" cx="2950.8" cy="1491.4" r="3.1"/>
	<circle class="st5" cx="2926.8" cy="1477.5" r="3.1"/>
	<circle class="st5" cx="2902.8" cy="1463.6" r="3.1"/>
	<circle class="st5" cx="2883.5" cy="1484.5" r="3.1"/>
	<circle class="st5" cx="2907.5" cy="1498.5" r="3.1"/>
	<circle class="st5" cx="2931.5" cy="1512.5" r="3.1"/>
	<circle class="st5" cx="2955.6" cy="1526.5" r="3.1"/>
	<circle class="st5" cx="2979.6" cy="1540.4" r="3.1"/>
	<circle class="st5" cx="3003.6" cy="1554.4" r="3.1"/>
	<line class="st8" x1="3066.4" y1="1526.3" x2="3008.2" y2="1589.1"/>
	<line class="st8" x1="3042.4" y1="1512.4" x2="2984.2" y2="1575.2"/>
	<line class="st8" x1="3018.4" y1="1498.4" x2="2960.2" y2="1561.2"/>
	<line class="st8" x1="2994.4" y1="1484.5" x2="2936.2" y2="1547.3"/>
	<line class="st8" x1="2970.4" y1="1470.6" x2="2912.2" y2="1533.3"/>
	<line class="st8" x1="2946.4" y1="1456.6" x2="2888.2" y2="1519.4"/>
	<line class="st8" x1="2922.4" y1="1442.7" x2="2864.2" y2="1505.5"/>
	<line class="st8" x1="2898.4" y1="1428.7" x2="2840.2" y2="1491.5"/>
	<line class="st8" x1="3066.4" y1="1526.3" x2="2898.4" y2="1428.7"/>
	<line class="st8" x1="3047" y1="1547.3" x2="2879" y2="1449.7"/>
	<line class="st8" x1="3027.6" y1="1568.2" x2="2859.6" y2="1470.6"/>
	<line class="st8" x1="3008.2" y1="1589.1" x2="2840.2" y2="1491.5"/>
	
		<linearGradient id="SVGID_10_" gradientUnits="userSpaceOnUse" x1="2612.8701" y1="835.835" x2="2839.0801" y2="835.835" gradientTransform="matrix(1 0 0 -1 0 2476)">
		<stop  offset="0" style="stop-color:#FE5455"/>
		<stop  offset="1" style="stop-color:#FE7F80"/>
	</linearGradient>
	<polygon class="st15" points="2839.1,1657.6 2671.1,1559.9 2612.9,1622.8 2780.9,1720.4 	"/>
	<circle class="st5" cx="2795.6" cy="1664.5" r="3.1"/>
	<circle class="st5" cx="2771.5" cy="1650.6" r="3.1"/>
	<circle class="st5" cx="2747.5" cy="1636.6" r="3.1"/>
	<circle class="st5" cx="2723.5" cy="1622.7" r="3.1"/>
	<circle class="st5" cx="2699.5" cy="1608.7" r="3.1"/>
	<circle class="st5" cx="2675.5" cy="1594.8" r="3.1"/>
	<circle class="st5" cx="2656.1" cy="1615.8" r="3.1"/>
	<circle class="st5" cx="2680.2" cy="1629.7" r="3.1"/>
	<circle class="st5" cx="2704.2" cy="1643.7" r="3.1"/>
	<circle class="st5" cx="2728.2" cy="1657.7" r="3.1"/>
	<circle class="st5" cx="2752.3" cy="1671.7" r="3.1"/>
	<circle class="st5" cx="2776.3" cy="1685.7" r="3.1"/>
	<line class="st8" x1="2839.1" y1="1657.6" x2="2780.9" y2="1720.4"/>
	<line class="st8" x1="2815.1" y1="1643.6" x2="2756.9" y2="1706.4"/>
	<line class="st8" x1="2791.1" y1="1629.7" x2="2732.9" y2="1692.5"/>
	<line class="st8" x1="2767.1" y1="1615.7" x2="2708.9" y2="1678.5"/>
	<line class="st8" x1="2743.1" y1="1601.8" x2="2684.9" y2="1664.6"/>
	<line class="st8" x1="2719.1" y1="1587.8" x2="2660.9" y2="1650.6"/>
	<line class="st8" x1="2695.1" y1="1573.9" x2="2636.9" y2="1636.7"/>
	<line class="st8" x1="2671.1" y1="1559.9" x2="2612.9" y2="1622.8"/>
	<line class="st8" x1="2839.1" y1="1657.6" x2="2671.1" y2="1559.9"/>
	<line class="st8" x1="2819.7" y1="1678.5" x2="2651.7" y2="1580.9"/>
	<line class="st8" x1="2800.3" y1="1699.4" x2="2632.3" y2="1601.8"/>
	<line class="st8" x1="2780.9" y1="1720.4" x2="2612.9" y2="1622.8"/>
	
		<linearGradient id="SVGID_11_" gradientUnits="userSpaceOnUse" x1="2801.01" y1="1121.83" x2="2873.74" y2="1121.83" gradientTransform="matrix(1 0 0 -1 0 2476)">
		<stop  offset="0" style="stop-color:#FE764A"/>
		<stop  offset="1" style="stop-color:#FE9877"/>
	</linearGradient>
	<polygon class="st16" points="2801,1359.7 2846.7,1333.3 2873.7,1348.7 2828.1,1375.1 	"/>
	<path class="st17" d="M2846.7,1335.6l23,13.1l-41.7,24l-23-13.1L2846.7,1335.6 M2846.7,1330.9l-49.7,28.7l31.1,17.7l49.7-28.7
		L2846.7,1330.9L2846.7,1330.9z"/>
	
		<linearGradient id="SVGID_12_" gradientUnits="userSpaceOnUse" x1="2852.915" y1="1060.39" x2="2852.915" y2="1127.33" gradientTransform="matrix(1 0 0 -1 0 2476)">
		<stop  offset="0" style="stop-color:#FE764A"/>
		<stop  offset="1" style="stop-color:#FEBAA4"/>
	</linearGradient>
	<polygon class="st18" points="2828.1,1377.4 2828.1,1415.6 2877.8,1386.9 2877.8,1348.7 	"/>
	
		<linearGradient id="SVGID_13_" gradientUnits="userSpaceOnUse" x1="2812.385" y1="1060.39" x2="2812.385" y2="1116.3199" gradientTransform="matrix(1 0 0 -1 0 2476)">
		<stop  offset="0" style="stop-color:#FE764A"/>
		<stop  offset="1" style="stop-color:#FE9877"/>
	</linearGradient>
	<polygon class="st19" points="2797,1359.7 2796.7,1397.8 2828.1,1415.6 2828.1,1377.4 	"/>
	<polygon class="st5" points="2848.1,1384.4 2854.6,1393.9 2853.9,1383.4 2857.8,1381.1 2850.5,1372.1 2851.9,1382.2 	"/>
	
		<linearGradient id="SVGID_14_" gradientUnits="userSpaceOnUse" x1="2848.3301" y1="1124.9299" x2="2848.3301" y2="1137.4199" gradientTransform="matrix(1 0 0 -1 0 2476)">
		<stop  offset="0" style="stop-color:#FE764A"/>
		<stop  offset="1" style="stop-color:#FEBAA4"/>
	</linearGradient>
	<path class="st20" d="M2854,1341.9L2854,1341.9c0-1.8-2.5-3.3-5.7-3.3s-5.7,1.5-5.7,3.3l0,0l0,0v5.9c0,1.8,2.5,3.3,5.7,3.3
		s5.7-1.5,5.7-3.3V1341.9z"/>
	
		<linearGradient id="SVGID_15_" gradientUnits="userSpaceOnUse" x1="2826.4302" y1="1112.9199" x2="2826.4302" y2="1125.41" gradientTransform="matrix(1 0 0 -1 0 2476)">
		<stop  offset="0" style="stop-color:#FE764A"/>
		<stop  offset="1" style="stop-color:#FEBAA4"/>
	</linearGradient>
	<path class="st21" d="M2832.1,1353.9L2832.1,1353.9c0-1.9-2.5-3.3-5.7-3.3s-5.7,1.5-5.7,3.3v0.1l0,0v5.9c0,1.8,2.5,3.3,5.7,3.3
		s5.7-1.5,5.7-3.3V1353.9z"/>
	<line class="st22" x1="2952.7" y1="1592" x2="2894.5" y2="1654.8"/>
	<line class="st22" x1="2928.7" y1="1578" x2="2870.5" y2="1640.8"/>
	<line class="st22" x1="2904.7" y1="1564.1" x2="2846.5" y2="1626.9"/>
	<line class="st22" x1="2880.7" y1="1550.1" x2="2822.5" y2="1612.9"/>
	<line class="st22" x1="2856.7" y1="1536.2" x2="2798.5" y2="1599"/>
	<line class="st22" x1="2832.7" y1="1522.2" x2="2774.5" y2="1585"/>
	<line class="st22" x1="2808.7" y1="1508.3" x2="2750.5" y2="1571.1"/>
	<line class="st22" x1="2784.7" y1="1494.3" x2="2726.5" y2="1557.1"/>
	<line class="st22" x1="2952.7" y1="1592" x2="2784.7" y2="1494.3"/>
	<line class="st22" x1="2933.3" y1="1612.9" x2="2765.3" y2="1515.3"/>
	<line class="st22" x1="2913.9" y1="1633.8" x2="2745.9" y2="1536.2"/>
	<line class="st22" x1="2894.5" y1="1654.8" x2="2726.5" y2="1557.1"/>
	<line class="st22" x1="3066.4" y1="1526.3" x2="3008.2" y2="1589.1"/>
	<line class="st22" x1="3042.4" y1="1512.4" x2="2984.2" y2="1575.2"/>
	<line class="st22" x1="3018.4" y1="1498.4" x2="2960.2" y2="1561.2"/>
	<line class="st22" x1="2994.4" y1="1484.5" x2="2936.2" y2="1547.3"/>
	<line class="st22" x1="2970.4" y1="1470.6" x2="2912.2" y2="1533.3"/>
	<line class="st22" x1="2946.4" y1="1456.6" x2="2888.2" y2="1519.4"/>
	<line class="st22" x1="2922.4" y1="1442.7" x2="2864.2" y2="1505.5"/>
	<line class="st22" x1="2898.4" y1="1428.7" x2="2840.2" y2="1491.5"/>
	<line class="st22" x1="3066.4" y1="1526.3" x2="2898.4" y2="1428.7"/>
	<line class="st22" x1="3047" y1="1547.3" x2="2879" y2="1449.7"/>
	<line class="st22" x1="3027.6" y1="1568.2" x2="2859.6" y2="1470.6"/>
	<line class="st22" x1="3008.2" y1="1589.1" x2="2840.2" y2="1491.5"/>
	<line class="st22" x1="2839.1" y1="1657.6" x2="2780.9" y2="1720.4"/>
	<line class="st22" x1="2815.1" y1="1643.6" x2="2756.9" y2="1706.4"/>
	<line class="st22" x1="2791.1" y1="1629.7" x2="2732.9" y2="1692.5"/>
	<line class="st22" x1="2767.1" y1="1615.7" x2="2708.9" y2="1678.5"/>
	<line class="st22" x1="2743.1" y1="1601.8" x2="2684.9" y2="1664.6"/>
	<line class="st22" x1="2719.1" y1="1587.8" x2="2660.9" y2="1650.6"/>
	<line class="st22" x1="2695.1" y1="1573.9" x2="2636.9" y2="1636.7"/>
	<line class="st22" x1="2671.1" y1="1559.9" x2="2612.9" y2="1622.8"/>
	<line class="st22" x1="2839.1" y1="1657.6" x2="2671.1" y2="1559.9"/>
	<line class="st22" x1="2819.7" y1="1678.5" x2="2651.7" y2="1580.9"/>
	<line class="st22" x1="2800.3" y1="1699.4" x2="2632.3" y2="1601.8"/>
	<line class="st22" x1="2780.9" y1="1720.4" x2="2612.9" y2="1622.8"/>
	<g>
		<polygon class="st10" points="3066.4,1526.3 2898.4,1428.7 2840.2,1491.5 3008.2,1589.1 		"/>
	</g>
	<g>
		<polygon class="st10" points="2952.7,1591.9 2784.8,1494.3 2726.5,1557.1 2894.5,1654.8 		"/>
	</g>
	<polygon class="st10" points="2839.1,1657.6 2671.1,1559.9 2612.9,1622.8 2780.9,1720.4 	"/>
	
		<linearGradient id="SVGID_16_" gradientUnits="userSpaceOnUse" x1="2726.53" y1="901.455" x2="2952.73" y2="901.455" gradientTransform="matrix(1 0 0 -1 0 2476)">
		<stop  offset="0" style="stop-color:#FE764A"/>
		<stop  offset="1" style="stop-color:#FE9877"/>
	</linearGradient>
	<polygon class="st23" points="2952.7,1592 2784.7,1494.3 2726.5,1557.1 2894.5,1654.8 	"/>
	<circle class="st5" cx="2909.2" cy="1598.9" r="3.1"/>
	<circle class="st5" cx="2885.2" cy="1585" r="3.1"/>
	<circle class="st5" cx="2861.2" cy="1571" r="3.1"/>
	<circle class="st5" cx="2837.2" cy="1557.1" r="3.1"/>
	<circle class="st5" cx="2813.1" cy="1543.1" r="3.1"/>
	<circle class="st5" cx="2789.1" cy="1529.2" r="3.1"/>
	<circle class="st5" cx="2769.8" cy="1550.1" r="3.1"/>
	<circle class="st5" cx="2793.8" cy="1564.1" r="3.1"/>
	<circle class="st5" cx="2817.9" cy="1578.1" r="3.1"/>
	<circle class="st5" cx="2841.9" cy="1592.1" r="3.1"/>
	<circle class="st5" cx="2865.9" cy="1606.1" r="3.1"/>
	<circle class="st5" cx="2889.9" cy="1620" r="3.1"/>
	<line class="st22" x1="2952.7" y1="1592" x2="2894.5" y2="1654.8"/>
	<line class="st22" x1="2928.7" y1="1578" x2="2870.5" y2="1640.8"/>
	<line class="st22" x1="2904.7" y1="1564.1" x2="2846.5" y2="1626.9"/>
	<line class="st22" x1="2880.7" y1="1550.1" x2="2822.5" y2="1612.9"/>
	<line class="st22" x1="2856.7" y1="1536.2" x2="2798.5" y2="1599"/>
	<line class="st22" x1="2832.7" y1="1522.2" x2="2774.5" y2="1585"/>
	<line class="st22" x1="2808.7" y1="1508.3" x2="2750.5" y2="1571.1"/>
	<line class="st22" x1="2784.7" y1="1494.3" x2="2726.5" y2="1557.1"/>
	<line class="st22" x1="2952.7" y1="1592" x2="2784.7" y2="1494.3"/>
	<line class="st22" x1="2933.3" y1="1612.9" x2="2765.3" y2="1515.3"/>
	<line class="st22" x1="2913.9" y1="1633.8" x2="2745.9" y2="1536.2"/>
	<line class="st22" x1="2894.5" y1="1654.8" x2="2726.5" y2="1557.1"/>
	
		<linearGradient id="SVGID_17_" gradientUnits="userSpaceOnUse" x1="2840.2" y1="967.075" x2="3066.4099" y2="967.075" gradientTransform="matrix(1 0 0 -1 0 2476)">
		<stop  offset="0" style="stop-color:#FE764A"/>
		<stop  offset="1" style="stop-color:#FE9877"/>
	</linearGradient>
	<polygon class="st24" points="3066.4,1526.3 2898.4,1428.7 2840.2,1491.5 3008.2,1589.1 	"/>
	<circle class="st5" cx="3022.9" cy="1533.3" r="3.1"/>
	<circle class="st5" cx="2998.9" cy="1519.3" r="3.1"/>
	<circle class="st5" cx="2974.9" cy="1505.4" r="3.1"/>
	<circle class="st5" cx="2950.8" cy="1491.4" r="3.1"/>
	<circle class="st5" cx="2926.8" cy="1477.5" r="3.1"/>
	<circle class="st5" cx="2902.8" cy="1463.6" r="3.1"/>
	<circle class="st5" cx="2883.5" cy="1484.5" r="3.1"/>
	<circle class="st5" cx="2907.5" cy="1498.5" r="3.1"/>
	<circle class="st5" cx="2931.5" cy="1512.5" r="3.1"/>
	<circle class="st5" cx="2955.6" cy="1526.5" r="3.1"/>
	<circle class="st5" cx="2979.6" cy="1540.4" r="3.1"/>
	<circle class="st5" cx="3003.6" cy="1554.4" r="3.1"/>
	<line class="st22" x1="3066.4" y1="1526.3" x2="3008.2" y2="1589.1"/>
	<line class="st22" x1="3042.4" y1="1512.4" x2="2984.2" y2="1575.2"/>
	<line class="st22" x1="3018.4" y1="1498.4" x2="2960.2" y2="1561.2"/>
	<line class="st22" x1="2994.4" y1="1484.5" x2="2936.2" y2="1547.3"/>
	<line class="st22" x1="2970.4" y1="1470.6" x2="2912.2" y2="1533.3"/>
	<line class="st22" x1="2946.4" y1="1456.6" x2="2888.2" y2="1519.4"/>
	<line class="st22" x1="2922.4" y1="1442.7" x2="2864.2" y2="1505.5"/>
	<line class="st22" x1="2898.4" y1="1428.7" x2="2840.2" y2="1491.5"/>
	<line class="st22" x1="3066.4" y1="1526.3" x2="2898.4" y2="1428.7"/>
	<line class="st22" x1="3047" y1="1547.3" x2="2879" y2="1449.7"/>
	<line class="st22" x1="3027.6" y1="1568.2" x2="2859.6" y2="1470.6"/>
	<line class="st22" x1="3008.2" y1="1589.1" x2="2840.2" y2="1491.5"/>
	
		<linearGradient id="SVGID_18_" gradientUnits="userSpaceOnUse" x1="2612.8701" y1="835.835" x2="2839.0801" y2="835.835" gradientTransform="matrix(1 0 0 -1 0 2476)">
		<stop  offset="0" style="stop-color:#FE764A"/>
		<stop  offset="1" style="stop-color:#FE9877"/>
	</linearGradient>
	<polygon class="st25" points="2839.1,1657.6 2671.1,1559.9 2612.9,1622.8 2780.9,1720.4 	"/>
	<circle class="st5" cx="2795.6" cy="1664.5" r="3.1"/>
	<circle class="st5" cx="2771.5" cy="1650.6" r="3.1"/>
	<circle class="st5" cx="2747.5" cy="1636.6" r="3.1"/>
	<circle class="st5" cx="2723.5" cy="1622.7" r="3.1"/>
	<circle class="st5" cx="2699.5" cy="1608.7" r="3.1"/>
	<circle class="st5" cx="2675.5" cy="1594.8" r="3.1"/>
	<circle class="st5" cx="2656.1" cy="1615.8" r="3.1"/>
	<circle class="st5" cx="2680.2" cy="1629.7" r="3.1"/>
	<circle class="st5" cx="2704.2" cy="1643.7" r="3.1"/>
	<circle class="st5" cx="2728.2" cy="1657.7" r="3.1"/>
	<circle class="st5" cx="2752.3" cy="1671.7" r="3.1"/>
	<circle class="st5" cx="2776.3" cy="1685.7" r="3.1"/>
	<line class="st22" x1="2839.1" y1="1657.6" x2="2780.9" y2="1720.4"/>
	<line class="st22" x1="2815.1" y1="1643.6" x2="2756.9" y2="1706.4"/>
	<line class="st22" x1="2791.1" y1="1629.7" x2="2732.9" y2="1692.5"/>
	<line class="st22" x1="2767.1" y1="1615.7" x2="2708.9" y2="1678.5"/>
	<line class="st22" x1="2743.1" y1="1601.8" x2="2684.9" y2="1664.6"/>
	<line class="st22" x1="2719.1" y1="1587.8" x2="2660.9" y2="1650.6"/>
	<line class="st22" x1="2695.1" y1="1573.9" x2="2636.9" y2="1636.7"/>
	<line class="st22" x1="2671.1" y1="1559.9" x2="2612.9" y2="1622.8"/>
	<line class="st22" x1="2839.1" y1="1657.6" x2="2671.1" y2="1559.9"/>
	<line class="st22" x1="2819.7" y1="1678.5" x2="2651.7" y2="1580.9"/>
	<line class="st22" x1="2800.3" y1="1699.4" x2="2632.3" y2="1601.8"/>
	<line class="st22" x1="2780.9" y1="1720.4" x2="2612.9" y2="1622.8"/>
	
		<linearGradient id="SVGID_19_" gradientUnits="userSpaceOnUse" x1="2805.7197" y1="448.4299" x2="2805.7197" y2="1728.1399" gradientTransform="matrix(1 0 0 -1 0 2476)">
		<stop  offset="0" style="stop-color:#FE5455"/>
		<stop  offset="1" style="stop-color:#FE5455;stop-opacity:0"/>
	</linearGradient>
	<path class="st26" d="M3407.2,775.5l-47.9-27.7l-1295.9,748.2V1756l470.4,271.6l299.6-172.9l573.9-331.4
		c14.3-8.2,27.9-17.7,40.6-28.2c2.5-2.1,4.9-4.2,7.3-6.3s4.7-4.3,7-6.5c5.7-5.5,11.2-11.1,16.3-17c2.1-2.3,4.1-4.7,6.1-7.1
		c9.7-11.8,18.5-24.4,26.1-37.7c1.5-2.6,3-5.3,4.4-7.9c3.5-6.7,6.8-13.4,9.8-20.3c1.2-2.7,2.3-5.5,3.4-8.3c2.8-7,5.2-14,7.4-21.2
		c0.9-2.8,1.7-5.7,2.5-8.6s1.5-5.8,2.2-8.7c0.4-1.7,0.8-3.4,1.2-5.1c0.6-2.7,1.1-5.3,1.6-8c0.6-2.9,1.1-5.8,1.5-8.8
		c0.7-4.4,1.2-8.8,1.8-13.2c0.5-4.4,0.9-8.9,1.1-13.3c0.4-5.9,0.5-11.8,0.6-17.8v-259.9C3548.1,924.6,3501.1,829.7,3407.2,775.5z"/>
</g>
</svg>
