<?xml version="1.0" encoding="utf-8"?>
<!-- Generator: Adobe Illustrator 23.0.4, SVG Export Plug-In . SVG Version: 6.00 Build 0)  -->
<svg version="1.1" id="Layer_1" xmlns="http://www.w3.org/2000/svg" xmlns:xlink="http://www.w3.org/1999/xlink" x="0px" y="0px"
	 viewBox="0 0 3918.2 2475.3" style="enable-background:new 0 0 3918.2 2475.3;" xml:space="preserve">
<style type="text/css">
	.st0{opacity:0.15;fill:url(#SVGID_1_);enable-background:new    ;}
</style>
<title>DDS_ampx_secuencia_svg_02 [Recovered]</title>
<g id="elements">
	
		<linearGradient id="SVGID_1_" gradientUnits="userSpaceOnUse" x1="2805.7197" y1="448.4299" x2="2805.7197" y2="1728.1399" gradientTransform="matrix(1 0 0 -1 0 2476)">
		<stop  offset="0" style="stop-color:#FE5455"/>
		<stop  offset="1" style="stop-color:#FE5455;stop-opacity:0"/>
	</linearGradient>
	<path class="st0" d="M3407.2,775.5l-47.9-27.7l-1295.9,748.2V1756l470.4,271.6l299.6-172.9l573.9-331.4
		c14.3-8.2,27.9-17.7,40.6-28.2c2.5-2.1,4.9-4.2,7.3-6.3s4.7-4.3,7-6.5c5.7-5.5,11.2-11.1,16.3-17c2.1-2.3,4.1-4.7,6.1-7.1
		c9.7-11.8,18.5-24.4,26.1-37.7c1.5-2.6,3-5.3,4.4-7.9c3.5-6.7,6.8-13.4,9.8-20.3c1.2-2.7,2.3-5.5,3.4-8.3c2.8-7,5.2-14,7.4-21.2
		c0.9-2.8,1.7-5.7,2.5-8.6s1.5-5.8,2.2-8.7c0.4-1.7,0.8-3.4,1.2-5.1c0.6-2.7,1.1-5.3,1.6-8c0.6-2.9,1.1-5.8,1.5-8.8
		c0.7-4.4,1.2-8.8,1.8-13.2c0.5-4.4,0.9-8.9,1.1-13.3c0.4-5.9,0.5-11.8,0.6-17.8v-259.9C3548.1,924.6,3501.1,829.7,3407.2,775.5z"/>
</g>
</svg>
