<?xml version="1.0" encoding="utf-8"?>
<!-- Generator: Adobe Illustrator 23.0.3, SVG Export Plug-In . SVG Version: 6.00 Build 0)  -->
<svg version="1.1" id="Layer_1" xmlns="http://www.w3.org/2000/svg" xmlns:xlink="http://www.w3.org/1999/xlink" x="0px" y="0px"
	 viewBox="0 0 3918.2 2475.3" style="enable-background:new 0 0 3918.2 2475.3;" xml:space="preserve">
<style type="text/css">
	.st0{fill:url(#SVGID_1_);}
	.st1{fill:url(#SVGID_2_);}
	.st2{fill:#FFD4D4;}
	.st3{fill:url(#SVGID_3_);}
	.st4{fill:url(#SVGID_4_);}
	.st5{fill:url(#SVGID_5_);}
	.st6{fill:url(#SVGID_6_);}
</style>
<title>Artboard 1 copy 3</title>
<g id="elements">
	
		<linearGradient id="SVGID_1_" gradientUnits="userSpaceOnUse" x1="1083.3" y1="4347.0024" x2="1156.4" y2="4347.0024" gradientTransform="matrix(1 0 0 1 0 -3428.1758)">
		<stop  offset="0" style="stop-color:#FE7F80"/>
		<stop  offset="1" style="stop-color:#FEA9AA"/>
	</linearGradient>
	<path class="st0" d="M1156.3,908.8c0.1-1.2,0.1-2.4,0.1-3.6c0-7.2-1.9-12.7-5.2-16.4l0,0c-0.5-0.6-1.1-1.1-1.7-1.6l0,0l-1.9-1.3
		l0,0l-12.9-7.5c-5.4-3.2-13-2.8-21.4,2.1c-16.6,9.6-30,32.8-30,52c0,9.5,3.4,16.1,8.8,19.3l12.9,7.5l-0.4-0.3
		c3.5,2.2,7.9,2.9,12.9,1.8l0,0c3.1-0.8,6.2-2,9-3.6c10.3-6,19.5-17.4,24.9-29.7l0,0c1-2.4,1.9-4.9,2.7-7.4l0,0
		c0.4-1.3,0.7-2.6,1-3.8l0,0C1155.7,913.9,1156.1,911.4,1156.3,908.8L1156.3,908.8z"/>
	
		<linearGradient id="SVGID_2_" gradientUnits="userSpaceOnUse" x1="1096.1993" y1="4350.7759" x2="1156.3999" y2="4350.7759" gradientTransform="matrix(1 0 0 1 0 -3428.1758)">
		<stop  offset="0" style="stop-color:#FE5455"/>
		<stop  offset="1" style="stop-color:#FE7F80"/>
	</linearGradient>
	<path class="st1" d="M1126.2,888c16.6-9.6,30.2-1.9,30.2,17.2s-13.4,42.4-30,52s-30.1,1.9-30.2-17.2S1109.6,897.6,1126.2,888z"/>
	<path class="st2" d="M1134.3,919.2c1.2,0.8,1.8,2.1,1.8,4.1c0,1.1-0.2,2.2-0.5,3.2c-0.3,1.2-0.8,2.3-1.4,3.3
		c-0.6,1.2-1.3,2.2-2.2,3.2c-0.9,1.1-2,2.1-3.2,2.9v4.5l-3,1.8v-4.6c-1.1,0.6-2.3,0.9-3.5,0.9c-0.9,0.1-1.8-0.1-2.5-0.6
		c-0.7-0.4-1.2-1-1.6-1.7c-0.4-0.8-0.7-1.6-0.7-2.5l3.6-3.4c0,0.6,0.2,1.3,0.4,1.9c0.2,0.5,0.5,0.9,0.9,1.3c0.4,0.3,0.9,0.5,1.4,0.6
		c0.7,0,1.4-0.1,2-0.4v-9.1l-1,0.3c-2,0.7-3.5,0.7-4.6,0s-1.7-2.1-1.8-4.3c0-1.1,0.2-2.2,0.6-3.3c0.3-1.2,0.8-2.3,1.5-3.4
		c0.6-1.2,1.4-2.2,2.3-3.2c0.9-1,1.8-1.8,2.9-2.6v-4.6l3-1.7v4.6c0.9-0.4,2-0.7,3-0.7c0.7,0,1.4,0.2,2.1,0.5c0.5,0.4,1,0.8,1.3,1.4
		c0.3,0.6,0.6,1.2,0.8,1.8l-3.5,3.5c0-0.4-0.1-0.8-0.3-1.1c-0.2-0.4-0.5-0.7-0.8-1c-0.3-0.3-0.7-0.5-1.1-0.5c-0.5-0.1-1-0.1-1.5,0v9
		l0.6-0.2C1131.4,918.4,1133.1,918.4,1134.3,919.2z M1131.5,928.9c0.5-1,0.8-2.1,0.8-3.2c0.1-0.8-0.2-1.5-0.8-2
		c-0.9-0.5-1.9-0.5-2.8-0.1v8.5c1.1-0.8,2.1-1.9,2.7-3.2 M1125.7,920.2v-8.3c-1.1,0.8-2,1.8-2.6,3c-0.6,1-0.9,2.1-0.9,3.3
		c-0.1,0.8,0.2,1.5,0.8,2C1123.5,920.7,1124.4,920.6,1125.7,920.2"/>
	
		<linearGradient id="SVGID_3_" gradientUnits="userSpaceOnUse" x1="2197.0005" y1="4617.1025" x2="2270" y2="4617.1025" gradientTransform="matrix(1 0 0 1 0 -3428.1758)">
		<stop  offset="0" style="stop-color:#FE7F80"/>
		<stop  offset="1" style="stop-color:#FEA9AA"/>
	</linearGradient>
	<path class="st3" d="M2269.9,1178.9c0.1-1.2,0.1-2.4,0.1-3.6c0-7.2-1.9-12.7-5.2-16.4l0,0c-0.5-0.6-1.1-1.1-1.7-1.6l0,0l-1.9-1.3
		h0.1l-12.9-7.5c-5.5-3.2-13-2.8-21.4,2.1c-16.7,9.6-30,32.8-30,52c0,9.4,3.3,16.1,8.7,19.3l12.9,7.5l-0.4-0.3
		c3.5,2.2,7.9,2.9,12.9,1.8l0,0c3.2-0.8,6.2-2,9-3.6c10.4-6,19.5-17.4,24.9-29.7l0,0c1.1-2.4,2-4.9,2.8-7.5l0,0l1-3.7l0,0
		C2269.3,1183.9,2269.7,1181.4,2269.9,1178.9L2269.9,1178.9z"/>
	
		<linearGradient id="SVGID_4_" gradientUnits="userSpaceOnUse" x1="2209.7996" y1="4620.876" x2="2270" y2="4620.876" gradientTransform="matrix(1 0 0 1 0 -3428.1758)">
		<stop  offset="0" style="stop-color:#FE5455"/>
		<stop  offset="1" style="stop-color:#FE7F80"/>
	</linearGradient>
	<path class="st4" d="M2239.8,1158.1c16.7-9.6,30.2-1.9,30.2,17.2s-13.3,42.4-30,52s-30.1,1.9-30.2-17.2
		S2223.2,1167.7,2239.8,1158.1z"/>
	<path class="st2" d="M2247.9,1189.3c1.3,1,2,2.5,1.8,4.1c0,1.1-0.2,2.2-0.5,3.2c-0.3,1.2-0.8,2.3-1.4,3.3c-0.6,1.2-1.3,2.2-2.2,3.2
		c-1,1.1-2,2-3.2,2.9v4.6l-3,1.7v-4.6c-1.1,0.6-2.3,0.9-3.5,1c-0.9,0-1.7-0.2-2.5-0.6c-0.7-0.4-1.3-1-1.6-1.8
		c-0.4-0.7-0.7-1.6-0.8-2.4l3.6-3.4c0.1,0.6,0.2,1.2,0.5,1.8c0.2,0.5,0.4,0.9,0.8,1.3c0.4,0.4,0.9,0.6,1.5,0.6c0.7,0.1,1.4,0,2-0.3
		v-9.2l-1,0.4c-2,0.6-3.5,0.6-4.6,0s-1.7-2.2-1.7-4.3c0-1.1,0.1-2.2,0.5-3.3c0.3-1.2,0.8-2.4,1.5-3.4c0.6-1.2,1.4-2.2,2.3-3.2
		c0.9-1,1.8-1.9,2.9-2.7v-4.6l3-1.7v4.7c0.9-0.5,2-0.7,3-0.8c0.7,0,1.5,0.2,2.1,0.6c0.6,0.3,1,0.8,1.3,1.4c0.3,0.6,0.6,1.2,0.7,1.8
		l-3.4,3.4l-0.3-1.1c-0.2-0.4-0.5-0.7-0.8-1l-1.1-0.5c-0.5-0.1-1-0.1-1.5,0v9l0.6-0.2C2245,1188.5,2246.7,1188.5,2247.9,1189.3z
		 M2245.1,1199c0.5-1,0.8-2.1,0.9-3.2c0-0.8-0.3-1.5-0.9-2c-0.9-0.5-1.9-0.5-2.8-0.1v8.5C2243.5,1201.4,2244.4,1200.3,2245.1,1199
		 M2239.3,1190.3v-8.3c-1.1,0.8-2,1.8-2.6,3c-0.6,1-0.9,2.1-0.9,3.3c-0.1,0.8,0.2,1.5,0.8,2
		C2237.1,1190.8,2238,1190.7,2239.3,1190.3"/>
</g>
<g id="elements_4_">
	
		<linearGradient id="SVGID_5_" gradientUnits="userSpaceOnUse" x1="1995.0901" y1="3750.9167" x2="2068.1899" y2="3750.9167" gradientTransform="matrix(1 0 0 1 0 -3428.1758)">
		<stop  offset="0" style="stop-color:#FE7F80"/>
		<stop  offset="1" style="stop-color:#FEA9AA"/>
	</linearGradient>
	<path class="st5" d="M2068.1,312.7c0.1-1.2,0.1-2.4,0.1-3.6c0-7.2-1.9-12.7-5.2-16.4l0,0c-0.5-0.6-1.1-1.1-1.7-1.6l0,0l-1.9-1.3
		l0,0l-12.9-7.5c-5.4-3.2-13-2.8-21.4,2.1c-16.6,9.6-30,32.8-30,52c0,9.5,3.4,16.1,8.8,19.3l12.9,7.5l-0.4-0.3
		c3.5,2.2,7.9,2.9,12.9,1.8l0,0c3.1-0.8,6.2-2,9-3.6c10.3-6,19.5-17.4,24.9-29.7l0,0c1-2.4,1.9-4.9,2.7-7.4l0,0
		c0.4-1.3,0.7-2.6,1-3.8l0,0C2067.5,317.8,2067.9,315.3,2068.1,312.7L2068.1,312.7z"/>
	
		<linearGradient id="SVGID_6_" gradientUnits="userSpaceOnUse" x1="2007.9894" y1="3754.6904" x2="2068.1899" y2="3754.6904" gradientTransform="matrix(1 0 0 1 0 -3428.1758)">
		<stop  offset="0" style="stop-color:#FE5455"/>
		<stop  offset="1" style="stop-color:#FE7F80"/>
	</linearGradient>
	<path class="st6" d="M2038,291.9c16.6-9.6,30.2-1.9,30.2,17.2s-13.4,42.4-30,52c-16.6,9.6-30.1,1.9-30.2-17.2
		C2007.9,324.8,2021.4,301.5,2038,291.9z"/>
	<path class="st2" d="M2046.1,323.1c1.2,0.8,1.8,2.1,1.8,4.1c0,1.1-0.2,2.2-0.5,3.2c-0.3,1.2-0.8,2.3-1.4,3.3
		c-0.6,1.2-1.3,2.2-2.2,3.2c-0.9,1.1-2,2.1-3.2,2.9v4.5l-3,1.8v-4.6c-1.1,0.6-2.3,0.9-3.5,0.9c-0.9,0.1-1.8-0.1-2.5-0.6
		c-0.7-0.4-1.2-1-1.6-1.7c-0.4-0.8-0.7-1.6-0.7-2.5l3.6-3.4c0,0.6,0.2,1.3,0.4,1.9c0.2,0.5,0.5,0.9,0.9,1.3c0.4,0.3,0.9,0.5,1.4,0.6
		c0.7,0,1.4-0.1,2-0.4v-9.1l-1,0.3c-2,0.7-3.5,0.7-4.6,0c-1.1-0.7-1.7-2.1-1.8-4.3c0-1.1,0.2-2.2,0.6-3.3c0.3-1.2,0.8-2.3,1.5-3.4
		c0.6-1.2,1.4-2.2,2.3-3.2c0.9-1,1.8-1.8,2.9-2.6v-4.6l3-1.7v4.6c0.9-0.4,2-0.7,3-0.7c0.7,0,1.4,0.2,2.1,0.5c0.5,0.4,1,0.8,1.3,1.4
		c0.3,0.6,0.6,1.2,0.8,1.8l-3.5,3.5c0-0.4-0.1-0.8-0.3-1.1c-0.2-0.4-0.5-0.7-0.8-1c-0.3-0.3-0.7-0.5-1.1-0.5c-0.5-0.1-1-0.1-1.5,0v9
		l0.6-0.2C2043.2,322.3,2044.9,322.3,2046.1,323.1z M2043.3,332.8c0.5-1,0.8-2.1,0.8-3.2c0.1-0.8-0.2-1.5-0.8-2
		c-0.9-0.5-1.9-0.5-2.8-0.1v8.5c1.1-0.8,2.1-1.9,2.7-3.2 M2037.5,324.1v-8.3c-1.1,0.8-2,1.8-2.6,3c-0.6,1-0.9,2.1-0.9,3.3
		c-0.1,0.8,0.2,1.5,0.8,2C2035.3,324.6,2036.2,324.5,2037.5,324.1"/>
</g>
</svg>
