<?xml version="1.0" encoding="utf-8"?>
<!-- Generator: Adobe Illustrator 23.0.4, SVG Export Plug-In . SVG Version: 6.00 Build 0)  -->
<svg version="1.1" id="Layer_1" xmlns="http://www.w3.org/2000/svg" xmlns:xlink="http://www.w3.org/1999/xlink" x="0px" y="0px"
	 viewBox="0 0 3918.2 2475.3" style="enable-background:new 0 0 3918.2 2475.3;" xml:space="preserve">
<style type="text/css">
	.st0{fill:url(#SVGID_1_);}
	.st1{fill:url(#SVGID_2_);}
	.st2{fill:#FFD4D4;}
	.st3{fill:url(#SVGID_3_);}
	.st4{fill:url(#SVGID_4_);}
	.st5{fill:url(#SVGID_5_);}
	.st6{fill:url(#SVGID_6_);}
	.st7{fill:url(#SVGID_7_);}
	.st8{fill:url(#SVGID_8_);}
</style>
<title>Artboard 1</title>
<g id="elements">
	
		<linearGradient id="SVGID_1_" gradientUnits="userSpaceOnUse" x1="1100.9999" y1="-148.0346" x2="1174.1332" y2="-148.0346" gradientTransform="matrix(1 0 0 1 0 1393.28)">
		<stop  offset="0" style="stop-color:#FE7F80"/>
		<stop  offset="1" style="stop-color:#FEA9AA"/>
	</linearGradient>
	<path class="st0" d="M1174,1235.2c0.1-1.2,0.2-2.4,0.1-3.6c0-7.2-1.9-12.7-5.1-16.4l0,0l-1.8-1.6l0,0c-0.6-0.5-1.2-1-1.9-1.3l0,0
		l-12.9-7.5c-5.4-3.2-13-2.8-21.4,2.1c-16.6,9.6-30,32.8-30,52c0,9.4,3.4,16.1,8.8,19.3l12.9,7.5l-0.5-0.3c3.9,2.3,8.6,2.9,13,1.8
		l0,0c3.1-0.8,6.1-2,8.9-3.6c10.4-6,19.5-17.4,24.9-29.7l0,0c1.1-2.4,2-4.9,2.8-7.5l0,0l1-3.7l0,0
		C1173.3,1240.2,1173.7,1237.8,1174,1235.2L1174,1235.2z"/>
	
		<linearGradient id="SVGID_2_" gradientUnits="userSpaceOnUse" x1="1113.8994" y1="-144.28" x2="1174.1" y2="-144.28" gradientTransform="matrix(1 0 0 1 0 1393.28)">
		<stop  offset="0" style="stop-color:#FE5455"/>
		<stop  offset="1" style="stop-color:#FE7F80"/>
	</linearGradient>
	<path class="st1" d="M1143.9,1214.4c16.6-9.6,30.2-1.9,30.2,17.2s-13.4,42.4-30,52s-30.1,1.9-30.2-17.2S1127.3,1224,1143.9,1214.4z
		"/>
	<path class="st2" d="M1152,1245.6c1.2,0.8,1.8,2.1,1.8,4.1c0,1.1-0.2,2.2-0.5,3.2c-0.3,1.1-0.8,2.2-1.3,3.3
		c-0.7,1.1-1.5,2.2-2.3,3.2c-1,1.1-2,2-3.2,2.9v4.6l-3,1.7v-4.6c-1.1,0.6-2.3,0.9-3.5,0.9c-0.9,0.1-1.7-0.1-2.5-0.6
		c-0.7-0.4-1.3-1-1.6-1.7c-0.4-0.8-0.7-1.6-0.8-2.5l3.6-3.4c0.1,0.7,0.2,1.3,0.5,1.9c0.2,0.5,0.5,1,0.9,1.3c0.4,0.3,0.9,0.5,1.4,0.6
		c0.7,0,1.4-0.1,2-0.4v-9.1l-1,0.3c-2,0.7-3.5,0.7-4.7,0s-1.7-2.1-1.7-4.3c0-1.1,0.2-2.2,0.5-3.3c0.4-1.2,0.9-2.3,1.5-3.4
		c0.7-1.1,1.5-2.1,2.3-3.1c0.9-1,1.9-1.9,3-2.7v-4.6l3-1.7v4.6c0.9-0.4,2-0.7,3-0.7c0.7,0,1.4,0.2,2.1,0.5c0.5,0.4,1,0.8,1.3,1.4
		c0.3,0.6,0.5,1.2,0.7,1.8l-3.4,3.5c-0.1-0.4-0.2-0.8-0.4-1.1c-0.1-0.4-0.4-0.7-0.7-1c-0.3-0.3-0.7-0.5-1.1-0.6
		c-0.5-0.1-1,0-1.5,0.1v9l0.5-0.2C1149.1,1244.8,1150.8,1244.8,1152,1245.6z M1149.2,1255.3c0.5-1,0.8-2.1,0.9-3.2
		c0-0.8-0.3-1.5-0.9-2c-0.9-0.5-1.9-0.5-2.8-0.1v8.5C1147.5,1257.6,1148.5,1256.5,1149.2,1255.3 M1143.4,1246.6v-8.3
		c-1,0.8-1.9,1.8-2.6,3c-0.6,1-0.9,2.1-0.9,3.3c-0.1,0.8,0.2,1.5,0.8,2C1141.2,1247,1142.1,1247,1143.4,1246.6"/>
	
		<linearGradient id="SVGID_3_" gradientUnits="userSpaceOnUse" x1="1555.3994" y1="-746.5536" x2="1628.5" y2="-746.5536" gradientTransform="matrix(1 0 0 1 0 1393.28)">
		<stop  offset="0" style="stop-color:#FE7F80"/>
		<stop  offset="1" style="stop-color:#FEA9AA"/>
	</linearGradient>
	<path class="st3" d="M1628.3,636.7c0.1-1.2,0.2-2.4,0.2-3.6c0-7.2-1.9-12.7-5.2-16.4l0,0c-0.5-0.6-1.1-1.1-1.7-1.6l0,0
		c-0.6-0.5-1.2-0.9-1.9-1.3l0,0l-12.9-7.5c-5.5-3.2-13-2.8-21.4,2.1c-16.7,9.6-30.1,32.8-30,52c0,9.4,3.3,16.1,8.7,19.3l12.9,7.5
		l-0.4-0.3c3.5,2.2,7.9,2.9,12.9,1.8l0,0c3.2-0.8,6.2-2,9-3.6c10.4-6,19.5-17.4,24.9-29.7l0,0c1.1-2.4,2-4.9,2.8-7.5l0,0l1-3.7l0,0
		C1627.7,641.7,1628.1,639.2,1628.3,636.7z"/>
	
		<linearGradient id="SVGID_4_" gradientUnits="userSpaceOnUse" x1="1568.3" y1="-742.83" x2="1628.5006" y2="-742.83" gradientTransform="matrix(1 0 0 1 0 1393.28)">
		<stop  offset="0" style="stop-color:#FE5455"/>
		<stop  offset="1" style="stop-color:#FE7F80"/>
	</linearGradient>
	<path class="st4" d="M1598.3,615.9c16.6-9.6,30.1-1.9,30.2,17.2s-13.4,42.3-30,51.9s-30.2,1.9-30.2-17.2S1581.7,625.5,1598.3,615.9
		z"/>
	<path class="st2" d="M1606.3,647c1.3,1,2,2.6,1.9,4.2c0,1.1-0.2,2.1-0.5,3.1c-0.3,1.2-0.8,2.3-1.4,3.4c-0.6,1.2-1.4,2.2-2.3,3.2
		c-0.9,1.1-2,2.1-3.2,2.9v4.5l-3,1.8v-4.6c-1,0.6-2.2,0.9-3.4,0.9c-0.9,0.1-1.8-0.1-2.6-0.6c-0.7-0.4-1.2-1-1.6-1.7
		c-0.4-0.8-0.6-1.6-0.7-2.5l3.6-3.4c0,0.7,0.2,1.3,0.4,1.9c0.2,0.5,0.5,0.9,0.9,1.3c0.4,0.3,0.9,0.5,1.4,0.6c0.7,0,1.4-0.1,2-0.3
		v-9.2l-1,0.3c-2,0.7-3.5,0.7-4.6,0s-1.7-2.1-1.7-4.3c0-1.1,0.1-2.2,0.5-3.2c0.4-1.2,0.9-2.3,1.5-3.4c0.6-1.2,1.4-2.3,2.3-3.2
		c0.9-1,1.9-1.9,2.9-2.7v-4.6l3-1.7v4.6c0.9-0.4,2-0.7,3-0.7c0.7,0,1.4,0.2,2.1,0.5c0.6,0.4,1.1,0.9,1.4,1.5
		c0.3,0.6,0.5,1.2,0.7,1.8l-3.5,3.4c0-0.4-0.1-0.8-0.3-1.1c-0.2-0.4-0.4-0.7-0.7-1l-1.1-0.5c-0.5-0.2-1.1-0.2-1.6,0v9l0.6-0.2
		C1603.5,646.3,1605.2,646.3,1606.3,647z M1603.5,656.8c0.6-1,0.9-2.1,0.9-3.2c0.1-0.8-0.3-1.6-0.9-2.1c-0.9-0.4-1.8-0.4-2.7,0v8.4
		C1601.9,659.1,1602.8,658,1603.5,656.8 M1597.8,648.1v-8.3c-1.1,0.8-2,1.8-2.6,3c-0.6,1-0.9,2.1-0.9,3.3c-0.1,0.7,0.2,1.5,0.7,2
		C1595.9,648.5,1596.9,648.5,1597.8,648.1"/>
	
		<linearGradient id="SVGID_5_" gradientUnits="userSpaceOnUse" x1="1934.8" y1="-53.7192" x2="2007.9" y2="-53.7192" gradientTransform="matrix(1 0 0 1 0 1393.28)">
		<stop  offset="0" style="stop-color:#FE7F80"/>
		<stop  offset="1" style="stop-color:#FEA9AA"/>
	</linearGradient>
	<path class="st5" d="M2007.8,1329.5c0.1-1.2,0.1-2.4,0.1-3.6c0-7.2-1.9-12.7-5.2-16.3l0,0c-0.5-0.6-1.1-1.2-1.7-1.7l0,0l-1.9-1.3
		l0,0l-12.9-7.5c-5.4-3.2-13-2.7-21.4,2.1c-16.6,9.6-30,32.8-30,52c0,9.5,3.4,16.1,8.8,19.3l12.9,7.5l-0.5-0.3
		c3.9,2.3,8.6,2.9,13,1.8l0,0c3.2-0.8,6.2-2,9-3.6c10.3-6,19.5-17.3,24.9-29.7l0,0c1-2.4,1.9-4.9,2.7-7.5l0,0c0.4-1.2,0.7-2.5,1-3.7
		l0,0c0.6-2.4,1-4.9,1.2-7.4V1329.5z"/>
	
		<linearGradient id="SVGID_6_" gradientUnits="userSpaceOnUse" x1="1947.6993" y1="-49.9801" x2="2007.9005" y2="-49.9801" gradientTransform="matrix(1 0 0 1 0 1393.28)">
		<stop  offset="0" style="stop-color:#FE5455"/>
		<stop  offset="1" style="stop-color:#FE7F80"/>
	</linearGradient>
	<path class="st6" d="M1977.7,1308.7c16.6-9.6,30.1-1.9,30.2,17.2s-13.4,42.4-30,52s-30.1,1.9-30.2-17.2
		S1961.1,1318.3,1977.7,1308.7z"/>
	<path class="st2" d="M1985.8,1339.9c1.2,0.8,1.8,2.2,1.8,4.2c0,1.1-0.2,2.1-0.5,3.1c-0.3,1.2-0.8,2.3-1.4,3.3
		c-0.6,1.2-1.4,2.3-2.3,3.3c-0.9,1.1-2,2-3.2,2.8v4.6l-3,1.7v-4.5c-1.1,0.5-2.2,0.8-3.4,0.9c-0.9,0-1.8-0.2-2.6-0.6
		c-0.7-0.4-1.2-1-1.6-1.7c-0.4-0.8-0.6-1.6-0.7-2.5l3.6-3.4c0.1,0.6,0.2,1.2,0.4,1.8c0.2,0.5,0.5,1,0.9,1.3c0.4,0.4,0.9,0.6,1.4,0.6
		c0.7,0.1,1.4,0,2-0.3v-9.2l-1,0.4c-2,0.6-3.5,0.6-4.6,0s-1.7-2.2-1.7-4.3c0-1.1,0.2-2.2,0.5-3.3c0.4-1.2,0.9-2.3,1.5-3.4
		c0.7-1.1,1.4-2.2,2.3-3.2c0.9-1,1.9-1.9,3-2.7v-4.6l3-1.7v4.7c0.9-0.5,2-0.7,3-0.8c0.7,0,1.5,0.2,2.1,0.6c0.6,0.3,1,0.8,1.3,1.4
		c0.3,0.6,0.5,1.2,0.7,1.8l-3.4,3.4c-0.1-0.4-0.2-0.8-0.4-1.1c-0.4-0.7-1-1.3-1.8-1.5c-0.5-0.1-1-0.1-1.5,0.1v9l0.5-0.2
		C1982.9,1339.1,1984.6,1339.1,1985.8,1339.9z M1983,1349.6c0.5-1,0.8-2.1,0.8-3.2c0.1-0.8-0.2-1.6-0.9-2c-0.8-0.5-1.8-0.5-2.7-0.1
		v8.5C1981.3,1352,1982.3,1350.9,1983,1349.6 M1977.2,1340.9v-8.3c-1.1,0.8-2,1.8-2.6,3c-0.6,1-0.9,2.1-0.9,3.3
		c-0.1,0.8,0.2,1.5,0.8,2C1975,1341.4,1975.9,1341.3,1977.2,1340.9"/>
	
		<linearGradient id="SVGID_7_" gradientUnits="userSpaceOnUse" x1="1446.8599" y1="-362.14" x2="1519.9598" y2="-362.14" gradientTransform="matrix(1 0 0 1 0 1393.28)">
		<stop  offset="0" style="stop-color:#FE7F80"/>
		<stop  offset="1" style="stop-color:#FEA9AA"/>
	</linearGradient>
	<path class="st7" d="M1519.9,1021.1c0.1-1.2,0.1-2.4,0.1-3.6c0-7.2-1.9-12.7-5.2-16.3l0,0c-0.5-0.6-1.1-1.2-1.7-1.7l0,0l-1.9-1.3
		l0,0l-12.9-7.5c-5.4-3.2-13-2.7-21.4,2.1c-16.6,9.6-30,32.8-30,52c0,9.5,3.4,16.1,8.8,19.3l12.9,7.5l-0.5-0.3
		c3.9,2.3,8.6,2.9,13,1.8l0,0c3.2-0.8,6.2-2,9-3.6c10.3-6,19.5-17.3,24.9-29.7l0,0c1-2.4,1.9-4.9,2.7-7.5l0,0c0.4-1.2,0.7-2.5,1-3.7
		l0,0c0.6-2.4,1-4.9,1.2-7.4V1021.1z"/>
	
		<linearGradient id="SVGID_8_" gradientUnits="userSpaceOnUse" x1="1459.7592" y1="-358.4009" x2="1519.9602" y2="-358.4009" gradientTransform="matrix(1 0 0 1 0 1393.28)">
		<stop  offset="0" style="stop-color:#FE5455"/>
		<stop  offset="1" style="stop-color:#FE7F80"/>
	</linearGradient>
	<path class="st8" d="M1489.8,1000.3c16.6-9.6,30.1-1.9,30.2,17.2c0.1,19.1-13.4,42.4-30,52s-30.1,1.9-30.2-17.2
		S1473.2,1009.9,1489.8,1000.3z"/>
	<path class="st2" d="M1497.9,1031.5c1.2,0.8,1.8,2.2,1.8,4.2c0,1.1-0.2,2.1-0.5,3.1c-0.3,1.2-0.8,2.3-1.4,3.3
		c-0.6,1.2-1.4,2.3-2.3,3.3c-0.9,1.1-2,2-3.2,2.8v4.6l-3,1.7v-4.5c-1.1,0.5-2.2,0.8-3.4,0.9c-0.9,0-1.8-0.2-2.6-0.6
		c-0.7-0.4-1.2-1-1.6-1.7c-0.4-0.8-0.6-1.6-0.7-2.5l3.6-3.4c0.1,0.6,0.2,1.2,0.4,1.8c0.2,0.5,0.5,1,0.9,1.3c0.4,0.4,0.9,0.6,1.4,0.6
		c0.7,0.1,1.4,0,2-0.3v-9.2l-1,0.4c-2,0.6-3.5,0.6-4.6,0s-1.7-2.2-1.7-4.3c0-1.1,0.2-2.2,0.5-3.3c0.4-1.2,0.9-2.3,1.5-3.4
		c0.7-1.1,1.4-2.2,2.3-3.2c0.9-1,1.9-1.9,3-2.7v-4.6l3-1.7v4.7c0.9-0.5,2-0.7,3-0.8c0.7,0,1.5,0.2,2.1,0.6c0.6,0.3,1,0.8,1.3,1.4
		c0.3,0.6,0.5,1.2,0.7,1.8l-3.4,3.4c-0.1-0.4-0.2-0.8-0.4-1.1c-0.4-0.7-1-1.3-1.8-1.5c-0.5-0.1-1-0.1-1.5,0.1v9l0.5-0.2
		C1495,1030.7,1496.7,1030.7,1497.9,1031.5z M1495.1,1041.2c0.5-1,0.8-2.1,0.8-3.2c0.1-0.8-0.2-1.6-0.9-2c-0.8-0.5-1.8-0.5-2.7-0.1
		v8.5C1493.4,1043.5,1494.3,1042.4,1495.1,1041.2 M1489.3,1032.5v-8.3c-1.1,0.8-2,1.8-2.6,3c-0.6,1-0.9,2.1-0.9,3.3
		c-0.1,0.8,0.2,1.5,0.8,2C1487.1,1033,1488,1032.9,1489.3,1032.5"/>
</g>
</svg>
