<?xml version="1.0" encoding="utf-8"?>
<!-- Generator: Adobe Illustrator 23.0.4, SVG Export Plug-In . SVG Version: 6.00 Build 0)  -->
<svg version="1.1" id="Layer_1" xmlns="http://www.w3.org/2000/svg" xmlns:xlink="http://www.w3.org/1999/xlink" x="0px" y="0px"
	 viewBox="0 0 3918.2 2475.3" style="enable-background:new 0 0 3918.2 2475.3;" xml:space="preserve">
<style type="text/css">
	.st0{fill:url(#SVGID_1_);}
	.st1{fill:url(#SVGID_2_);}
	.st2{fill:#FFD4D4;}
	.st3{fill:url(#SVGID_3_);}
	.st4{fill:url(#SVGID_4_);}
	.st5{fill:url(#SVGID_5_);}
	.st6{fill:url(#SVGID_6_);}
</style>
<title>Artboard 1 copy</title>
<g id="elements">
	
		<linearGradient id="SVGID_1_" gradientUnits="userSpaceOnUse" x1="1573.9999" y1="2880.2146" x2="1647.1199" y2="2880.2146" gradientTransform="matrix(1 0 0 -1 0 4354.0039)">
		<stop  offset="0" style="stop-color:#FE7F80"/>
		<stop  offset="1" style="stop-color:#FEA9AA"/>
	</linearGradient>
	<path class="st0" d="M1647,1463.8c0.1-1.2,0.2-2.4,0.2-3.6c0-7.2-2-12.7-5.2-16.4l0,0l-1.8-1.6l0,0c-0.6-0.5-1.2-1-1.9-1.4l0,0
		l-12.9-7.5c-5.4-3.1-13-2.7-21.4,2.1c-16.6,9.6-30,32.9-30,52c0,9.5,3.4,16.2,8.8,19.3l12.9,7.5l-0.4-0.3c3.5,2.3,7.9,2.9,12.9,1.9
		l0,0c3.1-0.8,6.2-2,9-3.6c10.3-6,19.5-17.4,24.9-29.7l0,0c1.1-2.4,2-4.9,2.7-7.5l0,0c0.4-1.2,0.7-2.5,1-3.7l0,0
		C1646.4,1468.8,1646.8,1466.3,1647,1463.8L1647,1463.8z"/>
	
		<linearGradient id="SVGID_2_" gradientUnits="userSpaceOnUse" x1="1586.8994" y1="2876.4041" x2="1647.1" y2="2876.4041" gradientTransform="matrix(1 0 0 -1 0 4354.0039)">
		<stop  offset="0" style="stop-color:#FE5455"/>
		<stop  offset="1" style="stop-color:#FE7F80"/>
	</linearGradient>
	<path class="st1" d="M1616.9,1443c16.7-9.6,30.2-1.9,30.2,17.2s-13.3,42.4-30,52s-30.1,1.9-30.2-17.2S1600.3,1452.6,1616.9,1443z"
		/>
	<path class="st2" d="M1625,1474.2c1.2,0.7,1.8,2.1,1.8,4.1c0,1.1-0.2,2.1-0.5,3.1c-0.3,1.2-0.8,2.3-1.3,3.4
		c-0.7,1.1-1.5,2.2-2.3,3.2c-1,1.1-2,2-3.2,2.9v4.6l-3,1.7v-4.6c-1.1,0.6-2.3,0.9-3.5,1c-0.9,0-1.8-0.2-2.5-0.7
		c-0.7-0.4-1.3-1-1.6-1.7c-0.4-0.8-0.7-1.6-0.8-2.5l3.7-3.4c0,0.7,0.1,1.3,0.4,1.9c0.2,0.5,0.5,0.9,0.9,1.3c0.4,0.3,0.9,0.5,1.4,0.6
		c0.7,0,1.4-0.1,2-0.3v-9.2l-1,0.3c-2,0.7-3.5,0.7-4.7,0s-1.7-2.1-1.7-4.2c0-1.1,0.2-2.2,0.5-3.3c0.4-1.2,0.9-2.3,1.5-3.4
		c0.7-1.1,1.5-2.2,2.3-3.2c0.9-1,1.9-1.9,3-2.7v-4.6l3-1.7v4.6c0.9-0.4,2-0.7,3-0.7c0.7,0,1.5,0.2,2.1,0.6c0.6,0.3,1,0.8,1.3,1.4
		s0.5,1.2,0.7,1.8l-3.4,3.4c-0.1-0.4-0.2-0.8-0.4-1.1c-0.2-0.4-0.4-0.7-0.7-0.9c-0.3-0.3-0.7-0.5-1.1-0.6h-1.5v9h0.5
		C1622.1,1473.4,1623.8,1473.4,1625,1474.2z M1622.2,1483.9c0.5-1,0.8-2.1,0.9-3.2c0-0.8-0.3-1.6-0.9-2.1c-0.9-0.4-1.9-0.4-2.8,0
		v8.4C1620.6,1486.2,1621.5,1485.1,1622.2,1483.9 M1616.4,1475.2v-8.3c-1,0.8-1.9,1.8-2.6,3c-0.5,1-0.8,2.1-0.9,3.3
		c0,0.7,0.3,1.5,0.8,2C1614.6,1475.6,1615.5,1475.6,1616.4,1475.2"/>
	
		<linearGradient id="SVGID_3_" gradientUnits="userSpaceOnUse" x1="1715.9" y1="3353.1172" x2="1789" y2="3353.1172" gradientTransform="matrix(1 0 0 -1 0 4354.0039)">
		<stop  offset="0" style="stop-color:#FE7F80"/>
		<stop  offset="1" style="stop-color:#FEA9AA"/>
	</linearGradient>
	<path class="st3" d="M1788.9,990.9c0.1-1.2,0.1-2.4,0.1-3.6c0-7.2-1.9-12.7-5.2-16.4l0,0c-0.5-0.6-1.1-1.2-1.7-1.7l0,0l-1.9-1.3
		l0,0l-12.9-7.4c-5.5-3.2-13-2.8-21.4,2.1c-16.6,9.6-30,32.8-30,51.9c0,9.5,3.4,16.2,8.8,19.3l12.9,7.5l-0.5-0.3
		c3.9,2.3,8.5,2.9,12.9,1.8l0,0c3.2-0.7,6.2-1.9,9-3.6c10.4-6,19.6-17.3,25-29.6l0,0c1-2.5,1.9-5,2.7-7.5l0,0c0.4-1.3,0.7-2.5,1-3.8
		l0,0C1788.3,995.9,1788.7,993.4,1788.9,990.9L1788.9,990.9z"/>
	
		<linearGradient id="SVGID_4_" gradientUnits="userSpaceOnUse" x1="1728.7994" y1="3349.282" x2="1789" y2="3349.282" gradientTransform="matrix(1 0 0 -1 0 4354.0039)">
		<stop  offset="0" style="stop-color:#FE5455"/>
		<stop  offset="1" style="stop-color:#FE7F80"/>
	</linearGradient>
	<path class="st4" d="M1758.8,970.1c16.7-9.6,30.2-1.9,30.2,17.2s-13.3,42.3-30,52s-30.1,1.9-30.2-17.2S1742.2,979.7,1758.8,970.1z"
		/>
	<path class="st2" d="M1766.9,1001.2c1.2,0.8,1.8,2.2,1.8,4.2c0,1.1-0.2,2.1-0.5,3.1c-0.3,1.2-0.8,2.3-1.3,3.4
		c-0.7,1.1-1.5,2.2-2.3,3.2c-1,1.1-2,2-3.2,2.9v4.5l-3,1.8v-4.6c-1.1,0.6-2.3,0.9-3.5,0.9c-0.9,0.1-1.8-0.1-2.5-0.6
		c-0.7-0.4-1.3-1-1.6-1.7c-0.4-0.8-0.7-1.6-0.8-2.5l3.6-3.4c0.1,0.6,0.2,1.2,0.5,1.8c0.1,0.6,0.5,1,0.9,1.4c0.4,0.3,0.9,0.5,1.4,0.6
		c0.7,0,1.4-0.1,2-0.4v-9.1l-1,0.3c-2,0.7-3.5,0.7-4.6,0s-1.7-2.1-1.7-4.3c0-1.1,0.1-2.2,0.5-3.3c0.4-1.2,0.9-2.3,1.5-3.4
		c0.6-1.1,1.4-2.2,2.3-3.1c0.9-1,1.8-1.9,2.9-2.7v-4.6l3-1.7v4.6c0.9-0.4,2-0.7,3-0.7c0.7,0,1.4,0.2,2.1,0.5c0.5,0.4,1,0.8,1.3,1.4
		c0.4,0.6,0.6,1.2,0.8,1.9l-3.5,3.4c0-0.4-0.1-0.8-0.3-1.1c-0.2-0.4-0.4-0.7-0.7-1l-1.2-0.5c-0.5-0.1-1-0.1-1.5,0v9l0.6-0.2
		C1764,1000.5,1765.7,1000.5,1766.9,1001.2z M1764.1,1011c0.5-1,0.8-2.1,0.9-3.2c0-0.8-0.3-1.6-0.9-2.1c-0.9-0.4-1.9-0.4-2.8,0v8.4
		C1762.5,1013.3,1763.4,1012.2,1764.1,1011 M1758.3,1002.3V994c-1,0.8-1.9,1.8-2.6,3c-0.6,1-0.9,2.1-0.9,3.3c-0.1,0.8,0.2,1.5,0.8,2
		C1756.1,1002.7,1757,1002.7,1758.3,1002.3"/>
</g>
<g id="elements_2_">
	
		<linearGradient id="SVGID_5_" gradientUnits="userSpaceOnUse" x1="2853.9004" y1="-2433.8022" x2="2927" y2="-2433.8022" gradientTransform="matrix(1 0 0 -1 0 -952.1758)">
		<stop  offset="0" style="stop-color:#FE7F80"/>
		<stop  offset="1" style="stop-color:#FEA9AA"/>
	</linearGradient>
	<path class="st5" d="M2926.9,1471.6c0.1-1.2,0.1-2.4,0.1-3.6c0-7.2-1.9-12.7-5.2-16.4l0,0c-0.5-0.6-1.1-1.1-1.7-1.6l0,0l-1.9-1.3
		l0,0l-12.9-7.5c-5.4-3.2-13-2.8-21.4,2.1c-16.6,9.6-30,32.8-30,52c0,9.5,3.4,16.1,8.8,19.3l12.9,7.5l-0.4-0.3
		c3.5,2.2,7.9,2.9,12.9,1.8l0,0c3.1-0.8,6.2-2,9-3.6c10.3-6,19.5-17.4,24.9-29.7l0,0c1-2.4,1.9-4.9,2.7-7.4l0,0
		c0.4-1.3,0.7-2.6,1-3.8l0,0C2926.3,1476.7,2926.7,1474.2,2926.9,1471.6L2926.9,1471.6z"/>
	
		<linearGradient id="SVGID_6_" gradientUnits="userSpaceOnUse" x1="2866.7996" y1="-2437.5757" x2="2927" y2="-2437.5757" gradientTransform="matrix(1 0 0 -1 0 -952.1758)">
		<stop  offset="0" style="stop-color:#FE5455"/>
		<stop  offset="1" style="stop-color:#FE7F80"/>
	</linearGradient>
	<path class="st6" d="M2896.8,1450.8c16.6-9.6,30.2-1.9,30.2,17.2s-13.4,42.4-30,52s-30.1,1.9-30.2-17.2
		C2866.7,1483.7,2880.2,1460.4,2896.8,1450.8z"/>
	<path class="st2" d="M2904.9,1482c1.2,0.8,1.8,2.1,1.8,4.1c0,1.1-0.2,2.2-0.5,3.2c-0.3,1.2-0.8,2.3-1.4,3.3
		c-0.6,1.2-1.3,2.2-2.2,3.2c-0.9,1.1-2,2.1-3.2,2.9v4.5l-3,1.8v-4.6c-1.1,0.6-2.3,0.9-3.5,0.9c-0.9,0.1-1.8-0.1-2.5-0.6
		c-0.7-0.4-1.2-1-1.6-1.7c-0.4-0.8-0.7-1.6-0.7-2.5l3.6-3.4c0,0.6,0.2,1.3,0.4,1.9c0.2,0.5,0.5,0.9,0.9,1.3c0.4,0.3,0.9,0.5,1.4,0.6
		c0.7,0,1.4-0.1,2-0.4v-9.1l-1,0.3c-2,0.7-3.5,0.7-4.6,0s-1.7-2.1-1.8-4.3c0-1.1,0.2-2.2,0.6-3.3c0.3-1.2,0.8-2.3,1.5-3.4
		c0.6-1.2,1.4-2.2,2.3-3.2c0.9-1,1.8-1.8,2.9-2.6v-4.6l3-1.7v4.6c0.9-0.4,2-0.7,3-0.7c0.7,0,1.4,0.2,2.1,0.5c0.5,0.4,1,0.8,1.3,1.4
		s0.6,1.2,0.8,1.8l-3.5,3.5c0-0.4-0.1-0.8-0.3-1.1c-0.2-0.4-0.5-0.7-0.8-1s-0.7-0.5-1.1-0.5c-0.5-0.1-1-0.1-1.5,0v9l0.6-0.2
		C2902,1481.2,2903.7,1481.2,2904.9,1482z M2902.1,1491.7c0.5-1,0.8-2.1,0.8-3.2c0.1-0.8-0.2-1.5-0.8-2c-0.9-0.5-1.9-0.5-2.8-0.1
		v8.5c1.1-0.8,2.1-1.9,2.7-3.2 M2896.3,1483v-8.3c-1.1,0.8-2,1.8-2.6,3c-0.6,1-0.9,2.1-0.9,3.3c-0.1,0.8,0.2,1.5,0.8,2
		C2894.1,1483.5,2895,1483.4,2896.3,1483"/>
</g>
</svg>
