<?xml version="1.0" encoding="utf-8"?>
<!-- Generator: Adobe Illustrator 23.0.3, SVG Export Plug-In . SVG Version: 6.00 Build 0)  -->
<svg version="1.1" id="Layer_1" xmlns="http://www.w3.org/2000/svg" xmlns:xlink="http://www.w3.org/1999/xlink" x="0px" y="0px"
	 viewBox="0 0 3918.2 2475.3" style="enable-background:new 0 0 3918.2 2475.3;" xml:space="preserve">
<style type="text/css">
	.st0{fill:url(#SVGID_1_);}
	.st1{fill:url(#SVGID_2_);}
	.st2{fill:#FFD4D4;}
	.st3{fill:url(#SVGID_3_);}
	.st4{fill:url(#SVGID_4_);}
	.st5{fill:url(#SVGID_5_);}
	.st6{fill:url(#SVGID_6_);}
	.st7{fill:url(#SVGID_7_);}
	.st8{fill:url(#SVGID_8_);}
</style>
<title>Artboard 1 copy 2</title>
<g id="elements">
	
		<linearGradient id="SVGID_1_" gradientUnits="userSpaceOnUse" x1="1293.6998" y1="4864.0176" x2="1366.7999" y2="4864.0176" gradientTransform="matrix(1 0 0 1 0 -3428.1758)">
		<stop  offset="0" style="stop-color:#FE7F80"/>
		<stop  offset="1" style="stop-color:#FEA9AA"/>
	</linearGradient>
	<path class="st0" d="M1366.6,1425.8c0.1-1.2,0.2-2.4,0.2-3.6c0-7.1-2-12.7-5.2-16.4l0,0c-0.6-0.6-1.2-1.1-1.8-1.6l0,0l-1.9-1.3h0.1
		l-12.9-7.5c-5.5-3.2-13-2.7-21.4,2.1c-16.6,9.6-30,32.8-30,52c0,9.5,3.4,16.2,8.8,19.3l12.9,7.5l-0.5-0.3c3.5,2.2,7.9,2.9,12.9,1.8
		l0,0c3.2-0.7,6.2-1.9,9-3.6c10.4-6,19.5-17.3,24.9-29.7l0,0c1.1-2.4,2-4.9,2.8-7.4l0,0c0.4-1.3,0.7-2.5,1-3.8l0,0
		C1366.1,1430.9,1366.5,1428.4,1366.6,1425.8L1366.6,1425.8z"/>
	
		<linearGradient id="SVGID_2_" gradientUnits="userSpaceOnUse" x1="1306.6" y1="4867.7759" x2="1366.8005" y2="4867.7759" gradientTransform="matrix(1 0 0 1 0 -3428.1758)">
		<stop  offset="0" style="stop-color:#FE5455"/>
		<stop  offset="1" style="stop-color:#FE7F80"/>
	</linearGradient>
	<path class="st1" d="M1336.6,1405c16.6-9.6,30.1-1.9,30.2,17.2s-13.4,42.4-30,52s-30.2,1.9-30.2-17.2S1320,1414.6,1336.6,1405z"/>
	<path class="st2" d="M1344.6,1436.2c1.2,0.8,1.8,2.2,1.8,4.2c0,1-0.1,2.1-0.4,3.1c-0.8,2.4-2,4.7-3.7,6.6c-1,1-2,2-3.2,2.8v4.6
		l-3,1.7v-4.5c-1.1,0.5-2.3,0.8-3.5,0.9c-0.9,0-1.7-0.2-2.5-0.6c-0.7-0.4-1.2-1-1.6-1.7c-0.4-0.8-0.6-1.6-0.7-2.5l3.6-3.4
		c0,0.6,0.2,1.2,0.4,1.8c0.2,0.5,0.5,1,0.9,1.3c0.4,0.4,0.9,0.6,1.4,0.6c0.7,0.1,1.4,0,2-0.3v-9.2l-0.9,0.4c-2,0.6-3.6,0.6-4.7,0
		s-1.7-2.2-1.7-4.3c0-1.1,0.2-2.2,0.5-3.3c0.4-1.2,0.9-2.3,1.5-3.4c0.7-1.1,1.4-2.2,2.3-3.2c0.9-1,1.9-1.9,3-2.7v-4.6l3-1.7v4.7
		c0.9-0.5,2-0.7,3-0.8c0.7,0,1.5,0.2,2.1,0.6c0.6,0.3,1,0.8,1.3,1.4c0.3,0.6,0.5,1.2,0.7,1.8l-3.4,3.4c-0.1-0.4-0.2-0.8-0.4-1.1
		c-0.2-0.4-0.4-0.7-0.7-0.9c-0.3-0.3-0.7-0.5-1.1-0.6c-0.5-0.1-1.1-0.1-1.6,0.1v9l0.6-0.2
		C1341.8,1435.4,1343.4,1435.4,1344.6,1436.2z M1341.8,1445.9c0.6-1,0.9-2.1,0.9-3.2c0.1-0.8-0.3-1.5-0.9-2
		c-0.8-0.5-1.8-0.5-2.7-0.1v8.5C1340.2,1448.2,1341.1,1447.1,1341.8,1445.9 M1336,1437.2v-8.3c-1,0.9-1.9,1.9-2.6,3
		c-0.5,1.1-0.8,2.2-0.9,3.4c0,0.7,0.3,1.5,0.8,2c0.5,0.4,1.5,0.4,2.8-0.1"/>
	
		<linearGradient id="SVGID_3_" gradientUnits="userSpaceOnUse" x1="1320.3999" y1="4209.4175" x2="1393.5" y2="4209.4175" gradientTransform="matrix(1 0 0 1 0 -3428.1758)">
		<stop  offset="0" style="stop-color:#FE7F80"/>
		<stop  offset="1" style="stop-color:#FEA9AA"/>
	</linearGradient>
	<path class="st3" d="M1393.3,771.3c0.1-1.3,0.2-2.5,0.2-3.7c0-7.1-2-12.7-5.2-16.3l0,0l-1.8-1.7l0,0l-1.9-1.3h0.1l-12.9-7.5
		c-5.5-3.2-13-2.7-21.4,2.1c-16.6,9.6-30,32.9-30,52c0,9.5,3.4,16.1,8.8,19.3l12.9,7.5l-0.5-0.3c3.5,2.2,7.9,2.9,12.9,1.8l0,0
		c3.2-0.8,6.2-2,9-3.6c10.4-6,19.5-17.4,24.9-29.7l0,0c1.1-2.4,2-4.9,2.8-7.4l0,0c0.3-1.3,0.7-2.5,1-3.8l0,0
		C1392.7,776.3,1393.1,773.8,1393.3,771.3L1393.3,771.3z"/>
	
		<linearGradient id="SVGID_4_" gradientUnits="userSpaceOnUse" x1="1333.3" y1="4213.1758" x2="1393.5006" y2="4213.1758" gradientTransform="matrix(1 0 0 1 0 -3428.1758)">
		<stop  offset="0" style="stop-color:#FE5455"/>
		<stop  offset="1" style="stop-color:#FE7F80"/>
	</linearGradient>
	<path class="st4" d="M1363.3,750.4c16.6-9.6,30.1-1.9,30.2,17.2s-13.4,42.4-30,52s-30.2,1.9-30.2-17.2S1346.6,760,1363.3,750.4z"/>
	<path class="st2" d="M1371.3,781.6c1.2,0.8,1.8,2.2,1.8,4.2c0,1-0.1,2.1-0.4,3.1c-0.3,1.1-0.8,2.3-1.4,3.3
		c-0.7,1.2-1.4,2.3-2.3,3.3c-1,1.1-2,2-3.2,2.9v4.5l-3,1.7v-4.5c-1.1,0.5-2.3,0.8-3.5,0.9c-0.9,0-1.7-0.2-2.5-0.6
		c-0.7-0.4-1.3-1-1.6-1.7c-0.4-0.8-0.7-1.6-0.8-2.5l3.7-3.4c0,0.6,0.1,1.2,0.4,1.8c0.1,0.5,0.5,1,0.9,1.3c0.4,0.4,0.9,0.6,1.4,0.7
		c0.7,0,1.4-0.1,2-0.4V787l-1,0.4c-1.5,0.7-3.2,0.7-4.7,0c-1.1-0.7-1.7-2.1-1.7-4.3c0-1.1,0.2-2.2,0.5-3.3c0.4-1.2,0.9-2.3,1.6-3.4
		c0.6-1.2,1.4-2.2,2.3-3.2c0.8-1,1.8-1.9,2.9-2.6V766l3-1.8v4.7c0.9-0.5,2-0.7,3-0.7c0.7-0.1,1.5,0.1,2.1,0.5c0.6,0.3,1,0.8,1.3,1.4
		c0.3,0.6,0.5,1.2,0.7,1.8l-3.4,3.5c-0.1-0.4-0.2-0.8-0.4-1.2c-0.2-0.3-0.4-0.7-0.7-0.9c-0.3-0.3-0.7-0.5-1.1-0.6
		c-0.5-0.1-1-0.1-1.5,0.1v9l0.5-0.2C1368.4,780.8,1370.1,780.8,1371.3,781.6z M1368.5,791.4c0.6-1,0.9-2.1,0.9-3.2
		c0-0.8-0.3-1.6-0.9-2.1c-0.9-0.5-1.9-0.5-2.8-0.1v8.5C1366.9,793.7,1367.8,792.6,1368.5,791.4 M1362.7,782.7v-8.4
		c-1,0.9-1.9,1.9-2.6,3c-0.5,1.1-0.8,2.2-0.9,3.4c0,0.7,0.3,1.5,0.8,2c0.6,0.4,1.5,0.4,2.8-0.1"/>
	
		<linearGradient id="SVGID_5_" gradientUnits="userSpaceOnUse" x1="1955.5992" y1="4260.2231" x2="2028.7" y2="4260.2231" gradientTransform="matrix(1 0 0 1 0 -3428.1758)">
		<stop  offset="0" style="stop-color:#FE7F80"/>
		<stop  offset="1" style="stop-color:#FEA9AA"/>
	</linearGradient>
	<path class="st5" d="M2028.5,822c0.1-1.2,0.2-2.4,0.2-3.6c0-7.2-2-12.7-5.2-16.4l0,0c-0.6-0.6-1.2-1.1-1.8-1.6l0,0
		c-0.6-0.5-1.2-0.9-1.8-1.3l0,0l-12.9-7.5c-5.5-3.2-13-2.8-21.4,2.1c-16.6,9.6-30.1,32.8-30,52c0,9.4,3.4,16.1,8.8,19.3l12.9,7.5
		l-0.5-0.3c3.9,2.3,8.5,2.9,12.9,1.8l0,0c3.2-0.8,6.2-2,9-3.6c10.4-6,19.6-17.4,24.9-29.7l0,0c1.1-2.4,2-4.9,2.8-7.5l0,0
		c0.4-1.2,0.7-2.5,1-3.7l0,0C2028,827,2028.4,824.5,2028.5,822L2028.5,822z"/>
	
		<linearGradient id="SVGID_6_" gradientUnits="userSpaceOnUse" x1="1968.5" y1="4263.877" x2="2028.7006" y2="4263.877" gradientTransform="matrix(1 0 0 1 0 -3428.1758)">
		<stop  offset="0" style="stop-color:#FE5455"/>
		<stop  offset="1" style="stop-color:#FE7F80"/>
	</linearGradient>
	<path class="st6" d="M1998.5,801.1c16.6-9.6,30.1-1.9,30.2,17.3s-13.4,42.3-30,51.9s-30.2,1.9-30.2-17.2S1981.9,810.7,1998.5,801.1
		z"/>
	<path class="st2" d="M2006.5,832.3c1.3,1,2,2.6,1.9,4.2c-0.1,1-0.2,2.1-0.5,3.1c-0.4,1.2-0.8,2.3-1.4,3.4c-0.6,1.2-1.4,2.2-2.3,3.2
		c-0.9,1.1-2,2.1-3.2,2.9v4.5l-3,1.7v-4.5c-1.1,0.5-2.3,0.9-3.5,0.9c-0.9,0-1.7-0.2-2.5-0.6c-0.7-0.4-1.2-1-1.6-1.7
		c-0.4-0.8-0.6-1.6-0.7-2.5l3.6-3.4c0,0.6,0.2,1.2,0.4,1.8c0.2,0.5,0.5,1,0.9,1.4c0.4,0.3,0.9,0.5,1.4,0.6c0.7,0,1.4-0.1,2-0.4v-9.1
		l-1,0.3c-1.5,0.7-3.1,0.7-4.6,0c-1.2-0.7-1.7-2.1-1.7-4.3c0-1.1,0.1-2.2,0.5-3.3c0.4-1.2,0.9-2.3,1.5-3.4c0.6-1.2,1.4-2.2,2.3-3.2
		c0.8-1,1.8-1.9,2.9-2.6v-4.6l3-1.7v4.6c0.9-0.5,2-0.7,3-0.7c0.7-0.1,1.5,0.1,2.1,0.5c0.6,0.4,1,0.8,1.4,1.4
		c0.3,0.6,0.5,1.2,0.7,1.8l-3.5,3.5c0-0.4-0.1-0.8-0.3-1.2l-0.7-0.9c-0.3-0.3-0.7-0.5-1.1-0.6c-0.5-0.1-1.1-0.1-1.6,0.1v9l0.6-0.2
		C2003.7,831.5,2005.3,831.5,2006.5,832.3z M2003.7,842.1c0.6-1,0.9-2.1,0.9-3.2c0.1-0.8-0.3-1.6-0.9-2.1c-0.8-0.5-1.8-0.5-2.7-0.1
		v8.5C2002.1,844.4,2003,843.3,2003.7,842.1 M1998,833.4V825c-1.1,0.8-1.9,1.8-2.6,3c-0.6,1-0.9,2.2-0.9,3.4c-0.1,0.8,0.2,1.5,0.8,2
		C1995.8,833.8,1996.7,833.8,1998,833.4"/>
</g>
<g id="elements_3_">
	
		<linearGradient id="SVGID_7_" gradientUnits="userSpaceOnUse" x1="2675.2095" y1="4217.5786" x2="2748.3096" y2="4217.5786" gradientTransform="matrix(1 0 0 1 0 -3428.1758)">
		<stop  offset="0" style="stop-color:#FE7F80"/>
		<stop  offset="1" style="stop-color:#FEA9AA"/>
	</linearGradient>
	<path class="st7" d="M2748.2,779.4c0.1-1.2,0.1-2.4,0.1-3.6c0-7.2-1.9-12.7-5.2-16.4l0,0c-0.5-0.6-1.1-1.1-1.7-1.6l0,0l-1.9-1.3
		l0,0l-12.9-7.5c-5.4-3.2-13-2.8-21.4,2.1c-16.6,9.6-30,32.8-30,52c0,9.5,3.4,16.1,8.8,19.3l12.9,7.5l-0.4-0.3
		c3.5,2.2,7.9,2.9,12.9,1.8l0,0c3.1-0.8,6.2-2,9-3.6c10.3-6,19.5-17.4,24.9-29.7l0,0c1-2.4,1.9-4.9,2.7-7.4l0,0
		c0.4-1.3,0.7-2.6,1-3.8l0,0C2747.6,784.4,2748,782,2748.2,779.4L2748.2,779.4z"/>
	
		<linearGradient id="SVGID_8_" gradientUnits="userSpaceOnUse" x1="2688.1089" y1="4221.3521" x2="2748.3093" y2="4221.3521" gradientTransform="matrix(1 0 0 1 0 -3428.1758)">
		<stop  offset="0" style="stop-color:#FE5455"/>
		<stop  offset="1" style="stop-color:#FE7F80"/>
	</linearGradient>
	<path class="st8" d="M2718.1,758.6c16.6-9.6,30.2-1.9,30.2,17.2s-13.4,42.4-30,52c-16.6,9.6-30.1,1.9-30.2-17.2
		C2688,791.5,2701.5,768.2,2718.1,758.6z"/>
	<path class="st2" d="M2726.2,789.8c1.2,0.8,1.8,2.1,1.8,4.1c0,1.1-0.2,2.2-0.5,3.2c-0.3,1.2-0.8,2.3-1.4,3.3
		c-0.6,1.2-1.3,2.2-2.2,3.2c-0.9,1.1-2,2.1-3.2,2.9v4.5l-3,1.8v-4.6c-1.1,0.6-2.3,0.9-3.5,0.9c-0.9,0.1-1.8-0.1-2.5-0.6
		c-0.7-0.4-1.2-1-1.6-1.7c-0.4-0.8-0.7-1.6-0.7-2.5l3.6-3.4c0,0.6,0.2,1.3,0.4,1.9c0.2,0.5,0.5,0.9,0.9,1.3c0.4,0.3,0.9,0.5,1.4,0.6
		c0.7,0,1.4-0.1,2-0.4v-9.1l-1,0.3c-2,0.7-3.5,0.7-4.6,0c-1.1-0.7-1.7-2.1-1.8-4.3c0-1.1,0.2-2.2,0.6-3.3c0.3-1.2,0.8-2.3,1.5-3.4
		c0.6-1.2,1.4-2.2,2.3-3.2c0.9-1,1.8-1.8,2.9-2.6v-4.6l3-1.7v4.6c0.9-0.4,2-0.7,3-0.7c0.7,0,1.4,0.2,2.1,0.5c0.5,0.4,1,0.8,1.3,1.4
		c0.3,0.6,0.6,1.2,0.8,1.8l-3.5,3.5c0-0.4-0.1-0.8-0.3-1.1c-0.2-0.4-0.5-0.7-0.8-1c-0.3-0.3-0.7-0.5-1.1-0.5c-0.5-0.1-1-0.1-1.5,0v9
		l0.6-0.2C2723.3,789,2725,789,2726.2,789.8z M2723.4,799.5c0.5-1,0.8-2.1,0.8-3.2c0.1-0.8-0.2-1.5-0.8-2c-0.9-0.5-1.9-0.5-2.8-0.1
		v8.5c1.1-0.8,2.1-1.9,2.7-3.2 M2717.6,790.8v-8.3c-1.1,0.8-2,1.8-2.6,3c-0.6,1-0.9,2.1-0.9,3.3c-0.1,0.8,0.2,1.5,0.8,2
		C2715.4,791.3,2716.3,791.2,2717.6,790.8"/>
</g>
</svg>
