<svg xmlns="http://www.w3.org/2000/svg" viewBox="0 0 3918.17 2475.28"><defs><style>.cls-1,.cls-3,.cls-4{fill:none;}.cls-1{stroke:#fe5455;}.cls-1,.cls-3{stroke-linecap:round;stroke-linejoin:round;stroke-width:1.46px;}.cls-2{fill:#fe5455;}.cls-3{stroke:#bfc6d4;}</style></defs><title>DDS_ampx_secuencia_svg_02 [Recovered]</title><g id="elements"><path class="cls-1" d="M2021,1232.57l-53.62-31a16.74,16.74,0,0,0-16.7,0l-69.91,40.2"/><path class="cls-1" d="M1387.09,1304.8l-11.48,6.73a9.51,9.51,0,0,0,.05,16.43l81.16,46.86a17.26,17.26,0,0,0,17.25,0l55.83-32.66a17.26,17.26,0,0,1,17.25,0l86.67,50a17.28,17.28,0,0,0,17.26,0l38.44-21.77"/><line class="cls-1" x1="1608.23" y1="1177.36" x2="1679.78" y2="1136.05"/><line class="cls-1" x1="1876.33" y1="1347" x2="1952.66" y2="1391.08"/><ellipse class="cls-2" cx="2260.88" cy="1840.92" rx="6.54" ry="3.27"/><ellipse class="cls-2" cx="2109.92" cy="1926.95" rx="6.54" ry="3.27"/><ellipse class="cls-2" cx="878.89" cy="1501.77" rx="6.54" ry="3.27"/><path class="cls-1" d="M1060.76,1517.6,991.67,1477a17.61,17.61,0,0,0-17.75-.07l-60.23,34.77a17.65,17.65,0,0,1-17.64,0l-17.16-9.91"/><path class="cls-1" d="M1858.93,1851.83l-98.6-54.33a15.43,15.43,0,0,0-15.23.16l-56.74,32.67"/><line class="cls-1" x1="1357.91" y1="1731.13" x2="1596.87" y2="1868.4"/><path class="cls-1" d="M1098.84,1628.1l-42.48,23.72a7,7,0,0,0-.1,12.14l35.73,20.75a6.17,6.17,0,0,1,0,10.69l-33,19a6.18,6.18,0,0,0,0,10.7l82.93,48a15.17,15.17,0,0,0,15.09.06l36.49-20.79a15.17,15.17,0,0,1,15.09.06l73,42.28"/><ellipse class="cls-2" cx="1579.4" cy="661.7" rx="6.54" ry="3.27"/><path class="cls-1" d="M2108.06,418.76,1795.71,598.94a15.22,15.22,0,0,1-15.26,0l-43.25-25.14"/><line class="cls-1" x1="1914.94" y1="561.52" x2="1940.86" y2="576.56"/><line class="cls-1" x1="2005.72" y1="508.54" x2="2031.64" y2="523.57"/><line class="cls-3" x1="2135.42" y1="476.59" x2="2046.72" y2="425.14"/><line class="cls-1" x1="1955.49" y1="598.42" x2="2174.17" y2="470.14"/><ellipse class="cls-2" cx="1737.2" cy="573.78" rx="6.54" ry="3.27"/><path class="cls-1" d="M2135.42,476.59l-158.9-92.17a10.7,10.7,0,0,0-10.72,0l-106.9,61.72"/><line class="cls-1" x1="1579.85" y1="661.44" x2="1502.35" y2="705.77"/><path class="cls-1" d="M2820.72,1714.87l61.86,37.6a6.83,6.83,0,0,1,.05,11.85l-189,109.11a17,17,0,0,1-17,0l-228.43-131.67a17,17,0,0,0-17,0l-170.3,99.18"/><path class="cls-1" d="M1881.23,1862.75v88a15.61,15.61,0,0,0,7.84,13.54l70.22,40.29a15.62,15.62,0,0,0,15.58,0l135.05-78"/><path class="cls-1" d="M2819.13,1400.4l-120.21,69.32a9.26,9.26,0,0,0,0,16l122.47,70.77"/><line class="cls-1" x1="1032.22" y1="976.07" x2="1202.41" y2="878.56"/><line class="cls-1" x1="1489.01" y1="713.44" x2="1264.42" y2="842.57"/><path class="cls-1" d="M1432.75,746l69.6-40.18a16.51,16.51,0,0,1,16.64.07l51.12,30.07"/><path class="cls-1" d="M1197.68,881.11l69.6-40.19a16.51,16.51,0,0,1,16.64.07L1335,871.06"/><path class="cls-1" d="M963.67,1017l68.55-40.91a16.51,16.51,0,0,1,16.63.07l51.13,30.08"/><path class="cls-2" d="M2730.93,980.26c0-1.8-2.92-4.27-6.54-4.27s-6.54,2.47-6.54,4.27,2.93,3.27,6.54,3.27S2730.93,982.07,2730.93,980.26Z"/><path class="cls-2" d="M2600.18,905.08c0-1.81-2.93-4.27-6.54-4.27s-6.54,2.46-6.54,4.27,2.92,3.27,6.54,3.27S2600.18,906.88,2600.18,905.08Z"/><path class="cls-2" d="M2468.93,830.5c0-1.8-2.92-4.27-6.54-4.27s-6.54,2.47-6.54,4.27,2.93,3.27,6.54,3.27S2468.93,832.31,2468.93,830.5Z"/><path class="cls-2" d="M2339.39,756.24c0-1.81-2.93-4.27-6.54-4.27s-6.54,2.46-6.54,4.27,2.93,3.27,6.54,3.27S2339.39,758,2339.39,756.24Z"/><line class="cls-4" x1="2371.7" y1="616.42" x2="2760.7" y2="840.1"/><line class="cls-4" x1="2242.7" y1="692.42" x2="2631.7" y2="916.1"/><path class="cls-1" d="M3102.44,1015.17,3035,975.08a15.32,15.32,0,0,0-15.33,0l-114,65.79"/><ellipse class="cls-2" cx="3102.44" cy="1014.78" rx="6.54" ry="3.27"/><line class="cls-1" x1="2861.71" y1="1059.2" x2="2356.17" y2="770.09"/><polyline class="cls-1" points="2651.75 1021.84 2723.68 980.26 2748.66 994.55"/><polyline class="cls-1" points="2521.97 946.74 2593.1 905.59 2624.81 923.72"/><polyline class="cls-1" points="2392.2 871.63 2462.53 830.91 2500.97 852.9"/><polyline class="cls-1" points="2262.42 796.53 2331.95 756.24 2377.12 782.07"/><polyline class="cls-1" points="2782.04 946.53 2723.68 980.26 2767.16 1005.13"/><polyline class="cls-1" points="2652.05 871.49 2593.1 905.59 2648.49 937.26"/><polyline class="cls-1" points="2522.06 796.44 2462.53 830.91 2529.82 869.4"/><polyline class="cls-1" points="2392.07 721.39 2331.95 756.24 2411.15 801.53"/><line class="cls-4" x1="2371.7" y1="616.42" x2="2760.7" y2="840.1"/><ellipse class="cls-2" cx="970.38" cy="1282.63" rx="6.54" ry="3.27"/><path class="cls-1" d="M963.67,1017l-357.38,206.1a17.09,17.09,0,0,0,0,29.59l65.47,37.8a25.7,25.7,0,0,0,25.67,0l26.29-15.19a25.7,25.7,0,0,1,25.67,0l78.26,45.19a25.68,25.68,0,0,0,25.66,0l78.26-45.19a25.7,25.7,0,0,1,25.67,0l13.14,7.6"/></g></svg>