<svg xmlns="http://www.w3.org/2000/svg" xmlns:xlink="http://www.w3.org/1999/xlink" viewBox="0 0 3918.17 2475.28"><defs><style>.cls-1{isolation:isolate;}.cls-2,.cls-3,.cls-4{fill:#fe5455;}.cls-2{opacity:0.25;}.cls-3{opacity:0.77;}.cls-4{opacity:0.53;}.cls-5{fill:url(#linear-gradient);}.cls-6{fill:url(#linear-gradient-2);}.cls-7{fill:url(#linear-gradient-3);}.cls-8{fill:none;stroke:#ffd4d4;stroke-linejoin:round;stroke-width:3px;}.cls-9{fill:url(#linear-gradient-4);}.cls-10{fill:url(#linear-gradient-5);}.cls-11{fill:url(#linear-gradient-6);}.cls-12{fill:url(#linear-gradient-7);}.cls-13{fill:url(#linear-gradient-8);}.cls-14{fill:url(#linear-gradient-9);}</style><linearGradient id="linear-gradient" x1="-15350.29" y1="942.06" x2="-15350.29" y2="871.51" gradientTransform="matrix(-1, 0, 0, 1, -14442.74, 0)" gradientUnits="userSpaceOnUse"><stop offset="0" stop-color="#fe7f80"/><stop offset="1" stop-color="#fea9aa"/></linearGradient><linearGradient id="linear-gradient-2" x1="-15372.38" y1="942.06" x2="-15372.38" y2="884.34" gradientTransform="matrix(-1, 0, 0, 1, -14442.74, 0)" gradientUnits="userSpaceOnUse"><stop offset="0" stop-color="#fe5455"/><stop offset="1" stop-color="#fe7f80"/></linearGradient><linearGradient id="linear-gradient-3" x1="-15355.69" y1="890.49" x2="-15355.69" y2="865.26" xlink:href="#linear-gradient-2"/><linearGradient id="linear-gradient-4" x1="-16615.43" y1="1791.23" x2="-16615.43" y2="1720.67" xlink:href="#linear-gradient"/><linearGradient id="linear-gradient-5" x1="-16637.52" y1="1791.23" x2="-16637.52" y2="1733.51" xlink:href="#linear-gradient-2"/><linearGradient id="linear-gradient-6" x1="-16620.83" y1="1739.65" x2="-16620.83" y2="1714.43" xlink:href="#linear-gradient-2"/><linearGradient id="linear-gradient-7" x1="-5989.85" y1="2213.82" x2="-5989.85" y2="2143.26" gradientTransform="translate(7790.06)" xlink:href="#linear-gradient"/><linearGradient id="linear-gradient-8" x1="-6011.94" y1="2213.82" x2="-6011.94" y2="2156.09" gradientTransform="translate(7790.06)" xlink:href="#linear-gradient-2"/><linearGradient id="linear-gradient-9" x1="-5995.25" y1="2162.24" x2="-5995.25" y2="2137.02" gradientTransform="translate(7790.06)" xlink:href="#linear-gradient-2"/></defs><title>DDS_ampx_secuencia_svg_02 [Recovered]</title><g id="elements"><g class="cls-1"><path class="cls-2" d="M960,900.25c25,14.46,25.18,37.89.3,52.35s-65.33,14.45-90.36,0-25.17-37.89-.3-52.35S935,885.8,960,900.25Zm-81,47.07c20,11.53,52.28,11.54,72.14,0s19.75-30.25-.24-41.79-52.27-11.53-72.13,0S859,935.78,879,947.32"/><path class="cls-3" d="M941.82,910.81c14.93,8.62,15,22.6.17,31.23s-39,8.62-53.9,0-15-22.6-.18-31.22S926.88,902.19,941.82,910.81Z"/></g><path class="cls-4" d="M950.9,905.53c20,11.54,20.1,30.25.24,41.79s-52.15,11.53-72.14,0-20.09-30.24-.23-41.78S930.92,894,950.9,905.53ZM888.09,942c14.93,8.62,39.06,8.62,53.9,0s14.76-22.61-.17-31.23-39.07-8.62-53.91,0-14.76,22.6.18,31.22"/><polygon class="cls-5" points="924.24 890.49 924.25 942.06 890.87 923.08 890.87 871.51 924.24 890.49"/><polygon class="cls-6" points="924.24 890.49 924.25 942.06 935.04 935.73 935.04 884.34 924.24 890.49"/><polygon class="cls-7" points="890.87 871.51 901.32 865.26 935.04 884.34 924.24 890.49 890.87 871.51"/><line class="cls-8" x1="899.68" y1="890.15" x2="915.43" y2="923.43"/><line class="cls-8" x1="915.43" y1="899.1" x2="899.68" y2="914.47"/><ellipse class="cls-3" cx="2180.09" cy="1775.59" rx="22.08" ry="38.12" transform="translate(398.33 3950.64) rotate(-89.84)"/><path class="cls-4" d="M2216,1754.7c20,11.54,20.09,30.24.23,41.78s-52.15,11.54-72.13,0-20.09-30.24-.24-41.78S2196.05,1743.16,2216,1754.7Zm-62.81,36.5c14.93,8.62,39.06,8.62,53.9,0s14.76-22.6-.18-31.22-39.06-8.62-53.9,0-14.76,22.6.18,31.22"/><path class="cls-2" d="M2225.13,1749.42c25,14.45,25.16,37.88.28,52.34s-65.32,14.46-90.36,0-25.16-37.89-.29-52.34S2200.09,1735,2225.13,1749.42Zm-81,47.06c20,11.54,52.28,11.54,72.13,0s19.75-30.24-.23-41.78-52.28-11.54-72.14,0-19.75,30.25.24,41.78"/><polygon class="cls-9" points="2189.38 1739.65 2189.38 1791.23 2156 1772.25 2156 1720.67 2189.38 1739.65"/><polygon class="cls-10" points="2189.38 1739.65 2189.38 1791.23 2200.18 1784.9 2200.18 1733.51 2189.38 1739.65"/><polygon class="cls-11" points="2156 1720.67 2166.46 1714.43 2200.18 1733.51 2189.38 1739.65 2156 1720.67"/><line class="cls-8" x1="2164.82" y1="1739.31" x2="2180.56" y2="1772.59"/><line class="cls-8" x1="2180.56" y1="1748.26" x2="2164.82" y2="1763.64"/><path class="cls-3" d="M1819.68,2182.57c14.93,8.62,15,22.6.17,31.22s-39,8.62-53.9,0-15-22.6-.17-31.22S1804.74,2173.94,1819.68,2182.57Z"/><g class="cls-1"><path class="cls-4" d="M1828.76,2177.29c20,11.54,20.09,30.24.24,41.78s-52.15,11.54-72.14,0-20.08-30.24-.23-41.78S1808.78,2165.75,1828.76,2177.29Zm-62.81,36.5c14.93,8.62,39.07,8.62,53.9,0s14.76-22.6-.17-31.22-39.07-8.63-53.9,0-14.77,22.6.17,31.22"/><path class="cls-2" d="M1837.84,2172c25,14.45,25.18,37.89.31,52.34s-65.34,14.45-90.37,0-25.17-37.89-.3-52.34S1812.81,2157.56,1837.84,2172Zm-81,47.06c20,11.54,52.28,11.53,72.14,0s19.75-30.24-.24-41.78-52.27-11.54-72.13,0-19.75,30.24.23,41.78"/></g><polygon class="cls-12" points="1783.52 2162.24 1783.52 2213.82 1816.9 2194.83 1816.9 2143.26 1783.52 2162.24"/><polygon class="cls-13" points="1783.52 2162.24 1783.52 2213.82 1772.72 2207.49 1772.72 2156.09 1783.52 2162.24"/><polygon class="cls-14" points="1816.9 2143.26 1806.44 2137.02 1772.72 2156.09 1783.52 2162.24 1816.9 2143.26"/><line class="cls-8" x1="1808.08" y1="2161.9" x2="1792.34" y2="2195.18"/><line class="cls-8" x1="1792.34" y1="2170.85" x2="1808.08" y2="2186.22"/></g></svg>