<?xml version="1.0" encoding="utf-8"?>
<!-- Generator: Adobe Illustrator 23.0.3, SVG Export Plug-In . SVG Version: 6.00 Build 0)  -->
<svg version="1.1" id="Layer_1" xmlns="http://www.w3.org/2000/svg" xmlns:xlink="http://www.w3.org/1999/xlink" x="0px" y="0px"
	 viewBox="0 0 3918.2 2475.3" style="enable-background:new 0 0 3918.2 2475.3;" xml:space="preserve">
<style type="text/css">
	.st0{opacity:0.77;fill:#FE5455;enable-background:new    ;}
	.st1{opacity:0.25;fill:#FE5455;enable-background:new    ;}
	.st2{opacity:0.53;fill:#FE5455;enable-background:new    ;}
	.st3{fill:url(#SVGID_1_);}
	.st4{fill:url(#SVGID_2_);}
	.st5{fill:url(#SVGID_3_);}
	.st6{fill:#FFD4D4;}
	.st7{fill:url(#SVGID_4_);}
	.st8{fill:url(#SVGID_5_);}
	.st9{fill:url(#SVGID_6_);}
	.st10{fill:url(#SVGID_7_);}
	.st11{fill:url(#SVGID_8_);}
	.st12{fill:url(#SVGID_9_);}
	.st13{fill:url(#SVGID_10_);}
	.st14{fill:url(#SVGID_11_);}
	.st15{fill:url(#SVGID_12_);}
	.st16{fill:url(#SVGID_13_);}
	.st17{fill:url(#SVGID_14_);}
	.st18{fill:url(#SVGID_15_);}
	.st19{fill:url(#SVGID_16_);}
	.st20{fill:url(#SVGID_17_);}
	.st21{fill:url(#SVGID_18_);}
	.st22{fill:url(#SVGID_19_);}
	.st23{fill:url(#SVGID_20_);}
	.st24{fill:url(#SVGID_21_);}
	.st25{fill:url(#SVGID_22_);}
	.st26{fill:url(#SVGID_23_);}
	.st27{fill:url(#SVGID_24_);}
	.st28{fill:url(#SVGID_25_);}
	.st29{fill:url(#SVGID_26_);}
	.st30{fill:url(#SVGID_27_);}
	.st31{fill:url(#SVGID_28_);}
	.st32{fill:url(#SVGID_29_);}
	.st33{fill:url(#SVGID_30_);}
</style>
<title>DDS_ampx_secuencia_svg_02 [Recovered]</title>
<g id="elements">
	<path class="st0" d="M1666.3,1616.8c12.6-7.3,22.8-1.4,22.9,13s-10.2,32.1-22.7,39.4s-22.9,1.4-22.9-13
		S1653.7,1624.1,1666.3,1616.8z"/>
	<path class="st1" d="M1666.2,1602.7c19.4-11.2,35.1-2.2,35.2,20.1s-15.6,49.4-35,60.6s-35.2,2.2-35.2-20.1
		S1646.8,1613.9,1666.2,1602.7z M1666.4,1676.3c16-9.2,28.9-31.6,28.9-50s-13.1-25.8-29-16.6s-28.9,31.6-28.9,50
		S1650.5,1685.5,1666.4,1676.3"/>
	<path class="st2" d="M1666.2,1609.8c16-9.2,29-1.8,29,16.6s-12.9,40.8-28.9,50s-29,1.8-29.1-16.6S1650.2,1619,1666.2,1609.8z
		 M1666.4,1669.2c12.6-7.3,22.8-24.9,22.7-39.4s-10.3-20.3-22.9-13s-22.8,24.9-22.8,39.4S1653.8,1676.6,1666.4,1669.2"/>
	
		<linearGradient id="SVGID_1_" gradientUnits="userSpaceOnUse" x1="-12072.5557" y1="811.276" x2="-12072.5557" y2="844.076" gradientTransform="matrix(-1 0 0 -1 -10403.4902 2473.2759)">
		<stop  offset="0" style="stop-color:#FE5455"/>
		<stop  offset="1" style="stop-color:#FE7F80"/>
	</linearGradient>
	<polygon class="st3" points="1660.6,1638.8 1660.6,1662 1677.5,1652.4 1677.5,1629.2 	"/>
	
		<linearGradient id="SVGID_2_" gradientUnits="userSpaceOnUse" x1="-12061.4053" y1="811.276" x2="-12061.4053" y2="837.5959" gradientTransform="matrix(-1 0 0 -1 -10403.4902 2473.2759)">
		<stop  offset="0" style="stop-color:#FE7F80"/>
		<stop  offset="1" style="stop-color:#FEA9AA"/>
	</linearGradient>
	<polygon class="st4" points="1660.6,1638.8 1660.6,1662 1655.2,1658.8 1655.2,1635.7 	"/>
	
		<linearGradient id="SVGID_3_" gradientUnits="userSpaceOnUse" x1="-12080.9805" y1="840.861" x2="-12058.6797" y2="840.861" gradientTransform="matrix(-1 0 0 -1 -10403.4902 2473.2759)">
		<stop  offset="0" style="stop-color:#FE5455"/>
		<stop  offset="1" style="stop-color:#FE7F80"/>
	</linearGradient>
	<polygon class="st5" points="1677.5,1629.2 1672.2,1626.1 1655.2,1635.7 1660.6,1638.8 	"/>
	<polygon class="st6" points="1672.6,1642.7 1667.9,1655.3 1668.3,1647 1665.5,1648.6 1670.8,1635.8 1669.8,1644.3 	"/>
	<path class="st1" d="M1346.4,1563.8c19.4-11.2,35.1-2.2,35.2,20.1s-15.6,49.4-35,60.6s-35.2,2.2-35.2-20.1
		S1327,1574.9,1346.4,1563.8z M1346.6,1637.3c16-9.2,28.9-31.6,28.9-50s-13.1-25.8-29-16.6s-28.9,31.6-28.9,50
		S1330.6,1646.6,1346.6,1637.3"/>
	
		<ellipse transform="matrix(0.5024 -0.8646 0.8646 0.5024 -716.8627 1962.3064)" class="st0" cx="1346.5" cy="1604" rx="32.2" ry="18.6"/>
	<path class="st2" d="M1346.4,1570.8c16-9.2,29-1.8,29,16.6s-12.9,40.8-28.9,50s-29,1.8-29.1-16.6S1330.4,1580,1346.4,1570.8z
		 M1346.6,1630.3c12.6-7.3,22.8-24.9,22.7-39.4s-10.3-20.3-22.9-13.1s-22.8,24.9-22.8,39.4S1334,1637.6,1346.6,1630.3"/>
	
		<linearGradient id="SVGID_4_" gradientUnits="userSpaceOnUse" x1="-11752.7051" y1="850.226" x2="-11752.7051" y2="883.026" gradientTransform="matrix(-1 0 0 -1 -10403.4902 2473.2759)">
		<stop  offset="0" style="stop-color:#FE5455"/>
		<stop  offset="1" style="stop-color:#FE7F80"/>
	</linearGradient>
	<polygon class="st7" points="1340.8,1599.8 1340.8,1623.1 1357.6,1613.5 1357.6,1590.2 	"/>
	
		<linearGradient id="SVGID_5_" gradientUnits="userSpaceOnUse" x1="-11741.5557" y1="850.226" x2="-11741.5557" y2="876.546" gradientTransform="matrix(-1 0 0 -1 -10403.4902 2473.2759)">
		<stop  offset="0" style="stop-color:#FE7F80"/>
		<stop  offset="1" style="stop-color:#FEA9AA"/>
	</linearGradient>
	<polygon class="st8" points="1340.8,1599.8 1340.8,1623.1 1335.3,1619.9 1335.3,1596.7 	"/>
	
		<linearGradient id="SVGID_6_" gradientUnits="userSpaceOnUse" x1="-11761.1299" y1="879.811" x2="-11738.8301" y2="879.811" gradientTransform="matrix(-1 0 0 -1 -10403.4902 2473.2759)">
		<stop  offset="0" style="stop-color:#FE5455"/>
		<stop  offset="1" style="stop-color:#FE7F80"/>
	</linearGradient>
	<polygon class="st9" points="1357.6,1590.2 1352.4,1587.1 1335.3,1596.7 1340.8,1599.8 	"/>
	<polygon class="st6" points="1352.8,1603.8 1348,1616.3 1348.5,1608 1345.6,1609.7 1351,1596.8 1350,1605.4 	"/>
	<path class="st2" d="M1990.9,1510.7c16-9.2,29-1.8,29,16.6s-12.9,40.8-28.9,50s-29,1.8-29-16.6S1974.9,1519.9,1990.9,1510.7z
		 M1991.1,1570.2c12.6-7.3,22.8-24.9,22.8-39.4s-10.3-20.3-22.9-13s-22.8,24.9-22.8,39.4S1978.5,1577.5,1991.1,1570.2"/>
	
		<ellipse transform="matrix(0.5026 -0.8645 0.8645 0.5026 -344.4763 2489.1475)" class="st0" cx="1991" cy="1543.9" rx="32" ry="18.5"/>
	<path class="st1" d="M1990.9,1503.6c19.4-11.2,35.1-2.2,35.2,20.1s-15.6,49.4-35,60.6s-35.1,2.2-35.2-20.1
		S1971.5,1514.8,1990.9,1503.6z M1991.1,1577.2c16-9.2,28.9-31.6,28.9-50s-13.1-25.8-29-16.6s-28.9,31.6-28.9,50
		S1975.1,1586.5,1991.1,1577.2"/>
	
		<linearGradient id="SVGID_7_" gradientUnits="userSpaceOnUse" x1="-12397.2256" y1="910.3459" x2="-12397.2256" y2="943.146" gradientTransform="matrix(-1 0 0 -1 -10403.4902 2473.2759)">
		<stop  offset="0" style="stop-color:#FE5455"/>
		<stop  offset="1" style="stop-color:#FE7F80"/>
	</linearGradient>
	<polygon class="st10" points="1985.3,1539.7 1985.3,1562.9 2002.2,1553.3 2002.2,1530.1 	"/>
	
		<linearGradient id="SVGID_8_" gradientUnits="userSpaceOnUse" x1="-12386.0752" y1="910.3459" x2="-12386.0752" y2="936.676" gradientTransform="matrix(-1 0 0 -1 -10403.4902 2473.2759)">
		<stop  offset="0" style="stop-color:#FE7F80"/>
		<stop  offset="1" style="stop-color:#FEA9AA"/>
	</linearGradient>
	<polygon class="st11" points="1985.3,1539.7 1985.3,1562.9 1979.9,1559.7 1979.9,1536.6 	"/>
	
		<linearGradient id="SVGID_9_" gradientUnits="userSpaceOnUse" x1="-12405.6504" y1="939.936" x2="-12383.3506" y2="939.936" gradientTransform="matrix(-1 0 0 -1 -10403.4902 2473.2759)">
		<stop  offset="0" style="stop-color:#FE5455"/>
		<stop  offset="1" style="stop-color:#FE7F80"/>
	</linearGradient>
	<polygon class="st12" points="2002.2,1530.1 1996.9,1527 1979.9,1536.6 1985.3,1539.7 	"/>
	<polygon class="st6" points="1997.3,1543.7 1992.6,1556.2 1993,1547.9 1990.2,1549.5 1995.5,1536.7 1994.5,1545.3 	"/>
	<path class="st1" d="M1214.6,1465.2c-0.1,22.3-15.8,31.3-35.2,20.1s-35-38.3-35-60.6s15.8-31.3,35.2-20.1
		S1214.6,1442.9,1214.6,1465.2z M1179.4,1478.2c16,9.2,29,1.8,29.1-16.6s-12.9-40.8-28.9-50s-29-1.8-29,16.6
		S1163.4,1469,1179.4,1478.2"/>
	
		<ellipse transform="matrix(0.8646 -0.5024 0.5024 0.8646 -566.3381 788.1927)" class="st0" cx="1179.4" cy="1445" rx="18.6" ry="32.2"/>
	<path class="st2" d="M1208.4,1461.7c-0.1,18.4-13.1,25.8-29.1,16.6s-28.9-31.6-28.9-50s13.1-25.8,29-16.6
		S1208.5,1443.3,1208.4,1461.7z M1179.4,1471.2c12.6,7.3,22.9,1.4,22.9-13.1s-10.1-32.1-22.8-39.4s-22.8-1.4-22.9,13
		S1166.8,1463.8,1179.4,1471.2"/>
	
		<linearGradient id="SVGID_10_" gradientUnits="userSpaceOnUse" x1="1993.03" y1="1009.3459" x2="1993.03" y2="1042.146" gradientTransform="matrix(1 0 0 -1 -816.29 2473.2759)">
		<stop  offset="0" style="stop-color:#FE5455"/>
		<stop  offset="1" style="stop-color:#FE7F80"/>
	</linearGradient>
	<polygon class="st13" points="1185.2,1440.7 1185.2,1463.9 1168.3,1454.3 1168.3,1431.1 	"/>
	
		<linearGradient id="SVGID_11_" gradientUnits="userSpaceOnUse" x1="2004.175" y1="1009.3459" x2="2004.175" y2="1035.676" gradientTransform="matrix(1 0 0 -1 -816.29 2473.2759)">
		<stop  offset="0" style="stop-color:#FE7F80"/>
		<stop  offset="1" style="stop-color:#FEA9AA"/>
	</linearGradient>
	<polygon class="st14" points="1185.2,1440.7 1185.2,1463.9 1190.6,1460.7 1190.6,1437.6 	"/>
	
		<linearGradient id="SVGID_12_" gradientUnits="userSpaceOnUse" x1="1984.6099" y1="1038.941" x2="2006.8999" y2="1038.941" gradientTransform="matrix(1 0 0 -1 -816.29 2473.2759)">
		<stop  offset="0" style="stop-color:#FE5455"/>
		<stop  offset="1" style="stop-color:#FE7F80"/>
	</linearGradient>
	<polygon class="st15" points="1168.3,1431.1 1173.6,1428 1190.6,1437.6 1185.2,1440.7 	"/>
	<polygon class="st6" points="1173.2,1444.7 1177.9,1457.2 1177.5,1448.9 1180.3,1450.5 1175,1437.7 1176,1446.3 	"/>
	<path class="st1" d="M1416.4,1206c-0.1,22.3-15.8,31.3-35.2,20.1s-35-38.3-35-60.6s15.8-31.2,35.2-20.1S1416.5,1183.8,1416.4,1206z
		 M1381.2,1219c16,9.2,29,1.8,29-16.6s-12.9-40.8-28.9-50s-29-1.8-29.1,16.6S1365.2,1209.8,1381.2,1219"/>
	
		<ellipse transform="matrix(0.8646 -0.5024 0.5024 0.8646 -408.7934 854.5376)" class="st0" cx="1381.3" cy="1185.8" rx="18.6" ry="32.2"/>
	<path class="st2" d="M1410.3,1202.5c-0.1,18.4-13.1,25.8-29,16.6s-28.9-31.6-28.9-50s13.1-25.8,29.1-16.6
		S1410.3,1184.1,1410.3,1202.5z M1381.3,1212c12.6,7.3,22.8,1.4,22.9-13s-10.1-32.1-22.7-39.4s-22.9-1.4-22.9,13
		S1368.7,1204.7,1381.3,1212"/>
	
		<linearGradient id="SVGID_13_" gradientUnits="userSpaceOnUse" x1="2194.905" y1="1268.536" x2="2194.905" y2="1301.3361" gradientTransform="matrix(1 0 0 -1 -816.29 2473.2759)">
		<stop  offset="0" style="stop-color:#FE5455"/>
		<stop  offset="1" style="stop-color:#FE7F80"/>
	</linearGradient>
	<polygon class="st16" points="1387,1181.5 1387,1204.7 1370.2,1195.2 1370.2,1171.9 	"/>
	
		<linearGradient id="SVGID_14_" gradientUnits="userSpaceOnUse" x1="2206.0549" y1="1268.536" x2="2206.0549" y2="1294.856" gradientTransform="matrix(1 0 0 -1 -816.29 2473.2759)">
		<stop  offset="0" style="stop-color:#FE7F80"/>
		<stop  offset="1" style="stop-color:#FEA9AA"/>
	</linearGradient>
	<polygon class="st17" points="1387,1181.5 1387,1204.7 1392.5,1201.6 1392.5,1178.4 	"/>
	
		<linearGradient id="SVGID_15_" gradientUnits="userSpaceOnUse" x1="2186.48" y1="1298.121" x2="2208.78" y2="1298.121" gradientTransform="matrix(1 0 0 -1 -816.29 2473.2759)">
		<stop  offset="0" style="stop-color:#FE5455"/>
		<stop  offset="1" style="stop-color:#FE7F80"/>
	</linearGradient>
	<polygon class="st18" points="1370.2,1171.9 1375.5,1168.8 1392.5,1178.4 1387,1181.5 	"/>
	<polygon class="st6" points="1375,1185.5 1379.8,1198 1379.3,1189.7 1382.2,1191.4 1376.9,1178.5 1377.8,1187.1 	"/>
	<path class="st1" d="M1733.7,1187.6c-0.1,22.3-15.8,31.2-35.2,20.1s-35-38.3-35-60.6s15.8-31.2,35.2-20.1
		S1733.8,1165.3,1733.7,1187.6z M1698.6,1200.6c16,9.2,29,1.8,29-16.6s-12.9-40.8-28.9-50s-29-1.8-29.1,16.6
		S1682.5,1191.4,1698.6,1200.6"/>
	
		<ellipse transform="matrix(0.8646 -0.5024 0.5024 0.8646 -356.5792 1011.4599)" class="st0" cx="1698.6" cy="1167.4" rx="18.6" ry="32.2"/>
	<path class="st2" d="M1727.6,1184.1c0,18.4-13.1,25.8-29,16.6s-28.9-31.6-28.9-50s13.1-25.8,29.1-16.6S1727.7,1165.7,1727.6,1184.1
		z M1698.6,1193.6c12.6,7.3,22.8,1.4,22.9-13s-10.1-32.1-22.7-39.4s-22.8-1.4-22.9,13.1S1686,1186.3,1698.6,1193.6"/>
	
		<linearGradient id="SVGID_16_" gradientUnits="userSpaceOnUse" x1="2512.21" y1="1286.9659" x2="2512.21" y2="1319.766" gradientTransform="matrix(1 0 0 -1 -816.29 2473.2759)">
		<stop  offset="0" style="stop-color:#FE5455"/>
		<stop  offset="1" style="stop-color:#FE7F80"/>
	</linearGradient>
	<polygon class="st19" points="1704.3,1163.1 1704.3,1186.3 1687.5,1176.7 1687.5,1153.5 	"/>
	
		<linearGradient id="SVGID_17_" gradientUnits="userSpaceOnUse" x1="2523.355" y1="1286.9659" x2="2523.355" y2="1313.286" gradientTransform="matrix(1 0 0 -1 -816.29 2473.2759)">
		<stop  offset="0" style="stop-color:#FE7F80"/>
		<stop  offset="1" style="stop-color:#FEA9AA"/>
	</linearGradient>
	<polygon class="st20" points="1704.3,1163.1 1704.3,1186.3 1709.8,1183.1 1709.8,1160 	"/>
	
		<linearGradient id="SVGID_18_" gradientUnits="userSpaceOnUse" x1="2503.79" y1="1316.551" x2="2526.0801" y2="1316.551" gradientTransform="matrix(1 0 0 -1 -816.29 2473.2759)">
		<stop  offset="0" style="stop-color:#FE5455"/>
		<stop  offset="1" style="stop-color:#FE7F80"/>
	</linearGradient>
	<polygon class="st21" points="1687.5,1153.5 1692.8,1150.4 1709.8,1160 1704.3,1163.1 	"/>
	<polygon class="st6" points="1692.3,1167 1697.1,1179.6 1696.7,1171.3 1699.5,1172.9 1694.2,1160.1 1695.1,1168.7 	"/>
	<path class="st1" d="M2100.1,1036.3c-0.1,22.3-15.8,31.3-35.2,20.1s-35-38.3-35-60.6s15.8-31.3,35.2-20.1
		C2084.5,986.9,2100.1,1014,2100.1,1036.3z M2064.9,1049.3c16,9.2,29,1.8,29-16.6s-12.9-40.8-28.9-50s-29-1.8-29.1,16.5
		S2048.8,1040,2064.9,1049.3"/>
	
		<ellipse transform="matrix(0.8646 -0.5024 0.5024 0.8646 -230.9765 1175.0327)" class="st0" cx="2065" cy="1016.1" rx="18.6" ry="32.2"/>
	<path class="st2" d="M2093.9,1032.8c0,18.4-13.1,25.8-29,16.6s-28.9-31.6-28.9-50s13.1-25.8,29.1-16.5S2094,1014.4,2093.9,1032.8z
		 M2064.9,1042.2c12.6,7.3,22.9,1.4,22.9-13s-10.1-32.1-22.7-39.4s-22.8-1.4-22.9,13S2052.3,1035,2064.9,1042.2"/>
	
		<linearGradient id="SVGID_19_" gradientUnits="userSpaceOnUse" x1="2878.54" y1="1438.266" x2="2878.54" y2="1471.0659" gradientTransform="matrix(1 0 0 -1 -816.29 2473.2759)">
		<stop  offset="0" style="stop-color:#FE5455"/>
		<stop  offset="1" style="stop-color:#FE7F80"/>
	</linearGradient>
	<polygon class="st22" points="2070.7,1011.8 2070.7,1035 2053.8,1025.4 2053.8,1002.2 	"/>
	
		<linearGradient id="SVGID_20_" gradientUnits="userSpaceOnUse" x1="2889.6851" y1="1438.266" x2="2889.6851" y2="1464.5959" gradientTransform="matrix(1 0 0 -1 -816.29 2473.2759)">
		<stop  offset="0" style="stop-color:#FE7F80"/>
		<stop  offset="1" style="stop-color:#FEA9AA"/>
	</linearGradient>
	<polygon class="st23" points="2070.7,1011.8 2070.7,1035 2076.1,1031.8 2076.1,1008.7 	"/>
	
		<linearGradient id="SVGID_21_" gradientUnits="userSpaceOnUse" x1="2870.1201" y1="1467.851" x2="2892.4102" y2="1467.851" gradientTransform="matrix(1 0 0 -1 -816.29 2473.2759)">
		<stop  offset="0" style="stop-color:#FE5455"/>
		<stop  offset="1" style="stop-color:#FE7F80"/>
	</linearGradient>
	<polygon class="st24" points="2053.8,1002.2 2059.1,999.1 2076.1,1008.7 2070.7,1011.8 	"/>
	<polygon class="st6" points="2058.7,1015.7 2063.4,1028.3 2063,1020 2065.8,1021.6 2060.5,1008.8 2061.5,1017.3 	"/>
</g>
<path class="st1" d="M1120,1055c-0.1,22.3-15.8,31.3-35.2,20.1s-35-38.3-35-60.6s15.8-31.2,35.2-20.1S1120,1032.8,1120,1055z
	 M1084.8,1068c16,9.2,29,1.8,29-16.6s-12.9-40.8-28.9-50s-29-1.8-29.1,16.6S1068.7,1058.8,1084.8,1068"/>
<ellipse transform="matrix(0.8646 -0.5024 0.5024 0.8646 -373.0629 685.1447)" class="st0" cx="1084.9" cy="1034.8" rx="18.6" ry="32.2"/>
<path class="st2" d="M1113.8,1051.5c-0.1,18.4-13.1,25.8-29,16.6s-28.9-31.6-28.9-50s13.1-25.8,29.1-16.6
	S1113.9,1033.1,1113.8,1051.5z M1084.8,1061c12.6,7.3,22.8,1.4,22.9-13s-10.1-32.1-22.7-39.4s-22.9-1.4-22.9,13
	S1072.2,1053.7,1084.8,1061"/>
<linearGradient id="SVGID_22_" gradientUnits="userSpaceOnUse" x1="1898.4351" y1="1419.536" x2="1898.4351" y2="1452.3361" gradientTransform="matrix(1 0 0 -1 -816.29 2473.2759)">
	<stop  offset="0" style="stop-color:#FE5455"/>
	<stop  offset="1" style="stop-color:#FE7F80"/>
</linearGradient>
<polygon class="st25" points="1090.6,1030.5 1090.6,1053.7 1073.7,1044.2 1073.7,1020.9 "/>
<linearGradient id="SVGID_23_" gradientUnits="userSpaceOnUse" x1="1909.5851" y1="1419.536" x2="1909.5851" y2="1445.856" gradientTransform="matrix(1 0 0 -1 -816.29 2473.2759)">
	<stop  offset="0" style="stop-color:#FE7F80"/>
	<stop  offset="1" style="stop-color:#FEA9AA"/>
</linearGradient>
<polygon class="st26" points="1090.6,1030.5 1090.6,1053.7 1096,1050.6 1096,1027.4 "/>
<linearGradient id="SVGID_24_" gradientUnits="userSpaceOnUse" x1="1890.01" y1="1449.121" x2="1912.3101" y2="1449.121" gradientTransform="matrix(1 0 0 -1 -816.29 2473.2759)">
	<stop  offset="0" style="stop-color:#FE5455"/>
	<stop  offset="1" style="stop-color:#FE7F80"/>
</linearGradient>
<polygon class="st27" points="1073.7,1020.9 1079,1017.8 1096,1027.4 1090.6,1030.5 "/>
<polygon class="st6" points="1078.6,1034.5 1083.3,1047 1082.9,1038.7 1085.7,1040.4 1080.4,1027.5 1081.4,1036.1 "/>
<path class="st1" d="M1355.1,920c-0.1,22.3-15.8,31.3-35.2,20.1s-35-38.3-35-60.6s15.8-31.2,35.2-20.1S1355.1,897.7,1355.1,920z
	 M1319.9,933c16,9.2,29,1.8,29-16.6s-12.9-40.8-28.9-50s-29-1.8-29.1,16.6S1303.8,923.7,1319.9,933"/>
<ellipse transform="matrix(0.8646 -0.5024 0.5024 0.8646 -273.4035 784.9772)" class="st0" cx="1319.9" cy="899.8" rx="18.6" ry="32.2"/>
<path class="st2" d="M1348.9,916.5c-0.1,18.4-13.1,25.8-29,16.6s-28.9-31.6-28.9-50s13.1-25.8,29.1-16.6S1349,898.1,1348.9,916.5z
	 M1319.9,926c12.6,7.3,22.8,1.4,22.9-13s-10.1-32.1-22.7-39.4s-22.9-1.4-22.9,13S1307.3,918.7,1319.9,926"/>
<linearGradient id="SVGID_25_" gradientUnits="userSpaceOnUse" x1="2133.5198" y1="1554.5536" x2="2133.5198" y2="1587.3536" gradientTransform="matrix(1 0 0 -1 -816.29 2473.2759)">
	<stop  offset="0" style="stop-color:#FE5455"/>
	<stop  offset="1" style="stop-color:#FE7F80"/>
</linearGradient>
<polygon class="st28" points="1325.7,895.5 1325.7,918.7 1308.8,909.1 1308.8,885.9 "/>
<linearGradient id="SVGID_26_" gradientUnits="userSpaceOnUse" x1="2144.6697" y1="1554.5536" x2="2144.6697" y2="1580.8735" gradientTransform="matrix(1 0 0 -1 -816.29 2473.2759)">
	<stop  offset="0" style="stop-color:#FE7F80"/>
	<stop  offset="1" style="stop-color:#FEA9AA"/>
</linearGradient>
<polygon class="st29" points="1325.7,895.5 1325.7,918.7 1331.1,915.5 1331.1,892.4 "/>
<linearGradient id="SVGID_27_" gradientUnits="userSpaceOnUse" x1="2125.0947" y1="1584.1385" x2="2147.3948" y2="1584.1385" gradientTransform="matrix(1 0 0 -1 -816.29 2473.2759)">
	<stop  offset="0" style="stop-color:#FE5455"/>
	<stop  offset="1" style="stop-color:#FE7F80"/>
</linearGradient>
<polygon class="st30" points="1308.8,885.9 1314.1,882.8 1331.1,892.4 1325.7,895.5 "/>
<polygon class="st6" points="1313.7,899.5 1318.4,912 1318,903.7 1320.8,905.3 1315.5,892.5 1316.5,901.1 "/>
<path class="st1" d="M1590.1,784.6c-0.1,22.3-15.8,31.3-35.2,20.1s-35-38.3-35-60.6s15.8-31.2,35.2-20.1S1590.2,762.3,1590.1,784.6z
	 M1555,797.6c16,9.2,29,1.8,29-16.6s-12.9-40.8-28.9-50s-29-1.8-29.1,16.6S1538.9,788.3,1555,797.6"/>
<ellipse transform="matrix(0.8646 -0.5024 0.5024 0.8646 -173.5493 884.7629)" class="st0" cx="1555" cy="764.4" rx="18.6" ry="32.2"/>
<path class="st2" d="M1584,781.1c-0.1,18.4-13.1,25.8-29,16.6s-28.9-31.6-28.9-50s13.1-25.8,29.1-16.6S1584.1,762.7,1584,781.1z
	 M1555,790.6c12.6,7.3,22.8,1.4,22.9-13s-10.1-32.1-22.7-39.4s-22.9-1.4-22.9,13S1542.4,783.3,1555,790.6"/>
<linearGradient id="SVGID_28_" gradientUnits="userSpaceOnUse" x1="2368.615" y1="1689.9558" x2="2368.615" y2="1722.7559" gradientTransform="matrix(1 0 0 -1 -816.29 2473.2759)">
	<stop  offset="0" style="stop-color:#FE5455"/>
	<stop  offset="1" style="stop-color:#FE7F80"/>
</linearGradient>
<polygon class="st31" points="1560.8,760.1 1560.8,783.3 1543.9,773.7 1543.9,750.5 "/>
<linearGradient id="SVGID_29_" gradientUnits="userSpaceOnUse" x1="2379.7649" y1="1689.9558" x2="2379.7649" y2="1716.2758" gradientTransform="matrix(1 0 0 -1 -816.29 2473.2759)">
	<stop  offset="0" style="stop-color:#FE7F80"/>
	<stop  offset="1" style="stop-color:#FEA9AA"/>
</linearGradient>
<polygon class="st32" points="1560.8,760.1 1560.8,783.3 1566.2,780.1 1566.2,757 "/>
<linearGradient id="SVGID_30_" gradientUnits="userSpaceOnUse" x1="2360.1899" y1="1719.5408" x2="2382.49" y2="1719.5408" gradientTransform="matrix(1 0 0 -1 -816.29 2473.2759)">
	<stop  offset="0" style="stop-color:#FE5455"/>
	<stop  offset="1" style="stop-color:#FE7F80"/>
</linearGradient>
<polygon class="st33" points="1543.9,750.5 1549.2,747.4 1566.2,757 1560.8,760.1 "/>
<polygon class="st6" points="1548.8,764.1 1553.5,776.6 1553.1,768.3 1555.9,769.9 1550.6,757.1 1551.5,765.7 "/>
</svg>
