<svg xmlns="http://www.w3.org/2000/svg" xmlns:xlink="http://www.w3.org/1999/xlink" viewBox="0 0 3918.17 2475.28"><defs><style>.cls-1{isolation:isolate;}.cls-2{fill:url(#linear-gradient);}.cls-3{fill:url(#linear-gradient-2);}.cls-4{fill:url(#linear-gradient-3);}.cls-5{fill:url(#linear-gradient-4);}.cls-6{fill:url(#linear-gradient-5);}.cls-7{fill:url(#linear-gradient-6);}.cls-8{fill:url(#linear-gradient-7);}.cls-9{fill:url(#linear-gradient-8);}.cls-10{fill:url(#linear-gradient-9);}.cls-11{fill:url(#linear-gradient-10);}.cls-12,.cls-13,.cls-49,.cls-50,.cls-54{fill:none;}.cls-12,.cls-13,.cls-50{stroke:#fe5455;}.cls-12,.cls-54{stroke-linecap:round;stroke-linejoin:round;}.cls-12{stroke-width:3.52px;}.cls-13,.cls-49,.cls-50{stroke-miterlimit:10;}.cls-13{stroke-width:4.65px;}.cls-14{fill:url(#linear-gradient-11);}.cls-15{fill:url(#linear-gradient-12);}.cls-16{fill:url(#linear-gradient-13);}.cls-17,.cls-60{fill:#fea9aa;}.cls-18{fill:url(#linear-gradient-14);}.cls-19{fill:url(#linear-gradient-15);}.cls-20{fill:#ffd4d4;}.cls-21{fill:url(#linear-gradient-16);}.cls-22{fill:url(#linear-gradient-17);}.cls-23{fill:url(#linear-gradient-18);}.cls-24{fill:url(#linear-gradient-19);}.cls-25{fill:url(#linear-gradient-20);}.cls-26{fill:url(#linear-gradient-21);}.cls-27{fill:url(#linear-gradient-22);}.cls-28{fill:url(#linear-gradient-23);}.cls-29{fill:url(#linear-gradient-24);}.cls-30{fill:url(#linear-gradient-25);}.cls-31{fill:url(#linear-gradient-26);}.cls-32{fill:url(#linear-gradient-27);}.cls-33{fill:url(#linear-gradient-28);}.cls-34{fill:#fe5455;}.cls-35{fill:#ffb4b4;}.cls-36{fill:#ffbfbf;}.cls-37{fill:#ffc9ca;}.cls-38{fill:url(#linear-gradient-29);}.cls-39{fill:url(#linear-gradient-30);}.cls-40{fill:url(#linear-gradient-31);}.cls-41{fill:url(#linear-gradient-32);}.cls-42{fill:url(#linear-gradient-33);}.cls-43{fill:url(#linear-gradient-34);}.cls-44{fill:#e5eef3;}.cls-45{fill:#8ba5bb;}.cls-46{fill:url(#linear-gradient-35);}.cls-47{fill:#a2b7c9;}.cls-48{fill:#fe7f80;}.cls-49{stroke:#fe7f80;}.cls-49,.cls-50{stroke-width:1.39px;}.cls-51{fill:url(#linear-gradient-36);}.cls-52{fill:url(#linear-gradient-37);}.cls-53{fill:url(#linear-gradient-38);}.cls-54{stroke:#f6cccc;stroke-width:2.18px;}.cls-55{fill:#f6cccc;}.cls-56{fill:url(#linear-gradient-39);}.cls-57{fill:url(#linear-gradient-40);}.cls-58{fill:url(#linear-gradient-41);}.cls-59{fill:url(#linear-gradient-42);}.cls-60{mix-blend-mode:overlay;}</style><linearGradient id="linear-gradient" x1="921.72" y1="814.03" x2="1266.82" y2="614.79" gradientUnits="userSpaceOnUse"><stop offset="0" stop-color="#ffd4d4"/><stop offset="1" stop-color="#fea9aa"/></linearGradient><linearGradient id="linear-gradient-2" x1="868.22" y1="804.63" x2="1320.32" y2="804.63" gradientUnits="userSpaceOnUse"><stop offset="0" stop-color="#fe7f80"/><stop offset="1" stop-color="#fe5455"/></linearGradient><linearGradient id="linear-gradient-3" x1="396.24" y1="801.55" x2="741.34" y2="602.31" xlink:href="#linear-gradient"/><linearGradient id="linear-gradient-4" x1="342.74" y1="792.15" x2="794.84" y2="792.15" xlink:href="#linear-gradient-2"/><linearGradient id="linear-gradient-5" x1="648.74" y1="969.39" x2="993.84" y2="770.15" xlink:href="#linear-gradient"/><linearGradient id="linear-gradient-6" x1="595.24" y1="959.98" x2="1047.34" y2="959.98" xlink:href="#linear-gradient-2"/><linearGradient id="linear-gradient-7" x1="919.13" y1="1126.02" x2="1264.23" y2="926.78" xlink:href="#linear-gradient"/><linearGradient id="linear-gradient-8" x1="865.63" y1="1116.62" x2="1317.74" y2="1116.62" xlink:href="#linear-gradient-2"/><linearGradient id="linear-gradient-9" x1="372.78" y1="1123.06" x2="717.88" y2="923.81" xlink:href="#linear-gradient"/><linearGradient id="linear-gradient-10" x1="319.27" y1="1113.65" x2="771.38" y2="1113.65" xlink:href="#linear-gradient-2"/><linearGradient id="linear-gradient-11" x1="1229.36" y1="743.2" x2="1229.36" y2="602.24" gradientUnits="userSpaceOnUse"><stop offset="0" stop-color="#fe7f80"/><stop offset="1" stop-color="#fea9aa"/></linearGradient><linearGradient id="linear-gradient-12" x1="1155.38" y1="593.61" x2="1244.32" y2="593.61" gradientUnits="userSpaceOnUse"><stop offset="0" stop-color="#fe5455"/><stop offset="1" stop-color="#fe7f80"/></linearGradient><linearGradient id="linear-gradient-13" x1="1184.89" y1="743.2" x2="1184.89" y2="584.97" xlink:href="#linear-gradient-12"/><linearGradient id="linear-gradient-14" x1="1042.58" y1="765.85" x2="1072.65" y2="765.85" xlink:href="#linear-gradient-11"/><linearGradient id="linear-gradient-15" x1="1039.28" y1="768.09" x2="1066.39" y2="768.09" xlink:href="#linear-gradient-11"/><linearGradient id="linear-gradient-16" x1="1047.38" y1="766.81" x2="1061.87" y2="766.81" xlink:href="#linear-gradient-11"/><linearGradient id="linear-gradient-17" x1="948.71" y1="711.65" x2="978.77" y2="711.65" xlink:href="#linear-gradient-11"/><linearGradient id="linear-gradient-18" x1="945.4" y1="713.89" x2="972.51" y2="713.89" xlink:href="#linear-gradient-11"/><linearGradient id="linear-gradient-19" x1="953.51" y1="712.61" x2="967.99" y2="712.61" xlink:href="#linear-gradient-11"/><linearGradient id="linear-gradient-20" x1="1034.1" y1="753.88" x2="1048.28" y2="753.88" xlink:href="#linear-gradient-11"/><linearGradient id="linear-gradient-21" x1="940.91" y1="696.39" x2="955.96" y2="696.39" xlink:href="#linear-gradient-11"/><linearGradient id="linear-gradient-22" x1="938.44" y1="712.05" x2="1142.99" y2="712.05" xlink:href="#linear-gradient-12"/><linearGradient id="linear-gradient-23" x1="1103.64" y1="756.59" x2="1130.87" y2="756.59" xlink:href="#linear-gradient-11"/><linearGradient id="linear-gradient-24" x1="1037.99" y1="701.22" x2="1098.94" y2="701.22" xlink:href="#linear-gradient-11"/><linearGradient id="linear-gradient-25" x1="962.66" y1="699.72" x2="1041.61" y2="699.72" xlink:href="#linear-gradient-11"/><linearGradient id="linear-gradient-26" x1="962.66" y1="658.96" x2="1019.88" y2="658.96" xlink:href="#linear-gradient-11"/><linearGradient id="linear-gradient-27" x1="1032.66" y1="897.22" x2="1148.89" y2="897.22" xlink:href="#linear-gradient-11"/><linearGradient id="linear-gradient-28" x1="1042.05" y1="988.46" x2="1139.5" y2="988.46" xlink:href="#linear-gradient-12"/><linearGradient id="linear-gradient-29" x1="567.84" y1="646.78" x2="567.84" y2="563.63" xlink:href="#linear-gradient-2"/><linearGradient id="linear-gradient-30" x1="567.84" y1="744.96" x2="567.84" y2="615.38" xlink:href="#linear-gradient-11"/><linearGradient id="linear-gradient-31" x1="567.84" y1="575.16" x2="567.84" y2="544.61" xlink:href="#linear-gradient-12"/><linearGradient id="linear-gradient-32" x1="495.56" y1="1082.36" x2="495.56" y2="882.13" xlink:href="#linear-gradient-12"/><linearGradient id="linear-gradient-33" x1="449.78" y1="879.09" x2="643.44" y2="879.09" xlink:href="#linear-gradient-12"/><linearGradient id="linear-gradient-34" x1="592.39" y1="1082.36" x2="592.39" y2="876.05" xlink:href="#linear-gradient-11"/><linearGradient id="linear-gradient-35" x1="559.18" y1="990.19" x2="632.69" y2="990.19" xlink:href="#linear-gradient-12"/><linearGradient id="linear-gradient-36" x1="769.8" y1="936.93" x2="769.8" y2="807.95" xlink:href="#linear-gradient-11"/><linearGradient id="linear-gradient-37" x1="719.06" y1="795.54" x2="876.55" y2="795.54" xlink:href="#linear-gradient-12"/><linearGradient id="linear-gradient-38" x1="876.79" y1="936.93" x2="876.79" y2="783.13" gradientUnits="userSpaceOnUse"><stop offset="0" stop-color="#fea9aa"/><stop offset="1" stop-color="#ffd4d4"/></linearGradient><linearGradient id="linear-gradient-39" x1="831.86" y1="715.18" x2="885.76" y2="661.28" xlink:href="#linear-gradient-2"/><linearGradient id="linear-gradient-40" x1="743.39" y1="707.62" x2="743.39" y2="664" xlink:href="#linear-gradient-2"/><linearGradient id="linear-gradient-41" x1="710.98" y1="701.22" x2="856.72" y2="555.49" xlink:href="#linear-gradient-2"/><linearGradient id="linear-gradient-42" x1="768.74" y1="740.05" x2="977.51" y2="531.28" xlink:href="#linear-gradient-2"/></defs><title>DDS_ampx_secuencia_svg_02 [Recovered]</title><g class="cls-1"><g id="elements"><path class="cls-2" d="M881.05,692.19l95-54.82,95-54.83a46.66,46.66,0,0,1,46.62,0l95,54.83,95,54.82a25.66,25.66,0,0,1,0,44.44l-95,54.83-95,54.82a46.59,46.59,0,0,1-46.62,0l-95-54.82-95-54.83a25.66,25.66,0,0,1,0-44.44Z"/><path class="cls-3" d="M1320.32,756.73A25.43,25.43,0,0,1,1307.49,779l-95,54.82-95,54.83a46.66,46.66,0,0,1-46.62,0L881.05,779a25.41,25.41,0,0,1-12.83-22.22V714.41a25.4,25.4,0,0,0,12.83,22.22L1071,846.28a46.59,46.59,0,0,0,46.62,0l95-54.82,95-54.83a25.42,25.42,0,0,0,12.83-22.22Z"/><path class="cls-4" d="M355.57,679.71l94.95-54.82,95-54.83a46.66,46.66,0,0,1,46.62,0l94.95,54.83,95,54.82a25.66,25.66,0,0,1,0,44.44l-95,54.83L592.1,833.8a46.59,46.59,0,0,1-46.62,0l-95-54.82-94.95-54.83a25.66,25.66,0,0,1,0-44.44Z"/><path class="cls-5" d="M794.84,744.25A25.43,25.43,0,0,1,782,766.47l-95,54.82L592.1,876.11a46.59,46.59,0,0,1-46.62,0L355.57,766.47a25.41,25.41,0,0,1-12.83-22.22V701.93a25.41,25.41,0,0,0,12.83,22.22L545.48,833.8a46.59,46.59,0,0,0,46.62,0L687.05,779l95-54.83a25.43,25.43,0,0,0,12.83-22.22Z"/><path class="cls-6" d="M608.06,847.55l95-54.83,95-54.82a46.64,46.64,0,0,1,46.61,0l95,54.82,95,54.83a25.66,25.66,0,0,1,0,44.44l-95,54.82-95,54.83a46.64,46.64,0,0,1-46.61,0l-95-54.83-95-54.82a25.67,25.67,0,0,1,0-44.44Z"/><path class="cls-7" d="M1047.34,912.08a25.43,25.43,0,0,1-12.83,22.23l-95,54.82-95,54.82a46.57,46.57,0,0,1-46.61,0L608.06,934.31a25.42,25.42,0,0,1-12.82-22.23V869.77A25.42,25.42,0,0,0,608.06,892L798,1001.64a46.64,46.64,0,0,0,46.61,0l95-54.83,95-54.82a25.43,25.43,0,0,0,12.83-22.22Z"/><path class="cls-8" d="M878.46,1004.18l95-54.82,95-54.83a46.64,46.64,0,0,1,46.61,0l95,54.83,95,54.82a25.66,25.66,0,0,1,0,44.44l-95,54.83-95,54.82a46.57,46.57,0,0,1-46.61,0l-95-54.82-95-54.83a25.66,25.66,0,0,1,0-44.44Z"/><path class="cls-9" d="M1317.74,1068.72a25.43,25.43,0,0,1-12.83,22.22l-95,54.82-95,54.83a46.64,46.64,0,0,1-46.61,0L878.46,1090.94a25.43,25.43,0,0,1-12.83-22.22V1026.4a25.42,25.42,0,0,0,12.83,22.22l189.92,109.65a46.57,46.57,0,0,0,46.61,0l95-54.82,95-54.83a25.42,25.42,0,0,0,12.83-22.22Z"/><path class="cls-10" d="M332.1,1001.21l95-54.82,95-54.82a46.57,46.57,0,0,1,46.61,0l95,54.82,95,54.82a25.66,25.66,0,0,1,0,44.45l-95,54.82-95,54.82a46.57,46.57,0,0,1-46.61,0l-95-54.82-95-54.82a25.66,25.66,0,0,1,0-44.45Z"/><path class="cls-11" d="M771.38,1065.75A25.43,25.43,0,0,1,758.55,1088l-95,54.83-95,54.82a46.64,46.64,0,0,1-46.61,0L332.1,1088a25.43,25.43,0,0,1-12.83-22.22v-42.31a25.43,25.43,0,0,0,12.83,22.22L522,1155.3a46.57,46.57,0,0,0,46.61,0l95-54.82,95-54.82a25.43,25.43,0,0,0,12.83-22.22Z"/><line class="cls-12" x1="506.52" y1="1042.33" x2="1079.91" y2="711.29"/><line class="cls-12" x1="1110.89" y1="1034.58" x2="534.73" y2="701.93"/><path class="cls-13" d="M1191.19,693.47l-80-45.74a21.25,21.25,0,0,0-21.18.1l-56,32.54"/><polygon class="cls-14" points="1244.32 602.24 1214.41 619.51 1214.41 743.2 1244.32 725.93 1244.32 602.24"/><polygon class="cls-15" points="1155.38 584.97 1185.29 567.7 1244.32 602.24 1214.41 619.51 1155.38 584.97"/><polygon class="cls-16" points="1155.38 584.97 1214.41 619.51 1214.41 743.2 1155.38 708.64 1155.38 584.97"/><polygon class="cls-17" points="1195.49 668.31 1177.86 693.92 1179.65 665.56 1169.28 659.57 1188.93 635.2 1185.24 662.39 1195.49 668.31"/><g id="Car_3-1" data-name="Car 3-1"><g id="Wheels"><path class="cls-18" d="M1068.68,760.42a29.1,29.1,0,0,0-9.59-9.5c-3.74-2.17-7.13-2.6-9.58-1.57a7,7,0,0,0-.67.33l-6.26,3.62,20.5,29.57,6.26-3.61c2.06-1.19,3.31-3.57,3.31-7C1072.65,768.55,1071.13,764.29,1068.68,760.42Z"/><path class="cls-19" d="M1066.39,775.91c0,3.75-1.52,6.26-4,7.29s-5.85.6-9.59-1.56a29,29,0,0,1-9.58-9.5c-2.46-3.87-4-8.14-4-11.88s1.51-6.26,4-7.29,5.84-.6,9.58,1.56a29.13,29.13,0,0,1,9.59,9.51C1064.87,767.9,1066.39,772.17,1066.39,775.91Z"/><path class="cls-20" d="M1061.87,773.3c0,5-4,6.7-9,3.82s-9-9.26-9-14.25,4-6.7,9-3.82S1061.87,768.31,1061.87,773.3Z"/><path class="cls-21" d="M1052.83,759.05a10.51,10.51,0,0,0-3.18-1.25c-1.4.62-2.27,2.08-2.27,4.25,0,4.39,3.56,10,8,12.54,2.58,1.49,4.87,1.58,6.32.51a7.67,7.67,0,0,0,.21-1.8C1061.87,768.31,1057.82,761.93,1052.83,759.05Z"/><path class="cls-22" d="M974.8,706.22a29,29,0,0,0-9.58-9.5c-3.75-2.16-7.13-2.6-9.59-1.57a6.77,6.77,0,0,0-.66.33l-6.26,3.62,20.5,29.57,6.26-3.61c2.06-1.19,3.3-3.57,3.3-7C978.77,714.35,977.26,710.09,974.8,706.22Z"/><path class="cls-23" d="M972.51,721.71c0,3.75-1.52,6.26-4,7.3s-5.84.59-9.58-1.57a28.91,28.91,0,0,1-9.59-9.5c-2.45-3.87-4-8.14-4-11.88s1.52-6.26,4-7.29,5.84-.6,9.59,1.56a29,29,0,0,1,9.58,9.51C971,713.71,972.51,718,972.51,721.71Z"/><path class="cls-20" d="M968,719.1c0,5-4,6.71-9,3.82s-9-9.26-9-14.25,4.05-6.7,9-3.82S968,714.11,968,719.1Z"/><path class="cls-24" d="M959,704.85a10.51,10.51,0,0,0-3.18-1.25c-1.4.63-2.27,2.08-2.27,4.25,0,4.39,3.56,10,8,12.54,2.58,1.49,4.87,1.58,6.33.51a7.69,7.69,0,0,0,.2-1.8C968,714.11,964,707.73,959,704.85Z"/></g><g id="Body"><path class="cls-25" d="M1042.59,753.31h0l5.7-3.29-1.66-2.88-12.52,7.23,3.61,6.26,1.59-.91C1039.43,756.62,1040.65,754.43,1042.59,753.31Z"/><path class="cls-26" d="M948.72,699.11h0l6.26-3.62a6.77,6.77,0,0,1,.66-.33L956,695l-3.12-5.4-11.93,6.89a39.19,39.19,0,0,0,2.61,5.88l.41.72,2.35-1.35A6.1,6.1,0,0,1,948.72,699.11Z"/><path class="cls-27" d="M1120.74,711.65c-1.5-1.28-11.35-8.27-18.83-13.42-5.65-3.88-13.33-18.9-29.81-30.63-9.23-6.56-31.84-23.9-62.69-23.23-5.59.12-10-2-15.5-3a22,22,0,0,0-15.06,2.81c-14.57,8.42-17.61,9.95-29.33,16.89-1.34.8-7,4.62-8.06,8.3s-3,11.68-3,15.91v3.61c.6,8.72,3.6,11,5.49,14.22.46-3.09,2-5.21,4.29-6.18,2.75-1.16,6.54-.67,10.74,1.76a32.46,32.46,0,0,1,10.73,10.64c2.75,4.33,4.45,9.11,4.45,13.3,0,.13,0,.26,0,.39a1.44,1.44,0,0,0,.72,1.29l62.86,36.29c0-.43-.06-.87-.06-1.3,0-4.19,1.7-7,4.45-8.17s6.54-.67,10.73,1.75a32.61,32.61,0,0,1,10.74,10.65c2.74,4.33,4.44,9.11,4.44,13.3v.35a1.46,1.46,0,0,0,.71,1.33c9.57,5.52,27.88,6,35.72,1.44L1137,761.21c3.18-1.84,6-4.71,6-8.35a7.25,7.25,0,0,0-.51-3.32c-.42-1.2-2-3.2-2-4.24v-4.65C1140.43,735.89,1137,725.41,1120.74,711.65Z"/><path class="cls-28" d="M1106.92,766.57l22.71-13.11c2.75-1.59.4-8.38-1.91-7.05l-22.2,12.82C1102.53,761,1103.2,768.72,1106.92,766.57Z"/><path class="cls-20" d="M1039.28,739.91l-2.9-1.67a3,3,0,0,1-1.44-2.28h0c0-.8.65-1.07,1.44-.61l2.9,1.67a3,3,0,0,1,1.44,2.28h0C1040.72,740.1,1040.07,740.37,1039.28,739.91Z"/></g><g id="Headlights"><path class="cls-20" d="M1085.21,763.48a11.58,11.58,0,0,0,8.82-1.15l7.22-4.17c1-.58-1.87-4.87-4.79-4.7s-8.53,5.12-12.68,4C1080.21,756.51,1076.65,761.15,1085.21,763.48Z"/><path class="cls-20" d="M1138.14,732.27a41.79,41.79,0,0,0-2.19-3.95c-1.61,3.32-4.91,4.37-7.13,6.81-2.92,3.22-1,7.7,0,7.13l7.57-4.38A4.41,4.41,0,0,0,1138.14,732.27Z"/></g><g id="Windows"><path class="cls-29" d="M1079.17,676.67,1038,700.44l16,25.33h11.14a14.41,14.41,0,0,0,7.25-1.95l23.71-13.73a5.8,5.8,0,0,0,2.88-5v-5.34A126.51,126.51,0,0,0,1079.17,676.67Z"/><path class="cls-30" d="M1041.61,724.69l-78.95-45.58s15-11.9,41.83,3.62C1036.3,701.09,1041.61,724.69,1041.61,724.69Z"/><path class="cls-31" d="M1019.16,649.46a1.46,1.46,0,0,0-.55-2.7,49.09,49.09,0,0,0-10.48-.07,14.3,14.3,0,0,0-5.79,1.87l-39.68,22.91s6.34-3.52,18.2-2.31a11.27,11.27,0,0,0,6.78-1.51Z"/><path class="cls-20" d="M962.66,679.11l78.95,45.58a28.36,28.36,0,0,0-1.17-3.56h0l-31.55-18.22a46.46,46.46,0,0,1,5-14.09c-.8-.59-1.62-1.16-2.47-1.74a46.48,46.48,0,0,0-5.19,14.28l-26.77-15.45a28.78,28.78,0,0,1,4.64-10.73q-1.79-.25-3.42-.36a31.51,31.51,0,0,0-3.9,9.54l-11.6-6.7.19-.13A15.78,15.78,0,0,0,962.66,679.11Z"/><path class="cls-20" d="M1001.81,650.53a14.49,14.49,0,0,1,5.79-1.86,47.12,47.12,0,0,1,12,.31,1.45,1.45,0,0,0-1-2.22,49.09,49.09,0,0,0-10.48-.07,14.3,14.3,0,0,0-5.79,1.87l-39.68,22.91a22.57,22.57,0,0,1,6.25-1.94Z"/><path class="cls-20" d="M1079.17,676.67l-3,1.72a98.37,98.37,0,0,1,16.42,16.88,5.78,5.78,0,0,1-1.71,8.52l-37.23,21.5.3.48h11.14a14.43,14.43,0,0,0,7.25-1.95l23.71-13.73a5.79,5.79,0,0,0,2.88-5v-5.34A126.51,126.51,0,0,0,1079.17,676.67Z"/></g></g><path class="cls-32" d="M1121.26,962.35c0-18.81.14-63.91.55-203.87a10.13,10.13,0,0,0,.07-1.46c-.16-4.47-3.31-32.44-31.1-32.44s-30.71,27.62-31.08,31.91a11.57,11.57,0,0,0,0,2c.42,139.92.53,185,.55,203.82a58.12,58.12,0,1,0,61,0Z"/><path class="cls-33" d="M1115.53,969.79c0-15.63.45-38.72.45-38.72,0-3.75-2.4-7.51-7.38-10.37-9.84-5.67-25.8-5.67-35.65,0-5,2.86-7.43,6.62-7.37,10.37h0s.41,23.09.46,38.72a48.72,48.72,0,1,0,49.5,0Z"/><path class="cls-34" d="M1108.61,921.09c-9.84-5.68-25.8-5.68-35.64,0s-9.84,14.9,0,20.58,25.8,5.68,35.64,0S1118.45,926.78,1108.61,921.09Z"/><path class="cls-17" d="M1112.38,926.49a42.54,42.54,0,0,1-17.86,5.06v9a42.39,42.39,0,0,0,17.86-5c6-3.49,9-8,9-12.6v-9C1121.43,918.45,1118.41,923,1112.38,926.49Z"/><path class="cls-35" d="M1112.38,887.06a42.54,42.54,0,0,1-17.86,5.06v9a42.53,42.53,0,0,0,17.86-5.05c6-3.49,9-8,9-12.6v-9C1121.43,879,1118.41,883.57,1112.38,887.06Z"/><path class="cls-36" d="M1112.38,847.63a42.53,42.53,0,0,1-17.86,5v9a42.53,42.53,0,0,0,17.86-5c6-3.49,9-8,9-12.61v-9C1121.43,839.59,1118.41,844.14,1112.38,847.63Z"/><path class="cls-37" d="M1112.38,808.2a42.53,42.53,0,0,1-17.86,5v9a42.68,42.68,0,0,0,17.86-5c6-3.49,9-8.05,9-12.61v-9C1121.43,800.16,1118.41,804.71,1112.38,808.2Z"/><path class="cls-20" d="M1112.38,768.77a42.53,42.53,0,0,1-17.86,5.05v9a42.68,42.68,0,0,0,17.86-5.05c6-3.49,9-8,9-12.61v-9C1121.43,760.72,1118.41,765.28,1112.38,768.77Z"/><path class="cls-38" d="M630.63,615.38c0,17.34-28.11,31.4-62.79,31.4s-62.78-14.06-62.78-31.4V563.63H630.63Z"/><path class="cls-39" d="M630.63,713.57c0,17.34-28.11,31.39-62.79,31.39s-62.78-14.05-62.78-31.39V615.38c0,17.34,28.11,31.4,62.78,31.4s62.79-14.06,62.79-31.4Z"/><polygon class="cls-20" points="560.17 660.5 564.45 690.75 552.28 690.75 573.11 727.72 571.07 697.37 583.4 697.37 560.17 660.5"/><path class="cls-17" d="M567.84,590.73c-31.7,0-58.48-12.41-58.48-27.1s26.78-27.09,58.48-27.09,58.49,12.41,58.49,27.09S599.54,590.73,567.84,590.73Z"/><path class="cls-34" d="M567.84,540.85c15.24,0,30,3,40.55,8.28,8.54,4.27,13.63,9.69,13.63,14.5s-5.09,10.24-13.63,14.51c-10.53,5.26-25.31,8.28-40.55,8.28s-30-3-40.55-8.28c-8.53-4.27-13.63-9.69-13.63-14.51s5.1-10.23,13.63-14.5c10.54-5.26,25.32-8.28,40.55-8.28m0-8.61c-34.67,0-62.78,14.06-62.78,31.39S533.17,595,567.84,595s62.79-14.06,62.79-31.4-28.11-31.39-62.79-31.39Z"/><path class="cls-40" d="M567.84,544.61c-12.73,0-23,5.16-23,11.53v7.49c0,6.37,10.31,11.53,23,11.53s23-5.16,23-11.53v-7.49C590.89,549.77,580.57,544.61,567.84,544.61Z"/><polygon class="cls-41" points="541.34 934.99 541.34 1082.36 449.78 1029.5 449.78 882.13 541.34 934.99"/><polygon class="cls-42" points="541.34 934.99 449.78 882.13 551.88 823.18 643.44 876.04 541.34 934.99"/><polygon class="cls-43" points="643.45 876.04 643.45 1023.41 541.34 1082.36 541.34 934.99 643.45 876.04"/><path class="cls-44" d="M598.17,918.48l.2.12Z"/><path class="cls-45" d="M595.59,917l.19.11Z"/><path class="cls-34" d="M606.9,909.43c0-3.23-2.27-4.54-5.06-2.92a11.18,11.18,0,0,0-5.06,8.76c0,3.22,2.27,4.53,5.06,2.91A11.18,11.18,0,0,0,606.9,909.43Z"/><path class="cls-44" d="M583.88,926.73l.21.12Z"/><path class="cls-45" d="M581.3,925.24l.2.11Z"/><path class="cls-34" d="M592.61,917.68c0-3.23-2.26-4.53-5.05-2.92a11.15,11.15,0,0,0-5.06,8.76c0,3.22,2.26,4.53,5.06,2.92A11.2,11.2,0,0,0,592.61,917.68Z"/><polygon class="cls-20" points="634.39 889.08 616.96 899.14 616.96 907.55 616.96 908.79 635.47 898.1 635.47 888.46 634.39 889.08"/><path class="cls-46" d="M632.69,969c0-23.45-16.45-33-36.75-21.23s-36.76,40.23-36.76,63.67,16.46,32.94,36.76,21.22S632.69,992.41,632.69,969Z"/><path class="cls-47" d="M619.67,955.49a8.79,8.79,0,0,0-7.32-3.34,14.15,14.15,0,0,0-2,.15,12.31,12.31,0,0,1,.83.91c2.31,2.9,3.58,7.68,3.59,13.47,0,20.06-14.68,45.47-32,55.5a27.37,27.37,0,0,1-9.67,3.61,8.88,8.88,0,0,0,6.49,2.43h0c3.4,0,7.44-1.3,11.7-3.76,17.37-10,32-35.44,32-55.49C623.26,963.18,622,958.39,619.67,955.49Z"/><path class="cls-48" d="M614.75,966.68c0-5.79-1.28-10.57-3.59-13.47a12.31,12.31,0,0,0-.83-.91,27.35,27.35,0,0,0-9.68,3.61c-17.36,10-32,35.44-32,55.5,0,5.79,1.28,10.57,3.59,13.47a9.06,9.06,0,0,0,.83.91,27.37,27.37,0,0,0,9.67-3.61C600.07,1012.15,614.75,986.74,614.75,966.68Z"/><path class="cls-17" d="M610.33,952.3a27.35,27.35,0,0,0-9.68,3.61c-7.41,4.28-14.33,11.37-19.83,19.65l27.82,16.06c3.82-8.3,6.11-17,6.11-24.94,0-5.79-1.28-10.57-3.59-13.47A12.31,12.31,0,0,0,610.33,952.3Z"/><path class="cls-47" d="M618.8,943.34c-6.69-4.11-16-3.66-26.41,2.33-20.29,11.72-36.75,40.22-36.75,63.66,0,12,4.3,20.32,11.21,24h0l2.1,1.21c-.28-.19-.55-.38-.81-.58-5.58-4.22-9-12-9-22.59,0-23.45,16.46-51.95,36.76-63.67,9.3-5.37,17.79-6.28,24.26-3.44a12.58,12.58,0,0,1,1.33.65Z"/><path class="cls-34" d="M619.67,955.49a8.79,8.79,0,0,0-7.32-3.34,14.15,14.15,0,0,0-2,.15,12.31,12.31,0,0,1,.83.91c2.31,2.9,3.58,7.68,3.59,13.47a57.93,57.93,0,0,1-4.19,20.4,80.5,80.5,0,0,1-12.19,21.15,57.83,57.83,0,0,1-15.67,13.95,27.37,27.37,0,0,1-9.67,3.61,8.88,8.88,0,0,0,6.49,2.43h0c3.4,0,7.44-1.3,11.7-3.76a56.43,56.43,0,0,0,14.19-12.16,80.24,80.24,0,0,0,12.81-20.8,59.48,59.48,0,0,0,5-22.53C623.26,963.18,622,958.39,619.67,955.49Z"/><path class="cls-34" d="M618.8,943.34c-6.69-4.11-16-3.66-26.41,2.33a57.19,57.19,0,0,0-8.18,5.78,78,78,0,0,0-12.72,13.81c-9.58,13.19-15.85,29.6-15.85,44.07,0,12,4.3,20.32,11.21,24h0l2.1,1.21c-.28-.19-.55-.38-.81-.58-5.58-4.22-9-12-9-22.59,0-14.49,6.28-30.9,15.87-44.09a78,78,0,0,1,12.72-13.81,57.83,57.83,0,0,1,8.17-5.77c9.3-5.37,17.79-6.28,24.26-3.44a12.58,12.58,0,0,1,1.33.65Z"/><line class="cls-49" x1="541.34" y1="959.55" x2="643.44" y2="900.61"/><line class="cls-50" x1="541.34" y1="959.55" x2="449.78" y2="906.69"/><g class="cls-1"><polygon class="cls-34" points="933.05 801.74 831.77 742.88 775.27 724.27 876.55 783.13 933.05 801.74"/><polygon class="cls-51" points="820.34 866.81 719.05 807.95 719.25 878.07 820.54 936.93 820.34 866.81"/><polygon class="cls-52" points="876.55 783.13 775.27 724.27 719.05 807.95 820.34 866.81 876.55 783.13"/><polygon class="cls-53" points="876.55 783.13 820.34 866.81 820.54 936.93 933.25 871.85 933.05 801.74 876.55 783.13"/><line class="cls-54" x1="719.06" y1="807.95" x2="775.27" y2="724.27"/><line class="cls-54" x1="752.88" y1="827.57" x2="809.09" y2="743.89"/><line class="cls-54" x1="786.71" y1="847.19" x2="842.92" y2="763.51"/><line class="cls-54" x1="820.54" y1="866.81" x2="876.75" y2="783.13"/><line class="cls-54" x1="775.27" y1="724.27" x2="876.55" y2="783.13"/><line class="cls-54" x1="756.53" y1="752.17" x2="857.81" y2="811.02"/><line class="cls-54" x1="737.79" y1="780.06" x2="839.08" y2="838.92"/><line class="cls-54" x1="719.06" y1="807.95" x2="820.34" y2="866.81"/><circle class="cls-55" cx="824.15" cy="791.46" r="4.19"/><circle class="cls-55" cx="789.99" cy="771.98" r="4.19"/><circle class="cls-55" cx="805.29" cy="819.42" r="4.19"/><circle class="cls-55" cx="771.46" cy="799.69" r="4.19"/><polygon class="cls-48" points="893.97 894.53 859.82 914.25 859.82 867.7 893.97 847.98 893.97 894.53"/></g><path class="cls-56" d="M822.09,682.24s12.22,21.35,34.52,8.25c0,0,11.85,12.1,33.57,6.87s28.67-20.09,21.41-31.47-38.08-14.72-62.39-4.66S821.26,672,822.09,682.24Z"/><path class="cls-57" d="M715.68,671.12s1,15.7,20.56,16c0,0,8.61,7,22,2.55s14.86-6.25,14.86-6.25.57-15-1-16.76-58.55-6.74-58.55-6.74Z"/><path class="cls-58" d="M900.56,594.84s-4-24.74-29-22.85c0,0-16-10.54-26.31-6.75,0,0-17.72-14.88-32-1.55,0,0-13.25-8.07-24,5.94,0,0-29.26-4.4-35.92,15.4,0,0-21-3.81-30,14.55,0,0-19.15,11.42-9.24,25.25,0,0-10.19,4.92-6.13,13.67,0,0-9.48,8.78-4.25,16.48,0,0,.07,20.09,13.46,19.52,0,0,9.77,9.75,23.3.55,0,0,13.5,9.45,27-3.58C767.46,671.47,908.62,622.42,900.56,594.84Z"/><path class="cls-59" d="M834.52,621.86s-19.95-6.31-27.95,16.09c0,0-13.94-3.07-18,9.79,0,0-22.58-.24-23.25,16,0,0-7.35,10.6,1.62,15.33,0,0,1,11.45,13.25,11,0,0-2,9.09,5.88,11.88,0,0,3.14,7.93,11.63,5.46s8.38-8,8.38-8,10.19,4.34,15.93-2.08,5-10.72,5-10.72,9.64,4.17,19-5.75c0,0,25.12,3.67,27.83-10.42,0,0,6.71,14.37,22.35,7.13,0,0,15.13,5.55,23.47-3.37s.31-22.61.31-22.61,5.54-.12,5.54-14.32-12-26.61-12-26.61-.84-15.35-13-15.87c0,0-11.78-16.05-22.73-12.31,0,0-6.32,2.2-5.12,7.35,0,0-8.48-4.34-17.71,6.71s.13,18.29.13,18.29S840.82,604.87,834.52,621.86Z"/><path class="cls-60" d="M867.82,609.68a8.27,8.27,0,0,0,7.35,3.85,6.64,6.64,0,0,0,3.41-1.21c4.1-2.82,5.38-9.82,5.61-11.35a3.14,3.14,0,0,1,1.93-1.28c1-.11,2,.44,3.15,1.64,2,2.06,2.59,3.61,2.73,4.58l-.63-.26a7.5,7.5,0,0,0-6.35.42,1.17,1.17,0,0,0,1.26,2,5.23,5.23,0,0,1,4.28-.19c2.49.92,6.08,4,9.23,13.53a18.5,18.5,0,0,0-4.22.35,1.18,1.18,0,0,0,.54,2.29,19,19,0,0,1,10.41,1.08,1.15,1.15,0,0,0,.51.09,1.18,1.18,0,0,0,.35-2.28,20.83,20.83,0,0,0-5-1.33c-2.18-6.9-4.87-11.67-8-14.24.29-1.33.19-4-3.33-7.66-1.69-1.75-3.43-2.54-5.12-2.33a5.61,5.61,0,0,0-3.79,2.58,1.2,1.2,0,0,0-.15.45c-.27,2.07-1.62,7.9-4.66,10a4.46,4.46,0,0,1-3.77.64,5.53,5.53,0,0,1-3.64-2.56c-2.17-3.57-.79-9.32-.78-9.38a1.18,1.18,0,1,0-2.28-.57C866.7,598.8,865.13,605.28,867.82,609.68Zm-59.9,8.67a4.16,4.16,0,0,1-2.11-2.83,1.18,1.18,0,0,0-2.33.32,6.56,6.56,0,0,0,3.26,4.55,9.17,9.17,0,0,0,5,1,25.12,25.12,0,0,0,8.56-2.46,1.2,1.2,0,0,0,.71-1.37,1.18,1.18,0,0,0-1.63-.79,28.28,28.28,0,0,1-5.46,1.92,6.65,6.65,0,0,1,1-5c1.83-2.49,5.34-3,5.37-3a1.18,1.18,0,0,0,.84-1.82c-3.13-4.71-4.2-9.22-3.18-13.38,1.19-4.88,5.22-9.24,12-13,11.68-6.46,28.13-.48,32,1.08a9.57,9.57,0,0,1-2.39,1.31c-2.53-.35-17.86-1.72-22,16.35a17.56,17.56,0,0,1-6.9-7,1.18,1.18,0,0,0-2.15,1c.15.35,3.92,8.64,15.89,11a1,1,0,0,0,.3,0,1.17,1.17,0,0,0,1.11-1.17,1.23,1.23,0,0,0-1-1.17,24.59,24.59,0,0,1-5.07-1.6c3.79-18,19.09-15.22,19.74-15.1a1.09,1.09,0,0,0,.62,0c6.42-2.29,7.35-7.69,6.95-10.22a1.18,1.18,0,0,0-2.33.36,6.74,6.74,0,0,1-1,4.4,59.11,59.11,0,0,0-11.88-3.63,39.85,39.85,0,0,0-16.68-.06c-2.63-5.42-6.09-8.92-10.29-10.39a14.19,14.19,0,0,0-10.37.48,1.17,1.17,0,0,0-.52,1.57,1.18,1.18,0,0,0,1.58.53,12,12,0,0,1,8.57-.35c3.48,1.24,6.42,4.2,8.73,8.81a24.26,24.26,0,0,0-4,1.73c-7.35,4.07-11.76,8.94-13.12,14.48-1.07,4.39-.19,9,2.62,13.82a10.15,10.15,0,0,0-5.24,3.47,8.91,8.91,0,0,0-1.49,6.79A6.8,6.8,0,0,1,807.92,618.35Zm-17-8.52c-5.4,13.9,5,23.07,5.14,23.16a1.14,1.14,0,0,0,.83.28,1.18,1.18,0,0,0,.7-2.06,18.45,18.45,0,0,1-4.48-20.53c4.92-12.63,12.5-16.59,12.58-16.63a1.23,1.23,0,0,0,.63-.84,1.18,1.18,0,0,0-.29-1s-2.67-3-2.22-6.22c.25-1.79,1.45-3.36,3.57-4.69a1.17,1.17,0,0,0,.18-1.86c-.83-.78-2.92-3.28-2.64-5.48a4.44,4.44,0,0,1,2.6-3.12,1.21,1.21,0,0,0,.59-1.4,1.18,1.18,0,0,0-1.69-.68c-2.29,1.25-3.58,2.9-3.83,4.9-.33,2.62,1.28,5.09,2.39,6.44a8.43,8.43,0,0,0-3.5,5.57,10.37,10.37,0,0,0,1.95,7C800.9,594.35,795,599.21,790.9,609.83Zm102.47-15.22c.08,0,8.09,5.56,6,10a1.19,1.19,0,0,0,.22,1.33,84,84,0,0,1,7.08,8.44c4.13,5.7,5.83,10.15,4.8,12.53a40.24,40.24,0,0,1-3.45,6.65,9.23,9.23,0,0,0-4.64-2.78c-3-.74-6.37,0-10.06,2.09-.94-4.36-4.17-15.31-12.83-15.08a1.19,1.19,0,0,0-1.11,1.5,1.21,1.21,0,0,0,1.2.85c8.47-.18,10.71,14.65,10.73,14.8a1.18,1.18,0,0,0,1.81.81c3.69-2.44,6.94-3.35,9.65-2.7a6.8,6.8,0,0,1,4.17,3,1.19,1.19,0,0,0,.78.58,1.15,1.15,0,0,0,.32,0,1.2,1.2,0,0,0,.63-.22c.31-.23,2-1.72,5-8.55s-8.81-19.84-11.82-23c2-6-6.71-11.91-7.1-12.17a1.18,1.18,0,1,0-1.3,2ZM909,647.5a5.14,5.14,0,0,0-2.94-3.07c-2.76-1-6.87.26-12.57,4-6.16,4-9.79,1.68-10.83.79a4.1,4.1,0,0,0-.78-2.11c-1.89-2.77-6.79-4.7-14.56-5.74-16.19-2.16-21.34,7.37-21.55,7.78a1.18,1.18,0,0,0,2.09,1.08c0-.08,4.58-8.47,19.14-6.52,11.33,1.51,13.45,4.67,13.33,5.71a1,1,0,0,0,.25,1c0,.06,5.2,5.86,14.2-.07,6.17-4.06,9.08-4.29,10.44-3.77a3.3,3.3,0,0,1,1.84,2.51,1.2,1.2,0,0,0,.55.72,1.23,1.23,0,0,0,.9.11C908.6,650,911.05,647.26,909,647.5Zm-39.29-29.93a1.18,1.18,0,0,0-1.52.68,5.32,5.32,0,0,0,.46,4.49,5.93,5.93,0,0,0,3.17,2.29,5.86,5.86,0,0,0-1.4,1.66c-.94,1.72-.91,3.81.11,6.23a1.19,1.19,0,0,0,1.81.47,1.2,1.2,0,0,0,.35-1.42c-.71-1.7-.78-3.09-.21-4.13.93-1.72,3.35-2.15,3.37-2.16a1.17,1.17,0,0,0,.92-1.53,1.23,1.23,0,0,0-1.13-.81c-2.55-.14-4.28-.78-5-1.87a2.91,2.91,0,0,1-.25-2.38A1.18,1.18,0,0,0,869.75,617.57ZM714.1,646.8a1.2,1.2,0,0,0,.77-1.47s-1.13-4.09,4.21-12.72a20.93,20.93,0,0,1,13.08-9.32c-.43,4.43,2.29,8.87,2.42,9.08a1.17,1.17,0,0,0,1.07.55,1.12,1.12,0,0,0,.55-.18,1.18,1.18,0,0,0,.38-1.62s-3.05-5-1.83-8.87a6,6,0,0,1,3.72-3.72,28.84,28.84,0,0,1,15-2.14,14,14,0,0,1-4.12,4.09,1.22,1.22,0,0,0-.4,1.57,1.19,1.19,0,0,0,1.1.6,1.12,1.12,0,0,0,.6-.21c9-6.29,5.36-11.8,5.2-12a1.18,1.18,0,0,0-1.94,1.34,3.59,3.59,0,0,1,.4,2.39,30.59,30.59,0,0,0-16.78,2.22,10.84,10.84,0,0,0-1.66.88c-1-.33-3.21-1.24-3.83-2.94-.44-1.2,0-2.7,1.27-4.45a7.39,7.39,0,0,1,1-1.08h.22a.83.83,0,0,0,.22,0,1.16,1.16,0,0,0,.85-.9c4.25-2.36,10,.1,10.12.13a1.18,1.18,0,0,0,.94-2.16c-.33-.14-6.63-2.83-11.76-.29a9.1,9.1,0,0,0-3.71-3.91l-.15-.08a8.77,8.77,0,0,0-5.39-.78,1.22,1.22,0,0,0-1.07,1.08,1.19,1.19,0,0,0,1.36,1.26,7.28,7.28,0,0,1,1.2-.1c-11.42,6.66-8.63,17.49-8.6,17.61a1.19,1.19,0,0,0,1.21.86,1,1,0,0,0,.24,0,1.18,1.18,0,0,0,.82-1.44c-.12-.43-2.69-10.43,9.65-16.06a7,7,0,0,1,2.46,2.92,9.72,9.72,0,0,0-1.49,1.62c-1.78,2.43-2.32,4.66-1.59,6.65a7.42,7.42,0,0,0,4,3.87,7.44,7.44,0,0,0-1.1,1.78,23,23,0,0,0-15.72,10.62c-5.92,9.57-4.61,14.19-4.45,14.69a1.17,1.17,0,0,0,1.18.78A.93.93,0,0,0,714.1,646.8Zm159-55.82a12.41,12.41,0,0,1,12.23,2.71,1.18,1.18,0,0,0,.86.3,1.2,1.2,0,0,0,.81-.39,1.18,1.18,0,0,0-.09-1.66,14.8,14.8,0,0,0-14.65-3.16,1.18,1.18,0,1,0,.84,2.2Zm-53.51,46.33A14.62,14.62,0,0,1,811,643a1.17,1.17,0,0,0,.24,2.33h.09a16.72,16.72,0,0,0,10.22-6.67,1.18,1.18,0,0,0-.5-1.79A1.22,1.22,0,0,0,819.62,637.31Zm12.33,46c-12.69,5.32-18.23-1.36-18.46-1.66a1.18,1.18,0,0,0-1.85,1.46c.21.26,4.09,5.08,12.4,4.58a27.15,27.15,0,0,0,8.77-2.19,1.21,1.21,0,0,0,.76-1.28A1.18,1.18,0,0,0,832,683.29Zm44.51-16.69c-12.12,7.95-21.52,0-21.93-.34A1.18,1.18,0,0,0,853,668a20,20,0,0,0,7.23,3.68,19.65,19.65,0,0,0,6.54.7,22.18,22.18,0,0,0,11-3.82,1.2,1.2,0,0,0,.51-1.39A1.18,1.18,0,0,0,876.46,666.6Zm-17.71-8.51c7.91.37,9.9,3.34,9.91,3.35a1.17,1.17,0,0,0,2-1.18c-.24-.42-2.63-4.09-11.83-4.52-7.07-.33-10.31,3-11.56,4.81-1.73-.78-5.48-1.71-12.59-.44a13.71,13.71,0,0,0-11.22,10.31c-2.34-1.4-7.19-2.78-15,1.73-3.44,2-5.54,4.47-6.24,7.41a10.65,10.65,0,0,0,1.28,7.71,1.19,1.19,0,0,0,1.06.54,1.11,1.11,0,0,0,.57-.19,1.19,1.19,0,0,0,.35-1.63,8.23,8.23,0,0,1-1-5.88c.55-2.29,2.28-4.28,5.13-5.92,9.59-5.53,13.55-1.09,13.71-.91a1.18,1.18,0,0,0,1.26.38,1.19,1.19,0,0,0,.82-1c0-.08.77-8.62,9.68-10.2s11.82.61,11.82.61a1.19,1.19,0,0,0,1,.28,1.16,1.16,0,0,0,.83-.7C848.91,662.41,851,657.73,858.75,658.09Zm48.76,4.43a1.17,1.17,0,0,0-1.28,1.05c0,.2-.64,5.08-8.84,7.29-5.68,1.52-10-4.6-12.11-8.38a12.93,12.93,0,0,0-8.87-6.57,10.9,10.9,0,0,0-6,.35,1.17,1.17,0,0,0-.6,1.54,1.18,1.18,0,0,0,1.54.62,8.67,8.67,0,0,1,4.62-.2,10.58,10.58,0,0,1,7.25,5.4c2.2,4,6.65,10.2,12.87,9.82a10.12,10.12,0,0,0,1.91-.31c9.88-2.67,10.55-9.08,10.57-9.35A1.16,1.16,0,0,0,907.51,662.52ZM734,673.52a28,28,0,0,0,8-1.8,9.74,9.74,0,0,0,.51,1.81,1.2,1.2,0,0,0,1.17.74,1.23,1.23,0,0,0,.64-.24,1.22,1.22,0,0,0,.37-1.41c-1.78-4.55,2.19-7.22,3.4-7.91a24.78,24.78,0,0,0,6.62.47c3.34-.2,4.34,0,8.54-2.07a1.17,1.17,0,1,0-1-2.13c-6.79,3.27-9.61,2.35-13.87,1.43a1.2,1.2,0,0,0-.47-.1,19.4,19.4,0,0,1-8.13-4,1.19,1.19,0,0,0-1.11-.27,11.91,11.91,0,0,1-14.12-6,1.2,1.2,0,0,0-.13-.21c-2.73-3.57-3.75-6.78-3-9.52a9,9,0,0,1,4.42-5.22,12.52,12.52,0,0,0,5.18,1h.09a1.18,1.18,0,0,0-.08-2.35,9.11,9.11,0,0,1-4.5-1l-.09-.05a2.26,2.26,0,0,1-1.16-1.55,1.18,1.18,0,0,0-2.35,0,4,4,0,0,0,.92,2.33,10.88,10.88,0,0,0-4.7,6.16c-.84,3.2.08,6.76,2.72,10.57a5.94,5.94,0,0,1-4.28,1.2,3.38,3.38,0,0,1-2.1-1.55,1.18,1.18,0,1,0-2.1,1.06,5.78,5.78,0,0,0,3.64,2.77c1.85.43,3.91-.08,6.14-1.52a14.15,14.15,0,0,0,15.56,6.19,22.33,22.33,0,0,0,6.43,3.42,8.91,8.91,0,0,0-3.17,5.3c-16.41,6.61-21.67-5.07-21.89-5.58a1.18,1.18,0,0,0-1.78-.49,1.23,1.23,0,0,0-.36,1.47C719.61,668.5,724.79,674.08,734,673.52Zm72.34-16c6-.75,10-2.66,12-5.7a7.82,7.82,0,0,0,1.24-3.41c2,1,5.53,1.62,11.06-.79,6.67-2.91,8-8.13,7.69-11.51,2.37-.18,6.3-1.48,11.63-3.88,9.48-4.27,9.27-12.74,7.82-16.67a1.21,1.21,0,0,0-1.26-.81,1.18,1.18,0,0,0-1,1.58,11.78,11.78,0,0,1,.6,3.51,7.92,7.92,0,0,0-3.83-1.22c-2.41-.09-4.78,1-7.05,3.14a1.16,1.16,0,0,0-.26,1.36,1.18,1.18,0,0,0,1.13.67,1.17,1.17,0,0,0,.75-.33c1.78-1.71,3.57-2.55,5.3-2.49a5.92,5.92,0,0,1,3.67,1.6c-.63,2.62-2.44,5.51-6.88,7.51-8.87,4-11.23,3.73-11.54,3.67a1.17,1.17,0,0,0-1.68,1.36c.08.28,1.85,6.9-6.06,10.35s-10.37-.1-10.46-.24a1.17,1.17,0,0,0-1.49-.44,1.18,1.18,0,0,0-.63,1.42,5.45,5.45,0,0,1-.79,4.37c-1.68,2.53-5.6,4.17-11.33,4.73a1.2,1.2,0,0,0-.81.44,1.24,1.24,0,0,0-.24.89,5.9,5.9,0,0,1-4,6,17.48,17.48,0,0,0-10.92,4.09c-4.07-11.16-15.34-9-15.46-9a1.18,1.18,0,0,0,.47,2.31c.41-.09,10-1.89,13.1,8.47a.77.77,0,0,0,.07.16A15.31,15.31,0,0,0,785.8,671c-1.25,2.34-2.37,7.5,2,10.79a15,15,0,0,0,8.64,11.67c-.56,1.82-2.23,5.74-6.17,6.07-2.45.19-4-2-4.69-4.08-.74-2.35-.44-4.79.66-5.5a1.25,1.25,0,0,0,.59-1.37,1.17,1.17,0,0,0-1.72-.69c-2.43,1.4-2.73,5.22-1.78,8.27,1.17,3.73,3.84,5.91,7,5.72h.14c6.88-.56,8.47-8.55,8.53-8.89a1.17,1.17,0,0,0-.74-1.32,12.72,12.72,0,0,1-8.17-10.6,1.15,1.15,0,0,0-.52-.9c-4.33-2.89-1.78-7.84-1.67-8,3.81-7.19,12-7.08,12.34-7.07a1.26,1.26,0,0,0,.47-.08A8.42,8.42,0,0,0,806.36,657.56Zm-36-27.07c-1.35-5.55-1.65-7.37,1.29-8.38a20.88,20.88,0,0,0,1.39,2.25,20.49,20.49,0,0,0,4.36,4.51,6.67,6.67,0,0,0-.89,5.14,14,14,0,0,0-1.41.27,1.17,1.17,0,1,0,.55,2.28s.59-.13,1.52-.26a1.17,1.17,0,0,0,1,.45,1.26,1.26,0,0,0,.28,0,1.15,1.15,0,0,0,.7-.61c4-.25,8.77-1.93,11.73,3.27a1.19,1.19,0,0,0,1.85.26,1.23,1.23,0,0,0,.16-1.49c-2.22-3.85-4.75-4-10.23-4.37a25.26,25.26,0,0,0-3.79,0c-.56-3.14.86-3.93.9-4a1.15,1.15,0,0,0,.69-1,1.18,1.18,0,0,0-.6-1.08c-.42-.24-10.47-6.06-8-20.34s17.47-15.61,18.12-15.67a1.17,1.17,0,1,0-.18-2.34,27.54,27.54,0,0,0-9.89,3.2c-.41-.4-1.66-2-.94-6.42.35-2.14,2.28-4.15,4.55-5.81a1.14,1.14,0,0,0,.55-.39,35,35,0,0,1,6.92-3.65,1.18,1.18,0,1,0-.8-2.21,38.55,38.55,0,0,0-7.32,3.82c-8.73-2.56-17.28,3.59-19.26,5.16-5.51-.66-11.58,1.3-17.6,5.7a45,45,0,0,0-7.7,7.1,1.16,1.16,0,0,0,.16,1.65,1.2,1.2,0,0,0,.82.27,1.21,1.21,0,0,0,.84-.43c.11-.14,11.42-13.75,23.65-11.89a1.19,1.19,0,0,0,.94-.27c.08-.07,7.76-6.54,15.73-5.41a10.7,10.7,0,0,0-3.8,6c-.75,4.56.3,6.92,1.23,8.06a19.6,19.6,0,0,0-8.12,12.11c-1.88-.17-6-.81-8.15-3.21a5.3,5.3,0,0,1-1.28-4.28c.78-7.93,3.25-10.28,3.26-10.29a1.18,1.18,0,1,0-1.53-1.79c-.32.28-3.19,3-4.07,11.85a7.67,7.67,0,0,0,1.86,6.08c2.61,2.92,7.22,3.74,9.5,4A23.44,23.44,0,0,0,770.67,620c-3,1.13-3.74,3.13-3.59,5.7-3.13.1-11,.69-14.3,4.17a4.64,4.64,0,0,0-1.31,3.51c0,.12,0,.24,0,.36a11.59,11.59,0,0,0-7.76,4c-2,2.52-2.53,6-1.68,10.24a10.44,10.44,0,0,0-6.39,2,9.42,9.42,0,0,0-3.32,7.06,1.17,1.17,0,0,0,1.09,1.25.43.43,0,0,0,.16,0,1.17,1.17,0,0,0,1.1-1.09,7.16,7.16,0,0,1,2.42-5.37c2.52-2,6.22-1.45,6.25-1.44a1.2,1.2,0,0,0,1.06-.37,1.18,1.18,0,0,0,.27-1.09c-1.13-4.26-.83-7.54.88-9.76,1.89-2.43,5.07-3,6.53-3.18a23,23,0,0,0,5.32,7.08,1.17,1.17,0,0,0,1.81-.3,1.21,1.21,0,0,0-.27-1.48c-1.44-1.31-5-5.2-5.14-8a2.32,2.32,0,0,1,.66-1.81c2.56-2.67,9.48-3.37,12.92-3.45.18,1,.43,2,.69,3,.37,1.55.8,3.3,1.16,5.25,1.49,7.94,0,9.76,0,9.78a.22.22,0,0,1,.08-.07l1.46,1.84c.62-.49,2.51-2.81.8-12C771.19,633.84,770.76,632.06,770.37,630.49Z"/><path class="cls-17" d="M772.43,648a3.41,3.41,0,1,1-3.41-3.41A3.41,3.41,0,0,1,772.43,648Z"/><path class="cls-17" d="M808.35,614.52a3.41,3.41,0,1,1-3.4-3.41A3.41,3.41,0,0,1,808.35,614.52Z"/><path class="cls-17" d="M849.09,650.57a3.41,3.41,0,1,1-3.41-3.41A3.41,3.41,0,0,1,849.09,650.57Z"/><path class="cls-17" d="M738,607.3a3.41,3.41,0,1,1-3.4-3.41A3.4,3.4,0,0,1,738,607.3Z"/><path class="cls-17" d="M883.78,618.76a3.41,3.41,0,1,1-3.41-3.41A3.41,3.41,0,0,1,883.78,618.76Z"/><path class="cls-17" d="M790.14,689.75a3.41,3.41,0,1,1-3.41-3.41A3.41,3.41,0,0,1,790.14,689.75Z"/><path class="cls-17" d="M911.88,648.3a3.41,3.41,0,1,1-3.41-3.41A3.41,3.41,0,0,1,911.88,648.3Z"/><path class="cls-17" d="M871.34,598.92a3.41,3.41,0,1,1-3.41-3.41A3.41,3.41,0,0,1,871.34,598.92Z"/><path class="cls-17" d="M837.2,579.34a3.41,3.41,0,1,1-3.41-3.4A3.41,3.41,0,0,1,837.2,579.34Z"/><path class="cls-17" d="M793.85,589.94a3.41,3.41,0,1,1-3.4-3.41A3.41,3.41,0,0,1,793.85,589.94Z"/><path class="cls-17" d="M808.93,657.26a3.41,3.41,0,1,1-3.41-3.41A3.41,3.41,0,0,1,808.93,657.26Z"/><path class="cls-17" d="M735.74,637.68a3.41,3.41,0,1,1-3.4-3.41A3.41,3.41,0,0,1,735.74,637.68Z"/></g></g></svg>