
<svg width="159px" height="41px" viewBox="0 0 159 41" version="1.1" xmlns="http://www.w3.org/2000/svg" xmlns:xlink="http://www.w3.org/1999/xlink">
    <g id="Page-1" stroke="none" stroke-width="1" fill="none" fill-rule="evenodd">
        <g id="Home-v2" transform="translate(-329.000000, -2880.000000)">
            <g id="Solutions-Technology-+-Facebook-Twitter-Ins-+-Company-+-2-+-x-+-Amp-X-logo-svg-+-Copyright-©-2020-AMP-Mask" transform="translate(0.000000, 2760.000000)">
                <g id="Amp-X-logo-svg" transform="translate(329.000000, 120.000000)">
                    <g id="amplogo" transform="translate(0.000000, 0.316667)" fill="#000000" fill-rule="nonzero">
                        <path d="M13.592608,0.263623188 C5.37316388,1.62231884 -0.486643863,8.80043478 0.031954326,16.9015942 C0.446774245,23.4131884 4.5952666,28.8224638 10.8440963,31.0528986 C12.3845,31.5133333 13.1219413,31.6668116 16.029785,31.6424638 C18.5578412,31.6214493 19.0015373,31.4694203 21.2933074,31.0272464 C22.3268393,30.7211594 22.8106982,30.5271014 23.0305674,30.3863768 L23.0305674,23.0543478 L21.8897393,23.925942 C20.0746457,25.2846377 18.5708868,25.746087 15.9002088,25.746087 C13.0480653,25.7205797 11.3108053,25.053913 9.21061459,23.08 C4.10261298,18.285942 5.45099759,10.0566667 11.8294035,7.08289855 C13.4109961,6.33942029 14.8001298,6.26246377 16.1595078,6.26246377 C17.3204173,6.26246377 18.907873,6.33942029 20.3080002,7.00594203 C22.0971493,7.87753623 24.0418192,9.69782609 24.8197165,11.2102899 C26.0124337,13.5175362 26.14201,14.7224638 26.14201,23.362029 L26.14201,31.5143478 L32.1315405,31.5143478 L32.0537068,22.0801449 L31.9760197,13.4407246 C31.9198798,12.7792754 31.5968186,11.6350725 31.2758096,10.7488406 C28.6052781,3.51942029 21.0340084,-0.966956522 13.592608,0.263623188 L13.592608,0.263623188 Z M104.18708,0.39173913 C99.7014546,1.34028986 95.5789068,4.54478261 93.4008824,8.74927536 C91.7931987,11.9024638 91.7414561,12.2871014 91.7414561,26.8228986 L91.7414561,39.9743478 L97.6790976,39.9743478 L97.7567847,26.8228986 C97.8346184,13.773913 97.8346184,13.6971014 98.4310503,12.2357971 C99.6755101,9.21072464 102.916675,6.69826087 106.209583,6.16 C110.513743,5.46768116 114.843847,7.72376812 116.814315,11.6973913 C117.462636,13.056087 117.540324,14.4552174 117.540324,15.876087 C117.540324,17.1778261 117.462636,18.696087 116.788371,20.106087 C114.817903,24.0542029 110.409965,26.3871014 106.235528,25.6436232 C104.498268,25.3615942 102.398077,24.3104348 101.438715,23.5157971 C101.146142,23.3017391 100.854449,23.0865217 100.563635,22.87 C100.563635,22.87 100.557186,24.6694203 100.557186,26.6178261 L100.557186,30.2068116 L102.035,30.7452174 C110.902619,34.0266667 120.52219,29.2071014 123.270555,20.106087 C123.918876,18.003913 123.918876,13.7482609 123.270555,11.646087 C120.807434,3.46811594 112.5361,-1.40275362 104.18708,0.39173913 L104.18708,0.39173913 Z M46.7811332,0.622463768 C42.9955716,1.64797101 39.5471429,4.41666667 37.7320492,7.85188406 C36.1245121,10.8771014 35.9949358,11.9794203 35.9949358,22.3365217 L35.9949358,31.5143478 L42.2178209,31.5143478 L42.2178209,22.1571014 C42.2178209,13.5431884 42.2695635,12.6972464 42.710328,11.517971 C43.4363361,9.64652174 44.7847207,8.15956522 46.6775015,7.15971014 C48.1554624,6.36507246 49.2512905,6.26246377 50.5149522,6.26246377 C51.4933702,6.26246377 52.9780737,6.39072464 53.9374364,6.82652174 C55.6487518,7.59550725 57.3860118,9.28753623 58.2156516,10.9795652 C58.6048201,11.7756522 58.9297868,12.7418841 58.9416598,13.1843478 L59.0194935,21.952029 L59.0973272,31.5143478 L65.0349686,31.5143478 L65.0349686,23.1056522 C65.0349686,14.6711594 65.216434,12.4152174 65.9943313,10.8771014 C66.772082,9.33884058 68.1204666,8.0057971 69.7539483,7.15971014 C71.2319092,6.36507246 72.3277373,6.26246377 73.591399,6.26246377 C74.569817,6.26246377 76.0545205,6.39072464 77.0138832,6.82652174 C78.7251986,7.59550725 80.4624586,9.28753623 81.2920984,10.9795652 C81.6389054,11.7002899 82.0285137,12.6210145 82.0181065,13.1843478 L82.0959402,21.952029 L82.1737739,31.5143478 L88.1114154,31.5143478 L88.1114154,21.952029 C88.1114154,11.4153623 88.0335817,10.7231884 86.4779337,7.82623188 C86.0371692,6.95463768 84.844452,5.44217391 83.8332002,4.44231884 C80.9291676,1.51971014 77.8177251,0.237971014 73.7209753,0.237971014 C69.6242255,0.237971014 66.6684503,1.36594203 63.6348414,4.10898551 L62.0012132,5.59594203 L60.6270306,4.2115942 C59.1232717,2.69898551 56.6859482,1.31463768 54.43009,0.648115942 C52.6929767,0.135362319 48.5962269,0.135362319 46.7811332,0.622463768 L46.7811332,0.622463768 Z" id="path26"></path>
                    </g>
                    <g id="x" transform="translate(123.000000, 2.316667)" fill="#E81D3D">
                        <path d="M2.85714286,1.28676471 L14.5714286,13.0106209 C14.9332857,13.5017361 14.8907143,13.9765523 14.5714286,14.4403595 L0.285714286,28.5947712 C-0.0692857143,28.9812296 -0.00628571429,29.6720792 0.714285714,29.7385621 L4.28571429,29.7385621 C4.71428571,29.7385621 5.14285714,29.5449755 5.57142857,29.1666667 L20.2857143,14.4403595 C20.5977143,14.0609069 20.6277143,13.2470997 20.2857143,12.8676471 L8.28571429,0.714869281 C7.995,0.426348039 7.54028571,0.0559027778 7,0 L3.28571429,0 C2.81771429,0.0287377451 2.28857143,0.753901144 2.85714286,1.28676471 Z" id="Path"></path>
                        <path d="M21.8571429,7.29166667 L28.4285714,0.714869281 C28.7794286,0.369587418 29.2212857,0.0203022876 29.8571429,0 L33.1428571,0 C33.9704286,0.0940767974 33.8534286,0.944628268 33.5714286,1.28676471 L24.7142857,10.0081699 C24.1428571,10.4921364 23.7142857,10.2329248 23.4285714,10.0081699 L21.8571429,8.43545752 C21.5865714,8.16466503 21.5865714,7.56245915 21.8571429,7.29166667 Z" id="Path"></path>
                        <path d="M21.8571429,20.4452614 L30.5714286,29.132067 C30.9222857,29.4773489 31.3641429,29.7182598 32,29.7385621 L35.2857143,29.7385621 C36.1132857,29.6444853 35.9962857,28.902308 35.7142857,28.5601716 L24.7142857,17.7287582 C24.1428571,17.2447917 23.7142857,17.5040033 23.4285714,17.7287582 L21.8571429,19.3014706 C21.5865714,19.5722631 21.5865714,20.174469 21.8571429,20.4452614 Z" id="Path"></path>
                    </g>
                </g>
            </g>
        </g>
    </g>
</svg>