
<svg width="653px" height="536px" viewBox="0 0 653 536" version="1.1" xmlns="http://www.w3.org/2000/svg" xmlns:xlink="http://www.w3.org/1999/xlink">
    <g id="Page-1" stroke="none" stroke-width="1" fill="none" fill-rule="evenodd" opacity="0.0246930804">
        <g id="Contact" transform="translate(-1267.000000, -4619.000000)" fill="#151C32">
            <g id="Solutions-Technology-+-Facebook-Twitter-Ins-+-Company-+-2-+-x-+-Amp-X-logo-svg-+-Copyright-©-2020-AMP-Mask-Copy-2" transform="translate(-2.000000, 4619.000000)">
                <g id="Solutions-Technology-+-Facebook-Twitter-Ins-+-Company-+-2-+-x-+-Amp-X-logo-svg-+-Copyright-©-2020-AMP-Mask-Copy">
                    <g id="x" transform="translate(1269.000000, -35.000000)">
                        <path d="M53.3104346,25.3467949 L277.793715,250.058333 C284.728058,259.471554 283.912253,268.572372 277.793715,277.462179 L4.03361703,548.760256 C-2.7693214,556.167516 -1.56203937,569.409054 12.24642,570.683333 L80.6864444,570.683333 C88.8992473,570.683333 97.1120502,566.972853 105.324853,559.721795 L387.297754,277.462179 C393.276674,270.189199 393.851571,254.590929 387.297754,247.317949 L157.339272,14.3852564 C151.768254,8.85516026 143.05447,1.75482372 132.700863,0.683333333 L61.5232375,0.683333333 C52.5548567,1.23415064 42.4147827,15.1333814 53.3104346,25.3467949 Z" id="Path"></path>
                        <path d="M416.898768,140.385258 L543.152435,14.3796004 C549.893283,7.76430341 558.38247,1.07230732 570.598885,0.683333333 L633.725718,0.683333333 C649.625446,2.48576208 647.377582,18.7815807 641.959653,25.3366141 L471.791667,192.431072 C460.813087,201.703445 452.579152,196.737179 447.089862,192.431072 L416.898768,162.299285 C411.700411,157.111139 411.700411,145.573404 416.898768,140.385258 Z" id="Path"></path>
                        <path d="M417.882135,392.896308 L584.591208,559.080679 C591.303298,565.68615 599.756268,570.294937 611.920564,570.683333 L674.778083,570.683333 C690.609979,568.883582 688.371705,554.685236 682.97689,548.139939 L472.540847,340.927793 C461.609105,331.669192 453.410298,336.628083 447.944427,340.927793 L417.882135,371.014828 C412.705955,376.195269 412.705955,387.715868 417.882135,392.896308 Z" id="Path"></path>
                    </g>
                </g>
            </g>
        </g>
    </g>
</svg>